<svg xmlns="http://www.w3.org/2000/svg" width="1024" height="1024" viewBox="0 0 1024 1024">
  <title>Artboard 23</title>
  <g style="isolation: isolate">
    <g>
      <rect width="1024" height="1024" fill="#fb3600"/>
      <g style="mix-blend-mode: multiply">
        <path d="M484.477,700.4c-54.129,9.254-129.541,9.254-183.67,0V600.011c-75.412,16.655-154.061,13.417-222.071,4.163-4.627-132.317-4.627-163.314,0-295.631,54.129-9.253,129.541-9.253,183.67,0V545.418l38.4-.463V373.313c62.92-9.252,123.527-9.252,183.67,0C489.1,482.5,489.1,591.221,484.477,700.4Z" fill="#000001"/>
        <path d="M935.094,304.379a946.612,946.612,0,0,1,0,161.927L694.98,438.547v43.488c161-18.968,253.53-12.028,253.53,95.306,0,123.063-51.354,132.779-185.059,132.779-130,0-236.875-17.58-240.113-17.58a791.228,791.228,0,0,1,0-148.047c54.129,19.894,133.242,23.132,180.894,23.132,39.325,0,65.233-18.043,59.219-52.741Q650.333,535.7,523.338,528.763a1792.916,1792.916,0,0,1,0-223C664.908,291.426,793.523,290.963,935.094,304.379Z" fill="#000001"/>
      </g>
      <g>
        <path d="M370.479,260.222l2.817,96.47h4.753l16.372-96.47c23.237-5.282,211.952-5.282,235.189,0l16.372,96.47h4.753l2.818-96.47c25.525-5.282,196.989-5.282,222.514,0-5.632,49.643-13.026,99.463-22.18,149.106-30.455,5.281-298.389,5.281-328.844,0l-10.915-78.162H509.9l-10.915,78.162c-30.455,5.281-298.388,5.281-328.843,0-9.155-49.643-16.548-99.463-22.181-149.106C173.489,254.94,344.953,254.94,370.479,260.222Z" fill="#fff"/>
        <path d="M370.479,432.222l2.817,96.47h4.753l16.372-96.47c23.237-5.282,211.952-5.282,235.189,0l16.372,96.47h4.753l2.818-96.47c25.525-5.282,196.989-5.282,222.514,0-5.632,49.643-13.026,99.463-22.18,149.106-30.455,5.281-298.389,5.281-328.844,0l-10.915-78.162H509.9l-10.915,78.162c-30.455,5.281-298.388,5.281-328.843,0-9.155-49.643-16.548-99.463-22.181-149.106C173.489,426.94,344.953,426.94,370.479,432.222Z" fill="#fff"/>
        <path d="M150.6,604.222c24.118-3.521,206.672-3.521,230.79,0,1.76,50.876,1.76,98.231,0,149.106-24.118,3.522-206.672,3.522-230.79,0C148.844,702.453,148.844,655.1,150.6,604.222Z" fill="#fff"/>
        <path d="M396.7,604.222c24.117-3.521,206.672-3.521,230.789,0,1.761,50.876,1.761,98.231,0,149.106-24.117,3.522-206.672,3.522-230.789,0C394.938,702.453,394.938,655.1,396.7,604.222Z" fill="#fff"/>
        <path d="M642.793,604.222c24.117-3.521,206.672-3.521,230.789,0,1.761,50.876,1.761,98.231,0,149.106-24.117,3.522-206.672,3.522-230.789,0C641.032,702.453,641.032,655.1,642.793,604.222Z" fill="#fff"/>
      </g>
      <g style="mix-blend-mode: multiply">
        <path d="M484.477,700.4c-54.129,9.254-129.541,9.254-183.67,0V600.011c-75.412,16.655-154.061,13.417-222.071,4.163-4.627-132.317-4.627-163.314,0-295.631,54.129-9.253,129.541-9.253,183.67,0V545.418l38.4-.463V373.313c62.92-9.252,123.527-9.252,183.67,0C489.1,482.5,489.1,591.221,484.477,700.4Z" fill="#a2e4fd"/>
        <path d="M935.094,304.379a946.612,946.612,0,0,1,0,161.927L694.98,438.547v43.488c161-18.968,253.53-12.028,253.53,95.306,0,123.063-51.354,132.779-185.059,132.779-130,0-236.875-17.58-240.113-17.58a791.228,791.228,0,0,1,0-148.047c54.129,19.894,133.242,23.132,180.894,23.132,39.325,0,65.233-18.043,59.219-52.741Q650.333,535.7,523.338,528.763a1792.916,1792.916,0,0,1,0-223C664.908,291.426,793.523,290.963,935.094,304.379Z" fill="#a2e4fd"/>
      </g>
    </g>
  </g>
</svg>
