<svg xmlns="http://www.w3.org/2000/svg" width="480" height="144" viewBox="0 0 480 144">
  <title>logo-type-color</title>
  <g>
    <g>
      <path d="M7.3,44.16C7.153,23.581,15.924,8.815,48.021,8.812c12.23-.495,21.749-.634,26.185-.482a2.58,2.58,0,0,1,2.583,3.085c-.73,7.641-1.527,15.429-2.294,23.186a4.119,4.119,0,0,1-4.37,3.942c-14.95-1.863-32.381-3.276-32.34,5.621-.041,8.966,17.39,7.559,32.34,5.7A4.12,4.12,0,0,1,74.5,53.8c.767,7.758,1.564,15.546,2.294,23.186a2.58,2.58,0,0,1-2.583,3.085c-4.436.152-13.955.015-26.185-.482C15.922,79.589,7.159,64.825,7.3,44.16Z" fill="#fab900"/>
      <path d="M157.142,79.8c-8.978-.476-18.315-1.479-27.54-2.766a4.09,4.09,0,0,1-3.7-3.753q-.163-7.5-.244-15.009a3.744,3.744,0,0,0-3.738-3.681h-.3a3.743,3.743,0,0,0-3.737,3.681q-.081,7.5-.245,15.009a4.089,4.089,0,0,1-3.7,3.753C104.719,78.325,95.382,79.329,86.4,79.8a2.613,2.613,0,0,1-2.851-3.293,209.571,209.571,0,0,0-.081-65.229A2.608,2.608,0,0,1,86.5,8.011c8.983,1,18.139,1.961,27.243,2.767a4.1,4.1,0,0,1,3.889,3.774q.224,10.068.3,20.134a3.706,3.706,0,0,0,3.7,3.675h.3a3.706,3.706,0,0,0,3.7-3.675q.072-10.066.3-20.134a4.1,4.1,0,0,1,3.889-3.774c9.1-.806,18.261-1.768,27.243-2.767a2.608,2.608,0,0,1,3.03,3.271,209.6,209.6,0,0,0-.081,65.229A2.613,2.613,0,0,1,157.142,79.8Z" fill="#fab900"/>
      <path d="M169.214,8.577a553.876,553.876,0,0,0,67.407-.011,2.2,2.2,0,0,1,2.407,2.6c-.548,6.029-1.3,12.188-2.164,18.34a3.874,3.874,0,0,1-3.615,3.476c-9.974-.151-19.982-.478-30.038-1.157a3.147,3.147,0,0,0-3.4,3.135v.16a3.179,3.179,0,0,0,3.269,3.157q8.378-.255,16.765-.683a3.038,3.038,0,0,1,3.192,2.846,47.679,47.679,0,0,1,0,7.689,3.035,3.035,0,0,1-3.192,2.844q-8.389-.441-16.768-.688a3.18,3.18,0,0,0-3.27,3.157v.007a3.147,3.147,0,0,0,3.4,3.135c10.056-.679,20.066-1,30.039-1.154a3.877,3.877,0,0,1,3.617,3.476c.865,6.14,1.614,12.287,2.163,18.3a2.21,2.21,0,0,1-2.446,2.6,544.108,544.108,0,0,0-67.368-.02,2.255,2.255,0,0,1-2.446-2.8,241.893,241.893,0,0,0,0-65.613A2.257,2.257,0,0,1,169.214,8.577Z" fill="#fab900"/>
      <path d="M248.133,8.577a553.876,553.876,0,0,0,67.407-.011,2.2,2.2,0,0,1,2.407,2.6c-.548,6.029-1.3,12.188-2.164,18.34a3.875,3.875,0,0,1-3.616,3.476c-9.973-.151-19.981-.478-30.037-1.157a3.147,3.147,0,0,0-3.4,3.135v.16A3.179,3.179,0,0,0,282,38.273q8.377-.255,16.764-.683a3.039,3.039,0,0,1,3.193,2.846,47.679,47.679,0,0,1,0,7.689,3.036,3.036,0,0,1-3.192,2.844q-8.389-.441-16.768-.688a3.18,3.18,0,0,0-3.27,3.157v.007a3.147,3.147,0,0,0,3.4,3.135c10.057-.679,20.065-1,30.039-1.154a3.876,3.876,0,0,1,3.616,3.476c.865,6.14,1.616,12.287,2.164,18.3a2.211,2.211,0,0,1-2.447,2.6,544.092,544.092,0,0,0-67.367-.02,2.255,2.255,0,0,1-2.446-2.8,241.893,241.893,0,0,0,0-65.613A2.257,2.257,0,0,1,248.133,8.577Z" fill="#fab900"/>
      <path d="M323.484,76.647c.573-6.762,1.311-13.654,2.122-20.5.312-2.626,2.774-4.382,4.979-3.584,8.326,2.925,18.749,2.9,25.4,2.9a19.111,19.111,0,0,0,2.852-.227c4.5-.709,3.527-7.412-.963-7.013-21.84,2.023-33.135-.087-34.159-18.373-1.256-15.008,5.318-21.8,38.194-20.977,12.168.011,26.338,0,32.268-.171a2.532,2.532,0,0,1,2.721,2.949c-.579,6.813-1.32,13.75-2.129,20.607-.311,2.626-2.778,4.378-4.986,3.576-8.26-2.911-18.625-2.892-25.4-2.887a18.549,18.549,0,0,0-3.081.269c-4.489.786-3.52,7.419.968,7.017,22.04-2.049,33.586-.215,34.612,18.325,1.26,15.012-5.483,21.773-38.363,20.979-12.277,0-26.448-.068-32.349.062A2.532,2.532,0,0,1,323.484,76.647Z" fill="#fab900"/>
      <path d="M405.286,8.577a553.876,553.876,0,0,0,67.407-.011,2.2,2.2,0,0,1,2.407,2.6c-.548,6.029-1.3,12.188-2.164,18.34a3.875,3.875,0,0,1-3.615,3.476c-9.974-.151-19.982-.478-30.038-1.157a3.147,3.147,0,0,0-3.4,3.135v.16a3.179,3.179,0,0,0,3.269,3.157q8.378-.255,16.764-.683a3.038,3.038,0,0,1,3.193,2.846,47.679,47.679,0,0,1,0,7.689,3.036,3.036,0,0,1-3.192,2.844q-8.389-.441-16.768-.688a3.179,3.179,0,0,0-3.27,3.157v.007a3.147,3.147,0,0,0,3.4,3.135c10.057-.679,20.065-1,30.039-1.154a3.876,3.876,0,0,1,3.616,3.476c.866,6.14,1.615,12.287,2.164,18.3a2.211,2.211,0,0,1-2.447,2.6,544.092,544.092,0,0,0-67.367-.02,2.255,2.255,0,0,1-2.446-2.8,241.893,241.893,0,0,0,0-65.613A2.257,2.257,0,0,1,405.286,8.577Z" fill="#fab900"/>
    </g>
    <g>
      <path d="M6.618,133.844c0-4.64.232-9.323.656-13.979a2.686,2.686,0,0,1,3.46-2.422c6.019,2.171,13.479,2.309,18.239,2.307a14.092,14.092,0,0,0,1.514-.086c3.308-.374,2.714-5.353-.583-5.071-15.319,1.34-23.568-.473-23.915-12.684-.428-9.915,4.976-15.884,27.16-15.6,8.253,0,17.97.648,22.1.888a2.148,2.148,0,0,1,2.078,2.219c-.005,4.677-.235,9.395-.658,14.062a2.685,2.685,0,0,1-3.465,2.418c-5.971-2.162-13.388-2.3-18.235-2.3a13.341,13.341,0,0,0-1.807.125,2.556,2.556,0,0,0,.587,5.076c15.544-1.388,24.021.221,24.37,12.639.429,9.916-5.09,15.873-27.275,15.6-8.328,0-18.052-.709-22.168-.978A2.149,2.149,0,0,1,6.618,133.844Z" fill="#fab900"/>
      <path d="M120,136.224a144.71,144.71,0,0,1-24.009-1.145,1.8,1.8,0,0,1-1.559-1.578q-.225-2.283-.438-4.565a1.767,1.767,0,0,0-1.759-1.583q-1.821-.006-3.642,0a1.769,1.769,0,0,0-1.761,1.6q-.2,2.269-.4,4.542a1.8,1.8,0,0,1-1.561,1.59,144.561,144.561,0,0,1-23.995,1.142A1.488,1.488,0,0,1,59.6,134.09c5.78-16.048,9.521-30.953,13.663-44.955a1.554,1.554,0,0,1,1.408-1.095,276.809,276.809,0,0,1,31.581,0,1.55,1.55,0,0,1,1.406,1.1c4.137,14,7.832,28.912,13.608,44.959A1.486,1.486,0,0,1,120,136.224ZM92.975,116.371q-.454-5.68-.881-11.358a1.71,1.71,0,0,0-1.712-1.576h0a1.71,1.71,0,0,0-1.712,1.582q-.409,5.677-.839,11.358a1.706,1.706,0,0,0,1.707,1.835h1.734A1.7,1.7,0,0,0,92.975,116.371Z" fill="#fab900"/>
      <path d="M128.208,87.185a102.867,102.867,0,0,1,18.507,1.008,3.1,3.1,0,0,1,2.393,1.8c2.829,6.444,5.411,12.826,8.009,19.228a.815.815,0,0,0,.756.508h0a.82.82,0,0,0,.819-.819q.022-8.971.192-17.942a3.074,3.074,0,0,1,2.743-2.9,102.929,102.929,0,0,1,17.542-.895,2.407,2.407,0,0,1,2.382,2.673,328.621,328.621,0,0,0,0,43.675,2.381,2.381,0,0,1-2.315,2.667,108.977,108.977,0,0,1-18.556-1.015,3.12,3.12,0,0,1-2.414-1.805c-2.835-6.5-5.418-12.943-8.02-19.4a.816.816,0,0,0-.757-.511h0a.822.822,0,0,0-.819.82q-.023,9.07-.193,18.14a3.038,3.038,0,0,1-2.664,2.884,109.8,109.8,0,0,1-17.689.891,2.38,2.38,0,0,1-2.315-2.667,328.456,328.456,0,0,0,0-43.664A2.408,2.408,0,0,1,128.208,87.185Z" fill="#fab900"/>
      <path d="M188.456,89.718a2.412,2.412,0,0,1,2.233-2.654c3.788-.356,11.983-.8,22.808-.709,20.886-.189,28.949,11.783,28.9,25.289.05,13.563-8.009,25.535-28.9,25.346-10.792.088-19.008-.357-22.806-.711a2.413,2.413,0,0,1-2.235-2.654A396.243,396.243,0,0,0,188.456,89.718Zm24.105,27.787c5-.013,8.5-1.852,8.49-5.8,0-3.9-3.491-5.793-8.49-5.805-.132,0-.263,0-.394,0a2.829,2.829,0,0,0-2.775,2.851q.009,2.951,0,5.9a2.828,2.828,0,0,0,2.776,2.85C212.3,117.5,212.429,117.505,212.561,117.505Z" fill="#fab900"/>
      <path d="M270.13,90.634c.821,9.063,1.262,18.119,1.372,27.169a.733.733,0,0,0,.74.729h.116a.776.776,0,0,0,.753-.633c1.7-9.216,3.039-18.394,4.327-27.552a2.739,2.739,0,0,1,2.27-2.3,37.679,37.679,0,0,1,15.254,0,2.74,2.74,0,0,1,2.27,2.3c1.288,9.158,2.627,18.336,4.328,27.552a.774.774,0,0,0,.753.633h.114a.735.735,0,0,0,.741-.729c.11-9.05.551-18.106,1.372-27.169a3.264,3.264,0,0,1,2.7-2.822,80.33,80.33,0,0,1,21.366-.906,2.384,2.384,0,0,1,2,3.184,218.626,218.626,0,0,0-6.365,43.566,2.372,2.372,0,0,1-2.222,2.293,127.642,127.642,0,0,1-28.182-.737,3.01,3.01,0,0,1-2.594-2.452c-1.144-7.192-2.155-14.378-3.158-21.563a.751.751,0,0,0-.743-.647h-.008a.752.752,0,0,0-.743.647c-1,7.185-2.014,14.371-3.157,21.563a3.013,3.013,0,0,1-2.594,2.452,127.651,127.651,0,0,1-28.183.737,2.372,2.372,0,0,1-2.222-2.293,218.646,218.646,0,0,0-6.365-43.567,2.383,2.383,0,0,1,2-3.183,80.372,80.372,0,0,1,21.366.906A3.261,3.261,0,0,1,270.13,90.634Z" fill="#fab900"/>
      <path d="M338.639,86.913c6.109.287,12.292.287,18.4,0a2.315,2.315,0,0,1,2.573,2.41c-.156,14.817-.156,29.882,0,44.7a2.314,2.314,0,0,1-2.573,2.411c-6.11-.288-12.293-.287-18.4,0a2.314,2.314,0,0,1-2.573-2.411c.156-14.816.156-29.881,0-44.7A2.314,2.314,0,0,1,338.639,86.913Z" fill="#fab900"/>
      <path d="M366.246,111.644c-.051-13.566,7.455-25.328,28.969-25.328a136.271,136.271,0,0,1,17.786.7,2.384,2.384,0,0,1,2.153,2.5c-.076,5.088-.328,10.221-.725,15.346a3.022,3.022,0,0,1-3.332,2.872c-10.693-1.466-22.977-2.462-22.963,3.9-.014,6.416,12.27,5.425,22.963,3.959a3.022,3.022,0,0,1,3.332,2.872c.4,5.125.65,10.258.725,15.345a2.385,2.385,0,0,1-2.153,2.5,136.261,136.261,0,0,1-17.786.7C373.7,137.028,366.2,125.267,366.246,111.644Z" fill="#fab900"/>
      <path d="M472.2,136.139a118.227,118.227,0,0,1-18.537-.925,2.9,2.9,0,0,1-2.612-2.763q-.054-5.286-.082-10.571a2.763,2.763,0,0,0-2.762-2.742h0a2.765,2.765,0,0,0-2.762,2.742q-.027,5.286-.082,10.571a2.9,2.9,0,0,1-2.611,2.763,118.24,118.24,0,0,1-18.538.925,2.317,2.317,0,0,1-2.316-2.558,356.551,356.551,0,0,0-.029-44.222,2.305,2.305,0,0,1,2.427-2.56c6.08.163,12.217.485,18.337.928a2.888,2.888,0,0,1,2.728,2.777q.075,7.119.1,14.239a2.751,2.751,0,0,0,2.747,2.74h0a2.752,2.752,0,0,0,2.748-2.74q.024-7.12.1-14.239a2.888,2.888,0,0,1,2.728-2.777c6.119-.444,12.257-.766,18.336-.928a2.3,2.3,0,0,1,2.428,2.56,356.551,356.551,0,0,0-.029,44.222A2.318,2.318,0,0,1,472.2,136.139Z" fill="#fab900"/>
    </g>
  </g>
</svg>
