<svg xmlns="http://www.w3.org/2000/svg" xmlns:xlink="http://www.w3.org/1999/xlink" width="965" height="386.405" viewBox="0 0 965 386.405">
  <defs>
    <clipPath id="a">
      <polygon points="642.986 -461.187 964.118 -349.846 964.118 -700.846 642.986 -700.846 642.986 -461.187" fill="none"/>
    </clipPath>
    <clipPath id="b">
      <rect x="1" y="-307.397" width="468" height="263.843" fill="none"/>
    </clipPath>
  </defs>
  <title>spec-goiters-comic-p4</title>
  <g>
    <g clip-path="url(#a)">
      <circle cx="1106.955" cy="14.247" r="592.071" fill="#fab900" stroke="#fb3600" stroke-miterlimit="10" stroke-width="2"/>
    </g>
    <g clip-path="url(#b)">
      <g>
        <polygon points="436.207 -168.369 426.223 -150.672 434.016 -131.233 423.663 -114.786 413.525 -99.346 416.452 -78.19 402.002 -65.189 387.792 -53.26 387.732 -29.452 373.461 -16.869 357.988 -5.97 339.878 0.458 323.779 9.227 308.732 21.051 289.169 20.776 272.874 32.38 253.252 24.737 235.35 36.113 216.798 31.846 197.666 33.248 183.085 15.304 166.438 9.519 146.658 9.753 132.492 -2.238 115.186 -9.244 97.829 -17.518 91.482 -37.221 83.226 -53.503 60.36 -60.018 51.645 -76.893 51.378 -97.1 43.238 -113.708 40.3 -131.904 36.243 -149.918 39.044 -168.369 31.635 -187.242 45.71 -203.829 48.557 -221.521 46.75 -241.434 56.437 -257.456 60.927 -276.372 72.366 -291.452 83.454 -306.844 105.226 -311.114 111.736 -332.059 130.593 -337.566 143.689 -352.445 161.861 -358.066 179.084 -366.131 198.145 -367.403 217.351 -362.544 235.35 -372.936 253.975 -369.374 270.927 -358.641 290.738 -363.037 305.944 -350.596 322.701 -343.803 336.18 -331.233 356.397 -328.661 369.943 -316.01 379.885 -300.126 390.92 -285.842 397.69 -268.872 417.724 -259.181 421.356 -240.428 431.764 -224.252 433.195 -205.354 432.82 -186.671 436.207 -168.369" fill="#a2e4fd"/>
        <polygon points="436.207 -168.369 426.223 -150.672 434.016 -131.233 423.663 -114.786 413.525 -99.346 416.452 -78.19 402.002 -65.189 387.792 -53.26 387.732 -29.452 373.461 -16.869 357.988 -5.97 339.878 0.458 323.779 9.227 308.732 21.051 289.169 20.776 272.874 32.38 253.252 24.737 235.35 36.113 216.798 31.846 197.666 33.248 183.085 15.304 166.438 9.519 146.658 9.753 132.492 -2.238 115.186 -9.244 97.829 -17.518 91.482 -37.221 83.226 -53.503 60.36 -60.018 51.645 -76.893 51.378 -97.1 43.238 -113.708 40.3 -131.904 36.243 -149.918 39.044 -168.369 31.635 -187.242 45.71 -203.829 48.557 -221.521 46.75 -241.434 56.437 -257.456 60.927 -276.372 72.366 -291.452 83.454 -306.844 105.226 -311.114 111.736 -332.059 130.593 -337.566 143.689 -352.445 161.861 -358.066 179.084 -366.131 198.145 -367.403 217.351 -362.544 235.35 -372.936 253.975 -369.374 270.927 -358.641 290.738 -363.037 305.944 -350.596 322.701 -343.803 336.18 -331.233 356.397 -328.661 369.943 -316.01 379.885 -300.126 390.92 -285.842 397.69 -268.872 417.724 -259.181 421.356 -240.428 431.764 -224.252 433.195 -205.354 432.82 -186.671 436.207 -168.369" fill="none" stroke="#fb3600" stroke-miterlimit="10" stroke-width="2"/>
      </g>
    </g>
    <g>
      <g>
        <polygon points="962.043 305.432 920.531 298.824 884.114 305.777 847.695 300.581 811.28 295.363 774.861 302.454 738.447 292.076 702.032 308.19 665.618 298.666 629.203 306.263 592.786 306.264 556.365 298.579 519.948 306.085 483.529 308.252 447.111 292.936 410.693 291.873 374.274 292.992 337.853 301.221 301.431 304.234 265.015 307.376 228.597 307.256 192.176 294.442 155.754 299.119 119.33 301.064 82.907 307.686 46.48 305.028 13.27 297.044 17.093 264.199 14.898 228.105 12.042 192.007 5.904 155.908 18.682 119.808 6.858 83.709 17.17 47.604 14.939 16.43 46.469 5.368 82.886 19.896 119.305 2.999 155.72 16.416 192.139 3.363 228.553 2.159 264.968 19.047 301.382 9.049 337.797 16.792 374.214 4.111 410.635 17.636 447.052 7.39 483.471 16.414 519.889 6.797 556.307 9.493 592.726 10.513 629.147 2.276 665.569 19.503 701.985 13.637 738.403 16.544 774.824 15.018 811.246 20.863 847.67 12.45 884.093 16.805 920.52 9.105 951.745 16.752 958.62 47.593 953.389 83.687 947.857 119.785 966.361 155.884 954.166 191.984 958.708 228.084 957.464 264.154 962.043 305.432" fill="#fb3600"/>
        <polygon points="962.043 305.432 920.531 298.824 884.114 305.777 847.695 300.581 811.28 295.363 774.861 302.454 738.447 292.076 702.032 308.19 665.618 298.666 629.203 306.263 592.786 306.264 556.365 298.579 519.948 306.085 483.529 308.252 447.111 292.936 410.693 291.873 374.274 292.992 337.853 301.221 301.431 304.234 265.015 307.376 228.597 307.256 192.176 294.442 155.754 299.119 119.33 301.064 82.907 307.686 46.48 305.028 13.27 297.044 17.093 264.199 14.898 228.105 12.042 192.007 5.904 155.908 18.682 119.808 6.858 83.709 17.17 47.604 14.939 16.43 46.469 5.368 82.886 19.896 119.305 2.999 155.72 16.416 192.139 3.363 228.553 2.159 264.968 19.047 301.382 9.049 337.797 16.792 374.214 4.111 410.635 17.636 447.052 7.39 483.471 16.414 519.889 6.797 556.307 9.493 592.726 10.513 629.147 2.276 665.569 19.503 701.985 13.637 738.403 16.544 774.824 15.018 811.246 20.863 847.67 12.45 884.093 16.805 920.52 9.105 951.745 16.752 958.62 47.593 953.389 83.687 947.857 119.785 966.361 155.884 954.166 191.984 958.708 228.084 957.464 264.154 962.043 305.432" fill="none" stroke="#fb3600" stroke-miterlimit="10" stroke-width="2"/>
      </g>
      <g>
        <path d="M23.938,86.846a204.634,204.634,0,0,1,61.5,0l24.478,60.11h3.873V86.846a204.647,204.647,0,0,1,61.505,0c1.549,43.688,1.549,87.532,0,131.22-18.126,3.1-43.379,3.1-61.5,0L89.314,157.491H85.441v60.575c-18.126,3.1-43.378,3.1-61.5,0C22.389,174.378,22.389,130.534,23.938,86.846Z" fill="#fab900"/>
        <path d="M185.677,153.618c0-41.984,26.956-71.884,82.263-71.884,55.618,0,82.729,29.9,82.729,71.884,0,41.055-27.111,70.644-82.729,70.644C212.633,224.262,185.677,194.673,185.677,153.618ZM268.4,167.406c12.859,0,21.844-4.493,21.844-14.408,0-9.76-8.985-14.407-21.844-14.407-13.478,0-22.308,4.647-22.308,14.407C246.1,162.913,254.927,167.406,268.4,167.406Z" fill="#fab900"/>
        <path d="M358.416,153.618c0-41.984,26.956-71.884,82.264-71.884,55.617,0,82.728,29.9,82.728,71.884,0,41.055-27.111,70.644-82.728,70.644C385.372,224.262,358.416,194.673,358.416,153.618Zm82.729,13.788c12.858,0,21.843-4.493,21.843-14.408,0-9.76-8.985-14.407-21.843-14.407-13.479,0-22.309,4.647-22.309,14.407C418.836,162.913,427.666,167.406,441.145,167.406Z" fill="#fab900"/>
        <path d="M531.155,153.618c0-41.984,26.956-71.884,82.264-71.884,55.617,0,82.728,29.9,82.728,71.884,0,41.055-27.111,70.644-82.728,70.644C558.111,224.262,531.155,194.673,531.155,153.618Zm82.729,13.788c12.858,0,21.844-4.493,21.844-14.408,0-9.76-8.986-14.407-21.844-14.407-13.479,0-22.309,4.647-22.309,14.407C591.575,162.913,600.405,167.406,613.884,167.406Z" fill="#fab900"/>
        <path d="M703.9,153.618c0-41.984,26.956-71.884,82.263-71.884,55.617,0,82.729,29.9,82.729,71.884,0,41.055-27.112,70.644-82.729,70.644C730.851,224.262,703.9,194.673,703.9,153.618Zm82.728,13.788c12.858,0,21.844-4.493,21.844-14.408,0-9.76-8.986-14.407-21.844-14.407-13.478,0-22.309,4.647-22.309,14.407C764.314,162.913,773.145,167.406,786.623,167.406Z" fill="#fab900"/>
        <path d="M878.183,78.79c19.055-2.169,46.477-2.169,65.067,0l-4.492,88.616H882.676Zm0,120.995c0-16.267,12.7-23.084,31.6-23.084s32.069,6.817,32.069,23.084c0,16.577-13.168,23.393-32.069,23.393S878.183,216.362,878.183,199.785Z" fill="#fab900"/>
      </g>
      <path d="M588.752,53.827a51.635,51.635,0,0,1,3.134-9.734,5.432,5.432,0,0,0,3.577-2.15,3.338,3.338,0,0,0-.126-3.978,3.7,3.7,0,0,0-3.632-.85,2.462,2.462,0,0,0-.794-3.424,4.02,4.02,0,0,0-4.768,1.508,2.994,2.994,0,0,0-4.119-3.062c-1.885,1.011-1.908,4.742.073,5.549a76.3,76.3,0,0,0-8.788,14.939C578.528,52.6,584.093,51.93,588.752,53.827Z" fill="#fb3600" stroke="#a2e4fd" stroke-linecap="round" stroke-linejoin="round" stroke-width="2"/>
      <path d="M622.793,89.449l19.045-9.2,1.622,6.668-16.908.095" fill="#fb3600" stroke="#a2e4fd" stroke-linecap="round" stroke-linejoin="round" stroke-width="2"/>
      <g>
        <g>
          <path d="M839.194,156.3l-4.247,1.841c-2.6,1.126-3.083,5.774-1.085,10.382s5.722,7.43,8.319,6.3l4.248-1.841c2.6-1.126,3.083-5.774,1.085-10.382S841.791,155.17,839.194,156.3Z" fill="#fb3600" stroke="#a2e4fd" stroke-linecap="round" stroke-linejoin="round" stroke-width="2"/>
          <ellipse cx="842.812" cy="164.639" rx="5.125" ry="9.093" transform="translate(4.058 348.84) rotate(-23.44)" fill="#fb3600" stroke="#a2e4fd" stroke-linecap="round" stroke-linejoin="round" stroke-width="2"/>
        </g>
        <g>
          <path d="M843.294,154.518l-4.247,1.842c-2.6,1.126-3.083,5.774-1.086,10.382s5.723,7.43,8.32,6.3l4.247-1.842c2.6-1.126,3.083-5.774,1.085-10.381S845.891,153.392,843.294,154.518Z" fill="#fb3600" stroke="#a2e4fd" stroke-linecap="round" stroke-linejoin="round" stroke-width="2"/>
          <ellipse cx="846.911" cy="162.861" rx="5.125" ry="9.093" transform="translate(5.104 350.324) rotate(-23.44)" fill="#fb3600" stroke="#a2e4fd" stroke-linecap="round" stroke-linejoin="round" stroke-width="2"/>
        </g>
        <g>
          <path d="M847.393,152.741l-4.247,1.842c-2.6,1.126-3.083,5.774-1.085,10.381s5.722,7.43,8.319,6.3l4.248-1.841c2.6-1.126,3.083-5.774,1.085-10.382S849.99,151.615,847.393,152.741Z" fill="#fb3600" stroke="#a2e4fd" stroke-linecap="round" stroke-linejoin="round" stroke-width="2"/>
          <ellipse cx="851.01" cy="161.084" rx="5.125" ry="9.093" transform="translate(6.149 351.808) rotate(-23.44)" fill="#fb3600" stroke="#a2e4fd" stroke-linecap="round" stroke-linejoin="round" stroke-width="2"/>
        </g>
        <g>
          <path d="M851.493,150.964l-4.247,1.841c-2.6,1.126-3.083,5.774-1.086,10.382s5.723,7.43,8.32,6.3l4.247-1.841c2.6-1.126,3.083-5.774,1.085-10.382S854.09,149.838,851.493,150.964Z" fill="#fb3600" stroke="#a2e4fd" stroke-linecap="round" stroke-linejoin="round" stroke-width="2"/>
          <ellipse cx="855.11" cy="159.307" rx="5.125" ry="9.093" transform="translate(7.194 353.292) rotate(-23.44)" fill="#fb3600" stroke="#a2e4fd" stroke-linecap="round" stroke-linejoin="round" stroke-width="2"/>
        </g>
        <g>
          <path d="M855.592,149.186l-4.247,1.842c-2.6,1.126-3.083,5.774-1.085,10.381s5.722,7.431,8.319,6.305l4.248-1.842c2.6-1.126,3.082-5.774,1.085-10.381S858.189,148.06,855.592,149.186Z" fill="#fb3600" stroke="#a2e4fd" stroke-linecap="round" stroke-linejoin="round" stroke-width="2"/>
          <ellipse cx="859.209" cy="157.529" rx="5.125" ry="9.093" transform="translate(8.239 354.776) rotate(-23.44)" fill="#fb3600" stroke="#a2e4fd" stroke-linecap="round" stroke-linejoin="round" stroke-width="2"/>
        </g>
        <path d="M866.441,139.407l-6.422,2.785c-3.927,1.7-4.662,8.731-1.641,15.7s8.653,11.235,12.58,9.532l6.422-2.784c3.927-1.7,4.662-8.731,1.641-15.7S870.368,137.705,866.441,139.407Z" fill="#fb3600" stroke="#a2e4fd" stroke-linecap="round" stroke-linejoin="round" stroke-width="2"/>
        <ellipse cx="871.911" cy="152.023" rx="7.75" ry="13.75" transform="translate(11.478 359.374) rotate(-23.44)" fill="#fb3600" stroke="#a2e4fd" stroke-linecap="round" stroke-linejoin="round" stroke-width="2"/>
      </g>
      <g>
        <g>
          <path d="M308.823,112.065l2.839,1.278c1.735.781,4.266-1.081,5.652-4.16s1.1-6.209-.632-6.99l-2.838-1.278c-1.736-.782-4.266,1.081-5.653,4.16S307.088,111.284,308.823,112.065Z" fill="#fb3600" stroke="#a2e4fd" stroke-linecap="round" stroke-linejoin="round" stroke-width="2"/>
          <ellipse cx="311.334" cy="106.49" rx="6.114" ry="3.446" transform="translate(86.414 346.656) rotate(-65.76)" fill="#fb3600" stroke="#a2e4fd" stroke-linecap="round" stroke-linejoin="round" stroke-width="2"/>
        </g>
        <g>
          <path d="M306.084,110.832l2.838,1.277c1.736.782,4.266-1.081,5.653-4.16s1.1-6.208-.632-6.99L311.1,99.681c-1.735-.781-4.266,1.082-5.652,4.161S304.348,110.05,306.084,110.832Z" fill="#fb3600" stroke="#a2e4fd" stroke-linecap="round" stroke-linejoin="round" stroke-width="2"/>
          <ellipse cx="308.594" cy="105.256" rx="6.114" ry="3.446" transform="translate(85.923 343.431) rotate(-65.76)" fill="#fb3600" stroke="#a2e4fd" stroke-linecap="round" stroke-linejoin="round" stroke-width="2"/>
        </g>
        <g>
          <path d="M303.344,109.6l2.839,1.278c1.735.781,4.266-1.081,5.652-4.16s1.1-6.209-.632-6.99l-2.838-1.278c-1.736-.782-4.266,1.081-5.653,4.16S301.609,108.817,303.344,109.6Z" fill="#fb3600" stroke="#a2e4fd" stroke-linecap="round" stroke-linejoin="round" stroke-width="2"/>
          <ellipse cx="305.855" cy="104.023" rx="6.114" ry="3.446" transform="translate(85.433 340.206) rotate(-65.76)" fill="#fb3600" stroke="#a2e4fd" stroke-linecap="round" stroke-linejoin="round" stroke-width="2"/>
        </g>
        <g>
          <path d="M300.605,108.365l2.838,1.278c1.736.781,4.266-1.082,5.653-4.161s1.1-6.208-.632-6.99l-2.839-1.278c-1.735-.781-4.266,1.082-5.652,4.161S298.869,107.583,300.605,108.365Z" fill="#fb3600" stroke="#a2e4fd" stroke-linecap="round" stroke-linejoin="round" stroke-width="2"/>
          <ellipse cx="303.115" cy="102.79" rx="6.114" ry="3.446" transform="translate(84.943 336.981) rotate(-65.76)" fill="#fb3600" stroke="#a2e4fd" stroke-linecap="round" stroke-linejoin="round" stroke-width="2"/>
        </g>
        <g>
          <path d="M297.865,107.131l2.839,1.278c1.735.782,4.266-1.081,5.652-4.16s1.1-6.209-.632-6.99l-2.838-1.278c-1.736-.782-4.266,1.081-5.653,4.16S296.13,106.35,297.865,107.131Z" fill="#fb3600" stroke="#a2e4fd" stroke-linecap="round" stroke-linejoin="round" stroke-width="2"/>
          <ellipse cx="300.376" cy="101.556" rx="6.114" ry="3.446" transform="translate(84.453 333.756) rotate(-65.76)" fill="#fb3600" stroke="#a2e4fd" stroke-linecap="round" stroke-linejoin="round" stroke-width="2"/>
        </g>
        <path d="M288.092,106.165l4.292,1.932c2.624,1.182,6.451-1.635,8.547-6.291s1.669-9.388-.956-10.569L295.684,89.3c-2.625-1.181-6.451,1.635-8.548,6.291S285.468,104.983,288.092,106.165Z" fill="#fb3600" stroke="#a2e4fd" stroke-linecap="round" stroke-linejoin="round" stroke-width="2"/>
        <ellipse cx="291.888" cy="97.735" rx="9.245" ry="5.211" transform="translate(82.935 323.764) rotate(-65.76)" fill="#fb3600" stroke="#a2e4fd" stroke-linecap="round" stroke-linejoin="round" stroke-width="2"/>
      </g>
      <polygon points="672.674 132.128 739.173 86.927 752.207 98.425 786.113 80.407 786.548 58.675 834.792 42.594 844.788 99.096 746.127 157.771 672.674 132.128" fill="#fb3600" stroke="#a2e4fd" stroke-linecap="round" stroke-linejoin="round" stroke-width="2"/>
      <polygon points="233.893 158.64 221.476 195.352 255.488 202.37 270.064 173.217 295.438 170.518 318.653 133.267 253.868 126.788 233.893 158.64" fill="#fb3600" stroke="#a2e4fd" stroke-linecap="round" stroke-linejoin="round" stroke-width="2"/>
      <polygon points="346.186 90.617 348.885 103.433 378.038 95.476 346.186 90.617" fill="#fb3600" stroke="#a2e4fd" stroke-linecap="round" stroke-linejoin="round" stroke-width="2"/>
      <polygon points="171.808 98.175 147.514 85.758 147.514 98.715 171.808 98.175" fill="#fb3600" stroke="#a2e4fd" stroke-linecap="round" stroke-linejoin="round" stroke-width="2"/>
      <line x1="22.971" y1="265.169" x2="179.098" y2="181.436" fill="none" stroke="#a2e4fd" stroke-linecap="round" stroke-linejoin="round" stroke-width="2"/>
      <line x1="109.321" y1="186.669" x2="213.987" y2="139.569" fill="none" stroke="#a2e4fd" stroke-linecap="round" stroke-linejoin="round" stroke-width="2"/>
      <line x1="387.559" y1="125.614" x2="295.104" y2="242.491" fill="none" stroke="#a2e4fd" stroke-linecap="round" stroke-linejoin="round" stroke-width="2"/>
      <line x1="374.476" y1="211.091" x2="347.437" y2="265.169" fill="none" stroke="#a2e4fd" stroke-linecap="round" stroke-linejoin="round" stroke-width="2"/>
      <line x1="241.898" y1="225.047" x2="202.648" y2="255.575" fill="none" stroke="#fab900" stroke-linecap="round" stroke-linejoin="round" stroke-width="2"/>
      <line x1="668.414" y1="154.397" x2="750.402" y2="218.941" fill="none" stroke="#fab900" stroke-linecap="round" stroke-linejoin="round" stroke-width="2"/>
      <line x1="776.569" y1="197.136" x2="879.491" y2="254.702" fill="none" stroke="#a2e4fd" stroke-linecap="round" stroke-linejoin="round" stroke-width="2"/>
      <line x1="857.685" y1="71.536" x2="919.613" y2="93.342" fill="none" stroke="#a2e4fd" stroke-linecap="round" stroke-linejoin="round" stroke-width="2"/>
      <line x1="615.208" y1="31.414" x2="697.197" y2="70.664" fill="none" stroke="#a2e4fd" stroke-linecap="round" stroke-linejoin="round" stroke-width="2"/>
      <line x1="312.548" y1="36.647" x2="214.859" y2="74.153" fill="none" stroke="#a2e4fd" stroke-linecap="round" stroke-linejoin="round" stroke-width="2"/>
      <line x1="25.588" y1="149.164" x2="104.087" y2="117.764" fill="none" stroke="#fb3600" stroke-linecap="round" stroke-linejoin="round" stroke-width="2"/>
      <line x1="61.349" y1="175.33" x2="159.91" y2="129.975" fill="none" stroke="#fb3600" stroke-linecap="round" stroke-linejoin="round" stroke-width="2"/>
      <line x1="47.393" y1="88.108" x2="150.315" y2="51.475" fill="none" stroke="#a2e4fd" stroke-linecap="round" stroke-linejoin="round" stroke-width="2"/>
      <line x1="177.354" y1="66.303" x2="244.515" y2="36.647" fill="none" stroke="#fab900" stroke-linecap="round" stroke-linejoin="round" stroke-width="2"/>
      <line x1="24.715" y1="54.964" x2="94.493" y2="38.392" fill="none" stroke="#a2e4fd" stroke-linecap="round" stroke-linejoin="round" stroke-width="2"/>
      <line x1="529.731" y1="30.542" x2="588.169" y2="71.536" fill="none" stroke="#fab900" stroke-linecap="round" stroke-linejoin="round" stroke-width="2"/>
      <line x1="896.063" y1="32.286" x2="945.78" y2="43.625" fill="none" stroke="#fab900" stroke-linecap="round" stroke-linejoin="round" stroke-width="2"/>
      <line x1="868.152" y1="199.753" x2="938.802" y2="236.386" fill="none" stroke="#a2e4fd" stroke-linecap="round" stroke-linejoin="round" stroke-width="2"/>
      <line x1="882.108" y1="122.997" x2="935.313" y2="143.058" fill="none" stroke="#fb3600" stroke-linecap="round" stroke-linejoin="round" stroke-width="2"/>
      <line x1="907.402" y1="170.969" x2="949.268" y2="191.903" fill="none" stroke="#a2e4fd" stroke-linecap="round" stroke-linejoin="round" stroke-width="2"/>
      <polygon points="291.552 286.646 305.552 313.313 304.885 331.979 322.219 311.979 322.885 291.313 291.552 286.646" fill="#fb3600"/>
    </g>
  </g>
</svg>
