<svg xmlns="http://www.w3.org/2000/svg" xmlns:xlink="http://www.w3.org/1999/xlink" width="1135.205" height="142.61" viewBox="0 0 1135.205 142.61">
  <defs>
    <clipPath id="a">
      <rect x="-1552.398" y="-117.246" width="1024" height="1024" fill="none"/>
    </clipPath>
    <clipPath id="b">
      <polygon points="-881.411 153.413 -560.279 264.754 -560.279 -86.246 -881.411 -86.246 -881.411 153.413" fill="none"/>
    </clipPath>
  </defs>
  <title>spec-goiters-sexy-cat</title>
  <g>
    <g clip-path="url(#a)">
      <g clip-path="url(#b)">
        <circle cx="-417.443" cy="628.847" r="592.071" fill="#fab900" stroke="#fb3600" stroke-miterlimit="10" stroke-width="2"/>
      </g>
    </g>
    <g>
      <path d="M612.336,76.462c-.115,4.768-1.642,9.422-1.719,14.191s1.852,10.128,6.292,11.87a12,12,0,0,0,6.176.41c11.367-1.73,20.111-11.221,25.291-21.486a26.5,26.5,0,0,0,3.132-9.645,11.971,11.971,0,0,0-3.032-9.414c-2.148-2.151-5.2-3.1-8.145-3.839a10.565,10.565,0,0,0-4.183-.43,11.207,11.207,0,0,0-4.889,2.64L616.426,72.344" fill="#fab900" stroke="#fb3600" stroke-miterlimit="10" stroke-width="2"/>
      <path d="M685.769,86.254c2.667,20,22,39.334,29,40.667s29-1.333,48.667-8.333c7.666,4,16,5.666,6.333-7-2-3.667-23-5.667-23-5.667s8.043-8.5,10.248-12.026c13.452-8.6,15-12.128,8.159-11.908a93.722,93.722,0,0,0-13.452,1.544l-9.7,6.174s13.232-19.626,7.939-34.843-32.417-23.6-55.352,1.985S685.769,86.254,685.769,86.254Z" fill="#fab900" stroke="#fb3600" stroke-miterlimit="10" stroke-width="2"/>
      <g>
        <path d="M771.987,120c-1.624,0-4.561-1.027-7.858-2.746a1.5,1.5,0,0,0-1.2-.083c-.289.1-.579.2-.869.305a21.054,21.054,0,0,0-.342-7.733c6.024,1.39,6.7,2.507,6.732,2.56a1.558,1.558,0,0,0,.124.191c4.342,5.689,4.079,7.287,4.038,7.439h0a2.678,2.678,0,0,1-.623.067Z" fill="#fb3600"/>
        <path d="M763.608,111.775a11.823,11.823,0,0,1,3.641,1.44c.043.066.088.13.135.193a31.5,31.5,0,0,1,3.2,4.877,27.7,27.7,0,0,1-5.764-2.357,2.98,2.98,0,0,0-1.089-.325,23.281,23.281,0,0,0-.126-3.828m-4.192-4.047c1.643,3.424,1.679,8.181.69,12q1.673-.549,3.33-1.135c3.179,1.659,6.474,2.916,8.551,2.916,2.932,0,3.44-2.5-2.218-9.916-.885-1.623-5.492-2.919-10.353-3.86Z" fill="#fab900"/>
        <path d="M769.769,111.588c-.885-1.623-5.492-2.919-10.353-3.86,1.643,3.424,1.679,8.181.69,12q1.673-.549,3.33-1.135C771.1,122.588,779.436,124.254,769.769,111.588Z" fill="none" stroke="#fb3600" stroke-linecap="round" stroke-linejoin="round" stroke-width="2"/>
      </g>
      <g>
        <path d="M755.1,94.045a17.037,17.037,0,0,0-6.277-6.889l3.467-2.206a92.874,92.874,0,0,1,12.937-1.464c.183-.006.36-.009.53-.009a6.5,6.5,0,0,1,1.792.184c-.392.76-2.275,3.176-11.338,8.971a1.49,1.49,0,0,0-.465.47Q755.492,93.5,755.1,94.045Z" fill="#fb3600"/>
        <path d="M764.265,85.026a77.483,77.483,0,0,1-8.864,6.342l-.11.074a18.677,18.677,0,0,0-3.748-4.24l1.3-.831a92.908,92.908,0,0,1,11.417-1.345m1.49-3.049c-.186,0-.378,0-.579.01a93.722,93.722,0,0,0-13.452,1.544l-6.318,4.02c4.354.65,7.517,5,9.4,9.311a32.776,32.776,0,0,0,2.208-2.967c13.058-8.348,14.894-11.918,8.738-11.918Z" fill="#fab900"/>
        <path d="M754.809,96.862a32.776,32.776,0,0,0,2.208-2.967c13.452-8.6,15-12.128,8.159-11.908a93.722,93.722,0,0,0-13.452,1.544l-6.318,4.02C749.76,88.2,752.923,92.555,754.809,96.862Z" fill="none" stroke="#fb3600" stroke-linecap="round" stroke-linejoin="round" stroke-width="2"/>
      </g>
      <path d="M695.131,60.9s-4.318-15.418-32.172-23.839c-22.717.712-27.035,13.971-26.418,21.989s16.035,37,49.955,26.519" fill="#fab900" stroke="#fb3600" stroke-miterlimit="10" stroke-width="2"/>
      <path d="M657.2,77.855s8.017,11.718,22.2,1.542" fill="#fab900" stroke="#fb3600" stroke-miterlimit="10" stroke-width="2"/>
      <path d="M639.117,65.367a95.7,95.7,0,0,1-.889,18.347s8.017,11.718,22.2,1.542" fill="#fab900" stroke="#fb3600" stroke-miterlimit="10" stroke-width="2"/>
      <g>
        <path d="M620.911,79.26A12.313,12.313,0,0,1,613.8,77l3.607-9.963A1.5,1.5,0,0,0,616,65.021a1.387,1.387,0,0,0-.192.013,2.284,2.284,0,0,1-.276.019,1.333,1.333,0,0,1-.975-.411,1.828,1.828,0,0,1-.631-1.7,1.709,1.709,0,0,1,2.011-1.277,1.683,1.683,0,0,1,.306.1,1.5,1.5,0,0,0,1.291-.071,1.5,1.5,0,0,0,.756-1.048,1.294,1.294,0,0,0,.018-.139,1.711,1.711,0,0,1,2.012-1.271,1.7,1.7,0,0,1,1.111.794,1.5,1.5,0,0,0,.979.691,1.541,1.541,0,0,0,.3.03,1.5,1.5,0,0,0,.869-.277,1.707,1.707,0,0,1,2.678,1.672c-.014.039-.026.079-.036.118a1.5,1.5,0,0,0,1.452,1.879h.034a1.829,1.829,0,0,1,.374.03,1.713,1.713,0,0,1,1.277,2.224,1.333,1.333,0,0,1-.515.615,2.4,2.4,0,0,1-1.26.538,1.327,1.327,0,0,1-.575-.156,1.5,1.5,0,0,0-2.136,1.29l-.46,10.065A12.269,12.269,0,0,1,620.911,79.26Z" fill="#fb3600"/>
        <path d="M619.812,60.5h0m.155.2.047.005a.2.2,0,0,1,.132.1,3,3,0,0,0,4.3.887.236.236,0,0,1,.145-.043h.016a.216.216,0,0,1,.171.193l-.015.054a3.013,3.013,0,0,0,.579,2.6,3.049,3.049,0,0,0,2.377,1.138h.055a.208.208,0,0,1,.142.1.211.211,0,0,1,.025.065,2.622,2.622,0,0,1-.344.206,3,3,0,0,0-4.227,2.6l-.409,8.946a10.8,10.8,0,0,1-7.345-1.189l3.2-8.831A3,3,0,0,0,616,63.521a2.935,2.935,0,0,0-.384.025l-.031,0-.014-.013a1.257,1.257,0,0,1-.186-.241h0a.222.222,0,0,1,.231-.161h0a.46.46,0,0,1,.052.019,3,3,0,0,0,4.1-2.259l.012-.074a.221.221,0,0,1,.188-.119m0-3a3.215,3.215,0,0,0-3.144,2.565c-.008.038,0,.075-.011.113a3.2,3.2,0,0,0-.574-.18,3.209,3.209,0,0,0-3.773,2.395,3.315,3.315,0,0,0,1.073,3.15,2.827,2.827,0,0,0,1.99.808,3.646,3.646,0,0,0,.469-.032l-3.98,10.989a13.791,13.791,0,0,0,13.428,2.483l.418-.145.507-11.094a2.813,2.813,0,0,0,1.213.3,3.7,3.7,0,0,0,2.124-.812,2.8,2.8,0,0,0,1.077-1.374,3.214,3.214,0,0,0-2.4-4.16,3.153,3.153,0,0,0-.637-.062h-.073c.011-.045.032-.085.041-.131a3.213,3.213,0,0,0-2.5-3.8,3.145,3.145,0,0,0-.642-.066,3.222,3.222,0,0,0-1.864.6,3.2,3.2,0,0,0-2.09-1.484,3.246,3.246,0,0,0-.653-.067Z" fill="#fab900"/>
        <path d="M613.538,65.745a2.865,2.865,0,0,0,2.459.776l-3.98,10.989h0a13.792,13.792,0,0,0,13.428,2.483l.418-.145.507-11.094c.838.394,1.83.549,3.337-.514a2.8,2.8,0,0,0,1.077-1.374,3.2,3.2,0,0,0-3.111-4.221c.011-.045.032-.085.041-.131a3.205,3.205,0,0,0-5-3.261,3.205,3.205,0,0,0-5.887,1.014c-.007.038,0,.075-.011.113a3.193,3.193,0,0,0-4.347,2.215A3.313,3.313,0,0,0,613.538,65.745Z" fill="none" stroke="#fb3600" stroke-linecap="round" stroke-linejoin="round" stroke-width="2"/>
      </g>
      <path d="M684.82,53.563c6.749-1.642,12.021-7.182,15.992-12.881a14.106,14.106,0,0,0,10.132,10.37c3.723.9,7.193-3.633,11.019-3.775a68.758,68.758,0,0,0-6.6-20.921c-1.25-2.484-2.782-5.022-5.255-6.294-2.6-1.339-5.723-1.012-8.6-.492A79.668,79.668,0,0,0,685.582,24.2a83.12,83.12,0,0,0-18.37,10.245" fill="#fab900" stroke="#fb3600" stroke-miterlimit="10" stroke-width="2"/>
      <g>
        <path d="M716.9,65.72A1.3,1.3,0,0,1,715.63,64.7c0-.035,0-.069-.009-.1a1.5,1.5,0,0,0-2.067-1.2,1.332,1.332,0,0,1-.28.087,1.3,1.3,0,0,1-1.536-1.219,1.016,1.016,0,0,1,.191-.552c.536-.821.862-.821,1.078-.821,0,0,.179.007.21.007a1.5,1.5,0,0,0,1.418-1.99l-2.832-8.2a10.55,10.55,0,0,1,8.779-1.916l.282,9.113a1.5,1.5,0,0,0,2.227,1.265,1.115,1.115,0,0,1,.547-.167,1.228,1.228,0,0,1,.437.092,1.406,1.406,0,0,1,.94,1.025,1.3,1.3,0,0,1-1.067,1.473,1.283,1.283,0,0,1-.222.016,1.542,1.542,0,0,0-1.2.571,1.509,1.509,0,0,0-.3,1.277c0,.018.011.043.019.07a1.311,1.311,0,0,1-1.07,1.455,1.341,1.341,0,0,1-.224.02,1.306,1.306,0,0,1-.789-.271,1.507,1.507,0,0,0-.9-.3,1.45,1.45,0,0,0-.262.023,1.5,1.5,0,0,0-1,.662,1.287,1.287,0,0,1-.863.582A1.325,1.325,0,0,1,716.9,65.72Z" fill="#fb3600"/>
        <path d="M718.23,50.029h0c.3,0,.6.015.891.044l.244,7.881a3,3,0,0,0,1.53,2.509,2.947,2.947,0,0,0,.887.33,2.946,2.946,0,0,0-.421.422,3,3,0,0,0-.671,2.081,3,3,0,0,0-3.678.647,3.009,3.009,0,0,0-2.117-2.059,3,3,0,0,0,1.158-3.467L713.6,51.305a9.058,9.058,0,0,1,4.635-1.276m5.615,10.442h0M718.23,47.029a12.054,12.054,0,0,0-7.891,2.941l-.292.253,3.17,9.174c-.07,0-.141-.007-.211-.007a2.66,2.66,0,0,0-2.333,1.5,2.438,2.438,0,0,0-.431,1.464,2.81,2.81,0,0,0,2.8,2.647,2.752,2.752,0,0,0,.492-.044,2.781,2.781,0,0,0,.6-.179c.006.04,0,.079.009.119A2.811,2.811,0,0,0,716.9,67.22a2.752,2.752,0,0,0,.492-.044,2.791,2.791,0,0,0,1.863-1.244,2.811,2.811,0,0,0,1.692.573,2.843,2.843,0,0,0,.484-.042,2.81,2.81,0,0,0,2.278-3.255c-.006-.033-.02-.063-.027-.1h.042a2.734,2.734,0,0,0,.482-.04A2.807,2.807,0,0,0,726.5,59.91a2.9,2.9,0,0,0-1.888-2.213,2.721,2.721,0,0,0-.974-.191,2.593,2.593,0,0,0-1.275.355l-.316-10.211a12.049,12.049,0,0,0-3.817-.621Z" fill="#fab900"/>
        <path d="M724.612,57.7a2.509,2.509,0,0,0-2.249.164l-.315-10.211h0a12.055,12.055,0,0,0-11.709,2.32l-.292.253,3.17,9.174a2.621,2.621,0,0,0-2.544,1.5,2.446,2.446,0,0,0-.432,1.464,2.809,2.809,0,0,0,3.294,2.6,2.781,2.781,0,0,0,.6-.179c.006.04,0,.079.009.119a2.8,2.8,0,0,0,5.118,1.033,2.8,2.8,0,0,0,4.454-2.724c-.006-.033-.02-.063-.027-.1a2.791,2.791,0,0,0,2.815-3.2A2.9,2.9,0,0,0,724.612,57.7Z" fill="none" stroke="#fb3600" stroke-linecap="round" stroke-linejoin="round" stroke-width="2"/>
      </g>
      <g>
        <path d="M672.547,44.289c-2,0-4.669-.418-6.086-2.407s-1.2-5.022.582-8.571a31.44,31.44,0,0,1,9.895-10.886c5.227-3.721,11.107-5.943,15.728-5.943,1.994,0,4.669.418,6.086,2.407,3.072,4.315-1.727,13.224-10.479,19.456C683.047,42.067,677.168,44.289,672.547,44.289Z" fill="#fb3600"/>
        <path d="M692.666,17.982h0c1.344,0,3.763.231,4.864,1.777,2.264,3.181-1.585,11.282-10.126,17.364-4.982,3.548-10.537,5.666-14.858,5.666-1.344,0-3.763-.231-4.864-1.777-2.264-3.181,1.585-11.282,10.126-17.364,4.982-3.548,10.537-5.666,14.858-5.666m0-3c-4.769,0-10.881,2.151-16.6,6.222-9.591,6.83-14.44,16.477-10.829,21.548,1.458,2.048,4.074,3.037,7.307,3.037,4.769,0,10.881-2.151,16.6-6.222,9.592-6.83,14.44-16.477,10.829-21.548-1.458-2.049-4.074-3.037-7.307-3.037Z" fill="#fab900"/>
        <ellipse cx="682.606" cy="30.385" rx="21.32" ry="11.271" transform="translate(108.936 401.568) rotate(-35.453)" fill="none" stroke="#fb3600" stroke-linecap="round" stroke-linejoin="round" stroke-width="2"/>
      </g>
      <path d="M628.6,25.754c-4-6-19-1-22,1-.832.555-2,9,6,14" fill="#a2e4fd" stroke="#fb3600" stroke-miterlimit="10" stroke-width="2"/>
      <path d="M675.8,28.526c5.525,12.954-4.411,29.6-22.192,37.185s-36.673,3.227-42.2-9.728c-3.079-7.222-1.354-15.592,3.857-22.9a37.995,37.995,0,0,1,4.565-5.271,43.317,43.317,0,0,1,5.76-4.657A47.44,47.44,0,0,1,633.6,18.8C651.381,11.216,670.273,15.571,675.8,28.526Z" fill="#a2e4fd" stroke="#fb3600" stroke-miterlimit="10" stroke-width="2"/>
      <path d="M664.4,30.677c4.073,9.552-3.253,21.829-16.365,27.42s-27.042,2.379-31.115-7.173c-2.271-5.326-1-11.5,2.843-16.886a27.937,27.937,0,0,1,3.367-3.886,31.883,31.883,0,0,1,4.247-3.435,34.91,34.91,0,0,1,5.907-3.213C646.4,17.913,660.327,21.124,664.4,30.677Z" fill="#fff"/>
      <g>
        <path d="M634.357,43.793a4.922,4.922,0,0,0-9.055,3.861l-3.415-.837" fill="none" stroke="#fb3600" stroke-linecap="round" stroke-linejoin="round" stroke-width="2"/>
        <path d="M644.059,39.656a4.922,4.922,0,1,1,9.055-3.862l1.76-3.043" fill="none" stroke="#fb3600" stroke-linecap="round" stroke-linejoin="round" stroke-width="2"/>
      </g>
      <g>
        <path d="M647.153,46.063a4.658,4.658,0,0,0-5.814,2.073,4.656,4.656,0,0,0-5.52,2.76" fill="none" stroke="#fb3600" stroke-linecap="round" stroke-linejoin="round" stroke-width="2"/>
        <path d="M648.329,51.83a7.044,7.044,0,0,1-9.163,3.908" fill="none" stroke="#fb3600" stroke-linecap="round" stroke-linejoin="round" stroke-width="2"/>
        <line x1="640.66" y1="52.023" x2="644.615" y2="50.337" fill="none" stroke="#fb3600" stroke-linecap="round" stroke-linejoin="round" stroke-width="2"/>
      </g>
      <path d="M641.6,18.567c.192-9.182,12.818-13.774,12.818-13.774s9.182,5.74,9.182,14.922" fill="#a2e4fd" stroke="#fb3600" stroke-miterlimit="10" stroke-width="2"/>
      <circle cx="660.234" cy="42.409" r="6.237" fill="#fb3600"/>
      <path d="M701.885,68.755c-5.292,32.418,2.646,43.885,8.821,46.311s18.758,7.291,36.063-9.145" fill="none" stroke="#fb3600" stroke-linecap="round" stroke-miterlimit="10" stroke-width="2"/>
      <path d="M742.021,89.705c-4.411,6.616-9.042,12.35-9.042,12.35" fill="none" stroke="#fb3600" stroke-linecap="round" stroke-miterlimit="10" stroke-width="2"/>
      <path d="M626,79.844a16.476,16.476,0,0,1,3.293,8.414" fill="#fff" stroke="#fb3600" stroke-linecap="round" stroke-linejoin="round" stroke-width="2"/>
      <circle cx="626.067" cy="57.242" r="6.237" fill="#fb3600"/>
      <path d="M706.246,90.315c.309,4.8.723,9.893,3.567,13.775a4.877,4.877,0,0,0,3.659,2.331,4.6,4.6,0,0,0,2.693-1.1c2.313-1.768,3.731-4.434,5.079-7.015l3.507-6.714a16.56,16.56,0,0,0,1.47-3.419c.755-2.891-.11-5.978-1.456-8.646a5.853,5.853,0,0,0-2.172-2.636c-2.582-1.43-10.68-3.22-13.466-1.378C705.091,78.182,705.941,86.3,706.246,90.315Z" fill="#a2e4fd"/>
      <path d="M665.533,76.571a9.485,9.485,0,0,0,3.356-.4,7.771,7.771,0,0,0,2.426-1.622c1.669-1.518,3.166-3.466,3.279-5.719s-1.721-4.675-3.966-4.447c-2.792.283-8.74,3.689-10.375,6.18C656.908,75.655,661.056,76.571,665.533,76.571Z" fill="#a2e4fd"/>
      <path d="M643.621,79.353a3.786,3.786,0,0,1,2.342-4.009,9.266,9.266,0,0,1,4.948-.419,2.2,2.2,0,0,1,.814.21c.919.51.692,1.913.14,2.808a7.427,7.427,0,0,1-7.438,3.328" fill="#a2e4fd"/>
      <path d="M704.581,41.391a8.2,8.2,0,0,1,1.082-10.4,3.271,3.271,0,0,1,3.251-1,3.833,3.833,0,0,1,1.833,2.361,33.261,33.261,0,0,1,2.078,8.361,4.767,4.767,0,0,1-.619,3.6,3.465,3.465,0,0,1-3.931.7,10.149,10.149,0,0,1-3.329-2.631" fill="#a2e4fd"/>
    </g>
  </g>
</svg>
