<svg xmlns="http://www.w3.org/2000/svg" xmlns:xlink="http://www.w3.org/1999/xlink" width="470" height="266" viewBox="0 0 470 266">
  <defs>
    <clipPath id="a">
      <rect x="1" y="1.449" width="468" height="263.843" fill="none"/>
    </clipPath>
  </defs>
  <title>spec-goiters-comic-p2</title>
  <g>
    <rect x="1" y="1" width="468" height="264.292" fill="#fb3600"/>
    <g clip-path="url(#a)">
      <g>
        <polygon points="436.207 140.477 426.223 158.174 434.016 177.613 423.663 194.06 413.525 209.5 416.452 230.656 402.002 243.657 387.792 255.586 387.732 279.394 373.461 291.977 357.988 302.876 339.878 309.304 323.779 318.073 308.732 329.897 289.169 329.622 272.874 341.226 253.252 333.583 235.35 344.959 216.798 340.692 197.666 342.094 183.085 324.149 166.438 318.365 146.658 318.599 132.492 306.608 115.186 299.602 97.829 291.328 91.482 271.625 83.226 255.343 60.36 248.828 51.645 231.953 51.378 211.746 43.238 195.138 40.3 176.942 36.243 158.928 39.044 140.477 31.635 121.604 45.71 105.017 48.557 87.325 46.75 67.412 56.437 51.39 60.927 32.474 72.366 17.394 83.454 2.002 105.226 -2.268 111.736 -23.213 130.593 -28.721 143.689 -43.599 161.861 -49.22 179.084 -57.285 198.145 -58.557 217.351 -53.698 235.35 -64.09 253.975 -60.529 270.927 -49.795 290.738 -54.192 305.944 -41.75 322.701 -34.957 336.18 -22.387 356.397 -19.815 369.943 -7.164 379.885 8.72 390.92 23.004 397.69 39.974 417.724 49.664 421.356 68.418 431.764 84.594 433.195 103.492 432.82 122.175 436.207 140.477" fill="#a2e4fd"/>
        <polygon points="436.207 140.477 426.223 158.174 434.016 177.613 423.663 194.06 413.525 209.5 416.452 230.656 402.002 243.657 387.792 255.586 387.732 279.394 373.461 291.977 357.988 302.876 339.878 309.304 323.779 318.073 308.732 329.897 289.169 329.622 272.874 341.226 253.252 333.583 235.35 344.959 216.798 340.692 197.666 342.094 183.085 324.149 166.438 318.365 146.658 318.599 132.492 306.608 115.186 299.602 97.829 291.328 91.482 271.625 83.226 255.343 60.36 248.828 51.645 231.953 51.378 211.746 43.238 195.138 40.3 176.942 36.243 158.928 39.044 140.477 31.635 121.604 45.71 105.017 48.557 87.325 46.75 67.412 56.437 51.39 60.927 32.474 72.366 17.394 83.454 2.002 105.226 -2.268 111.736 -23.213 130.593 -28.721 143.689 -43.599 161.861 -49.22 179.084 -57.285 198.145 -58.557 217.351 -53.698 235.35 -64.09 253.975 -60.529 270.927 -49.795 290.738 -54.192 305.944 -41.75 322.701 -34.957 336.18 -22.387 356.397 -19.815 369.943 -7.164 379.885 8.72 390.92 23.004 397.69 39.974 417.724 49.664 421.356 68.418 431.764 84.594 433.195 103.492 432.82 122.175 436.207 140.477" fill="none" stroke="#fb3600" stroke-miterlimit="10" stroke-width="2"/>
      </g>
      <g>
        <circle cx="235" cy="218.024" r="12.098" fill="#fb3600"/>
        <g>
          <ellipse cx="213.422" cy="224.348" rx="12.098" ry="9.23" fill="#fb3600"/>
          <ellipse cx="210.207" cy="267.777" rx="9.903" ry="7.556" transform="translate(-105.428 395.317) rotate(-73.87)" fill="#fb3600"/>
          <ellipse cx="220.642" cy="256.893" rx="12.892" ry="9.836" transform="translate(-40.794 41.653) rotate(-9.877)" fill="#fb3600"/>
          <ellipse cx="206.276" cy="237.506" rx="9.903" ry="7.556" transform="translate(-98.884 161.109) rotate(-34.97)" fill="#fb3600"/>
          <ellipse cx="194.51" cy="243.766" rx="9.903" ry="6.376" fill="#fb3600"/>
          <ellipse cx="184.718" cy="243.766" rx="5.736" ry="5.11" fill="#fb3600"/>
        </g>
        <g>
          <ellipse cx="256.578" cy="224.348" rx="12.098" ry="9.23" fill="#fb3600"/>
          <ellipse cx="259.793" cy="267.777" rx="7.556" ry="9.903" transform="translate(-64.165 82.715) rotate(-16.13)" fill="#fb3600"/>
          <ellipse cx="249.358" cy="256.893" rx="9.836" ry="12.892" transform="translate(-46.499 458.491) rotate(-80.123)" fill="#fb3600"/>
          <ellipse cx="263.724" cy="237.506" rx="7.556" ry="9.903" transform="translate(-82.054 317.488) rotate(-55.03)" fill="#fb3600"/>
          <ellipse cx="275.49" cy="243.766" rx="9.903" ry="6.376" fill="#fb3600"/>
          <ellipse cx="285.282" cy="243.766" rx="5.736" ry="5.11" fill="#fb3600"/>
        </g>
        <ellipse cx="235" cy="232.236" rx="20.882" ry="15.881" fill="#fb3600"/>
        <ellipse cx="235" cy="244.588" rx="12.758" ry="9.703" fill="#fb3600"/>
        <polyline points="230.758 207.707 222.483 205.717 223.149 210.959 225.102 213.782" fill="#fb3600"/>
        <polyline points="238.195 206.974 245.212 203.832 244.898 209.592 243.746 213.154" fill="#fb3600"/>
      </g>
    </g>
    <path d="M268.675,182.075a2.919,2.919,0,0,0-.4-1.286,13.267,13.267,0,0,0-1.233-1.864h0a1.184,1.184,0,0,0-.1-.135c-.014-.016-.03-.03-.045-.046-.035-.036-.07-.071-.109-.1-.023-.02-.048-.038-.073-.056s-.071-.054-.109-.079l-.074-.046c-.022-.014-.043-.029-.066-.042s-.031-.016-.046-.024l-.057-.033c-.024-.013-.054-.024-.079-.036-.091-.046-.186-.09-.287-.133l-.123-.051c-.128-.05-.261-.1-.4-.146-.027-.009-.054-.019-.081-.027-.127-.042-.257-.082-.392-.121l-.078-.021-.172-.047c-.122-.032-.245-.064-.371-.095l-.111-.029-.111-.025-.195-.045-.279-.061-.206-.043c-.094-.02-.188-.039-.283-.057l-.081-.017h0c-1.468-.284-2.981-.477-3.844-.575.282-.3.656-.714,1.057-1.163s.848-.964,1.234-1.432c.125-.153.242-.3.354-.441l.019-.026c.068-.086.133-.171.195-.253l.074-.1c.041-.057.084-.114.122-.168s.085-.125.123-.185a29.026,29.026,0,0,0,3.277-2.354,5.925,5.925,0,0,0,.842-.867,1.377,1.377,0,0,0,.329-.8.716.716,0,0,0-.157-.452,1.076,1.076,0,0,0-.6-.34,3.489,3.489,0,0,0-.82-.081c-.07,0-.143,0-.218,0a33.859,33.859,0,0,0-4.879.56l-.066.013-1.031.656-1.229.782c.269-.487.58-1.091.892-1.779a17.1,17.1,0,0,0,1.678-6.776,8.922,8.922,0,0,0-.468-2.936c-1.087-3.109-4.519-5.4-8.746-5.4a12.127,12.127,0,0,0-1.8.141,25.035,25.035,0,0,0-1.87-5,8.443,8.443,0,0,0-.813-1.348,3.7,3.7,0,0,0-1.226-1.065,3.755,3.755,0,0,0-1.74-.378,8.807,8.807,0,0,0-1.532.161,2.581,2.581,0,0,0-.233-.4,2.736,2.736,0,0,0-1.228-.944,4.471,4.471,0,0,0-1.682-.3,11.256,11.256,0,0,0-6.156,2.3c-.318.227-.621.463-.911.705a8.29,8.29,0,0,0-2.195-1.677,9.83,9.83,0,0,0-.924-.426,5.865,5.865,0,0,0-.419-1.22,8.018,8.018,0,0,0-1.816-2.41,8.114,8.114,0,0,0-1.095-.865l-.148-.092-.164.059a10.845,10.845,0,0,0-2.358,1.28,7.094,7.094,0,0,0-1.659,1.627,4.569,4.569,0,0,0-.6,1.185,17.4,17.4,0,0,0-5.786,2.528,5.346,5.346,0,0,0-1.333-.154,12.005,12.005,0,0,0-3.251.531c-.5.148-.952.31-1.331.466a5.4,5.4,0,0,0-.888.446.493.493,0,0,0-.132.13.918.918,0,0,0-.11.222,2.948,2.948,0,0,0-.13.936,4.924,4.924,0,0,0,.5,2.131,5.206,5.206,0,0,0,1.4,1.747,8.705,8.705,0,0,0-.515,2.888,7.061,7.061,0,0,0,1.377,4.256,1.5,1.5,0,0,0-.441.747,1.354,1.354,0,0,0-.038.321,1.59,1.59,0,0,0,.528,1.155h0a1.394,1.394,0,0,0,.625.338l-1.169,3.23h0v.007l-.092.255a.355.355,0,0,0,.058.341c-.127,1.445-.552,2.921-.581,4.485,0,.034,0,.069,0,.1a6.094,6.094,0,0,0,.579,2.637,3.626,3.626,0,0,0,1.9,1.851,3.87,3.87,0,0,0,1.424.248,6.519,6.519,0,0,0,.974-.08,10.666,10.666,0,0,0,5.55-2.792,15.957,15.957,0,0,0,2.093-2.345,5.016,5.016,0,0,0,1.694.3,7,7,0,0,0,3.843-1.317,13.291,13.291,0,0,0,4.461.747,16.915,16.915,0,0,0,4.451-.627,21.39,21.39,0,0,0,4.651,9.727,23.062,23.062,0,0,0,3.283,3.36,11.494,11.494,0,0,0,1.468,1.034,4.146,4.146,0,0,0,1.239.511,9.669,9.669,0,0,0,1.727.125,41.244,41.244,0,0,0,7.038-.774,59.986,59.986,0,0,0,7.66-1.942h0q.528-.174,1.052-.359a13.3,13.3,0,0,0,1.588.7,4.78,4.78,0,0,0,1.5.32,1.272,1.272,0,0,0,.776-.217.849.849,0,0,0,.266-.334h0A1.032,1.032,0,0,0,268.675,182.075Z" fill="#fb3600"/>
    <rect x="1" y="1" width="468" height="264.292" fill="none" stroke="#fb3600" stroke-miterlimit="10" stroke-width="2"/>
    <polygon points="263.41 208.229 277.057 205.018 279.867 198.596 294.316 196.188 293.915 180.936 400.914 174.495 402.921 215.408 297.126 215.243 295.521 201.406 282.676 203.012 279.064 210.236 263.41 208.229" fill="#fff"/>
    <g>
      <path d="M315.951,190.716a4.9,4.9,0,0,1,4.7,2.983h.3l.364-2.588a12.937,12.937,0,0,1,3.476.083c0,.84.067,4.8.067,7.168,0,2.95-.429,6.131-6.922,6.131-2.686,0-5.439-.528-5.818-.841a16.879,16.879,0,0,1,0-3.147,14.071,14.071,0,0,0,5.554,1.219c2.356-.033,3.444-.742,3.362-2.554-4.465,1.071-9.377.148-9.377-4.1A3.97,3.97,0,0,1,315.951,190.716ZM321.076,198v-1.516c-.18-3.741-5.932-4.829-5.932-.89C315.144,198.659,319.2,198.692,321.076,198Z" fill="#fb3600"/>
      <path d="M327.093,197.061c0-4.252,2.917-6.23,6.9-6.23,4.12,0,5.537,1.22,5.537,3.478,0,3.361-4.6,4.5-9.063,3.509-.066,1.945,1.417,2.868,3.378,2.9a16.271,16.271,0,0,0,5.356-.873,14.2,14.2,0,0,1,0,2.9,30.307,30.307,0,0,1-5.6.544C328.46,203.29,327.093,200.027,327.093,197.061Zm3.345-.363c1.945.709,6.114.4,6.114-1.78,0-1.417-1-1.829-2.522-1.8-1.977.049-3.476,1-3.576,3.181Z" fill="#fb3600"/>
      <path d="M345.583,195.5l-.05,7.416a11.627,11.627,0,0,1-3.543,0c-.1-4.2-.1-7.63.017-11.816a8.706,8.706,0,0,1,3.064,0l.364,2.785h.345c.3-2.01,2.307-3.148,4.5-2.785a11.316,11.316,0,0,1,0,2.8A13.259,13.259,0,0,0,345.583,195.5Z" fill="#fb3600"/>
      <path d="M352.158,191.1a14.437,14.437,0,0,1,3.477-.082l.363,2.933h.28a4.893,4.893,0,0,1,4.3-2.983c3.2,0,5.026,2.521,4.977,6.246-.066,3.246-1.978,5.833-5.043,5.833a4.057,4.057,0,0,1-4.153-2.636h-.3l-.181,4.037a16.2,16.2,0,0,1-3.707-.082C352.043,199.928,352.06,195.512,352.158,191.1Zm6.609,9.261c1.911,0,3.246-1.021,3.246-3.032,0-2.356-1.335-3.428-3.246-3.428a3.536,3.536,0,0,0-2.967,1.7v3.082A3.533,3.533,0,0,0,358.767,200.356Z" fill="#fb3600"/>
      <path d="M367.781,201.773c0-1.087.824-1.548,2.077-1.548s2.11.461,2.11,1.548c0,1.1-.858,1.582-2.11,1.582S367.781,202.878,367.781,201.773Z" fill="#fb3600"/>
      <path d="M374.521,201.773c0-1.087.825-1.548,2.078-1.548s2.109.461,2.109,1.548c0,1.1-.857,1.582-2.109,1.582S374.521,202.878,374.521,201.773Z" fill="#fb3600"/>
      <path d="M381.263,201.773c0-1.087.824-1.548,2.076-1.548s2.109.461,2.109,1.548c0,1.1-.856,1.582-2.109,1.582S381.263,202.878,381.263,201.773Z" fill="#fb3600"/>
    </g>
    <path d="M36.794,44.1c-.5,1.378-1.064,2.723-1.6,4.083s-1.129,2.685-1.691,4.029c-1.126,2.687-2.3,5.343-3.515,7.98l.312-.98c.069,2.905.081,5.8.093,8.7-.009,2.9-.018,5.8-.077,8.688-.048,5.791-.231,11.57-.441,17.346l-.1-1.4L31.961,101l2.078,8.476-.7-1.658,4.784,7.289,4.691,7.349.063.1a4.315,4.315,0,0,1,.3.568l3.431,7.94,3.331,7.985-1.306-1.7c4.321,3.843,8.619,7.7,12.821,11.662,2.015,2.078,3.982,4.208,5.953,6.328,1.955,2.136,3.908,4.271,5.82,6.445l-.342-.26c2.282,1.767,4.547,3.565,6.778,5.415,1.115.927,2.247,1.827,3.348,2.775s2.213,1.88,3.292,2.864c-1.36-.531-2.686-1.118-4.027-1.68s-2.647-1.181-3.972-1.769c-2.648-1.179-5.264-2.41-7.861-3.672l-.343-.26q-6.93-5.118-13.6-10.454c-4.678-3.3-9.259-6.7-13.817-10.108a3.861,3.861,0,0,1-1.15-1.378l-.157-.32-3.822-7.762-3.721-7.808.365.666-4.784-7.289-4.692-7.349-.066-.1a4.744,4.744,0,0,1-.633-1.556l-1.768-8.546-1.66-8.57-.063-.324a3.585,3.585,0,0,1-.039-1.081c.694-5.748,1.414-11.493,2.269-17.226.426-2.867.9-5.729,1.381-8.591.5-2.86,1-5.719,1.55-8.574l.094-.482a1.259,1.259,0,0,1,.218-.5c1.723-2.335,3.476-4.652,5.282-6.938.9-1.142,1.782-2.3,2.708-3.429S35.832,45.207,36.794,44.1Z" fill="#fff"/>
    <path d="M69.231,15.871c-.164,1.45-.395,2.876-.607,4.309-.228,1.427-.484,2.844-.743,4.26-.278,1.409-.536,2.825-.841,4.225s-.589,2.806-.915,4.2l.09-.3q-.46,4.285-1.069,8.535c-.208,1.416-.389,2.838-.623,4.247l-.672,4.236.1-1.419c.43,2.824.888,5.645,1.257,8.474.187,1.414.4,2.826.567,4.243l.513,4.247-.159-.863c.822,2.731,1.569,5.482,2.354,8.222.72,2.758,1.489,5.5,2.17,8.273L70,79.307c1.518,2.432,3.033,4.867,4.491,7.339,1.491,2.45,2.9,4.954,4.337,7.44l-1.327-1.3c2.294,1.683,4.588,3.365,6.846,5.105s4.507,3.494,6.721,5.3l-.284-.156c2.346,1.482,4.665,3.021,6.967,4.6,1.148.8,2.292,1.6,3.425,2.421,1.124.843,2.261,1.661,3.365,2.548-1.386-.292-2.739-.653-4.1-.99-1.356-.355-2.7-.732-4.043-1.117-2.677-.783-5.337-1.6-7.969-2.48l-.285-.156q-3.888-1.812-7.7-3.745c-2.549-1.277-5.062-2.611-7.574-3.944a2.99,2.99,0,0,1-.994-.849l-.333-.452c-1.711-2.305-3.448-4.595-5.1-6.937-1.688-2.321-3.32-4.679-4.949-7.039a4.328,4.328,0,0,1-.574-1.181l-.079-.265c-.829-2.729-1.569-5.482-2.358-8.221-.724-2.757-1.487-5.5-2.174-8.271l-.061-.243a3.852,3.852,0,0,1-.1-.621l-.3-4.268c-.109-1.422-.164-2.849-.248-4.273-.175-2.848-.26-5.7-.373-8.558l-.021-.535a2.69,2.69,0,0,1,.116-.883l1.28-4.093c.417-1.367.886-2.721,1.33-4.082q1.349-4.075,2.834-8.121l.09-.306c.632-1.282,1.3-2.553,1.957-3.825s1.353-2.533,2.032-3.8c.7-1.258,1.4-2.516,2.13-3.763S68.437,17.1,69.231,15.871Z" fill="#fab900"/>
    <path d="M423.383,16.665c.86,1.225,1.651,2.477,2.464,3.72.8,1.25,1.566,2.511,2.331,3.773,1.511,2.534,2.989,5.08,4.4,7.654l.147.481q1.408,4.164,2.673,8.358c.861,2.792,1.656,5.6,2.452,8.4a1.349,1.349,0,0,1,.043.223l.046.506c.279,2.969.588,5.937.8,8.908.249,2.971.438,5.943.615,8.916a4.493,4.493,0,0,1-.2,1.625l-.084.256c-.912,2.845-1.92,5.656-2.876,8.485-1.015,2.808-2,5.627-3.056,8.421l-.084.223a4.023,4.023,0,0,1-.283.587L430.5,91.023c-.751,1.276-1.548,2.526-2.32,3.791-1.537,2.532-3.156,5.019-4.747,7.521l-.274.43a2.221,2.221,0,0,1-.36.431l-3.249,2.98c-1.075,1-2.191,1.962-3.285,2.945q-3.3,2.93-6.7,5.767l-.205.2c-1.21.831-2.443,1.635-3.675,2.442s-2.482,1.591-3.726,2.383c-1.257.777-2.516,1.552-3.794,2.3s-2.565,1.5-3.887,2.2c.886-1.207,1.82-2.358,2.739-3.525s1.882-2.287,2.834-3.417c.966-1.115,1.919-2.244,2.9-3.338s1.954-2.2,2.953-3.279l-.2.2q2.637-3.558,5.384-7.012c.92-1.148,1.818-2.316,2.757-3.445l2.793-3.41-.634.861c1.314-2.659,2.6-5.333,3.966-7.961.681-1.316,1.336-2.646,2.038-3.95l2.085-3.923-.367.81c.926-2.84,1.92-5.656,2.885-8.482,1.025-2.805,2-5.628,3.065-8.418L429.193,68c-.05-2.978-.089-5.956-.068-8.937-.015-2.979.067-5.962.118-8.944l.09.728c-.4-2.889-.8-5.778-1.136-8.68s-.657-5.809-.914-8.728l.147.481c-.794-2.826-1.523-5.679-2.22-8.546-.337-1.437-.671-2.876-.979-4.326C423.94,19.589,423.627,18.141,423.383,16.665Z" fill="#fab900"/>
    <path d="M199.9,114.413c-1.227-1.076-2.417-2.178-3.582-3.3s-2.312-2.253-3.432-3.4c-2.259-2.29-4.433-4.64-6.582-7.009a1.249,1.249,0,0,1-.248-.407l-.234-.634c-.556-1.5-1.142-3-1.674-4.508s-1.092-3.012-1.6-4.529c-1.044-3.024-2.019-6.066-2.984-9.11l.192.588-1.952-4.319c-.663-1.435-1.266-2.894-1.9-4.342-1.273-2.89-2.44-5.824-3.648-8.741a4.969,4.969,0,0,1-.344-1.381c-.306-3.191-.666-6.377-.9-9.573-.275-3.193-.482-6.39-.666-9.586.054-3.213.117-6.424.256-9.635s.316-6.421.554-9.626l.053-.715a1.6,1.6,0,0,1,.215-.688c1.639-2.785,3.321-5.55,5.092-8.276q1.315-2.051,2.71-4.066t2.882-3.99q-.451,2.433-1.012,4.817t-1.184,4.74c-.824,3.145-1.738,6.25-2.695,9.336l.268-1.4q.725,4.714,1.289,9.417c.385,3.137.693,6.273.992,9.408.463,3.122.948,6.24,1.339,9.365.441,3.12.753,6.251,1.12,9.376l-.344-1.381c1.142,2.944,2.326,5.871,3.4,8.84.543,1.483,1.116,2.954,1.628,4.449L188.5,78.6l.141.4a1.388,1.388,0,0,1,.051.186c.611,3.134,1.212,6.271,1.745,9.426.284,1.573.51,3.16.768,4.74s.459,3.173.692,4.759l-.483-1.041c1.533,2.806,3.04,5.631,4.462,8.517.721,1.435,1.414,2.891,2.09,4.358S199.288,112.9,199.9,114.413Z" fill="#fab900"/>
    <path d="M285.078,20.314c.426,1.454.808,2.91,1.159,4.366s.68,2.914.976,4.373c.616,2.916,1.127,5.836,1.6,8.757l0,.322c.066,1.487.165,2.977.2,4.462s.114,2.973.125,4.456c.063,2.969.052,5.933.035,8.9a3.212,3.212,0,0,1-.221,1.152l-.194.484c-1.635,4.112-3.318,8.2-5.113,12.245-1.745,4.076-3.734,7.986-5.773,11.888q-1.514,2.931-3.118,5.822c-1.076,1.927-2.07,3.876-3.093,5.818-2.08,3.868-4.212,7.717-6.509,11.5l-.417.686a.161.161,0,0,1-.031.038c-2.151,2.018-4.33,4.013-6.588,5.943q-1.681,1.458-3.429,2.861t-3.572,2.743q.96-2.052,2.012-4.029t2.155-3.911c1.464-2.585,3.007-5.1,4.579-7.6l-.448.724c1.274-4.268,2.714-8.472,4.206-12.655,1.462-4.2,3.255-8.227,5.092-12.239,1.813-4.019,3.788-7.976,5.612-11.955,1.865-3.971,3.841-7.891,5.866-11.791l-.415,1.635c.385-2.938.777-5.876,1.243-8.81.213-1.467.489-2.931.73-4.4s.541-2.928.81-4.392l-.006.321c.275-2.947.583-5.9,1-8.847.194-1.476.422-2.952.671-4.43S284.752,21.794,285.078,20.314Z" fill="#fff"/>
    <path d="M129.682,78.037a37.579,37.579,0,0,1,8.792,8.035,55.383,55.383,0,0,1,6.174,9.4,54.812,54.812,0,0,1,4.286,10.394,37.238,37.238,0,0,1,1.656,11.8,37.225,37.225,0,0,1-8.875-7.973,55.174,55.174,0,0,1-6.244-9.378,55.8,55.8,0,0,1-4.2-10.456A37.591,37.591,0,0,1,129.682,78.037Z" fill="#fff"/>
    <path d="M341.145,107.536a36.673,36.673,0,0,1,1.925-11.61,54.1,54.1,0,0,1,4.493-10.153,53.492,53.492,0,0,1,6.481-9.012,36.347,36.347,0,0,1,9.061-7.518,36.336,36.336,0,0,1-1.98,11.594,53.326,53.326,0,0,1-4.561,10.1,53.956,53.956,0,0,1-6.426,9.029A36.709,36.709,0,0,1,341.145,107.536Z" fill="#fab900"/>
    <path d="M231.056,16.033a45.253,45.253,0,0,1,3.027,9.1q.514,2.273.878,4.542c.234,1.513.446,3.026.586,4.538l-.013-.4A86.15,86.15,0,0,1,236.9,51.929l.013.407a72.329,72.329,0,0,1-1.676,9.044,44.764,44.764,0,0,1-3.252,9.025,44.723,44.723,0,0,1-3.039-9.1,72.353,72.353,0,0,1-1.463-9.081l.013.406a86.16,86.16,0,0,1-1.339-18.126l-.012-.405c.175-1.508.422-3.016.69-4.523s.606-3.014.985-4.52A45.264,45.264,0,0,1,231.056,16.033Z" fill="#fab900"/>
    <path d="M417.528,173.456a48.67,48.67,0,0,1,6.814-7.278q1.818-1.608,3.71-3.082c1.26-.986,2.553-1.91,3.851-2.824l-1.209.944a93.953,93.953,0,0,1,12.819-13.95l-.849,1.3c.8-1.374,1.611-2.746,2.49-4.087s1.793-2.667,2.761-3.969a48.151,48.151,0,0,1,6.7-7.42,48.165,48.165,0,0,1-.931,9.954q-.455,2.389-1.054,4.718c-.393,1.554-.856,3.078-1.325,4.6a1.71,1.71,0,0,1-.263.52l-.586.779a93.9,93.9,0,0,1-12.845,13.926l-.732.648a1.712,1.712,0,0,1-.478.3c-1.472.595-2.95,1.18-4.461,1.7s-3.044,1.008-4.6,1.446A48.679,48.679,0,0,1,417.528,173.456Z" fill="#fab900"/>
    <path d="M82.347,202.316a73.321,73.321,0,0,1-9.647,1.976c-1.6.223-3.2.426-4.8.582s-3.194.287-4.79.4a1.488,1.488,0,0,1-.567-.07l-.945-.318c-3.042-1.019-6.034-2.142-8.988-3.346-1.485-.585-2.933-1.247-4.4-1.867l-4.343-1.989a4.737,4.737,0,0,1-1.331-.91l-.025-.026-3.415-3.35c-1.105-1.153-2.228-2.285-3.316-3.454s-2.178-2.337-3.217-3.558q-1.593-1.794-3.114-3.665l-.626-.766a.69.69,0,0,1-.1-.163c-.632-1.486-1.224-2.993-1.8-4.511s-1.114-3.056-1.632-4.606a73.02,73.02,0,0,1-2.536-9.627,73.054,73.054,0,0,1,6.988,7.091c1.069,1.236,2.118,2.484,3.13,3.753s2.006,2.547,2.961,3.848l-.724-.929q1.931,1.443,3.8,2.953c1.264.986,2.464,2.039,3.693,3.061,1.214,1.038,2.394,2.111,3.593,3.165l3.494,3.268-1.356-.936,4.28,2.122c1.406.751,2.832,1.459,4.222,2.245,2.8,1.537,5.55,3.155,8.257,4.877l-1.512-.388c1.572.292,3.144.59,4.713.943s3.136.723,4.7,1.129A73.158,73.158,0,0,1,82.347,202.316Z" fill="#fab900"/>
    <path d="M119.6,163.3a35.472,35.472,0,0,1,8.421-.051,54.846,54.846,0,0,1,7.848,1.4l.619.3a64.062,64.062,0,0,1,13.58,7.786l-.563-.276a54.682,54.682,0,0,1,6.64,4.411,35.2,35.2,0,0,1,6.043,5.872,35.184,35.184,0,0,1-8.425-.047,54.4,54.4,0,0,1-7.828-1.507l-.564-.275a64.031,64.031,0,0,1-13.567-7.807l.618.3a54.936,54.936,0,0,1-6.7-4.325A35.512,35.512,0,0,1,119.6,163.3Z" fill="#fab900"/>
    <g>
      <path d="M378.34,176.594l3.068-4.563a.162.162,0,0,1-.27-.058,6.184,6.184,0,0,0-11.667,4.093c.643,1.994,8.423,11.654,8.423,11.654l3.645-7.293Z" fill="#fb3600"/>
      <path d="M394.689,174.824a6.181,6.181,0,0,0-8.423-1.27l-3.814,3.961,2.485,4.33-4.856,6.549s11.867-3.6,13.522-4.889A6.187,6.187,0,0,0,394.689,174.824Z" fill="#fb3600"/>
    </g>
  </g>
</svg>
