<svg xmlns="http://www.w3.org/2000/svg" width="176" height="176" viewBox="0 0 176 176">
  <title>sticker-01</title>
  <g>
    <path d="M148.763,94.68h0a9.446,9.446,0,0,0,0-13.36l-.091-.091a9.449,9.449,0,0,1-2.053-10.283l.049-.118a9.448,9.448,0,0,0-5.132-12.336h0a9.448,9.448,0,0,1-5.845-8.734h0a9.448,9.448,0,0,0-9.448-9.448h-.128a9.448,9.448,0,0,1-8.723-5.818l-.049-.119a9.448,9.448,0,0,0-12.352-5.094h0a9.448,9.448,0,0,1-10.31-2.042h0a9.446,9.446,0,0,0-13.36,0l-.091.091a9.447,9.447,0,0,1-10.282,2.053l-.119-.049a9.448,9.448,0,0,0-12.336,5.132h0a9.448,9.448,0,0,1-8.734,5.845h0a9.448,9.448,0,0,0-9.448,9.448v.128a9.448,9.448,0,0,1-5.818,8.723l-.119.049A9.448,9.448,0,0,0,29.279,71.01h0a9.448,9.448,0,0,1-2.042,10.31h0a9.446,9.446,0,0,0,0,13.36l.091.091a9.448,9.448,0,0,1,2.053,10.283l-.049.118a9.448,9.448,0,0,0,5.132,12.336h0a9.448,9.448,0,0,1,5.845,8.734h0a9.448,9.448,0,0,0,9.448,9.448h.128a9.448,9.448,0,0,1,8.723,5.818l.049.119a9.449,9.449,0,0,0,12.352,5.094h0a9.448,9.448,0,0,1,10.31,2.042h0a9.446,9.446,0,0,0,13.36,0l.091-.091a9.447,9.447,0,0,1,10.282-2.053l.119.049a9.448,9.448,0,0,0,12.336-5.132h0a9.448,9.448,0,0,1,8.734-5.845h0a9.448,9.448,0,0,0,9.448-9.448v-.128a9.448,9.448,0,0,1,5.818-8.723l.119-.05a9.447,9.447,0,0,0,5.094-12.351h0A9.448,9.448,0,0,1,148.763,94.68Z" fill="#bcbcbc"/>
    <g>
      <path d="M64.767,71.933c.263-3.6,3.312-8.449,7.224-8.449,1.536,0,2.16.384,2.521.984.359.576.431.936.672.936.887,0,.456-1.632,2.471-1.632,1.321,0,1.633.1,1.585.888-.385,1.56-1.009,2.256-2.5,5.545a5.1,5.1,0,0,0-.695,2.232.711.711,0,0,0,.792.815c.576.025.863-.335,1.2-.335.384,0,.5.408.48.888a3.349,3.349,0,0,1-3.6,2.784,2.568,2.568,0,0,1-2.472-1.512c-.336-.576-.336-1.008-.7-1.008-.288,0-.408.432-.768.96a3.255,3.255,0,0,1-2.952,1.464C65.391,76.493,64.479,74.693,64.767,71.933Zm8.592-1.921c.72-1.872.672-3.5-.912-3.528-1.536-.048-2.9,1.368-3.408,2.9-.624,1.824-.24,3.457,1.488,3.457C71.967,72.845,72.735,71.668,73.359,70.012Z" fill="#fb3600"/>
      <path d="M87.063,74.021a6.39,6.39,0,0,1,1.2-3.385,4.459,4.459,0,0,0,.912-2.4.952.952,0,0,0-1.032-.96,1.977,1.977,0,0,0-1.561.72,6.846,6.846,0,0,0-1.416,2.5,11.206,11.206,0,0,0-.575,2.161c-.025.768.191,1.224.168,1.8-.025,1.368-.841,1.968-3.072,1.968-1.657,0-2.569-.336-2.569-1.608a2.131,2.131,0,0,1,1.08-1.776,5.531,5.531,0,0,0,1.848-3.361c.384-1.2.336-1.872-.432-1.872-.456,0-.648.312-.864.312-.456,0-1.008-.24-.744-1.176.552-1.728,2.112-3.312,3.889-3.12a1.788,1.788,0,0,1,1.511.96c.313.552.288,1.128.529,1.128.408,0,.767-.528,1.416-1.08a4.292,4.292,0,0,1,3-1.2c2.184,0,3.48,1.272,3.48,3,0,1.488-.96,2.688-1.656,3.768a4.262,4.262,0,0,0-.912,2.113c0,.552.264.864.768.864.48,0,.84-.384,1.152-.384s.456.288.408.7a3.472,3.472,0,0,1-3.72,2.952A2.491,2.491,0,0,1,87.063,74.021Z" fill="#fb3600"/>
      <path d="M94.862,69.484c1.009-3.12,3.505-6,6.553-6a2.845,2.845,0,0,1,2.376.984c.48.6.456,1.344.96,1.344.385,0,.576-.408,1.032-1.176a2.814,2.814,0,0,0,.433-1.32.715.715,0,0,0-.817-.816,5.549,5.549,0,0,0-.767.144c-.505,0-.817-.528-.6-1.152.433-1.392,2.137-2.257,3.792-2.257,1.873,0,3,1.08,3,2.689,0,1.272-.72,2.424-1.752,3.984a30.513,30.513,0,0,0-2.76,4.848A2.875,2.875,0,0,0,106,72.148c0,.745.359,1.129.912,1.1.672,0,.911-.5,1.367-.5.361,0,.529.335.505.84a3.3,3.3,0,0,1-3.408,3,2.831,2.831,0,0,1-2.688-1.56c-.409-.6-.481-.96-.745-.96-.336,0-.383.408-.792,1.032a3.163,3.163,0,0,1-2.928,1.512C94.526,76.613,93.662,73.109,94.862,69.484Zm8.089.528c.624-1.776.481-3.384-1.032-3.432-1.464-.024-2.736,1.32-3.216,2.928-.528,1.633-.144,3.241,1.56,3.241C101.655,72.749,102.375,71.548,102.951,70.012Z" fill="#fb3600"/>
      <path d="M69.676,93.043A6,6,0,0,1,70.9,89.8a4.842,4.842,0,0,0,.985-2.4,1.012,1.012,0,0,0-1.153-1.056,1.7,1.7,0,0,0-1.463.84,8.74,8.74,0,0,0-1.2,2.376,6.323,6.323,0,0,0-.576,2.665,13.665,13.665,0,0,1,.144,1.511c0,1.1-.312,1.777-2.52,1.777-2.184,0-2.665-.456-2.665-1.633a3.469,3.469,0,0,1,.769-1.9,15.268,15.268,0,0,0,1.1-2.088A5.711,5.711,0,0,0,65,87.5a1.039,1.039,0,0,0-1.177-1.128,1.933,1.933,0,0,0-1.464.72,6.772,6.772,0,0,0-1.44,2.544,8.666,8.666,0,0,0-.527,2.136c-.025.769.168,1.225.143,1.8-.023,1.368-.84,1.969-3.072,1.969-1.776,0-2.521-.336-2.521-1.584a2.2,2.2,0,0,1,1.081-1.8,5.392,5.392,0,0,0,1.848-3.408c.361-1.224.361-1.872-.48-1.872-.456,0-.624.288-.912.288-.432,0-.936-.288-.7-1.176a4.019,4.019,0,0,1,3.529-3.049,1.9,1.9,0,0,1,1.872.937c.311.576.288,1.152.527,1.152.385,0,.7-.552,1.345-1.176a4.133,4.133,0,0,1,3-1.177A2.466,2.466,0,0,1,68.428,83.9c.36.649.264,1.153.6,1.153.409,0,.552-.456,1.44-1.248A3.708,3.708,0,0,1,73.2,82.747c2.16,0,3.433,1.248,3.433,2.976,0,1.488-.985,2.712-1.7,3.84a4.29,4.29,0,0,0-.888,2.088c0,.552.288.864.767.864.649,0,.84-.408,1.2-.408.336,0,.431.312.408.672A3.578,3.578,0,0,1,72.6,95.756C70.685,95.756,69.652,94.675,69.676,93.043Z" fill="#fb3600"/>
      <path d="M84.483,85.507a5.887,5.887,0,0,1-1.248,3.312,3.563,3.563,0,0,0-.672,1.92.972.972,0,0,0,1.033.984,1.908,1.908,0,0,0,1.488-.744A7.259,7.259,0,0,0,86.5,88.2c.672-2.088.191-2.3.456-3.456s.983-1.8,2.712-1.8c1.944,0,2.9.5,2.568,2.017-.24.984-1.128,1.032-1.752,2.544a11.1,11.1,0,0,0-1.272,3.936c.024.576.216.864.7.864.6,0,.768-.336,1.08-.336.408,0,.624.288.6.84-.072,1.945-1.92,3.072-4.1,2.833a2.638,2.638,0,0,1-1.847-1.129c-.384-.6-.481-1.343-.769-1.343-.456,0-.527.792-1.128,1.44a3.006,3.006,0,0,1-2.592,1.152c-2.184,0-3.5-1.224-3.5-2.929,0-1.488.96-2.688,1.7-3.768.624-.888.816-1.272.816-1.824,0-.384-.24-.648-.744-.648-.408,0-.624.24-.888.24-.528,0-.672-.312-.624-.768a3.864,3.864,0,0,1,3.744-3.217A2.544,2.544,0,0,1,84.483,85.507Z" fill="#fb3600"/>
      <path d="M93.891,94.315a5.049,5.049,0,0,1-1.321-3.48c0-3.432,2.641-8.064,6.625-8.064a2.479,2.479,0,0,1,2.208,1.008c.336.408.433.552.624.552.5,0,.193-1.369,1.273-1.369.935,0,1.08.624,1.344,2.184.408,2.3.144,3.649-1.92,3.817-1.176.072-1.681-.624-1.872-1.728-.216-.816-.5-1.152-1.416-1.152-1.752,0-2.713,2.04-2.713,3.816a2.308,2.308,0,0,0,2.592,2.52,5.014,5.014,0,0,0,2.64-.72c.937-.48,1.417.216,1.032,1.009a5.657,5.657,0,0,1-5.328,3.048A5.246,5.246,0,0,1,93.891,94.315Z" fill="#fb3600"/>
      <path d="M111.867,93.164a6.236,6.236,0,0,1,1.2-3.361A4.412,4.412,0,0,0,114,87.427a.952.952,0,0,0-1.031-.96,1.928,1.928,0,0,0-1.536.72A7.594,7.594,0,0,0,109.731,91a13.315,13.315,0,0,0-.144,2.52c-.024,1.393-.888,1.993-3.072,1.993-1.848,0-2.592-.312-2.592-1.584A2.132,2.132,0,0,1,105,92.155c1.008-.672,1.439-1.992,2.28-4.584.648-1.968,1.2-3.408,1.3-4.032.192-.745,0-1.153-.456-1.153-.528,0-.744.312-1.128.312-.408,0-.889-.431-.576-1.416a4.124,4.124,0,0,1,3.984-3.12,2.2,2.2,0,0,1,2.5,2.328,4.738,4.738,0,0,1-1.248,2.857c-.864,1.1-.7,1.56-.408,1.56.312,0,.576-.385,1.224-.96a4.11,4.11,0,0,1,2.929-1.2,2.97,2.97,0,0,1,3.288,3c0,1.488-.985,2.688-1.728,3.816a4.17,4.17,0,0,0-.889,2.088.74.74,0,0,0,.769.84c.527,0,.863-.36,1.2-.36.36,0,.456.336.407.672a3.5,3.5,0,0,1-3.744,2.953C112.8,95.756,111.867,94.675,111.867,93.164Z" fill="#fb3600"/>
      <path d="M68.356,112.163a6,6,0,0,1,1.225-3.241,4.841,4.841,0,0,0,.984-2.4,1.012,1.012,0,0,0-1.152-1.056,1.707,1.707,0,0,0-1.464.84,8.74,8.74,0,0,0-1.2,2.376,6.309,6.309,0,0,0-.576,2.665,13.418,13.418,0,0,1,.143,1.511c0,1.1-.311,1.777-2.519,1.777-2.185,0-2.665-.456-2.665-1.633a3.478,3.478,0,0,1,.768-1.9,15.077,15.077,0,0,0,1.1-2.088,5.726,5.726,0,0,0,.673-2.4A1.039,1.039,0,0,0,62.5,105.49a1.932,1.932,0,0,0-1.464.72,6.758,6.758,0,0,0-1.44,2.544,8.687,8.687,0,0,0-.528,2.137c-.024.768.168,1.224.144,1.8-.024,1.369-.84,1.969-3.072,1.969-1.777,0-2.521-.336-2.521-1.584a2.2,2.2,0,0,1,1.08-1.8,5.386,5.386,0,0,0,1.849-3.408c.36-1.224.36-1.872-.481-1.872-.456,0-.624.288-.912.288-.431,0-.935-.288-.7-1.176a4.018,4.018,0,0,1,3.528-3.048,1.9,1.9,0,0,1,1.872.936c.312.576.288,1.152.528,1.152.384,0,.7-.552,1.344-1.176a4.136,4.136,0,0,1,3-1.177,2.463,2.463,0,0,1,2.376,1.225c.361.648.265,1.152.6,1.152.408,0,.552-.456,1.439-1.248a3.716,3.716,0,0,1,2.737-1.056c2.16,0,3.432,1.248,3.432,2.976,0,1.488-.984,2.712-1.7,3.84a4.3,4.3,0,0,0-.887,2.089c0,.551.288.863.767.863.649,0,.84-.407,1.2-.407.336,0,.432.312.409.671a3.578,3.578,0,0,1-3.817,2.977C69.365,114.875,68.333,113.794,68.356,112.163Z" fill="#fb3600"/>
      <path d="M76.468,107.266a6.928,6.928,0,0,1,7.633-5.352c3.719.408,4.967,3.12,4.128,6.888-.792,3.576-3.313,6.433-7.9,5.857C76.8,114.227,75.363,111.154,76.468,107.266Zm8.112,1.272c.456-1.968.024-3.384-1.416-3.552-1.7-.192-2.832,1.176-3.24,2.952-.5,2.016-.193,3.48,1.416,3.672C83.021,111.8,84.172,110.314,84.58,108.538Z" fill="#fb3600"/>
      <path d="M88.442,113.051a1.946,1.946,0,0,1,1.2-1.68c.72-.409,1.152-1.177,1.728-2.761.6-1.56.912-2.616-.072-2.616-.624,0-.72.408-1.032.408-.36,0-.913-.216-.648-1.2a5.09,5.09,0,0,1,1.656-2.568,2.831,2.831,0,0,1,2.113-.673,1.742,1.742,0,0,1,1.464.961c.311.576.215,1.152.551,1.152.288,0,.552-.528,1.1-1.1a3.3,3.3,0,0,1,2.519-1.153c1.657,0,2.593,1.129,2.593,2.905,0,1.68-.744,3.408-2.736,3.408-1.368,0-1.561-.624-1.393-1.584.217-1.008.1-1.3-.5-1.3-.983,0-1.511,1.536-2.015,3.144-.529,1.7-.889,2.592-.216,3.024.672.457,1.3.6,1.151,1.489-.216,1.248-.5,1.728-4.584,1.728C89.115,114.635,88.442,114.371,88.442,113.051Z" fill="#fb3600"/>
      <path d="M102.363,113.1a5.187,5.187,0,0,1-1.008-3.265c0-3.888,2.688-8.136,7.489-8.136a4.237,4.237,0,0,1,3.6,1.488,3.593,3.593,0,0,1,.816,2.448c-.048,2.208-1.152,3.672-3.7,3.984a5.487,5.487,0,0,1-3.936-1.152c-.312-.144-.5.1-.552.7-.168,1.609,1.153,2.641,3.1,2.616a4.909,4.909,0,0,0,2.784-.912c.768-.408,1.32.025,1.08.793-.528,1.7-2.28,3.24-5.352,3.24A5.13,5.13,0,0,1,102.363,113.1Zm7.657-6.937c0-1.056-.624-1.488-1.609-1.488a2.464,2.464,0,0,0-2.424,1.584c-.192.936,1.393,1.32,2.424,1.272C109.252,107.482,110,107.122,110.02,106.162Z" fill="#fb3600"/>
      <path d="M113.522,114.2a1.757,1.757,0,0,1-.5-1.3,2.962,2.962,0,0,1,3.1-2.928,2.049,2.049,0,0,1,1.489.5,2.2,2.2,0,0,1,.671,1.633,2.7,2.7,0,0,1-2.928,2.784A2.538,2.538,0,0,1,113.522,114.2Zm1.777-6.817c.408-1.872.768-3.744,1.055-5.088.577-3.169.5-5.473,3.649-5.449,3.673.024,1.921,3.12.912,5.545-.84,2.04-1.344,3.288-2.28,5.544a1.83,1.83,0,0,1-1.992,1.2C115.587,109.114,115.106,108.514,115.3,107.386Z" fill="#fb3600"/>
    </g>
  </g>
</svg>
