<svg xmlns="http://www.w3.org/2000/svg" xmlns:xlink="http://www.w3.org/1999/xlink" width="1024" height="1024" viewBox="0 0 1024 1024">
  <defs>
    <clipPath id="a">
      <path d="M679.26,447.78a79.911,79.911,0,1,1,103.11-46.258" fill="none"/>
    </clipPath>
    <clipPath id="b">
      <path d="M344.74,447.78a79.911,79.911,0,1,0-103.11-46.258" fill="none"/>
    </clipPath>
    <clipPath id="c">
      <path d="M594.515,245.663a100.876,100.876,0,0,0-82.678,42.983,101,101,0,1,0,0,116.034,101,101,0,1,0,82.678-159.017Z" fill="none"/>
    </clipPath>
  </defs>
  <title>bg-goiters-cat</title>
  <g>
    <path d="M556.015,381.663a75.136,75.136,0,0,0-44.178,14.292,75.5,75.5,0,1,0,0,122.416,75.494,75.494,0,1,0,44.178-136.708Z" fill="#fcfcfc" stroke="#a2e4fd" stroke-linecap="round" stroke-linejoin="round" stroke-width="3"/>
    <path d="M575.015,296.163a95.132,95.132,0,0,0-63.178,23.892,95.5,95.5,0,1,0,0,143.216,95.5,95.5,0,1,0,63.178-167.108Z" fill="#fff"/>
    <path d="M564,286.163c-20,0-38.258,9.026-52.158,23.892-13.9-14.866-32.158-23.892-52.158-23.892-43.544,0-78.842,42.757-78.842,95.5s35.3,95.5,78.842,95.5c20,0,38.258-9.026,52.158-23.892,13.9,14.866,32.157,23.892,52.158,23.892,43.543,0,78.842-42.757,78.842-95.5S607.538,286.163,564,286.163Z" fill="#a2e4fd"/>
    <path d="M579.921,266.163a107.192,107.192,0,0,0-68.084,23.892,107.2,107.2,0,0,0-68.085-23.892c-56.838,0-102.915,42.757-102.915,95.5s46.077,95.5,102.915,95.5a107.2,107.2,0,0,0,68.085-23.892,107.192,107.192,0,0,0,68.084,23.892c56.839,0,102.916-42.757,102.916-95.5S636.76,266.163,579.921,266.163Z" fill="#fff"/>
    <path d="M575.015,296.163a95.132,95.132,0,0,0-63.178,23.892,95.5,95.5,0,1,0,0,143.216,95.5,95.5,0,1,0,63.178-167.108Z" fill="#fcfcfc" stroke="#a2e4fd" stroke-linecap="round" stroke-linejoin="round" stroke-width="3"/>
    <ellipse cx="744.153" cy="468.301" rx="79.911" ry="96.748" transform="translate(-115.29 282.757) rotate(-20)" fill="#a2e4fd"/>
    <ellipse cx="744.153" cy="468.301" rx="79.911" ry="96.748" transform="translate(-115.29 282.757) rotate(-20)" fill="#fcfcfc" stroke="#a2e4fd" stroke-linecap="round" stroke-linejoin="round" stroke-width="3"/>
    <path d="M679.26,447.78a79.911,79.911,0,1,1,103.11-46.258" fill="#a2e4fd"/>
    <circle cx="714.163" cy="385.163" r="60" fill="#fcfcfc"/>
    <ellipse cx="744.037" cy="467.981" rx="52.465" ry="63.519" transform="translate(-115.188 282.698) rotate(-20)" fill="#fcfcfc"/>
    <g clip-path="url(#a)">
      <ellipse cx="678.036" cy="306.571" rx="82.45" ry="107.913" transform="translate(184.7 863.651) rotate(-72.803)" fill="#a2e4fd"/>
      <path d="M738.163,395.163c2-31-30.477-51-30.477-51" fill="#fcfcfc" stroke="#a2e4fd" stroke-linecap="round" stroke-linejoin="round" stroke-width="3"/>
      <path d="M444.485,250.663a100.876,100.876,0,0,1,82.678,42.983,101,101,0,1,1,0,116.034,101,101,0,1,1-82.678-159.017Z" fill="#a2e4fd"/>
    </g>
    <path d="M708.15,532.849a92.956,92.956,0,0,0-7.6,50.935c5.594,44.774,40.108,77.325,77.09,72.705s62.428-44.662,56.834-89.436c-2.879-23.048-13.422-42.858-28.02-56.025" fill="#a2e4fd"/>
    <ellipse cx="766.426" cy="557.501" rx="40.311" ry="52.339" transform="translate(-84.847 140.906) rotate(-9.956)" fill="#fcfcfc"/>
    <path d="M708.15,532.849a92.956,92.956,0,0,0-7.6,50.935c5.594,44.774,40.108,77.325,77.09,72.705s62.428-44.662,56.834-89.436c-2.879-23.048-13.422-42.858-28.02-56.025" fill="#fcfcfc" stroke="#a2e4fd" stroke-linecap="round" stroke-linejoin="round" stroke-width="3"/>
    <path d="M744.088,669.682a19.41,19.41,0,0,0,9.763,36.894,19.407,19.407,0,0,0,33.072.045,19.41,19.41,0,0,0,8.914-36.939l3.526-24.519h0a91.87,91.87,0,0,0-58.839-.11l-.328.11Z" fill="#fff" stroke="#a2e4fd" stroke-linecap="round" stroke-linejoin="round" stroke-width="3"/>
    <path d="M679.26,447.78a79.911,79.911,0,1,1,103.11-46.258" fill="#fcfcfc" stroke="#a2e4fd" stroke-linecap="round" stroke-linejoin="round" stroke-width="3"/>
    <path d="M722.474,444.761A60.151,60.151,0,0,0,755.413,428.7" fill="#fcfcfc" stroke="#a2e4fd" stroke-linecap="round" stroke-linejoin="round" stroke-width="3"/>
    <path d="M740.932,528.1a60.156,60.156,0,0,0,36.024-6.73" fill="none" stroke="#fff" stroke-linecap="round" stroke-linejoin="round" stroke-width="4"/>
    <path d="M554.837,418.614c0-10.19-7.549-18.451-16.86-18.451H485.333c-9.311,0-16.86,8.261-16.86,18.451v.008a19.272,19.272,0,0,0,5.07,13.177,19.277,19.277,0,0,0-5.07,13.178v.008a19.273,19.273,0,0,0,5.07,13.178,19.275,19.275,0,0,0-5.07,13.178v.008a19.275,19.275,0,0,0,5.07,13.178,19.273,19.273,0,0,0-5.07,13.178v.008c0,10.189,7.549,18.45,16.86,18.45h52.644c9.311,0,16.86-8.261,16.86-18.45v-.008a19.273,19.273,0,0,0-5.07-13.178,19.275,19.275,0,0,0,5.07-13.178v-.008a19.276,19.276,0,0,0-5.047-13.15l.047-.028h-.07a19.273,19.273,0,0,0,5.07-13.178v-.008a19.277,19.277,0,0,0-5.07-13.178,19.272,19.272,0,0,0,5.07-13.177Z" fill="#fcfcfc" stroke="#a2e4fd" stroke-linecap="round" stroke-linejoin="round" stroke-width="3"/>
    <g>
      <path d="M478.337,457.069h0a28.479,28.479,0,0,0,32.075.792l1.264-.792,1.669,1.026a28.467,28.467,0,0,0,31.852-.93l.14-.1" fill="none" stroke="#a2e4fd" stroke-linecap="round" stroke-linejoin="round" stroke-width="3"/>
      <path d="M478.337,483.333h0a28.477,28.477,0,0,0,32.075.792l1.264-.792,1.669,1.027a28.469,28.469,0,0,0,31.852-.931l.14-.1" fill="none" stroke="#a2e4fd" stroke-linecap="round" stroke-linejoin="round" stroke-width="3"/>
      <path d="M478.337,430.805h0a28.479,28.479,0,0,0,32.075.792l1.264-.792,1.669,1.026a28.471,28.471,0,0,0,31.852-.93l.14-.1" fill="none" stroke="#a2e4fd" stroke-linecap="round" stroke-linejoin="round" stroke-width="3"/>
      <line x1="511.837" y1="404.541" x2="511.837" y2="511.786" fill="none" stroke="#a2e4fd" stroke-linecap="round" stroke-linejoin="round" stroke-width="3"/>
    </g>
    <ellipse cx="279.847" cy="468.301" rx="96.748" ry="79.911" transform="translate(-255.925 571.102) rotate(-70)" fill="#a2e4fd"/>
    <ellipse cx="279.847" cy="468.301" rx="96.748" ry="79.911" transform="translate(-255.925 571.102) rotate(-70)" fill="#fcfcfc" stroke="#a2e4fd" stroke-linecap="round" stroke-linejoin="round" stroke-width="3"/>
    <path d="M344.74,447.78a79.911,79.911,0,1,0-103.11-46.258" fill="#a2e4fd"/>
    <circle cx="309.837" cy="385.163" r="60" fill="#fcfcfc"/>
    <ellipse cx="279.963" cy="467.981" rx="63.519" ry="52.465" transform="translate(-255.549 571.001) rotate(-70)" fill="#fcfcfc"/>
    <g clip-path="url(#b)">
      <ellipse cx="345.964" cy="306.571" rx="107.913" ry="82.45" transform="translate(-75.175 115.995) rotate(-17.197)" fill="#a2e4fd"/>
      <path d="M285.837,395.163c-2-31,30.477-51,30.477-51" fill="#fcfcfc" stroke="#a2e4fd" stroke-linecap="round" stroke-linejoin="round" stroke-width="3"/>
      <path d="M579.515,250.663a100.876,100.876,0,0,0-82.678,42.983,101,101,0,1,0,0,116.034,101,101,0,1,0,82.678-159.017Z" fill="#a2e4fd"/>
    </g>
    <path d="M315.85,532.849a92.956,92.956,0,0,1,7.6,50.935c-5.594,44.774-40.108,77.325-77.09,72.705s-62.428-44.662-56.834-89.436c2.879-23.048,13.422-42.858,28.02-56.025" fill="#a2e4fd"/>
    <ellipse cx="257.574" cy="557.501" rx="52.339" ry="40.311" transform="matrix(0.173, -0.985, 0.985, 0.173, -336.064, 714.807)" fill="#fcfcfc"/>
    <path d="M315.85,532.849a92.956,92.956,0,0,1,7.6,50.935c-5.594,44.774-40.108,77.325-77.09,72.705s-62.428-44.662-56.834-89.436c2.879-23.048,13.422-42.858,28.02-56.025" fill="#fcfcfc" stroke="#a2e4fd" stroke-linecap="round" stroke-linejoin="round" stroke-width="3"/>
    <path d="M279.912,669.682a19.41,19.41,0,0,1-9.763,36.894,19.407,19.407,0,0,1-33.072.045,19.41,19.41,0,0,1-8.914-36.939l-3.526-24.519h0a91.87,91.87,0,0,1,58.839-.11l.328.11Z" fill="#fff" stroke="#a2e4fd" stroke-linecap="round" stroke-linejoin="round" stroke-width="3"/>
    <path d="M344.74,447.78a79.911,79.911,0,1,0-103.11-46.258" fill="#fcfcfc" stroke="#a2e4fd" stroke-linecap="round" stroke-linejoin="round" stroke-width="3"/>
    <path d="M301.526,444.761A60.151,60.151,0,0,1,268.587,428.7" fill="#fcfcfc" stroke="#a2e4fd" stroke-linecap="round" stroke-linejoin="round" stroke-width="3"/>
    <path d="M283.068,528.1a60.156,60.156,0,0,1-36.024-6.73" fill="none" stroke="#fff" stroke-linecap="round" stroke-linejoin="round" stroke-width="4"/>
    <ellipse cx="512.337" cy="286.663" rx="79.5" ry="66.711" fill="none" stroke="#a2e4fd" stroke-linecap="round" stroke-linejoin="round" stroke-width="3"/>
    <g clip-path="url(#c)">
      <ellipse cx="350.964" cy="301.571" rx="107.913" ry="82.45" transform="translate(-73.473 117.25) rotate(-17.197)" fill="#fff"/>
      <ellipse cx="671.964" cy="301.571" rx="82.45" ry="107.913" transform="translate(185.2 854.33) rotate(-72.803)" fill="#fff"/>
    </g>
    <path d="M594.515,245.663a100.876,100.876,0,0,0-82.678,42.983,101,101,0,1,0,0,116.034,101,101,0,1,0,82.678-159.017Z" fill="#fff" stroke="#a2e4fd" stroke-linecap="round" stroke-linejoin="round" stroke-width="3"/>
    <ellipse cx="512.337" cy="286.663" rx="66.5" ry="52.5" fill="#fcfcfc" stroke="#a2e4fd" stroke-linecap="round" stroke-linejoin="round" stroke-width="3"/>
    <line x1="511.837" y1="354.163" x2="511.837" y2="405.163" fill="#fcfcfc" stroke="#a2e4fd" stroke-linecap="round" stroke-linejoin="round" stroke-width="3"/>
    <ellipse cx="672.709" cy="291.571" rx="82.45" ry="107.913" transform="translate(195.277 847.998) rotate(-72.803)" fill="#fcfcfc" stroke="#a2e4fd" stroke-linecap="round" stroke-linejoin="round" stroke-width="3"/>
    <ellipse cx="350.709" cy="291.571" rx="107.913" ry="82.45" transform="translate(-70.528 116.728) rotate(-17.197)" fill="#fcfcfc" stroke="#a2e4fd" stroke-linecap="round" stroke-linejoin="round" stroke-width="3"/>
    <path d="M463.343,296.454c-39.729-46.193-7.09-114.291,48.494-114.291,55.536,0,88.27,68.044,48.494,114.291" fill="#a2e4fd"/>
    <circle cx="497.537" cy="289.663" r="16.5" fill="#fcfcfc"/>
    <circle cx="526.137" cy="289.663" r="16.5" fill="#fcfcfc"/>
    <path d="M463.343,296.454c-39.729-46.193-7.09-114.291,48.494-114.291,55.536,0,88.27,68.044,48.494,114.291" fill="#fcfcfc" stroke="#a2e4fd" stroke-linecap="round" stroke-linejoin="round" stroke-width="3"/>
    <path d="M454.981,220.083c-11.13-11.129-3.536-43.84-3.536-43.84s32.711-7.595,43.841,3.535a28.378,28.378,0,0,1,7.472,13.126" fill="#fcfcfc" stroke="#a2e4fd" stroke-linecap="round" stroke-linejoin="round" stroke-width="3"/>
    <path d="M568.693,220.083c11.13-11.129,3.535-43.84,3.535-43.84s-32.71-7.595-43.84,3.535a28.36,28.36,0,0,0-7.472,13.126" fill="#a2e4fd"/>
    <ellipse cx="511.837" cy="230.663" rx="35" ry="30.5" fill="#fcfcfc"/>
    <path d="M568.693,220.083c11.13-11.129,3.535-43.84,3.535-43.84s-32.71-7.595-43.84,3.535a28.36,28.36,0,0,0-7.472,13.126" fill="#fcfcfc" stroke="#a2e4fd" stroke-linecap="round" stroke-linejoin="round" stroke-width="3"/>
    <path d="M528.392,280.451a23.412,23.412,0,0,1-33.111,0" fill="#fcfcfc" stroke="#a2e4fd" stroke-linecap="round" stroke-linejoin="round" stroke-width="3"/>
    <ellipse cx="503.337" cy="262.163" rx="11.5" ry="10" fill="#fcfcfc"/>
    <ellipse cx="520.337" cy="262.163" rx="11.5" ry="10" fill="#fcfcfc"/>
    <path d="M492.559,267.163a12.3,12.3,0,0,0,19.278,2.875,12.3,12.3,0,0,0,19.278-2.875" fill="#fcfcfc" stroke="#a2e4fd" stroke-linecap="round" stroke-linejoin="round" stroke-width="3"/>
    <path d="M476.593,303.163a22.484,22.484,0,0,0,35.244,5.255,22.483,22.483,0,0,0,35.243-5.255" fill="#fcfcfc" stroke="#a2e4fd" stroke-linecap="round" stroke-linejoin="round" stroke-width="3"/>
    <circle cx="511.837" cy="237.663" r="19.5" fill="#fcfcfc" stroke="#a2e4fd" stroke-linecap="round" stroke-linejoin="round" stroke-width="3"/>
    <circle cx="511.837" cy="237.663" r="7" fill="#fcfcfc" stroke="#a2e4fd" stroke-linecap="round" stroke-linejoin="round" stroke-width="3"/>
    <ellipse cx="412.236" cy="732.861" rx="70.546" ry="58.269" transform="translate(-366.074 1051.071) rotate(-82.879)" fill="#a2e4fd"/>
    <ellipse cx="412.236" cy="732.861" rx="70.546" ry="58.269" transform="translate(-366.074 1051.071) rotate(-82.879)" fill="#fcfcfc" stroke="#a2e4fd" stroke-linecap="round" stroke-linejoin="round" stroke-width="3"/>
    <path d="M422.984,841.163h0a8.454,8.454,0,0,1-7.866-5.356l-2.224-5.644h0a30.013,30.013,0,0,1-18.637,14.119l-22.333,5.663a10.561,10.561,0,0,1-11.7-15.592L371.1,815.867l1.291-28.2,2.7.686a135.6,135.6,0,0,0,69.3-.686h0l-13.269,47.328A8.454,8.454,0,0,1,422.984,841.163Z" fill="#fff" stroke="#a2e4fd" stroke-linecap="round" stroke-linejoin="round" stroke-width="3"/>
    <ellipse cx="406.14" cy="724.652" rx="40.112" ry="33.131" transform="translate(-363.269 1037.83) rotate(-82.879)" fill="#fcfcfc"/>
    <path d="M405.835,704.869c-35.81-13.033-52.047-58.745-36.267-102.1s57.6-67.935,93.41-54.9,52.047,58.745,36.267,102.1c-7.89,21.677-22.29,38.66-39.194,48.6" fill="#fcfcfc" stroke="#a2e4fd" stroke-linecap="round" stroke-linejoin="round" stroke-width="3"/>
    <ellipse cx="422.206" cy="634.085" rx="56.312" ry="46.512" transform="translate(-259.325 974.432) rotate(-82.879)" fill="#fcfcfc"/>
    <circle cx="411.337" cy="677.163" r="29.5" fill="#fcfcfc"/>
    <path d="M440.837,688.163a31,31,0,1,1-56-18.332" fill="#fcfcfc" stroke="#a2e4fd" stroke-linecap="round" stroke-linejoin="round" stroke-width="3"/>
    <path d="M398.331,661.675c15.99-8.133,29.084,4.584,29.084,4.584" fill="none" stroke="#fff" stroke-linecap="round" stroke-linejoin="round" stroke-width="4"/>
    <ellipse cx="611.794" cy="732.861" rx="58.269" ry="70.546" transform="translate(-86.128 81.492) rotate(-7.121)" fill="#a2e4fd"/>
    <ellipse cx="611.794" cy="732.861" rx="58.269" ry="70.546" transform="translate(-86.128 81.492) rotate(-7.121)" fill="#fcfcfc" stroke="#a2e4fd" stroke-linecap="round" stroke-linejoin="round" stroke-width="3"/>
    <path d="M601.046,841.163h0a8.454,8.454,0,0,0,7.866-5.356l2.224-5.644h0a30.013,30.013,0,0,0,18.637,14.119l22.333,5.663a10.56,10.56,0,0,0,11.7-15.592l-10.876-18.486-1.291-28.2-2.7.686a135.6,135.6,0,0,1-69.3-.686h0l13.269,47.328A8.454,8.454,0,0,0,601.046,841.163Z" fill="#fff" stroke="#a2e4fd" stroke-linecap="round" stroke-linejoin="round" stroke-width="3"/>
    <ellipse cx="617.89" cy="724.652" rx="33.131" ry="40.112" transform="translate(-85.064 82.184) rotate(-7.121)" fill="#fcfcfc"/>
    <path d="M618.2,704.869c35.809-13.033,52.046-58.745,36.267-102.1s-57.6-67.935-93.411-54.9-52.047,58.745-36.267,102.1c7.89,21.677,22.29,38.66,39.194,48.6" fill="#fcfcfc" stroke="#a2e4fd" stroke-linecap="round" stroke-linejoin="round" stroke-width="3"/>
    <ellipse cx="601.824" cy="634.085" rx="46.512" ry="56.312" transform="translate(-73.961 79.494) rotate(-7.121)" fill="#fcfcfc"/>
    <circle cx="612.693" cy="677.163" r="29.5" fill="#fcfcfc"/>
    <path d="M583.193,688.163a31,31,0,1,0,56-18.332" fill="#fcfcfc" stroke="#a2e4fd" stroke-linecap="round" stroke-linejoin="round" stroke-width="3"/>
    <path d="M625.7,661.675c-15.99-8.133-29.084,4.584-29.084,4.584" fill="none" stroke="#fff" stroke-linecap="round" stroke-linejoin="round" stroke-width="4"/>
    <path d="M427.332,414.159a12.014,12.014,0,0,1-16.991,0" fill="#fcfcfc" stroke="#a2e4fd" stroke-linecap="round" stroke-linejoin="round" stroke-width="3"/>
    <path d="M422.646,406.473a5.387,5.387,0,0,1-7.619,0" fill="#fcfcfc" stroke="#a2e4fd" stroke-linecap="round" stroke-linejoin="round" stroke-width="3"/>
    <path d="M613.332,414.159a12.014,12.014,0,0,1-16.991,0" fill="#fcfcfc" stroke="#a2e4fd" stroke-linecap="round" stroke-linejoin="round" stroke-width="3"/>
    <path d="M608.646,406.473a5.387,5.387,0,0,1-7.619,0" fill="#fcfcfc" stroke="#a2e4fd" stroke-linecap="round" stroke-linejoin="round" stroke-width="3"/>
    <path d="M591.184,506.718c-15.76,0-40.516,1.788-79.347,1.788s-63.587-1.787-79.348-1.788c-24.836,0-27.331,4.436-27.331,27.293a61.175,61.175,0,0,0,3.448,20.259,67.993,67.993,0,0,1,34.477-9.892,57.953,57.953,0,0,1,19.895,3.491c21.312,7.757,5.859,50.61,40.512,50.61h16.694c34.653,0,19.2-42.853,40.511-50.61a57.955,57.955,0,0,1,19.9-3.491,67.989,67.989,0,0,1,34.476,9.892,61.175,61.175,0,0,0,3.448-20.259C618.515,511.156,616.013,506.719,591.184,506.718Z" fill="#fff" stroke="#a2e4fd" stroke-linecap="round" stroke-linejoin="round" stroke-width="3"/>
    <path d="M454.981,220.083c-11.13-11.129-3.536-43.84-3.536-43.84s32.711-7.595,43.841,3.535a28.378,28.378,0,0,1,7.472,13.126" fill="#fcfcfc" stroke="#a2e4fd" stroke-linecap="round" stroke-linejoin="round" stroke-width="3"/>
    <polyline points="481.593 276.163 481.593 261.385 468.874 252.163" fill="#fcfcfc" stroke="#a2e4fd" stroke-linecap="round" stroke-linejoin="round" stroke-width="3"/>
    <polyline points="541.874 276.163 541.874 261.385 554.593 252.163" fill="#fcfcfc" stroke="#a2e4fd" stroke-linecap="round" stroke-linejoin="round" stroke-width="3"/>
    <path d="M571.337,176.163c-3,24-17,21-17,33" fill="#fcfcfc" stroke="#a2e4fd" stroke-linecap="round" stroke-linejoin="round" stroke-width="3"/>
    <path d="M452.337,176.163c3,24,17,21,17,33" fill="#fcfcfc" stroke="#a2e4fd" stroke-linecap="round" stroke-linejoin="round" stroke-width="3"/>
  </g>
</svg>
