<svg xmlns="http://www.w3.org/2000/svg" xmlns:xlink="http://www.w3.org/1999/xlink" width="512" height="512" viewBox="0 0 512 512">
  <defs>
    <pattern id="a" data-name="New Pattern 2" width="512" height="512" patternUnits="userSpaceOnUse" viewBox="0 0 512 512">
      <rect width="512" height="512" fill="none"/>
      <g>
        <rect width="512" height="512" fill="#f9d971"/>
        <polygon points="244.329 376.467 253.774 345.554 265.796 376.467 292.416 371.315 274.383 393.641 284.688 421.978 256.351 397.934 230.59 424.554 237.459 393.641 215.992 377.326 244.329 376.467" fill="#f8f8f8"/>
        <polygon points="64.843 438.666 70.664 419.615 78.073 438.666 94.478 435.491 83.365 449.25 89.715 466.714 72.251 451.896 56.376 468.301 60.609 449.25 47.379 439.195 64.843 438.666" fill="#f8f8f8"/>
        <polygon points="261.992 110.554 266.992 90.554 277.992 111.554 296.992 110.554 283.992 128.554 294.992 154.554 270.992 137.554 252.992 155.554 257.992 129.554 236.992 111.554 261.992 110.554" fill="#fb3600"/>
        <polygon points="429.817 248.239 447.351 246.243 433.819 261.366 440.324 276.297 421.992 271.279 404.452 287.903 410.874 263.56 391.041 254.534 413.385 250.737 421.51 228.498 429.817 248.239" fill="#fb3600"/>
        <polygon points="204.406 502.039 221.94 500.043 208.408 515.165 214.913 530.096 196.581 525.079 179.041 541.702 185.463 517.359 165.63 508.333 187.974 504.536 196.099 482.298 204.406 502.039" fill="#fb3600"/>
      </g>
      <polygon points="204.406 -9.961 221.94 -11.957 208.408 3.165 214.913 18.096 196.581 13.079 179.041 29.702 185.463 5.359 165.63 -3.667 187.974 -7.464 196.099 -29.702 204.406 -9.961" fill="#fb3600"/>
    </pattern>
    <clipPath id="c">
      <rect x="-1439" y="-833" width="1024" height="1024" fill="none"/>
    </clipPath>
    <clipPath id="d">
      <polygon points="-768.014 -562.341 -446.882 -451 -446.882 -802 -768.014 -802 -768.014 -562.341" fill="none"/>
    </clipPath>
  </defs>
  <title>bg-stars-02</title>
  <g>
    <rect width="512" height="512" stroke-miterlimit="10" fill="url(#a)" stroke="url(#a)"/>
    <g clip-path="url(#c)">
      <g clip-path="url(#d)">
        <circle cx="-304.045" cy="-86.907" r="592.071" fill="#fab900" stroke="#fb3600" stroke-miterlimit="10" stroke-width="2"/>
      </g>
    </g>
  </g>
</svg>
