<svg xmlns="http://www.w3.org/2000/svg" width="544" height="208" viewBox="0 0 544 208">
  <title>logo-type-color</title>
  <g>
    <g>
      <g>
        <path d="M5.607,77.062c-.166-23.551,9.871-40.449,46.6-40.453,14-.567,24.891-.725,29.968-.552a2.954,2.954,0,0,1,2.957,3.531c-.836,8.744-1.749,17.657-2.625,26.535-.276,2.77-2.551,4.85-5,4.511C60.4,68.5,40.45,66.885,40.5,77.067c-.046,10.262,19.9,8.651,37.012,6.521,2.451-.338,4.726,1.742,5,4.511.876,8.878,1.789,17.791,2.625,26.535a2.955,2.955,0,0,1-2.957,3.531c-5.077.174-15.971.017-29.968-.552C15.476,117.61,5.448,100.713,5.607,77.062Z" fill="#a2e4fd"/>
        <path d="M177.1,117.855c-10.275-.544-20.96-1.692-31.518-3.165a4.68,4.68,0,0,1-4.232-4.3q-.187-8.589-.28-17.177a4.284,4.284,0,0,0-4.277-4.213h-.341a4.284,4.284,0,0,0-4.277,4.213q-.091,8.587-.28,17.177a4.682,4.682,0,0,1-4.232,4.3c-10.558,1.473-21.244,2.621-31.518,3.165-2.253.123-3.624-1.458-3.263-3.768a239.9,239.9,0,0,0-.093-74.652c-.38-2.39,1.092-4.012,3.468-3.742,10.279,1.143,20.759,2.243,31.178,3.166a4.692,4.692,0,0,1,4.451,4.319q.255,11.522.337,23.042a4.243,4.243,0,0,0,4.23,4.207h.339a4.243,4.243,0,0,0,4.23-4.207q.081-11.521.337-23.042a4.692,4.692,0,0,1,4.451-4.319c10.419-.923,20.9-2.023,31.179-3.166,2.374-.269,3.847,1.352,3.467,3.742a239.9,239.9,0,0,0-.093,74.652C180.719,116.4,179.348,117.978,177.1,117.855Z" fill="#a2e4fd"/>
        <path d="M190.911,36.34a634.16,634.16,0,0,0,77.144-.012,2.519,2.519,0,0,1,2.755,2.97c-.627,6.9-1.485,13.949-2.477,20.989a4.431,4.431,0,0,1-4.137,3.978c-11.415-.173-22.869-.546-34.377-1.324a3.6,3.6,0,0,0-3.889,3.588v.183a3.638,3.638,0,0,0,3.741,3.613q9.588-.289,19.187-.781a3.476,3.476,0,0,1,3.653,3.258,54.523,54.523,0,0,1,0,8.8,3.473,3.473,0,0,1-3.652,3.255q-9.6-.5-19.191-.787a3.639,3.639,0,0,0-3.742,3.613v.008a3.6,3.6,0,0,0,3.889,3.588c11.509-.777,22.964-1.15,34.378-1.321a4.436,4.436,0,0,1,4.138,3.979c.992,7.026,1.849,14.061,2.477,20.948a2.53,2.53,0,0,1-2.8,2.977,622.49,622.49,0,0,0-77.1-.022,2.581,2.581,0,0,1-2.8-3.208,276.913,276.913,0,0,0,0-75.091A2.583,2.583,0,0,1,190.911,36.34Z" fill="#a2e4fd"/>
        <path d="M281.229,36.34a634.176,634.176,0,0,0,77.145-.012,2.517,2.517,0,0,1,2.754,2.97c-.628,6.9-1.485,13.949-2.476,20.989a4.434,4.434,0,0,1-4.138,3.978c-11.414-.173-22.868-.546-34.377-1.324a3.6,3.6,0,0,0-3.888,3.588v.183a3.636,3.636,0,0,0,3.741,3.613q9.588-.289,19.186-.781a3.477,3.477,0,0,1,3.654,3.258,54.523,54.523,0,0,1,0,8.8,3.473,3.473,0,0,1-3.652,3.255q-9.6-.5-19.191-.787a3.638,3.638,0,0,0-3.742,3.613v.008a3.6,3.6,0,0,0,3.888,3.588c11.51-.777,22.964-1.15,34.378-1.321a4.438,4.438,0,0,1,4.139,3.979c.99,7.026,1.849,14.061,2.477,20.948a2.531,2.531,0,0,1-2.8,2.977,622.474,622.474,0,0,0-77.1-.022,2.581,2.581,0,0,1-2.8-3.208,276.873,276.873,0,0,0,0-75.091A2.583,2.583,0,0,1,281.229,36.34Z" fill="#a2e4fd"/>
        <path d="M367.465,114.243c.655-7.74,1.5-15.627,2.428-23.46.358-3,3.175-5.014,5.7-4.1C385.119,90.029,397.049,90,404.664,90a21.812,21.812,0,0,0,3.266-.26c5.155-.811,4.035-8.482-1.1-8.025-25,2.315-37.922-.1-39.093-21.027C366.3,43.506,373.82,35.73,411.445,36.676c13.926.013,30.142,0,36.93-.2a2.9,2.9,0,0,1,3.113,3.376c-.663,7.8-1.511,15.737-2.436,23.583-.356,3.007-3.18,5.01-5.707,4.092-9.452-3.332-21.315-3.308-29.066-3.3a21.055,21.055,0,0,0-3.526.308c-5.136.9-4.028,8.49,1.109,8.03,25.223-2.344,38.436-.246,39.611,20.972,1.443,17.181-6.275,24.918-43.905,24.01-14.05,0-30.267-.079-37.02.07A2.9,2.9,0,0,1,367.465,114.243Z" fill="#a2e4fd"/>
        <path d="M461.082,36.34a634.176,634.176,0,0,0,77.145-.012,2.517,2.517,0,0,1,2.754,2.97c-.627,6.9-1.484,13.949-2.475,20.989a4.436,4.436,0,0,1-4.139,3.978c-11.413-.173-22.868-.546-34.376-1.324a3.6,3.6,0,0,0-3.889,3.588v.183a3.637,3.637,0,0,0,3.741,3.613q9.588-.289,19.187-.781a3.478,3.478,0,0,1,3.654,3.258,54.869,54.869,0,0,1,0,8.8,3.475,3.475,0,0,1-3.654,3.255q-9.6-.5-19.189-.787a3.639,3.639,0,0,0-3.743,3.613v.008a3.6,3.6,0,0,0,3.889,3.588c11.509-.777,22.964-1.15,34.378-1.321a4.439,4.439,0,0,1,4.139,3.979c.99,7.026,1.847,14.061,2.475,20.948a2.529,2.529,0,0,1-2.8,2.977,622.49,622.49,0,0,0-77.1-.022,2.581,2.581,0,0,1-2.8-3.208,276.833,276.833,0,0,0,0-75.091A2.583,2.583,0,0,1,461.082,36.34Z" fill="#a2e4fd"/>
        <path d="M4.828,179.7c0-5.31.265-10.67.75-16a3.075,3.075,0,0,1,3.961-2.773c6.889,2.485,15.425,2.643,20.874,2.641a16.249,16.249,0,0,0,1.732-.1c3.786-.428,3.107-6.126-.668-5.8-17.531,1.535-26.972-.54-27.369-14.515-.489-11.347,5.7-18.179,31.083-17.857,9.446,0,20.567.743,25.294,1.016a2.459,2.459,0,0,1,2.378,2.54c-.005,5.353-.268,10.752-.753,16.093a3.074,3.074,0,0,1-3.965,2.769c-6.833-2.475-15.322-2.632-20.87-2.631a15.122,15.122,0,0,0-2.067.143c-3.772.529-3.1,6.139.671,5.809,17.79-1.588,27.492.253,27.891,14.465.49,11.348-5.826,18.166-31.215,17.857-9.531,0-20.66-.811-25.371-1.12A2.459,2.459,0,0,1,4.828,179.7Z" fill="#a2e4fd"/>
        <path d="M134.584,182.425a165.573,165.573,0,0,1-27.477-1.31,2.06,2.06,0,0,1-1.785-1.805q-.258-2.613-.5-5.226a2.021,2.021,0,0,0-2.013-1.81q-2.085-.007-4.168,0a2.022,2.022,0,0,0-2.015,1.825q-.224,2.6-.46,5.2a2.061,2.061,0,0,1-1.786,1.82,165.38,165.38,0,0,1-27.461,1.307,1.7,1.7,0,0,1-1.454-2.441c6.614-18.366,10.895-35.424,15.636-51.448a1.779,1.779,0,0,1,1.611-1.254,316.711,316.711,0,0,1,36.143,0,1.776,1.776,0,0,1,1.61,1.254c4.734,16.027,8.962,33.088,15.573,51.453A1.7,1.7,0,0,1,134.584,182.425Zm-30.925-22.72q-.521-6.5-1.008-13a1.957,1.957,0,0,0-1.959-1.8h0a1.956,1.956,0,0,0-1.959,1.811q-.469,6.5-.961,13a1.951,1.951,0,0,0,1.954,2.1h1.984A1.95,1.95,0,0,0,103.659,159.705Z" fill="#a2e4fd"/>
        <path d="M143.981,126.3a117.753,117.753,0,0,1,21.181,1.153,3.559,3.559,0,0,1,2.739,2.058c3.237,7.375,6.192,14.679,9.166,22a.933.933,0,0,0,.865.582h0a.939.939,0,0,0,.937-.937q.025-10.267.219-20.534a3.519,3.519,0,0,1,3.139-3.317,117.791,117.791,0,0,1,20.076-1.024,2.754,2.754,0,0,1,2.726,3.059,376.058,376.058,0,0,0,0,49.984,2.726,2.726,0,0,1-2.649,3.053,124.907,124.907,0,0,1-21.236-1.162,3.575,3.575,0,0,1-2.764-2.067c-3.243-7.442-6.2-14.812-9.177-22.206a.936.936,0,0,0-.867-.585h0a.94.94,0,0,0-.937.938q-.025,10.38-.222,20.761a3.474,3.474,0,0,1-3.048,3.3,125.614,125.614,0,0,1-20.244,1.021,2.724,2.724,0,0,1-2.649-3.053,376.2,376.2,0,0,0,0-49.971A2.754,2.754,0,0,1,143.981,126.3Z" fill="#a2e4fd"/>
        <path d="M212.932,129.2a2.761,2.761,0,0,1,2.557-3.037c4.334-.407,13.713-.913,26.1-.811,23.9-.216,33.131,13.485,33.069,28.941.058,15.523-9.166,29.224-33.069,29.008-12.352.1-21.754-.408-26.1-.813a2.763,2.763,0,0,1-2.559-3.038A453.356,453.356,0,0,0,212.932,129.2ZM240.52,161c5.719-.014,9.721-2.119,9.715-6.643,0-4.461-4-6.63-9.715-6.644-.152,0-.3,0-.452,0a3.237,3.237,0,0,0-3.176,3.263q.011,3.376,0,6.754A3.236,3.236,0,0,0,240.068,161C240.218,161,240.368,161,240.52,161Z" fill="#a2e4fd"/>
        <path d="M306.4,130.25c.94,10.372,1.444,20.737,1.57,31.093a.838.838,0,0,0,.847.834h.132a.886.886,0,0,0,.862-.725c1.946-10.547,3.478-21.051,4.952-31.532a3.136,3.136,0,0,1,2.6-2.631,43.128,43.128,0,0,1,17.457,0,3.137,3.137,0,0,1,2.6,2.631c1.473,10.481,3.007,20.985,4.953,31.532a.886.886,0,0,0,.861.725h.132a.839.839,0,0,0,.847-.834c.127-10.356.631-20.721,1.571-31.093a3.731,3.731,0,0,1,3.09-3.229,91.962,91.962,0,0,1,24.451-1.038,2.729,2.729,0,0,1,2.287,3.644,250.141,250.141,0,0,0-7.285,49.859,2.715,2.715,0,0,1-2.544,2.625,146.053,146.053,0,0,1-32.252-.844,3.445,3.445,0,0,1-2.969-2.806c-1.308-8.231-2.466-16.455-3.614-24.677a.858.858,0,0,0-.85-.741h-.009a.861.861,0,0,0-.851.741c-1.148,8.222-2.3,16.446-3.613,24.677a3.447,3.447,0,0,1-2.968,2.806,146.129,146.129,0,0,1-32.254.844,2.716,2.716,0,0,1-2.544-2.625,250.135,250.135,0,0,0-7.283-49.859,2.728,2.728,0,0,1,2.285-3.644,91.971,91.971,0,0,1,24.452,1.038A3.732,3.732,0,0,1,306.4,130.25Z" fill="#a2e4fd"/>
        <path d="M384.809,125.992c6.992.328,14.067.328,21.06,0a2.648,2.648,0,0,1,2.944,2.758c-.178,16.956-.178,34.2,0,51.155a2.648,2.648,0,0,1-2.944,2.758c-6.993-.329-14.068-.328-21.06,0a2.648,2.648,0,0,1-2.945-2.759c.179-16.955.179-34.2,0-51.154A2.648,2.648,0,0,1,384.809,125.992Z" fill="#a2e4fd"/>
        <path d="M416.4,154.294c-.058-15.525,8.532-28.986,33.153-28.986a156.1,156.1,0,0,1,20.356.806,2.729,2.729,0,0,1,2.464,2.865c-.087,5.822-.376,11.7-.831,17.562a3.458,3.458,0,0,1-3.813,3.287c-12.237-1.678-26.3-2.818-26.28,4.468-.016,7.343,14.043,6.208,26.28,4.531a3.457,3.457,0,0,1,3.813,3.286c.456,5.865.744,11.741.831,17.563a2.729,2.729,0,0,1-2.464,2.865,156.1,156.1,0,0,1-20.356.806C424.934,183.346,416.349,169.886,416.4,154.294Z" fill="#a2e4fd"/>
        <path d="M537.66,182.328a135.217,135.217,0,0,1-21.215-1.059,3.317,3.317,0,0,1-2.99-3.161q-.062-6.05-.093-12.1a3.161,3.161,0,0,0-6.322,0q-.031,6.048-.094,12.1a3.312,3.312,0,0,1-2.988,3.161,135.236,135.236,0,0,1-21.216,1.059,2.652,2.652,0,0,1-2.651-2.927,407.736,407.736,0,0,0-.034-50.61,2.64,2.64,0,0,1,2.779-2.93c6.958.186,13.982.555,20.985,1.063a3.3,3.3,0,0,1,3.122,3.178q.087,8.146.114,16.295a3.145,3.145,0,0,0,6.289,0q.027-8.148.113-16.295a3.3,3.3,0,0,1,3.121-3.178c7-.509,14.027-.878,20.986-1.063a2.638,2.638,0,0,1,2.778,2.93,408.319,408.319,0,0,0-.033,50.61A2.653,2.653,0,0,1,537.66,182.328Z" fill="#a2e4fd"/>
      </g>
      <g>
        <path d="M5.607,77.062c-.166-23.551,9.871-40.449,46.6-40.453,14-.567,24.891-.725,29.968-.552a2.954,2.954,0,0,1,2.957,3.531c-.836,8.744-1.749,17.657-2.625,26.535-.276,2.77-2.551,4.85-5,4.511C60.4,68.5,40.45,66.885,40.5,77.067c-.046,10.262,19.9,8.651,37.012,6.521,2.451-.338,4.726,1.742,5,4.511.876,8.878,1.789,17.791,2.625,26.535a2.955,2.955,0,0,1-2.957,3.531c-5.077.174-15.971.017-29.968-.552C15.476,117.61,5.448,100.713,5.607,77.062Z" fill="#a2e4fd"/>
        <path d="M177.1,117.855c-10.275-.544-20.96-1.692-31.518-3.165a4.68,4.68,0,0,1-4.232-4.3q-.187-8.589-.28-17.177a4.284,4.284,0,0,0-4.277-4.213h-.341a4.284,4.284,0,0,0-4.277,4.213q-.091,8.587-.28,17.177a4.682,4.682,0,0,1-4.232,4.3c-10.558,1.473-21.244,2.621-31.518,3.165-2.253.123-3.624-1.458-3.263-3.768a239.9,239.9,0,0,0-.093-74.652c-.38-2.39,1.092-4.012,3.468-3.742,10.279,1.143,20.759,2.243,31.178,3.166a4.692,4.692,0,0,1,4.451,4.319q.255,11.522.337,23.042a4.243,4.243,0,0,0,4.23,4.207h.339a4.243,4.243,0,0,0,4.23-4.207q.081-11.521.337-23.042a4.692,4.692,0,0,1,4.451-4.319c10.419-.923,20.9-2.023,31.179-3.166,2.374-.269,3.847,1.352,3.467,3.742a239.9,239.9,0,0,0-.093,74.652C180.719,116.4,179.348,117.978,177.1,117.855Z" fill="#a2e4fd"/>
        <path d="M190.911,36.34a634.16,634.16,0,0,0,77.144-.012,2.519,2.519,0,0,1,2.755,2.97c-.627,6.9-1.485,13.949-2.477,20.989a4.431,4.431,0,0,1-4.137,3.978c-11.415-.173-22.869-.546-34.377-1.324a3.6,3.6,0,0,0-3.889,3.588v.183a3.638,3.638,0,0,0,3.741,3.613q9.588-.289,19.187-.781a3.476,3.476,0,0,1,3.653,3.258,54.523,54.523,0,0,1,0,8.8,3.473,3.473,0,0,1-3.652,3.255q-9.6-.5-19.191-.787a3.639,3.639,0,0,0-3.742,3.613v.008a3.6,3.6,0,0,0,3.889,3.588c11.509-.777,22.964-1.15,34.378-1.321a4.436,4.436,0,0,1,4.138,3.979c.992,7.026,1.849,14.061,2.477,20.948a2.53,2.53,0,0,1-2.8,2.977,622.49,622.49,0,0,0-77.1-.022,2.581,2.581,0,0,1-2.8-3.208,276.913,276.913,0,0,0,0-75.091A2.583,2.583,0,0,1,190.911,36.34Z" fill="#a2e4fd"/>
        <path d="M281.229,36.34a634.176,634.176,0,0,0,77.145-.012,2.517,2.517,0,0,1,2.754,2.97c-.628,6.9-1.485,13.949-2.476,20.989a4.434,4.434,0,0,1-4.138,3.978c-11.414-.173-22.868-.546-34.377-1.324a3.6,3.6,0,0,0-3.888,3.588v.183a3.636,3.636,0,0,0,3.741,3.613q9.588-.289,19.186-.781a3.477,3.477,0,0,1,3.654,3.258,54.523,54.523,0,0,1,0,8.8,3.473,3.473,0,0,1-3.652,3.255q-9.6-.5-19.191-.787a3.638,3.638,0,0,0-3.742,3.613v.008a3.6,3.6,0,0,0,3.888,3.588c11.51-.777,22.964-1.15,34.378-1.321a4.438,4.438,0,0,1,4.139,3.979c.99,7.026,1.849,14.061,2.477,20.948a2.531,2.531,0,0,1-2.8,2.977,622.474,622.474,0,0,0-77.1-.022,2.581,2.581,0,0,1-2.8-3.208,276.873,276.873,0,0,0,0-75.091A2.583,2.583,0,0,1,281.229,36.34Z" fill="#a2e4fd"/>
        <path d="M367.465,114.243c.655-7.74,1.5-15.627,2.428-23.46.358-3,3.175-5.014,5.7-4.1C385.119,90.029,397.049,90,404.664,90a21.812,21.812,0,0,0,3.266-.26c5.155-.811,4.035-8.482-1.1-8.025-25,2.315-37.922-.1-39.093-21.027C366.3,43.506,373.82,35.73,411.445,36.676c13.926.013,30.142,0,36.93-.2a2.9,2.9,0,0,1,3.113,3.376c-.663,7.8-1.511,15.737-2.436,23.583-.356,3.007-3.18,5.01-5.707,4.092-9.452-3.332-21.315-3.308-29.066-3.3a21.055,21.055,0,0,0-3.526.308c-5.136.9-4.028,8.49,1.109,8.03,25.223-2.344,38.436-.246,39.611,20.972,1.443,17.181-6.275,24.918-43.905,24.01-14.05,0-30.267-.079-37.02.07A2.9,2.9,0,0,1,367.465,114.243Z" fill="#a2e4fd"/>
        <path d="M461.082,36.34a634.176,634.176,0,0,0,77.145-.012,2.517,2.517,0,0,1,2.754,2.97c-.627,6.9-1.484,13.949-2.475,20.989a4.436,4.436,0,0,1-4.139,3.978c-11.413-.173-22.868-.546-34.376-1.324a3.6,3.6,0,0,0-3.889,3.588v.183a3.637,3.637,0,0,0,3.741,3.613q9.588-.289,19.187-.781a3.478,3.478,0,0,1,3.654,3.258,54.869,54.869,0,0,1,0,8.8,3.475,3.475,0,0,1-3.654,3.255q-9.6-.5-19.189-.787a3.639,3.639,0,0,0-3.743,3.613v.008a3.6,3.6,0,0,0,3.889,3.588c11.509-.777,22.964-1.15,34.378-1.321a4.439,4.439,0,0,1,4.139,3.979c.99,7.026,1.847,14.061,2.475,20.948a2.529,2.529,0,0,1-2.8,2.977,622.49,622.49,0,0,0-77.1-.022,2.581,2.581,0,0,1-2.8-3.208,276.833,276.833,0,0,0,0-75.091A2.583,2.583,0,0,1,461.082,36.34Z" fill="#a2e4fd"/>
        <path d="M4.828,179.7c0-5.31.265-10.67.75-16a3.075,3.075,0,0,1,3.961-2.773c6.889,2.485,15.425,2.643,20.874,2.641a16.249,16.249,0,0,0,1.732-.1c3.786-.428,3.107-6.126-.668-5.8-17.531,1.535-26.972-.54-27.369-14.515-.489-11.347,5.7-18.179,31.083-17.857,9.446,0,20.567.743,25.294,1.016a2.459,2.459,0,0,1,2.378,2.54c-.005,5.353-.268,10.752-.753,16.093a3.074,3.074,0,0,1-3.965,2.769c-6.833-2.475-15.322-2.632-20.87-2.631a15.122,15.122,0,0,0-2.067.143c-3.772.529-3.1,6.139.671,5.809,17.79-1.588,27.492.253,27.891,14.465.49,11.348-5.826,18.166-31.215,17.857-9.531,0-20.66-.811-25.371-1.12A2.459,2.459,0,0,1,4.828,179.7Z" fill="#a2e4fd"/>
        <path d="M134.584,182.425a165.573,165.573,0,0,1-27.477-1.31,2.06,2.06,0,0,1-1.785-1.805q-.258-2.613-.5-5.226a2.021,2.021,0,0,0-2.013-1.81q-2.085-.007-4.168,0a2.022,2.022,0,0,0-2.015,1.825q-.224,2.6-.46,5.2a2.061,2.061,0,0,1-1.786,1.82,165.38,165.38,0,0,1-27.461,1.307,1.7,1.7,0,0,1-1.454-2.441c6.614-18.366,10.895-35.424,15.636-51.448a1.779,1.779,0,0,1,1.611-1.254,316.711,316.711,0,0,1,36.143,0,1.776,1.776,0,0,1,1.61,1.254c4.734,16.027,8.962,33.088,15.573,51.453A1.7,1.7,0,0,1,134.584,182.425Zm-30.925-22.72q-.521-6.5-1.008-13a1.957,1.957,0,0,0-1.959-1.8h0a1.956,1.956,0,0,0-1.959,1.811q-.469,6.5-.961,13a1.951,1.951,0,0,0,1.954,2.1h1.984A1.95,1.95,0,0,0,103.659,159.705Z" fill="#a2e4fd"/>
        <path d="M143.981,126.3a117.753,117.753,0,0,1,21.181,1.153,3.559,3.559,0,0,1,2.739,2.058c3.237,7.375,6.192,14.679,9.166,22a.933.933,0,0,0,.865.582h0a.939.939,0,0,0,.937-.937q.025-10.267.219-20.534a3.519,3.519,0,0,1,3.139-3.317,117.791,117.791,0,0,1,20.076-1.024,2.754,2.754,0,0,1,2.726,3.059,376.058,376.058,0,0,0,0,49.984,2.726,2.726,0,0,1-2.649,3.053,124.907,124.907,0,0,1-21.236-1.162,3.575,3.575,0,0,1-2.764-2.067c-3.243-7.442-6.2-14.812-9.177-22.206a.936.936,0,0,0-.867-.585h0a.94.94,0,0,0-.937.938q-.025,10.38-.222,20.761a3.474,3.474,0,0,1-3.048,3.3,125.614,125.614,0,0,1-20.244,1.021,2.724,2.724,0,0,1-2.649-3.053,376.2,376.2,0,0,0,0-49.971A2.754,2.754,0,0,1,143.981,126.3Z" fill="#a2e4fd"/>
        <path d="M212.932,129.2a2.761,2.761,0,0,1,2.557-3.037c4.334-.407,13.713-.913,26.1-.811,23.9-.216,33.131,13.485,33.069,28.941.058,15.523-9.166,29.224-33.069,29.008-12.352.1-21.754-.408-26.1-.813a2.763,2.763,0,0,1-2.559-3.038A453.356,453.356,0,0,0,212.932,129.2ZM240.52,161c5.719-.014,9.721-2.119,9.715-6.643,0-4.461-4-6.63-9.715-6.644-.152,0-.3,0-.452,0a3.237,3.237,0,0,0-3.176,3.263q.011,3.376,0,6.754A3.236,3.236,0,0,0,240.068,161C240.218,161,240.368,161,240.52,161Z" fill="#a2e4fd"/>
        <path d="M306.4,130.25c.94,10.372,1.444,20.737,1.57,31.093a.838.838,0,0,0,.847.834h.132a.886.886,0,0,0,.862-.725c1.946-10.547,3.478-21.051,4.952-31.532a3.136,3.136,0,0,1,2.6-2.631,43.128,43.128,0,0,1,17.457,0,3.137,3.137,0,0,1,2.6,2.631c1.473,10.481,3.007,20.985,4.953,31.532a.886.886,0,0,0,.861.725h.132a.839.839,0,0,0,.847-.834c.127-10.356.631-20.721,1.571-31.093a3.731,3.731,0,0,1,3.09-3.229,91.962,91.962,0,0,1,24.451-1.038,2.729,2.729,0,0,1,2.287,3.644,250.141,250.141,0,0,0-7.285,49.859,2.715,2.715,0,0,1-2.544,2.625,146.053,146.053,0,0,1-32.252-.844,3.445,3.445,0,0,1-2.969-2.806c-1.308-8.231-2.466-16.455-3.614-24.677a.858.858,0,0,0-.85-.741h-.009a.861.861,0,0,0-.851.741c-1.148,8.222-2.3,16.446-3.613,24.677a3.447,3.447,0,0,1-2.968,2.806,146.129,146.129,0,0,1-32.254.844,2.716,2.716,0,0,1-2.544-2.625,250.135,250.135,0,0,0-7.283-49.859,2.728,2.728,0,0,1,2.285-3.644,91.971,91.971,0,0,1,24.452,1.038A3.732,3.732,0,0,1,306.4,130.25Z" fill="#a2e4fd"/>
        <path d="M384.809,125.992c6.992.328,14.067.328,21.06,0a2.648,2.648,0,0,1,2.944,2.758c-.178,16.956-.178,34.2,0,51.155a2.648,2.648,0,0,1-2.944,2.758c-6.993-.329-14.068-.328-21.06,0a2.648,2.648,0,0,1-2.945-2.759c.179-16.955.179-34.2,0-51.154A2.648,2.648,0,0,1,384.809,125.992Z" fill="#a2e4fd"/>
        <path d="M416.4,154.294c-.058-15.525,8.532-28.986,33.153-28.986a156.1,156.1,0,0,1,20.356.806,2.729,2.729,0,0,1,2.464,2.865c-.087,5.822-.376,11.7-.831,17.562a3.458,3.458,0,0,1-3.813,3.287c-12.237-1.678-26.3-2.818-26.28,4.468-.016,7.343,14.043,6.208,26.28,4.531a3.457,3.457,0,0,1,3.813,3.286c.456,5.865.744,11.741.831,17.563a2.729,2.729,0,0,1-2.464,2.865,156.1,156.1,0,0,1-20.356.806C424.934,183.346,416.349,169.886,416.4,154.294Z" fill="#a2e4fd"/>
        <path d="M537.66,182.328a135.217,135.217,0,0,1-21.215-1.059,3.317,3.317,0,0,1-2.99-3.161q-.062-6.05-.093-12.1a3.161,3.161,0,0,0-6.322,0q-.031,6.048-.094,12.1a3.312,3.312,0,0,1-2.988,3.161,135.236,135.236,0,0,1-21.216,1.059,2.652,2.652,0,0,1-2.651-2.927,407.736,407.736,0,0,0-.034-50.61,2.64,2.64,0,0,1,2.779-2.93c6.958.186,13.982.555,20.985,1.063a3.3,3.3,0,0,1,3.122,3.178q.087,8.146.114,16.295a3.145,3.145,0,0,0,6.289,0q.027-8.148.113-16.295a3.3,3.3,0,0,1,3.121-3.178c7-.509,14.027-.878,20.986-1.063a2.638,2.638,0,0,1,2.778,2.93,408.319,408.319,0,0,0-.033,50.61A2.653,2.653,0,0,1,537.66,182.328Z" fill="#a2e4fd"/>
      </g>
    </g>
    <g>
      <g>
        <path d="M5.607,72.062c-.166-23.551,9.871-40.449,46.6-40.453,14-.567,24.891-.725,29.968-.552a2.954,2.954,0,0,1,2.957,3.531c-.836,8.744-1.749,17.657-2.625,26.535-.276,2.77-2.551,4.85-5,4.511C60.4,63.5,40.45,61.885,40.5,72.067c-.046,10.262,19.9,8.651,37.012,6.521,2.451-.338,4.726,1.742,5,4.511.876,8.878,1.789,17.791,2.625,26.535a2.955,2.955,0,0,1-2.957,3.531c-5.077.174-15.971.017-29.968-.552C15.476,112.61,5.448,95.713,5.607,72.062Z" fill="#fb3600"/>
        <path d="M177.1,112.855c-10.275-.544-20.96-1.692-31.518-3.165a4.68,4.68,0,0,1-4.232-4.3q-.187-8.589-.28-17.177a4.284,4.284,0,0,0-4.277-4.213h-.341a4.284,4.284,0,0,0-4.277,4.213q-.091,8.587-.28,17.177a4.682,4.682,0,0,1-4.232,4.3c-10.558,1.473-21.244,2.621-31.518,3.165-2.253.123-3.624-1.458-3.263-3.768a239.9,239.9,0,0,0-.093-74.652c-.38-2.39,1.092-4.012,3.468-3.742,10.279,1.143,20.759,2.243,31.178,3.166a4.692,4.692,0,0,1,4.451,4.319q.255,11.522.337,23.042a4.243,4.243,0,0,0,4.23,4.207h.339a4.243,4.243,0,0,0,4.23-4.207q.081-11.521.337-23.042a4.692,4.692,0,0,1,4.451-4.319c10.419-.923,20.9-2.023,31.179-3.166,2.374-.269,3.847,1.352,3.467,3.742a239.9,239.9,0,0,0-.093,74.652C180.719,111.4,179.348,112.978,177.1,112.855Z" fill="#fb3600"/>
        <path d="M190.911,31.34a634.16,634.16,0,0,0,77.144-.012,2.519,2.519,0,0,1,2.755,2.97c-.627,6.9-1.485,13.949-2.477,20.989a4.431,4.431,0,0,1-4.137,3.978c-11.415-.173-22.869-.546-34.377-1.324a3.6,3.6,0,0,0-3.889,3.588v.183a3.638,3.638,0,0,0,3.741,3.613q9.588-.289,19.187-.781a3.476,3.476,0,0,1,3.653,3.258,54.523,54.523,0,0,1,0,8.8,3.473,3.473,0,0,1-3.652,3.255q-9.6-.5-19.191-.787a3.639,3.639,0,0,0-3.742,3.613v.008a3.6,3.6,0,0,0,3.889,3.588c11.509-.777,22.964-1.15,34.378-1.321a4.436,4.436,0,0,1,4.138,3.979c.992,7.026,1.849,14.061,2.477,20.948a2.53,2.53,0,0,1-2.8,2.977,622.49,622.49,0,0,0-77.1-.022,2.581,2.581,0,0,1-2.8-3.208,276.913,276.913,0,0,0,0-75.091A2.583,2.583,0,0,1,190.911,31.34Z" fill="#fb3600"/>
        <path d="M281.229,31.34a634.176,634.176,0,0,0,77.145-.012,2.517,2.517,0,0,1,2.754,2.97c-.628,6.9-1.485,13.949-2.476,20.989a4.434,4.434,0,0,1-4.138,3.978c-11.414-.173-22.868-.546-34.377-1.324a3.6,3.6,0,0,0-3.888,3.588v.183a3.636,3.636,0,0,0,3.741,3.613q9.588-.289,19.186-.781a3.477,3.477,0,0,1,3.654,3.258,54.523,54.523,0,0,1,0,8.8,3.473,3.473,0,0,1-3.652,3.255q-9.6-.5-19.191-.787a3.638,3.638,0,0,0-3.742,3.613v.008a3.6,3.6,0,0,0,3.888,3.588c11.51-.777,22.964-1.15,34.378-1.321a4.438,4.438,0,0,1,4.139,3.979c.99,7.026,1.849,14.061,2.477,20.948a2.531,2.531,0,0,1-2.8,2.977,622.474,622.474,0,0,0-77.1-.022,2.581,2.581,0,0,1-2.8-3.208,276.873,276.873,0,0,0,0-75.091A2.583,2.583,0,0,1,281.229,31.34Z" fill="#fb3600"/>
        <path d="M367.465,109.243c.655-7.74,1.5-15.627,2.428-23.46.358-3,3.175-5.014,5.7-4.1C385.119,85.029,397.049,85,404.664,85a21.812,21.812,0,0,0,3.266-.26c5.155-.811,4.035-8.482-1.1-8.025-25,2.315-37.922-.1-39.093-21.027C366.3,38.506,373.82,30.73,411.445,31.676c13.926.013,30.142,0,36.93-.2a2.9,2.9,0,0,1,3.113,3.376c-.663,7.8-1.511,15.737-2.436,23.583-.356,3.007-3.18,5.01-5.707,4.092-9.452-3.332-21.315-3.308-29.066-3.3a21.055,21.055,0,0,0-3.526.308c-5.136.9-4.028,8.49,1.109,8.03,25.223-2.344,38.436-.246,39.611,20.972,1.443,17.181-6.275,24.918-43.905,24.01-14.05,0-30.267-.079-37.02.07A2.9,2.9,0,0,1,367.465,109.243Z" fill="#fb3600"/>
        <path d="M461.082,31.34a634.176,634.176,0,0,0,77.145-.012,2.517,2.517,0,0,1,2.754,2.97c-.627,6.9-1.484,13.949-2.475,20.989a4.436,4.436,0,0,1-4.139,3.978c-11.413-.173-22.868-.546-34.376-1.324a3.6,3.6,0,0,0-3.889,3.588v.183a3.637,3.637,0,0,0,3.741,3.613q9.588-.289,19.187-.781a3.478,3.478,0,0,1,3.654,3.258,54.869,54.869,0,0,1,0,8.8,3.475,3.475,0,0,1-3.654,3.255q-9.6-.5-19.189-.787a3.639,3.639,0,0,0-3.743,3.613v.008a3.6,3.6,0,0,0,3.889,3.588c11.509-.777,22.964-1.15,34.378-1.321a4.439,4.439,0,0,1,4.139,3.979c.99,7.026,1.847,14.061,2.475,20.948a2.529,2.529,0,0,1-2.8,2.977,622.49,622.49,0,0,0-77.1-.022,2.581,2.581,0,0,1-2.8-3.208,276.833,276.833,0,0,0,0-75.091A2.583,2.583,0,0,1,461.082,31.34Z" fill="#fb3600"/>
        <path d="M4.828,174.7c0-5.31.265-10.67.75-16a3.075,3.075,0,0,1,3.961-2.773c6.889,2.485,15.425,2.643,20.874,2.641a16.249,16.249,0,0,0,1.732-.1c3.786-.428,3.107-6.126-.668-5.8-17.531,1.535-26.972-.54-27.369-14.515-.489-11.347,5.7-18.179,31.083-17.857,9.446,0,20.567.743,25.294,1.016a2.459,2.459,0,0,1,2.378,2.54c-.005,5.353-.268,10.752-.753,16.093a3.074,3.074,0,0,1-3.965,2.769c-6.833-2.475-15.322-2.632-20.87-2.631a15.122,15.122,0,0,0-2.067.143c-3.772.529-3.1,6.139.671,5.809,17.79-1.588,27.492.253,27.891,14.465.49,11.348-5.826,18.166-31.215,17.857-9.531,0-20.66-.811-25.371-1.12A2.459,2.459,0,0,1,4.828,174.7Z" fill="#fb3600"/>
        <path d="M134.584,177.425a165.573,165.573,0,0,1-27.477-1.31,2.06,2.06,0,0,1-1.785-1.805q-.258-2.613-.5-5.226a2.021,2.021,0,0,0-2.013-1.81q-2.085-.007-4.168,0a2.022,2.022,0,0,0-2.015,1.825q-.224,2.6-.46,5.2a2.061,2.061,0,0,1-1.786,1.82,165.38,165.38,0,0,1-27.461,1.307,1.7,1.7,0,0,1-1.454-2.441c6.614-18.366,10.895-35.424,15.636-51.448a1.779,1.779,0,0,1,1.611-1.254,316.711,316.711,0,0,1,36.143,0,1.776,1.776,0,0,1,1.61,1.254c4.734,16.027,8.962,33.088,15.573,51.453A1.7,1.7,0,0,1,134.584,177.425Zm-30.925-22.72q-.521-6.5-1.008-13a1.957,1.957,0,0,0-1.959-1.8h0a1.956,1.956,0,0,0-1.959,1.811q-.469,6.5-.961,13a1.951,1.951,0,0,0,1.954,2.1h1.984A1.95,1.95,0,0,0,103.659,154.705Z" fill="#fb3600"/>
        <path d="M143.981,121.3a117.753,117.753,0,0,1,21.181,1.153,3.559,3.559,0,0,1,2.739,2.058c3.237,7.375,6.192,14.679,9.166,22.005a.933.933,0,0,0,.865.582h0a.939.939,0,0,0,.937-.937q.025-10.267.219-20.534a3.519,3.519,0,0,1,3.139-3.317,117.791,117.791,0,0,1,20.076-1.024,2.754,2.754,0,0,1,2.726,3.059,376.058,376.058,0,0,0,0,49.984,2.726,2.726,0,0,1-2.649,3.053,124.907,124.907,0,0,1-21.236-1.162,3.575,3.575,0,0,1-2.764-2.067c-3.243-7.442-6.2-14.812-9.177-22.206a.936.936,0,0,0-.867-.585h0a.94.94,0,0,0-.937.938q-.025,10.38-.222,20.761a3.474,3.474,0,0,1-3.048,3.3,125.614,125.614,0,0,1-20.244,1.021,2.724,2.724,0,0,1-2.649-3.053,376.2,376.2,0,0,0,0-49.971A2.754,2.754,0,0,1,143.981,121.3Z" fill="#fb3600"/>
        <path d="M212.932,124.2a2.761,2.761,0,0,1,2.557-3.037c4.334-.407,13.713-.913,26.1-.811,23.9-.216,33.131,13.485,33.069,28.941.058,15.523-9.166,29.224-33.069,29.008-12.352.1-21.754-.408-26.1-.813a2.763,2.763,0,0,1-2.559-3.038A453.356,453.356,0,0,0,212.932,124.2ZM240.52,156c5.719-.014,9.721-2.119,9.715-6.643,0-4.461-4-6.63-9.715-6.644-.152,0-.3,0-.452,0a3.237,3.237,0,0,0-3.176,3.263q.011,3.376,0,6.754A3.236,3.236,0,0,0,240.068,156C240.218,156,240.368,156,240.52,156Z" fill="#fb3600"/>
        <path d="M306.4,125.25c.94,10.372,1.444,20.737,1.57,31.093a.838.838,0,0,0,.847.834h.132a.886.886,0,0,0,.862-.725c1.946-10.547,3.478-21.051,4.952-31.532a3.136,3.136,0,0,1,2.6-2.631,43.128,43.128,0,0,1,17.457,0,3.137,3.137,0,0,1,2.6,2.631c1.473,10.481,3.007,20.985,4.953,31.532a.886.886,0,0,0,.861.725h.132a.839.839,0,0,0,.847-.834c.127-10.356.631-20.721,1.571-31.093a3.731,3.731,0,0,1,3.09-3.229,91.962,91.962,0,0,1,24.451-1.038,2.729,2.729,0,0,1,2.287,3.644,250.141,250.141,0,0,0-7.285,49.859,2.715,2.715,0,0,1-2.544,2.625,146.053,146.053,0,0,1-32.252-.844,3.445,3.445,0,0,1-2.969-2.806c-1.308-8.231-2.466-16.455-3.614-24.677a.858.858,0,0,0-.85-.741h-.009a.861.861,0,0,0-.851.741c-1.148,8.222-2.3,16.446-3.613,24.677a3.447,3.447,0,0,1-2.968,2.806,146.129,146.129,0,0,1-32.254.844,2.716,2.716,0,0,1-2.544-2.625,250.135,250.135,0,0,0-7.283-49.859,2.728,2.728,0,0,1,2.285-3.644,91.971,91.971,0,0,1,24.452,1.038A3.732,3.732,0,0,1,306.4,125.25Z" fill="#fb3600"/>
        <path d="M384.809,120.992c6.992.328,14.067.328,21.06,0a2.648,2.648,0,0,1,2.944,2.758c-.178,16.956-.178,34.2,0,51.155a2.648,2.648,0,0,1-2.944,2.758c-6.993-.329-14.068-.328-21.06,0a2.648,2.648,0,0,1-2.945-2.759c.179-16.955.179-34.2,0-51.154A2.648,2.648,0,0,1,384.809,120.992Z" fill="#fb3600"/>
        <path d="M416.4,149.294c-.058-15.525,8.532-28.986,33.153-28.986a156.1,156.1,0,0,1,20.356.806,2.729,2.729,0,0,1,2.464,2.865c-.087,5.822-.376,11.7-.831,17.562a3.458,3.458,0,0,1-3.813,3.287c-12.237-1.678-26.3-2.818-26.28,4.468-.016,7.343,14.043,6.208,26.28,4.531a3.457,3.457,0,0,1,3.813,3.286c.456,5.865.744,11.741.831,17.563a2.729,2.729,0,0,1-2.464,2.865,156.1,156.1,0,0,1-20.356.806C424.934,178.346,416.349,164.886,416.4,149.294Z" fill="#fb3600"/>
        <path d="M537.66,177.328a135.217,135.217,0,0,1-21.215-1.059,3.317,3.317,0,0,1-2.99-3.161q-.062-6.05-.093-12.1a3.161,3.161,0,0,0-6.322,0q-.031,6.048-.094,12.1a3.312,3.312,0,0,1-2.988,3.161,135.236,135.236,0,0,1-21.216,1.059,2.652,2.652,0,0,1-2.651-2.927,407.736,407.736,0,0,0-.034-50.61,2.64,2.64,0,0,1,2.779-2.93c6.958.186,13.982.555,20.985,1.063a3.3,3.3,0,0,1,3.122,3.178q.087,8.146.114,16.295a3.145,3.145,0,0,0,6.289,0q.027-8.148.113-16.295a3.3,3.3,0,0,1,3.121-3.178c7-.509,14.027-.878,20.986-1.063a2.638,2.638,0,0,1,2.778,2.93,408.319,408.319,0,0,0-.033,50.61A2.653,2.653,0,0,1,537.66,177.328Z" fill="#fb3600"/>
      </g>
      <g>
        <path d="M5.607,72.062c-.166-23.551,9.871-40.449,46.6-40.453,14-.567,24.891-.725,29.968-.552a2.954,2.954,0,0,1,2.957,3.531c-.836,8.744-1.749,17.657-2.625,26.535-.276,2.77-2.551,4.85-5,4.511C60.4,63.5,40.45,61.885,40.5,72.067c-.046,10.262,19.9,8.651,37.012,6.521,2.451-.338,4.726,1.742,5,4.511.876,8.878,1.789,17.791,2.625,26.535a2.955,2.955,0,0,1-2.957,3.531c-5.077.174-15.971.017-29.968-.552C15.476,112.61,5.448,95.713,5.607,72.062Z" fill="#fb3600"/>
        <path d="M177.1,112.855c-10.275-.544-20.96-1.692-31.518-3.165a4.68,4.68,0,0,1-4.232-4.3q-.187-8.589-.28-17.177a4.284,4.284,0,0,0-4.277-4.213h-.341a4.284,4.284,0,0,0-4.277,4.213q-.091,8.587-.28,17.177a4.682,4.682,0,0,1-4.232,4.3c-10.558,1.473-21.244,2.621-31.518,3.165-2.253.123-3.624-1.458-3.263-3.768a239.9,239.9,0,0,0-.093-74.652c-.38-2.39,1.092-4.012,3.468-3.742,10.279,1.143,20.759,2.243,31.178,3.166a4.692,4.692,0,0,1,4.451,4.319q.255,11.522.337,23.042a4.243,4.243,0,0,0,4.23,4.207h.339a4.243,4.243,0,0,0,4.23-4.207q.081-11.521.337-23.042a4.692,4.692,0,0,1,4.451-4.319c10.419-.923,20.9-2.023,31.179-3.166,2.374-.269,3.847,1.352,3.467,3.742a239.9,239.9,0,0,0-.093,74.652C180.719,111.4,179.348,112.978,177.1,112.855Z" fill="#fb3600"/>
        <path d="M190.911,31.34a634.16,634.16,0,0,0,77.144-.012,2.519,2.519,0,0,1,2.755,2.97c-.627,6.9-1.485,13.949-2.477,20.989a4.431,4.431,0,0,1-4.137,3.978c-11.415-.173-22.869-.546-34.377-1.324a3.6,3.6,0,0,0-3.889,3.588v.183a3.638,3.638,0,0,0,3.741,3.613q9.588-.289,19.187-.781a3.476,3.476,0,0,1,3.653,3.258,54.523,54.523,0,0,1,0,8.8,3.473,3.473,0,0,1-3.652,3.255q-9.6-.5-19.191-.787a3.639,3.639,0,0,0-3.742,3.613v.008a3.6,3.6,0,0,0,3.889,3.588c11.509-.777,22.964-1.15,34.378-1.321a4.436,4.436,0,0,1,4.138,3.979c.992,7.026,1.849,14.061,2.477,20.948a2.53,2.53,0,0,1-2.8,2.977,622.49,622.49,0,0,0-77.1-.022,2.581,2.581,0,0,1-2.8-3.208,276.913,276.913,0,0,0,0-75.091A2.583,2.583,0,0,1,190.911,31.34Z" fill="#fb3600"/>
        <path d="M281.229,31.34a634.176,634.176,0,0,0,77.145-.012,2.517,2.517,0,0,1,2.754,2.97c-.628,6.9-1.485,13.949-2.476,20.989a4.434,4.434,0,0,1-4.138,3.978c-11.414-.173-22.868-.546-34.377-1.324a3.6,3.6,0,0,0-3.888,3.588v.183a3.636,3.636,0,0,0,3.741,3.613q9.588-.289,19.186-.781a3.477,3.477,0,0,1,3.654,3.258,54.523,54.523,0,0,1,0,8.8,3.473,3.473,0,0,1-3.652,3.255q-9.6-.5-19.191-.787a3.638,3.638,0,0,0-3.742,3.613v.008a3.6,3.6,0,0,0,3.888,3.588c11.51-.777,22.964-1.15,34.378-1.321a4.438,4.438,0,0,1,4.139,3.979c.99,7.026,1.849,14.061,2.477,20.948a2.531,2.531,0,0,1-2.8,2.977,622.474,622.474,0,0,0-77.1-.022,2.581,2.581,0,0,1-2.8-3.208,276.873,276.873,0,0,0,0-75.091A2.583,2.583,0,0,1,281.229,31.34Z" fill="#fb3600"/>
        <path d="M367.465,109.243c.655-7.74,1.5-15.627,2.428-23.46.358-3,3.175-5.014,5.7-4.1C385.119,85.029,397.049,85,404.664,85a21.812,21.812,0,0,0,3.266-.26c5.155-.811,4.035-8.482-1.1-8.025-25,2.315-37.922-.1-39.093-21.027C366.3,38.506,373.82,30.73,411.445,31.676c13.926.013,30.142,0,36.93-.2a2.9,2.9,0,0,1,3.113,3.376c-.663,7.8-1.511,15.737-2.436,23.583-.356,3.007-3.18,5.01-5.707,4.092-9.452-3.332-21.315-3.308-29.066-3.3a21.055,21.055,0,0,0-3.526.308c-5.136.9-4.028,8.49,1.109,8.03,25.223-2.344,38.436-.246,39.611,20.972,1.443,17.181-6.275,24.918-43.905,24.01-14.05,0-30.267-.079-37.02.07A2.9,2.9,0,0,1,367.465,109.243Z" fill="#fb3600"/>
        <path d="M461.082,31.34a634.176,634.176,0,0,0,77.145-.012,2.517,2.517,0,0,1,2.754,2.97c-.627,6.9-1.484,13.949-2.475,20.989a4.436,4.436,0,0,1-4.139,3.978c-11.413-.173-22.868-.546-34.376-1.324a3.6,3.6,0,0,0-3.889,3.588v.183a3.637,3.637,0,0,0,3.741,3.613q9.588-.289,19.187-.781a3.478,3.478,0,0,1,3.654,3.258,54.869,54.869,0,0,1,0,8.8,3.475,3.475,0,0,1-3.654,3.255q-9.6-.5-19.189-.787a3.639,3.639,0,0,0-3.743,3.613v.008a3.6,3.6,0,0,0,3.889,3.588c11.509-.777,22.964-1.15,34.378-1.321a4.439,4.439,0,0,1,4.139,3.979c.99,7.026,1.847,14.061,2.475,20.948a2.529,2.529,0,0,1-2.8,2.977,622.49,622.49,0,0,0-77.1-.022,2.581,2.581,0,0,1-2.8-3.208,276.833,276.833,0,0,0,0-75.091A2.583,2.583,0,0,1,461.082,31.34Z" fill="#fb3600"/>
        <path d="M4.828,174.7c0-5.31.265-10.67.75-16a3.075,3.075,0,0,1,3.961-2.773c6.889,2.485,15.425,2.643,20.874,2.641a16.249,16.249,0,0,0,1.732-.1c3.786-.428,3.107-6.126-.668-5.8-17.531,1.535-26.972-.54-27.369-14.515-.489-11.347,5.7-18.179,31.083-17.857,9.446,0,20.567.743,25.294,1.016a2.459,2.459,0,0,1,2.378,2.54c-.005,5.353-.268,10.752-.753,16.093a3.074,3.074,0,0,1-3.965,2.769c-6.833-2.475-15.322-2.632-20.87-2.631a15.122,15.122,0,0,0-2.067.143c-3.772.529-3.1,6.139.671,5.809,17.79-1.588,27.492.253,27.891,14.465.49,11.348-5.826,18.166-31.215,17.857-9.531,0-20.66-.811-25.371-1.12A2.459,2.459,0,0,1,4.828,174.7Z" fill="#fb3600"/>
        <path d="M134.584,177.425a165.573,165.573,0,0,1-27.477-1.31,2.06,2.06,0,0,1-1.785-1.805q-.258-2.613-.5-5.226a2.021,2.021,0,0,0-2.013-1.81q-2.085-.007-4.168,0a2.022,2.022,0,0,0-2.015,1.825q-.224,2.6-.46,5.2a2.061,2.061,0,0,1-1.786,1.82,165.38,165.38,0,0,1-27.461,1.307,1.7,1.7,0,0,1-1.454-2.441c6.614-18.366,10.895-35.424,15.636-51.448a1.779,1.779,0,0,1,1.611-1.254,316.711,316.711,0,0,1,36.143,0,1.776,1.776,0,0,1,1.61,1.254c4.734,16.027,8.962,33.088,15.573,51.453A1.7,1.7,0,0,1,134.584,177.425Zm-30.925-22.72q-.521-6.5-1.008-13a1.957,1.957,0,0,0-1.959-1.8h0a1.956,1.956,0,0,0-1.959,1.811q-.469,6.5-.961,13a1.951,1.951,0,0,0,1.954,2.1h1.984A1.95,1.95,0,0,0,103.659,154.705Z" fill="#fb3600"/>
        <path d="M143.981,121.3a117.753,117.753,0,0,1,21.181,1.153,3.559,3.559,0,0,1,2.739,2.058c3.237,7.375,6.192,14.679,9.166,22.005a.933.933,0,0,0,.865.582h0a.939.939,0,0,0,.937-.937q.025-10.267.219-20.534a3.519,3.519,0,0,1,3.139-3.317,117.791,117.791,0,0,1,20.076-1.024,2.754,2.754,0,0,1,2.726,3.059,376.058,376.058,0,0,0,0,49.984,2.726,2.726,0,0,1-2.649,3.053,124.907,124.907,0,0,1-21.236-1.162,3.575,3.575,0,0,1-2.764-2.067c-3.243-7.442-6.2-14.812-9.177-22.206a.936.936,0,0,0-.867-.585h0a.94.94,0,0,0-.937.938q-.025,10.38-.222,20.761a3.474,3.474,0,0,1-3.048,3.3,125.614,125.614,0,0,1-20.244,1.021,2.724,2.724,0,0,1-2.649-3.053,376.2,376.2,0,0,0,0-49.971A2.754,2.754,0,0,1,143.981,121.3Z" fill="#fb3600"/>
        <path d="M212.932,124.2a2.761,2.761,0,0,1,2.557-3.037c4.334-.407,13.713-.913,26.1-.811,23.9-.216,33.131,13.485,33.069,28.941.058,15.523-9.166,29.224-33.069,29.008-12.352.1-21.754-.408-26.1-.813a2.763,2.763,0,0,1-2.559-3.038A453.356,453.356,0,0,0,212.932,124.2ZM240.52,156c5.719-.014,9.721-2.119,9.715-6.643,0-4.461-4-6.63-9.715-6.644-.152,0-.3,0-.452,0a3.237,3.237,0,0,0-3.176,3.263q.011,3.376,0,6.754A3.236,3.236,0,0,0,240.068,156C240.218,156,240.368,156,240.52,156Z" fill="#fb3600"/>
        <path d="M306.4,125.25c.94,10.372,1.444,20.737,1.57,31.093a.838.838,0,0,0,.847.834h.132a.886.886,0,0,0,.862-.725c1.946-10.547,3.478-21.051,4.952-31.532a3.136,3.136,0,0,1,2.6-2.631,43.128,43.128,0,0,1,17.457,0,3.137,3.137,0,0,1,2.6,2.631c1.473,10.481,3.007,20.985,4.953,31.532a.886.886,0,0,0,.861.725h.132a.839.839,0,0,0,.847-.834c.127-10.356.631-20.721,1.571-31.093a3.731,3.731,0,0,1,3.09-3.229,91.962,91.962,0,0,1,24.451-1.038,2.729,2.729,0,0,1,2.287,3.644,250.141,250.141,0,0,0-7.285,49.859,2.715,2.715,0,0,1-2.544,2.625,146.053,146.053,0,0,1-32.252-.844,3.445,3.445,0,0,1-2.969-2.806c-1.308-8.231-2.466-16.455-3.614-24.677a.858.858,0,0,0-.85-.741h-.009a.861.861,0,0,0-.851.741c-1.148,8.222-2.3,16.446-3.613,24.677a3.447,3.447,0,0,1-2.968,2.806,146.129,146.129,0,0,1-32.254.844,2.716,2.716,0,0,1-2.544-2.625,250.135,250.135,0,0,0-7.283-49.859,2.728,2.728,0,0,1,2.285-3.644,91.971,91.971,0,0,1,24.452,1.038A3.732,3.732,0,0,1,306.4,125.25Z" fill="#fb3600"/>
        <path d="M384.809,120.992c6.992.328,14.067.328,21.06,0a2.648,2.648,0,0,1,2.944,2.758c-.178,16.956-.178,34.2,0,51.155a2.648,2.648,0,0,1-2.944,2.758c-6.993-.329-14.068-.328-21.06,0a2.648,2.648,0,0,1-2.945-2.759c.179-16.955.179-34.2,0-51.154A2.648,2.648,0,0,1,384.809,120.992Z" fill="#fb3600"/>
        <path d="M416.4,149.294c-.058-15.525,8.532-28.986,33.153-28.986a156.1,156.1,0,0,1,20.356.806,2.729,2.729,0,0,1,2.464,2.865c-.087,5.822-.376,11.7-.831,17.562a3.458,3.458,0,0,1-3.813,3.287c-12.237-1.678-26.3-2.818-26.28,4.468-.016,7.343,14.043,6.208,26.28,4.531a3.457,3.457,0,0,1,3.813,3.286c.456,5.865.744,11.741.831,17.563a2.729,2.729,0,0,1-2.464,2.865,156.1,156.1,0,0,1-20.356.806C424.934,178.346,416.349,164.886,416.4,149.294Z" fill="#fb3600"/>
        <path d="M537.66,177.328a135.217,135.217,0,0,1-21.215-1.059,3.317,3.317,0,0,1-2.99-3.161q-.062-6.05-.093-12.1a3.161,3.161,0,0,0-6.322,0q-.031,6.048-.094,12.1a3.312,3.312,0,0,1-2.988,3.161,135.236,135.236,0,0,1-21.216,1.059,2.652,2.652,0,0,1-2.651-2.927,407.736,407.736,0,0,0-.034-50.61,2.64,2.64,0,0,1,2.779-2.93c6.958.186,13.982.555,20.985,1.063a3.3,3.3,0,0,1,3.122,3.178q.087,8.146.114,16.295a3.145,3.145,0,0,0,6.289,0q.027-8.148.113-16.295a3.3,3.3,0,0,1,3.121-3.178c7-.509,14.027-.878,20.986-1.063a2.638,2.638,0,0,1,2.778,2.93,408.319,408.319,0,0,0-.033,50.61A2.653,2.653,0,0,1,537.66,177.328Z" fill="#fb3600"/>
      </g>
    </g>
  </g>
</svg>
