<svg xmlns="http://www.w3.org/2000/svg" xmlns:xlink="http://www.w3.org/1999/xlink" width="1024" height="1024" viewBox="0 0 1024 1024">
  <defs>
    <clipPath id="a">
      <path d="M889.175,797.978c-100.816,15.4-234.535,15.4-334.65,0l-7.7-95.915H460.711l-7,95.915c-100.114,15.4-233.135,15.4-334.649,0,52.507-204.431,112.716-402.56,179.226-592.988,106.416-15.4,306.646-15.4,412.361,0C777.158,395.418,836.667,593.547,889.175,797.978ZM538.423,585.146l-14.7-189.028H483.114l-14,189.028Z" fill="none"/>
    </clipPath>
  </defs>
  <title>spec-goiters-E</title>
  <g>
    <circle cx="332.293" cy="500.401" r="198.442" fill="#a2e4fd"/>
    <path d="M889.175,797.978c-100.816,15.4-234.535,15.4-334.65,0l-7.7-95.915H460.711l-7,95.915c-100.114,15.4-233.135,15.4-334.649,0,52.507-204.431,112.716-402.56,179.226-592.988,106.416-15.4,306.646-15.4,412.361,0C777.158,395.418,836.667,593.547,889.175,797.978ZM538.423,585.146l-14.7-189.028H483.114l-14,189.028Z" fill="#fb3600"/>
    <g clip-path="url(#a)">
      <circle cx="332.293" cy="500.401" r="198.442"/>
    </g>
    <g>
      <path d="M290.106,505.533c-.2-6.662-.2-13.6,0-20.257.395-.42,4.713-1.086,11.474-1.086,6.587,0,9.425,2.542,9.425,6.021a5.383,5.383,0,0,1-3.528,5.033v.346a4.22,4.22,0,0,1,4.194,4.49c0,3.726-3.479,6.859-10.091,6.859C294.894,506.939,290.526,506,290.106,505.533ZM302.764,494.5a3.281,3.281,0,0,0,2.566-3.133c0-2.122-1.6-3.356-4.49-3.356a13.734,13.734,0,0,0-5.33.765c-.025,1.85-.049,3.824-.049,5.675Zm2.813,4.515a2.69,2.69,0,0,0-2.764-2.788l-7.352-.049c0,1.9.024,3.8.049,5.674a12.109,12.109,0,0,0,5.33.889C303.727,502.745,305.577,501.289,305.577,499.019Z" fill="#fab900"/>
      <path d="M314.082,495.639c0-6.637,3.9-11.374,11.942-11.374,8.069,0,11.992,4.737,11.992,11.374,0,6.489-3.923,11.153-11.992,11.153C317.98,506.792,314.082,502.128,314.082,495.639Zm12.041,6.02c3.75,0,6.465-1.9,6.465-6.094,0-4.17-2.715-6.169-6.514-6.169-3.924,0-6.563,2-6.563,6.169C319.511,499.759,322.2,501.659,326.123,501.659Z" fill="#fab900"/>
      <path d="M341.486,484.832a18.389,18.389,0,0,1,5.453,0c.173,5.724.173,11.078,0,16.876l10.19-.3a24.8,24.8,0,0,1,0,4.688,92.229,92.229,0,0,1-15.643,0C341.313,498.353,341.313,491.691,341.486,484.832Z" fill="#fab900"/>
      <path d="M360.159,485.153a41.45,41.45,0,0,1,9.105-.913c8.044,0,11.868,5.181,11.868,11.276,0,6.069-3.8,11.251-11.942,11.251-4,0-8.389-.568-9.031-1.086C359.938,498.871,359.938,491.839,360.159,485.153Zm9.006,16.6c4.393,0,6.564-2.69,6.564-6.267s-2.221-6.242-6.564-6.242a20.786,20.786,0,0,0-3.947.468c-.074,3.849-.074,7.723,0,11.572A20.774,20.774,0,0,0,369.165,501.758Z" fill="#fab900"/>
    </g>
  </g>
</svg>
