<svg xmlns="http://www.w3.org/2000/svg" xmlns:xlink="http://www.w3.org/1999/xlink" width="965" height="386.405" viewBox="0 0 965 386.405">
  <defs>
    <clipPath id="a">
      <polygon points="-342.014 -461.187 -20.882 -349.846 -20.882 -700.846 -342.014 -700.846 -342.014 -461.187" fill="none"/>
    </clipPath>
  </defs>
  <title>spec-goiters-comic-p4-cat</title>
  <g>
    <g clip-path="url(#a)">
      <circle cx="121.955" cy="14.247" r="592.071" fill="#fab900" stroke="#fb3600" stroke-miterlimit="10" stroke-width="2"/>
    </g>
    <g>
      <g>
        <circle cx="496.172" cy="143.873" r="52.919" fill="#a2e4fd" stroke="#fb3600" stroke-miterlimit="10" stroke-width="2"/>
        <path d="M439.587,110.883a79.728,79.728,0,0,1-41.429-56.711c-1.946.886-4.643-1.692-4.084-3.756a2.994,2.994,0,0,1,5.053-.893,4.021,4.021,0,0,1,2.177-4.5c1.547-.542,3.5,1.049,2.982,2.6-.37-1.381,1.736-2.914,3.165-2.889a3.335,3.335,0,0,1,2.978,2.639,5.433,5.433,0,0,1-.892,4.077C417.2,69.5,434.776,81.318,453.019,88.5c4.625,1.821,10.165,4.546,10.291,9.515a10.544,10.544,0,0,1-.907,4.049,22.46,22.46,0,0,1-6.459,9.478,12.835,12.835,0,0,1-10.837,2.81" fill="#a2e4fd" stroke="#fb3600" stroke-linejoin="round" stroke-width="2"/>
        <g>
          <path d="M403.492,68.032a74.388,74.388,0,0,1-3.854-14.109,1.5,1.5,0,0,0-2.1-1.116.529.529,0,0,1-.223.044,2.066,2.066,0,0,1-1.412-.876,1.494,1.494,0,0,1-.381-1.167,1.462,1.462,0,0,1,1.42-.82,1.191,1.191,0,0,1,.96.4,1.5,1.5,0,0,0,2.638-1.37,2.109,2.109,0,0,1,.229-1.444,2.2,2.2,0,0,1,1.032-1.137.48.48,0,0,1,.152-.024,1.053,1.053,0,0,1,.912.658,1.5,1.5,0,0,0,1.355,1.219c.04,0,.081,0,.121,0a1.5,1.5,0,0,0,1.41-.992,2.3,2.3,0,0,1,1.666-1.065,1.851,1.851,0,0,1,1.552,1.479,3.949,3.949,0,0,1-.693,2.926,1.5,1.5,0,0,0-.119,1.4,52.861,52.861,0,0,0,4.141,7.818c-3.212,1.9-5.8,4.8-8.31,7.62Z" fill="#fb3600"/>
          <path d="M407.365,47.794a.647.647,0,0,1,.142.262,2.569,2.569,0,0,1-.494,1.776,3,3,0,0,0-.237,2.793,53.8,53.8,0,0,0,3.467,6.769,37.39,37.39,0,0,0-6.2,5.767,72.372,72.372,0,0,1-2.93-11.487,3.008,3.008,0,0,0-.679-1.452l.073-.037a3,3,0,0,0,1.5-3.505,2.993,2.993,0,0,0,2.093,1.1c.081.007.161.01.241.01a3,3,0,0,0,2.756-1.818,1.306,1.306,0,0,1,.268-.182m-.2.015h0m.253-3.072a3.7,3.7,0,0,0-3.077,2.057,2.513,2.513,0,0,0-2.387-1.881,1.95,1.95,0,0,0-.648.108,4.021,4.021,0,0,0-2.177,4.5,2.612,2.612,0,0,0-2.185-1.035,2.888,2.888,0,0,0-2.868,1.928c-.482,1.777,1.451,3.935,3.24,3.935a2.02,2.02,0,0,0,.844-.179,76.224,76.224,0,0,0,4.83,16.645c3.564-3.811,6.9-8.317,11.476-10.4a51.528,51.528,0,0,1-4.926-8.961,5.433,5.433,0,0,0,.891-4.077,3.335,3.335,0,0,0-2.978-2.639Z" fill="#a2e4fd"/>
          <path d="M414.464,60.414a51.6,51.6,0,0,1-4.927-8.961,5.433,5.433,0,0,0,.892-4.077,3.335,3.335,0,0,0-2.978-2.639,3.7,3.7,0,0,0-3.112,2.057,2.462,2.462,0,0,0-3.035-1.773,4.021,4.021,0,0,0-2.177,4.5,2.994,2.994,0,0,0-5.053.893c-.559,2.064,2.138,4.642,4.084,3.756a76.224,76.224,0,0,0,4.83,16.645C406.552,67.006,409.886,62.5,414.464,60.414Z" fill="none" stroke="#fb3600" stroke-linecap="round" stroke-linejoin="round" stroke-width="2"/>
        </g>
        <path d="M447.063,60.967c-1.628-4.121-1.006-8.8.358-13.02a4.52,4.52,0,0,1,.814-1.653,4.866,4.866,0,0,1,3.354-1.179,30.26,30.26,0,0,1,6.812-.069,10.155,10.155,0,0,1,6.052,2.867.867.867,0,1,1-.239-.179" fill="#a2e4fd" stroke="#fb3600" stroke-linecap="round" stroke-linejoin="round" stroke-width="2"/>
        <path d="M485.2,44.824a64.34,64.34,0,0,1,9.626-5.6,3.714,3.714,0,0,1,2.539-.5,3.335,3.335,0,0,1,1.353.914,13.847,13.847,0,0,1,4.031,10.513" fill="#a2e4fd" stroke="#fb3600" stroke-linecap="round" stroke-linejoin="round" stroke-width="2"/>
        <circle cx="479.839" cy="79.475" r="38.892" fill="#a2e4fd" stroke="#fb3600" stroke-miterlimit="10" stroke-width="2"/>
        <path d="M514.921,123.07A15.782,15.782,0,0,0,496.2,98.062a15.988,15.988,0,0,1-12.785,1.421,15.773,15.773,0,0,0-16.227,26.087" fill="#a2e4fd" stroke="#fb3600" stroke-miterlimit="10" stroke-width="2"/>
        <path d="M487.247,130.592a82.492,82.492,0,0,0-23.829-24.983c-6.447-4.369-14.5-7.9-21.862-5.344-5.039,1.751-8.731,6.036-11.872,10.347-11.518,15.81-19.134,35.311-17.067,54.762.5,4.687,6.033,7.821,10.51,9.3a27.394,27.394,0,0,0,8.5,1.092,17.072,17.072,0,0,0,5.446-.637c2.863-.947,5.1-3.158,7.224-5.3-.907.913,3.316,7.411,3.92,8.3,10.3,15.179,21.132,17.243,25.044,18.713" fill="#a2e4fd" stroke="#fb3600" stroke-miterlimit="10" stroke-width="2"/>
        <path d="M470.78,188.145c-.72,14.6,2.661,29.094,7.006,43.048,5.454,17.519,12.664,34.885,24.648,48.779s29.4,23.992,47.742,23.693a67.229,67.229,0,0,0,19.278-3.51,87.533,87.533,0,0,0,24.688-12.224c7.531-5.447,13.989-12.227,20.2-19.141,7.929-8.827,15.643-18.113,20.363-29a38.163,38.163,0,0,0,3.01-10.171,43.86,43.86,0,0,0-.666-13.148c-5.477-31.571-25.221-59.557-50.543-79.191-16.476-12.775-36.954-22.674-57.581-19.639C497.278,122.3,472.3,157.44,470.78,188.145Z" fill="#a2e4fd" stroke="#fb3600" stroke-miterlimit="10" stroke-width="2"/>
        <path d="M443.788,170.541a136.067,136.067,0,0,0,21.129-28.4" fill="#a2e4fd" stroke="#fb3600" stroke-miterlimit="10" stroke-width="2"/>
        <g>
          <path d="M412.7,191.513c-10.9-8.874-17.475-17.686-20.087-26.915a3.94,3.94,0,0,1-.213-2.005c.276-.873,1.534-1.358,2.62-1.522a11.553,11.553,0,0,1,1.722-.123c3.822,0,8.776,1.761,10.431,5.024a1.5,1.5,0,0,0,1.338.821h.034a1.5,1.5,0,0,0,1.333-.882,26.524,26.524,0,0,1,4.329-6.684,5.811,5.811,0,0,1,1.514.538l.55.245a45.641,45.641,0,0,1,16.318,12.037,9.4,9.4,0,0,1,1.69,2.526,35.437,35.437,0,0,0-6.249,5.407c-.607.615-1.213,1.228-1.827,1.82C422.22,185.635,417.413,188.642,412.7,191.513Z" fill="#fb3600"/>
          <path d="M414.7,160.955l.4.177c.177.08.365.165.568.253a44.119,44.119,0,0,1,15.778,11.64c.3.343.595.707.852,1.071a43.269,43.269,0,0,0-5.345,4.835c-.6.6-1.192,1.207-1.8,1.789a71.014,71.014,0,0,1-12.334,8.957c-10.165-8.444-16.313-16.8-18.772-25.487a4.458,4.458,0,0,1-.229-1.113,2.909,2.909,0,0,1,1.415-.523,10.174,10.174,0,0,1,1.5-.106c3.9,0,7.9,1.846,9.093,4.2a3,3,0,0,0,2.675,1.642h.068a3,3,0,0,0,2.666-1.765,25.006,25.006,0,0,1,3.46-5.573m-20.874,2.09h0m19.758-5.366a28.142,28.142,0,0,0-5.078,7.614c-1.908-3.762-7.254-5.845-11.768-5.845a13.053,13.053,0,0,0-1.947.14c-1.6.241-3.339,1.01-3.826,2.553a5.052,5.052,0,0,0,.2,2.866c3.281,11.6,11.993,20.814,21.409,28.335,5.142-3.126,10.331-6.287,14.665-10.461,2.771-2.67,5.359-5.761,8.756-7.571a8.179,8.179,0,0,0-2.274-4.241,47.054,47.054,0,0,0-16.857-12.435,7.18,7.18,0,0,0-3.28-.955Z" fill="#a2e4fd"/>
          <path d="M408.509,165.293a28.142,28.142,0,0,1,5.078-7.614,7.18,7.18,0,0,1,3.28.955,47.054,47.054,0,0,1,16.857,12.435A8.178,8.178,0,0,1,436,175.31c-3.4,1.81-5.984,4.9-8.756,7.571-4.333,4.174-9.522,7.335-14.664,10.461-9.417-7.521-18.128-16.739-21.409-28.335a5.052,5.052,0,0,1-.2-2.866c.487-1.543,2.226-2.312,3.826-2.553C399.587,158.865,406.316,160.971,408.509,165.293Z" fill="none" stroke="#fb3600" stroke-linecap="round" stroke-linejoin="round" stroke-width="2"/>
        </g>
        <circle cx="463.739" cy="66.549" r="12.233" fill="#fab900" stroke="#fb3600" stroke-miterlimit="10" stroke-width="2"/>
        <circle cx="498.286" cy="63.265" r="12.233" fill="#fab900" stroke="#fb3600" stroke-miterlimit="10" stroke-width="2"/>
        <line x1="459.885" y1="61.931" x2="466.957" y2="65.598" fill="#a2e4fd" stroke="#fb3600" stroke-linecap="round" stroke-linejoin="round" stroke-width="2"/>
        <line x1="465.254" y1="60.229" x2="461.588" y2="67.3" fill="#a2e4fd" stroke="#fb3600" stroke-linecap="round" stroke-linejoin="round" stroke-width="2"/>
        <line x1="496.401" y1="58.395" x2="503.472" y2="62.062" fill="#a2e4fd" stroke="#fb3600" stroke-linecap="round" stroke-linejoin="round" stroke-width="2"/>
        <line x1="501.77" y1="56.693" x2="498.103" y2="63.764" fill="#a2e4fd" stroke="#fb3600" stroke-linecap="round" stroke-linejoin="round" stroke-width="2"/>
        <g>
          <circle cx="545.54" cy="111.826" r="30.656" fill="#a2e4fd" stroke="#fb3600" stroke-miterlimit="10" stroke-width="2"/>
          <path d="M528.456,83.61a10.305,10.305,0,0,0-8.423-5.1,13.417,13.417,0,0,0-5.377,1.052c-5.909,2.342-8.858,7.538-9.016,13.768-.106,4.224,2.506,8.53,6.5,9.9s9.011-.741,10.379-4.739" fill="#a2e4fd" stroke="#fb3600" stroke-linecap="round" stroke-linejoin="round" stroke-width="2"/>
          <path d="M516.475,98.831c.34.715.2,2.927-1.957,9.5a14.454,14.454,0,0,1-2.5-9.463A3.156,3.156,0,0,1,516.475,98.831Z" fill="#a2e4fd" stroke="#fb3600" stroke-linecap="round" stroke-linejoin="round" stroke-width="2"/>
          <path d="M544.932,79.62c-1.153-5.156-6.516-8.485-11.772-9.025a11.6,11.6,0,0,0-5.211.5,10.087,10.087,0,0,0-5.939,7.137,16.7,16.7,0,0,0,.808,9.494,12.735,12.735,0,0,0,3.285,5.331,8.47,8.47,0,0,0,13.946-4.718" fill="#a2e4fd" stroke="#fb3600" stroke-linecap="round" stroke-linejoin="round" stroke-width="2"/>
          <path d="M566.933,90.82c.28-5.108.43-10.68-2.6-14.8a15.079,15.079,0,0,0-6.1-4.617,13.339,13.339,0,0,0-7.446-1.3,10.5,10.5,0,0,0-8.165,7.786,15.805,15.805,0,0,0,1.248,10.046,11.679,11.679,0,0,0,2.569,3.934c3.033,2.842,8.11,2.656,11.524.286a7.318,7.318,0,0,0,3.37-5.171" fill="#a2e4fd" stroke="#fb3600" stroke-linecap="round" stroke-linejoin="round" stroke-width="2"/>
          <path d="M554.107,89.245c.571.548,1.225,2.667,1.53,9.575a14.453,14.453,0,0,1-5.684-7.967A3.156,3.156,0,0,1,554.107,89.245Z" fill="#a2e4fd" stroke="#fb3600" stroke-linecap="round" stroke-linejoin="round" stroke-width="2"/>
          <path d="M524.176,123.227a22.619,22.619,0,0,0-6.79-2.1,7.818,7.818,0,0,0-6.531,2.177,6.9,6.9,0,0,0-1.483,5.771,10.5,10.5,0,0,0,2.907,5.337,15.638,15.638,0,0,0,9.793,4.558,18.912,18.912,0,0,0,10.627-2.315" fill="#a2e4fd" stroke="#fb3600" stroke-linecap="round" stroke-linejoin="round" stroke-width="2"/>
          <path d="M534.127,89.6c.474.633.776,2.83-.043,9.7a14.446,14.446,0,0,1-4.317-8.783A3.156,3.156,0,0,1,534.127,89.6Z" fill="#a2e4fd" stroke="#fb3600" stroke-linecap="round" stroke-linejoin="round" stroke-width="2"/>
          <path d="M513.042,125.07a14.054,14.054,0,0,1-8.509-4.861,15,15,0,0,0,3.18,8.734,5.438,5.438,0,0,0,3.011,2.179,6.563,6.563,0,0,0,2.625-2.9,3.322,3.322,0,0,0-.686-3.666" fill="#a2e4fd" stroke="#fb3600" stroke-linecap="round" stroke-linejoin="round" stroke-width="2"/>
        </g>
        <g>
          <g>
            <path d="M564.268,313.3c-17.362,0-32.087-6.326-41.463-17.811-15.326-18.773-17.62-43.226-6.3-67.088,14.6-30.762,47.6-52.246,80.264-52.246,18.009,0,35.013,6.1,50.54,18.13,8.112,6.284,12.479,15.85,12.629,27.663.29,22.75-14.725,50.451-37.363,68.931C605.124,305.124,583.87,313.3,564.268,313.3Z" fill="#fb3600"/>
            <path d="M596.786,174.651v3c17.66,0,34.351,5.994,49.609,17.816,7.737,5.994,11.9,15.156,12.047,26.495.285,22.318-14.509,49.545-36.812,67.751-17.192,14.034-38.1,22.083-57.362,22.083-16.9,0-31.216-6.129-40.3-17.26-14.942-18.3-17.168-42.172-6.106-65.486A92.8,92.8,0,0,1,549.6,192.675c14.57-9.826,30.882-15.021,47.171-15.024l.012-3m-.013,0c-62.145.01-114.8,73.186-75.13,121.782,10.037,12.3,25.459,18.363,42.625,18.363,19.283,0,40.766-7.662,59.259-22.759,34.957-28.536,51.348-78.3,24.7-98.942-16.736-12.967-34.447-18.446-51.459-18.444Z" fill="#a2e4fd"/>
            <path d="M648.233,193.1c26.642,20.641,10.251,70.406-24.7,98.942s-80.573,30.5-101.885,4.4C471.113,234.535,570.352,132.758,648.233,193.1Z" fill="none" stroke="#fb3600" stroke-linecap="round" stroke-linejoin="round" stroke-width="2"/>
          </g>
          <path d="M564.366,201.413c48.923-39.937,105.861-51.148,127.173-25.04s-1.07,79.648-49.993,119.586-111.506,75.8-125.131-10.544" fill="#fb3600" stroke="#a2e4fd" stroke-linecap="round" stroke-linejoin="round" stroke-width="2"/>
          <path d="M721.509,201.759c21.8,24.144-16.612,66.405-63.83,104.95s-95.01,70.55-112.769,43.3c-34.257-52.566-8.936-96,38.281-134.547S683.118,159.233,721.509,201.759Z" fill="#fb3600" stroke="#a2e4fd" stroke-miterlimit="10" stroke-width="2"/>
          <ellipse cx="632.936" cy="275.214" rx="114.935" ry="61.335" transform="matrix(0.775, -0.632, 0.632, 0.775, -31.414, 462.269)" fill="#fb3600" stroke="#a2e4fd" stroke-miterlimit="10" stroke-width="2"/>
        </g>
        <g>
          <path d="M409.652,194.662a24.5,24.5,0,0,1-6.139-4.953c-5.92-6.231-12.631-13.292-16.061-21.741a3.8,3.8,0,0,1-.425-2.109,2.653,2.653,0,0,1,1.265-1.365,4.3,4.3,0,0,1,2.365-.443l.436,0c2.341,2.809,4.8,5.57,7.186,8.245,5.312,5.959,10.8,12.12,15.057,18.941.023.038.068.11.107.179-.066.069-.164.158-.292.266Z" fill="#fb3600"/>
          <path d="M390.392,165.553c2.218,2.64,4.526,5.229,6.767,7.743,5.032,5.645,10.228,11.475,14.33,17.833l-1.268,1.079-.733.625a25,25,0,0,1-4.887-4.157c-5.83-6.135-12.437-13.089-15.759-21.272a4.6,4.6,0,0,1-.364-1.141,2.16,2.16,0,0,1,.6-.491,2.648,2.648,0,0,1,1.315-.219m-1.915.69h0m2.178-3.692a5.717,5.717,0,0,0-3.15.666,4.052,4.052,0,0,0-1.928,2.257,4.951,4.951,0,0,0,.485,3.059c3.481,8.573,9.99,15.5,16.364,22.209a25.079,25.079,0,0,0,7.438,5.709l4.26-3.624a2.007,2.007,0,0,0,.882-1.315,1.956,1.956,0,0,0-.4-1.066c-6.361-10.2-15.154-18.62-22.81-27.891h-.224c-.31,0-.616-.005-.919-.005Z" fill="#a2e4fd"/>
          <path d="M391.8,162.555c7.656,9.271,16.449,17.688,22.81,27.891a1.956,1.956,0,0,1,.4,1.066,2.007,2.007,0,0,1-.882,1.315l-4.259,3.624a25.07,25.07,0,0,1-7.439-5.709c-6.374-6.708-12.883-13.636-16.364-22.209a4.951,4.951,0,0,1-.485-3.059,4.052,4.052,0,0,1,1.928-2.257C388.812,162.412,390.264,162.568,391.8,162.555Z" fill="none" stroke="#fb3600" stroke-linecap="round" stroke-linejoin="round" stroke-width="2"/>
        </g>
      </g>
      <path d="M474.427,85.354s7.625-6.75,7.5-11.5A23,23,0,0,0,492.3,83.6" fill="none" stroke="#fb3600" stroke-linecap="round" stroke-linejoin="round" stroke-width="2"/>
      <path d="M476.927,84.479c1.375,2.625,4.5,1,4.5-1.375a6.9,6.9,0,0,0-1.125-3.875" fill="none" stroke="#fb3600" stroke-linecap="round" stroke-linejoin="round" stroke-width="2"/>
      <path d="M485.052,78.6c-1.5,3.625,0,5.5,1.375,6a2.448,2.448,0,0,0,3.25-2.125" fill="none" stroke="#fb3600" stroke-linecap="round" stroke-linejoin="round" stroke-width="2"/>
      <g>
        <path d="M544.32,124.919c-9.427-1.865-15.111-6.149-16.9-12.739a6.474,6.474,0,0,1,1.334-5.335,6.3,6.3,0,0,1,4.994-2.591,8.373,8.373,0,0,1,4.476,1.477,1.5,1.5,0,0,0,.807.236,1.525,1.525,0,0,0,.341-.039,1.5,1.5,0,0,0,.942-.684c1.579-2.608,3.829-4.045,6.335-4.045a7.476,7.476,0,0,1,7.131,5.661C554.777,111.13,552.429,119.721,544.32,124.919Z" fill="#fb3600"/>
        <path d="M546.655,102.7a6.022,6.022,0,0,1,5.669,4.5c.492,2.118-.032,5.2-1.37,8.051a20.133,20.133,0,0,1-6.942,8.074c-8.462-1.8-13.554-5.68-15.14-11.536a5.022,5.022,0,0,1,1.079-4.032,4.821,4.821,0,0,1,3.8-2,6.924,6.924,0,0,1,3.67,1.242,3,3,0,0,0,4.18-.975c1.316-2.173,3.064-3.321,5.053-3.321m0-3c-2.738,0-5.572,1.388-7.619,4.767a9.833,9.833,0,0,0-5.284-1.713c-5.426,0-8.877,5.75-7.775,9.818,2.026,7.481,8.507,12.06,18.638,13.93,8.728-5.3,11.872-14.643,10.631-19.982a9,9,0,0,0-8.591-6.82Z" fill="#a2e4fd"/>
        <path d="M539.036,104.467c-8.26-5.273-14.488,2.831-13.059,8.105,2.026,7.481,8.507,12.06,18.638,13.93,8.728-5.3,11.873-14.643,10.631-19.982C553.687,99.818,544.024,96.233,539.036,104.467Z" fill="none" stroke="#fb3600" stroke-linecap="round" stroke-linejoin="round" stroke-width="2"/>
      </g>
    </g>
  </g>
</svg>
