<svg xmlns="http://www.w3.org/2000/svg" xmlns:xlink="http://www.w3.org/1999/xlink" width="170.121" height="124.566" viewBox="0 0 170.121 124.566">
  <defs>
    <clipPath id="a">
      <rect x="-1307.644" y="-9.148" width="1024" height="1024" fill="none"/>
    </clipPath>
  </defs>
  <title>spec-goiters-comic-sexy-cat</title>
  <g clip-path="url(#a)">
    <g>
      <path d="M7.326,72.775C7.211,77.543,5.684,82.2,5.607,86.966S7.459,97.094,11.9,98.836a12.009,12.009,0,0,0,6.176.41c11.366-1.73,20.11-11.221,25.29-21.486A26.5,26.5,0,0,0,46.5,68.114,11.969,11.969,0,0,0,43.466,58.7c-2.148-2.151-5.195-3.105-8.145-3.839a10.566,10.566,0,0,0-4.183-.431,11.22,11.22,0,0,0-4.889,2.641L11.416,68.656" fill="#fab900" stroke="#fb3600" stroke-miterlimit="10" stroke-width="2"/>
      <path d="M80.759,82.567c2.666,20,22,39.334,29,40.667s29-1.333,48.666-8.333c7.667,4,16,5.666,6.334-7-2-3.667-23-5.667-23-5.667s8.042-8.5,10.247-12.026c13.453-8.6,15-12.129,8.16-11.908a93.722,93.722,0,0,0-13.452,1.544l-9.7,6.174s13.231-19.626,7.939-34.843S112.532,27.579,89.6,53.16,80.759,82.567,80.759,82.567Z" fill="#fab900" stroke="#fb3600" stroke-miterlimit="10" stroke-width="2"/>
      <g>
        <path d="M166.977,116.317c-1.624,0-4.562-1.027-7.859-2.746a1.5,1.5,0,0,0-1.2-.083c-.289.1-.579.2-.869.305a21.054,21.054,0,0,0-.343-7.733c6.025,1.39,6.7,2.507,6.733,2.56a1.558,1.558,0,0,0,.124.191c4.341,5.689,4.079,7.287,4.038,7.439h0a2.678,2.678,0,0,1-.623.067Z" fill="#fb3600"/>
        <path d="M158.6,108.088a11.823,11.823,0,0,1,3.641,1.44c.042.066.087.13.135.193a31.575,31.575,0,0,1,3.2,4.877,27.739,27.739,0,0,1-5.764-2.357,3.006,3.006,0,0,0-1.09-.326,23.16,23.16,0,0,0-.125-3.827m-4.193-4.047c1.644,3.424,1.68,8.181.69,12q1.673-.549,3.33-1.135c3.18,1.659,6.475,2.916,8.552,2.916,2.932,0,3.439-2.5-2.218-9.916-.885-1.623-5.493-2.919-10.354-3.86Z" fill="#fab900"/>
        <path d="M164.759,107.9c-.885-1.623-5.493-2.919-10.354-3.86,1.644,3.424,1.68,8.181.69,12q1.673-.549,3.33-1.135C166.092,118.9,174.425,120.567,164.759,107.9Z" fill="none" stroke="#fb3600" stroke-linecap="round" stroke-linejoin="round" stroke-width="2"/>
      </g>
      <g>
        <path d="M150.088,90.358a17.037,17.037,0,0,0-6.277-6.889l3.467-2.206A92.852,92.852,0,0,1,160.215,79.8c.183-.006.359-.009.529-.009a6.485,6.485,0,0,1,1.792.184c-.391.76-2.274,3.176-11.338,8.971a1.505,1.505,0,0,0-.464.469Q150.482,89.818,150.088,90.358Z" fill="#fb3600"/>
        <path d="M159.255,81.339a77.578,77.578,0,0,1-8.864,6.342c-.038.024-.075.048-.111.074a18.674,18.674,0,0,0-3.747-4.24l1.305-.831a92.678,92.678,0,0,1,11.417-1.345m1.489-3.049c-.185,0-.378,0-.578.01a93.557,93.557,0,0,0-13.452,1.544l-6.318,4.02c4.353.65,7.517,5,9.4,9.311a32.968,32.968,0,0,0,2.208-2.967C165.065,81.86,166.9,78.29,160.744,78.29Z" fill="#fab900"/>
        <path d="M149.8,93.175a32.968,32.968,0,0,0,2.208-2.967c13.452-8.6,15-12.129,8.159-11.908a93.557,93.557,0,0,0-13.452,1.544l-6.318,4.02C144.749,84.514,147.913,88.868,149.8,93.175Z" fill="none" stroke="#fb3600" stroke-linecap="round" stroke-linejoin="round" stroke-width="2"/>
      </g>
      <path d="M90.12,57.208S85.8,41.79,57.949,33.369c-22.718.712-27.035,13.971-26.418,21.989s16.035,37,49.955,26.519" fill="#fab900" stroke="#fb3600" stroke-miterlimit="10" stroke-width="2"/>
      <path d="M52.191,74.168s8.018,11.718,22.2,1.542" fill="#fab900" stroke="#fb3600" stroke-miterlimit="10" stroke-width="2"/>
      <path d="M34.106,61.68a95.611,95.611,0,0,1-.889,18.347s8.018,11.718,22.2,1.542" fill="#fab900" stroke="#fb3600" stroke-miterlimit="10" stroke-width="2"/>
      <g>
        <path d="M15.9,75.573a12.318,12.318,0,0,1-7.112-2.265L12.4,63.345a1.5,1.5,0,0,0-1.41-2.011,1.387,1.387,0,0,0-.192.013,2.3,2.3,0,0,1-.276.019,1.336,1.336,0,0,1-.976-.411,1.832,1.832,0,0,1-.631-1.7A1.693,1.693,0,0,1,11.23,58.08a1.5,1.5,0,0,0,2.047-1.119c.006-.035.013-.089.018-.139a1.711,1.711,0,0,1,2.012-1.271,1.7,1.7,0,0,1,1.11.794,1.508,1.508,0,0,0,.98.691,1.531,1.531,0,0,0,.3.03,1.5,1.5,0,0,0,.87-.277,1.708,1.708,0,0,1,1-.324,1.633,1.633,0,0,1,.339.035,1.71,1.71,0,0,1,1.343,1.961c-.013.039-.025.078-.035.118a1.5,1.5,0,0,0,1.451,1.879H22.7a1.829,1.829,0,0,1,.374.03,1.714,1.714,0,0,1,1.277,2.224,1.335,1.335,0,0,1-.516.615,2.4,2.4,0,0,1-1.26.538A1.334,1.334,0,0,1,22,63.709,1.5,1.5,0,0,0,19.862,65L19.4,75.064A12.269,12.269,0,0,1,15.9,75.573Z" fill="#fb3600"/>
        <path d="M14.8,56.817h0m.156.2L15,57.02a.194.194,0,0,1,.132.1,3,3,0,0,0,4.3.887.239.239,0,0,1,.145-.043H19.6a.213.213,0,0,1,.17.193l-.014.055a3.008,3.008,0,0,0,.579,2.6,3.049,3.049,0,0,0,2.376,1.138h.056a.208.208,0,0,1,.142.1.211.211,0,0,1,.025.065,2.691,2.691,0,0,1-.344.206,3,3,0,0,0-4.227,2.6l-.409,8.946a10.8,10.8,0,0,1-7.345-1.189l3.2-8.831a3,3,0,0,0-2.821-4.022,2.924,2.924,0,0,0-.384.025l-.031,0-.014-.012a1.257,1.257,0,0,1-.186-.241h0a.223.223,0,0,1,.232-.161h.005a.46.46,0,0,1,.052.019,3,3,0,0,0,4.1-2.259l.012-.074a.221.221,0,0,1,.188-.119m0-3a3.214,3.214,0,0,0-3.144,2.565c-.008.038-.005.075-.012.113a3.185,3.185,0,0,0-.573-.18,3.21,3.21,0,0,0-3.774,2.4,3.317,3.317,0,0,0,1.073,3.15,2.83,2.83,0,0,0,1.991.808,3.658,3.658,0,0,0,.469-.032L7.007,73.823a13.791,13.791,0,0,0,13.428,2.483l.418-.145.507-11.094a2.809,2.809,0,0,0,1.212.3,3.7,3.7,0,0,0,2.125-.812,2.8,2.8,0,0,0,1.077-1.374,3.215,3.215,0,0,0-2.4-4.16,3.156,3.156,0,0,0-.638-.062h-.072c.011-.045.031-.085.041-.131a3.2,3.2,0,0,0-5-3.261,3.2,3.2,0,0,0-2.089-1.484,3.246,3.246,0,0,0-.653-.067Z" fill="#fab900"/>
        <path d="M8.527,62.058a2.867,2.867,0,0,0,2.46.776L7.007,73.823h0a13.791,13.791,0,0,0,13.428,2.483l.417-.146.508-11.093c.838.394,1.83.549,3.337-.514a2.8,2.8,0,0,0,1.077-1.374,3.2,3.2,0,0,0-3.111-4.221c.011-.045.031-.085.041-.131a3.206,3.206,0,0,0-5-3.261,3.2,3.2,0,0,0-5.886,1.014c-.008.038-.005.075-.012.113a3.16,3.16,0,0,0-.573-.18,3.214,3.214,0,0,0-3.774,2.4A3.317,3.317,0,0,0,8.527,62.058Z" fill="none" stroke="#fb3600" stroke-linecap="round" stroke-linejoin="round" stroke-width="2"/>
      </g>
      <path d="M79.809,49.876c6.75-1.642,12.021-7.182,15.993-12.881a14.106,14.106,0,0,0,10.132,10.37c3.722.9,7.192-3.633,11.018-3.776a68.731,68.731,0,0,0-6.6-20.92c-1.25-2.484-2.783-5.022-5.256-6.294-2.6-1.339-5.723-1.012-8.6-.492a79.668,79.668,0,0,0-15.925,4.628A83.113,83.113,0,0,0,62.2,30.756" fill="#fab900" stroke="#fb3600" stroke-miterlimit="10" stroke-width="2"/>
      <g>
        <path d="M111.893,62.033a1.307,1.307,0,0,1-1.274-1.019c0-.035,0-.069-.008-.1a1.5,1.5,0,0,0-2.068-1.2,1.3,1.3,0,0,1-1.815-1.132,1.013,1.013,0,0,1,.19-.552c.536-.821.862-.821,1.078-.821l.21.007a1.5,1.5,0,0,0,1.418-1.99l-2.832-8.2a10.552,10.552,0,0,1,8.78-1.916l.282,9.113a1.5,1.5,0,0,0,2.226,1.265,1.115,1.115,0,0,1,.547-.167,1.229,1.229,0,0,1,.438.092,1.408,1.408,0,0,1,.94,1.025,1.286,1.286,0,0,1-1.289,1.489,1.542,1.542,0,0,0-1.2.571,1.509,1.509,0,0,0-.3,1.277c0,.018.011.043.019.07a1.3,1.3,0,0,1-2.083,1.2,1.507,1.507,0,0,0-.9-.3,1.524,1.524,0,0,0-.261.022,1.5,1.5,0,0,0-1,.663,1.289,1.289,0,0,1-.864.582A1.306,1.306,0,0,1,111.893,62.033Z" fill="#fb3600"/>
        <path d="M113.219,46.342h0q.449,0,.892.044l.243,7.881a3.013,3.013,0,0,0,2.418,2.839,2.994,2.994,0,0,0-1.092,2.5,3,3,0,0,0-3.679.647,3.011,3.011,0,0,0-2.116-2.059,2.965,2.965,0,0,0,.711-.673,3,3,0,0,0,.446-2.794l-2.457-7.112a9.054,9.054,0,0,1,4.634-1.276m5.616,10.442h0m-5.616-13.442a12.051,12.051,0,0,0-7.89,2.941l-.292.253,3.17,9.174c-.07,0-.141-.007-.212-.007a2.661,2.661,0,0,0-2.333,1.5,2.452,2.452,0,0,0-.431,1.464,2.811,2.811,0,0,0,2.8,2.647,2.74,2.74,0,0,0,1.088-.224c.005.041,0,.08.009.12a2.811,2.811,0,0,0,2.763,2.321,2.76,2.76,0,0,0,.492-.044,2.791,2.791,0,0,0,1.863-1.244,2.809,2.809,0,0,0,1.692.573,2.763,2.763,0,0,0,.484-.043,2.807,2.807,0,0,0,2.277-3.254c0-.034-.02-.063-.027-.1h.043a2.715,2.715,0,0,0,.481-.04,2.808,2.808,0,0,0,2.292-3.164A2.9,2.9,0,0,0,119.6,54.01a2.721,2.721,0,0,0-.974-.191,2.589,2.589,0,0,0-1.274.355l-.316-10.211a12.051,12.051,0,0,0-3.818-.621Z" fill="#fab900"/>
        <path d="M119.6,54.01a2.506,2.506,0,0,0-2.248.164l-.316-10.211h0a12.053,12.053,0,0,0-11.708,2.32l-.292.253,3.17,9.174a2.623,2.623,0,0,0-2.545,1.495,2.452,2.452,0,0,0-.431,1.464,2.809,2.809,0,0,0,3.294,2.6,2.744,2.744,0,0,0,.6-.18c.005.041,0,.08.009.12a2.8,2.8,0,0,0,5.118,1.033,2.8,2.8,0,0,0,4.453-2.724c-.006-.034-.02-.063-.027-.1a2.791,2.791,0,0,0,2.816-3.2A2.9,2.9,0,0,0,119.6,54.01Z" fill="none" stroke="#fb3600" stroke-linecap="round" stroke-linejoin="round" stroke-width="2"/>
      </g>
      <g>
        <path d="M67.536,40.6c-2,0-4.669-.417-6.086-2.406s-1.2-5.022.582-8.571a31.445,31.445,0,0,1,9.9-10.886C77.155,15.017,83.034,12.8,87.655,12.8c2,0,4.669.418,6.086,2.407,3.073,4.315-1.726,13.224-10.478,19.456C78.036,38.38,72.157,40.6,67.536,40.6Z" fill="#fb3600"/>
        <path d="M87.656,14.3h0c1.343,0,3.762.231,4.863,1.777,2.265,3.18-1.584,11.282-10.125,17.364C77.411,36.984,71.857,39.1,67.536,39.1c-1.344,0-3.763-.231-4.864-1.777C60.407,34.144,64.257,26.042,72.8,19.961,77.78,16.413,83.334,14.3,87.656,14.3m0-3c-4.769,0-10.88,2.151-16.6,6.222-9.592,6.83-14.44,16.477-10.83,21.548C61.687,41.113,64.3,42.1,67.536,42.1c4.769,0,10.881-2.152,16.6-6.222,9.591-6.83,14.44-16.477,10.829-21.548C93.5,12.283,90.888,11.3,87.655,11.3Z" fill="#fab900"/>
        <ellipse cx="77.596" cy="26.698" rx="21.32" ry="11.271" transform="translate(-1.099 49.958) rotate(-35.453)" fill="none" stroke="#fb3600" stroke-linecap="round" stroke-linejoin="round" stroke-width="2"/>
      </g>
      <path d="M23.592,22.067c-4-6-19-1-22,1-.832.555-2,9,6,14" fill="#a2e4fd" stroke="#fb3600" stroke-miterlimit="10" stroke-width="2"/>
      <path d="M70.787,24.838c5.524,12.955-4.412,29.6-22.193,37.186S11.921,65.251,6.4,52.3C3.317,45.074,5.043,36.7,10.253,29.4a38,38,0,0,1,4.566-5.271,43.317,43.317,0,0,1,5.76-4.657,47.363,47.363,0,0,1,8.011-4.358C46.37,7.529,65.263,11.884,70.787,24.838Z" fill="#a2e4fd" stroke="#fb3600" stroke-miterlimit="10" stroke-width="2"/>
      <path d="M59.39,26.99c4.073,9.552-3.254,21.828-16.365,27.42s-27.042,2.379-31.116-7.173c-2.271-5.326-1-11.5,2.844-16.886a27.928,27.928,0,0,1,3.366-3.886,31.893,31.893,0,0,1,4.248-3.435,34.91,34.91,0,0,1,5.907-3.213C41.385,14.226,55.316,17.437,59.39,26.99Z" fill="#fff"/>
      <g>
        <path d="M29.347,40.106a4.922,4.922,0,0,0-9.056,3.861l-3.414-.837" fill="none" stroke="#fb3600" stroke-linecap="round" stroke-linejoin="round" stroke-width="2"/>
        <path d="M39.049,35.969A4.922,4.922,0,1,1,48.1,32.107l1.76-3.044" fill="none" stroke="#fb3600" stroke-linecap="round" stroke-linejoin="round" stroke-width="2"/>
      </g>
      <g>
        <path d="M42.143,42.376a4.658,4.658,0,0,0-5.814,2.073,4.656,4.656,0,0,0-5.52,2.76" fill="none" stroke="#fb3600" stroke-linecap="round" stroke-linejoin="round" stroke-width="2"/>
        <path d="M43.319,48.143a7.043,7.043,0,0,1-9.163,3.907" fill="none" stroke="#fb3600" stroke-linecap="round" stroke-linejoin="round" stroke-width="2"/>
        <line x1="35.649" y1="48.336" x2="39.605" y2="46.65" fill="none" stroke="#fb3600" stroke-linecap="round" stroke-linejoin="round" stroke-width="2"/>
      </g>
      <path d="M36.592,14.88C36.783,5.7,49.409,1.106,49.409,1.106s9.183,5.74,9.183,14.922" fill="#a2e4fd" stroke="#fb3600" stroke-miterlimit="10" stroke-width="2"/>
      <circle cx="55.223" cy="38.722" r="6.237" fill="#fb3600"/>
      <path d="M96.875,65.068c-5.293,32.418,2.646,43.885,8.821,46.311s18.758,7.291,36.063-9.145" fill="none" stroke="#fb3600" stroke-linecap="round" stroke-miterlimit="10" stroke-width="2"/>
      <path d="M137.011,86.018c-4.411,6.616-9.042,12.35-9.042,12.35" fill="none" stroke="#fb3600" stroke-linecap="round" stroke-miterlimit="10" stroke-width="2"/>
      <path d="M20.985,76.157a16.466,16.466,0,0,1,3.292,8.414" fill="#fff" stroke="#fb3600" stroke-linecap="round" stroke-linejoin="round" stroke-width="2"/>
      <circle cx="21.057" cy="53.555" r="6.237" fill="#fb3600"/>
      <path d="M101.235,86.628c.31,4.8.724,9.893,3.567,13.775a4.88,4.88,0,0,0,3.659,2.331,4.608,4.608,0,0,0,2.694-1.1c2.312-1.769,3.731-4.434,5.078-7.015l3.507-6.714a16.564,16.564,0,0,0,1.471-3.419c.755-2.891-.11-5.978-1.456-8.646a5.854,5.854,0,0,0-2.172-2.636c-2.582-1.43-10.68-3.22-13.467-1.378C100.081,74.5,100.931,82.611,101.235,86.628Z" fill="#a2e4fd"/>
      <path d="M60.522,72.884a9.488,9.488,0,0,0,3.357-.4,7.771,7.771,0,0,0,2.426-1.622c1.669-1.518,3.166-3.466,3.279-5.719s-1.722-4.675-3.966-4.447c-2.792.283-8.74,3.689-10.375,6.18C51.9,71.968,56.046,72.884,60.522,72.884Z" fill="#a2e4fd"/>
      <path d="M38.611,75.666a3.785,3.785,0,0,1,2.342-4.009,9.266,9.266,0,0,1,4.948-.419,2.192,2.192,0,0,1,.813.21c.92.51.692,1.913.14,2.808a7.426,7.426,0,0,1-7.437,3.328" fill="#a2e4fd"/>
      <path d="M99.571,37.7a8.2,8.2,0,0,1,1.081-10.4,3.273,3.273,0,0,1,3.252-1,3.831,3.831,0,0,1,1.832,2.361,33.22,33.22,0,0,1,2.079,8.361,4.763,4.763,0,0,1-.62,3.6,3.464,3.464,0,0,1-3.931.7A10.155,10.155,0,0,1,99.936,38.7" fill="#a2e4fd"/>
    </g>
  </g>
</svg>
