<svg xmlns="http://www.w3.org/2000/svg" xmlns:xlink="http://www.w3.org/1999/xlink" width="962" height="353" viewBox="0 0 962 353">
  <defs>
    <clipPath id="a">
      <polygon points="639.986 240.659 961.118 352 961.118 1 639.986 1 639.986 240.659" fill="none"/>
    </clipPath>
    <clipPath id="b">
      <rect x="-2" y="394.449" width="468" height="263.843" fill="none"/>
    </clipPath>
  </defs>
  <title>spec-goiters-comic-p1</title>
  <g>
    <g>
      <rect x="1" y="1" width="960" height="351" fill="#a2e4fd" stroke="#fb3600" stroke-miterlimit="10" stroke-width="2"/>
      <polygon points="602.517 124.669 429.085 124.669 429.085 17.142 434.085 12.142 594.017 12.142 602.517 17.142 602.517 124.669" fill="#fb3600" stroke="#fb3600" stroke-miterlimit="10" stroke-width="2"/>
      <rect x="434.085" y="12.142" width="173.433" height="107.527" fill="#a2e4fd" stroke="#fb3600" stroke-miterlimit="10" stroke-width="2"/>
      <rect x="440.585" y="12.142" width="173.433" height="107.527" fill="#a2e4fd" stroke="#fb3600" stroke-miterlimit="10" stroke-width="2"/>
      <rect x="450.514" y="19.621" width="153.574" height="92.57" fill="#fb3600" stroke="#fb3600" stroke-miterlimit="10" stroke-width="2"/>
      <rect x="450.514" y="24.048" width="147.441" height="88.142" fill="#fb3600" stroke="#fb3600" stroke-miterlimit="10" stroke-width="2"/>
      <polyline points="103.926 3.2 103.926 126.791 215.4 126.791 215.4 240.689" fill="#a2e4fd" stroke="#fb3600" stroke-miterlimit="10" stroke-width="2"/>
      <rect x="1" y="241" width="960" height="111" fill="#a2e4fd" stroke="#fb3600" stroke-miterlimit="10" stroke-width="2"/>
      <polygon points="639.986 240.659 961.118 352 961.118 1 639.986 1 639.986 240.659" fill="#fb3600"/>
      <g clip-path="url(#a)">
        <circle cx="1103.955" cy="716.093" r="592.071" fill="#fab900" stroke="#fb3600" stroke-miterlimit="10" stroke-width="2"/>
        <g>
          <g>
            <polygon points="887.238 116.786 878.068 122.223 856.805 140.604 830.694 150.331 798.919 136.277 784.337 104.502 800.164 72.047 829.329 49.819 864.591 38.183 857.364 48.839 865.879 44.509 894.419 31.57 922.036 18.026 907.507 36.629 933.648 31.739 967.93 17.624 1002.69 3.737 996.301 14.26 964.085 31.577 936.064 55.096 898.185 85.534 920.866 78.736 912.148 89.832 899.804 99.453 887.238 116.786" fill="#fab900"/>
            <polygon points="887.238 116.786 878.068 122.223 856.805 140.604 830.694 150.331 798.919 136.277 784.337 104.502 800.164 72.047 829.329 49.819 864.591 38.183 857.364 48.839 865.879 44.509 894.419 31.57 922.036 18.026 907.507 36.629 933.648 31.739 967.93 17.624 1002.69 3.737 996.301 14.26 964.085 31.577 936.064 55.096 898.185 85.534 920.866 78.736 912.148 89.832 899.804 99.453 887.238 116.786" fill="none" stroke="#fb3600" stroke-miterlimit="10" stroke-width="2"/>
          </g>
          <circle cx="834.904" cy="102.161" r="35.992" fill="#fb3600"/>
          <g>
            <polygon points="860.779 104.089 859.363 112.115 855.098 118.937 848.183 122.703 842.299 127.591 834.662 127.183 827.287 126.784 818.965 125.692 813.944 119.142 811.444 111.633 811 104.089 812.436 96.866 814.468 89.417 819.91 83.783 827.343 81.563 834.662 79.969 842.404 80.264 849.858 83.175 852.844 90.883 860.531 95.684 860.779 104.089" fill="#a2e4fd"/>
            <polygon points="860.779 104.089 859.363 112.115 855.098 118.937 848.183 122.703 842.299 127.591 834.662 127.183 827.287 126.784 818.965 125.692 813.944 119.142 811.444 111.633 811 104.089 812.436 96.866 814.468 89.417 819.91 83.783 827.343 81.563 834.662 79.969 842.404 80.264 849.858 83.175 852.844 90.883 860.531 95.684 860.779 104.089" fill="none" stroke="#fb3600" stroke-miterlimit="10" stroke-width="2"/>
          </g>
        </g>
      </g>
      <polygon points="960.5 352 639.986 240.659 639.986 1 961.118 1 960.5 352" fill="none" stroke="#fb3600" stroke-linejoin="round" stroke-width="2"/>
      <g>
        <rect x="465.795" y="183.126" width="147.194" height="74.779" fill="#a2e4fd" stroke="#fb3600" stroke-linejoin="round" stroke-width="2"/>
        <rect x="465.795" y="183.126" width="147.194" height="10.541" fill="#fb3600" stroke="#fb3600" stroke-miterlimit="10" stroke-width="2"/>
        <polygon points="593.94 162.839 446.745 162.839 465.795 183.126 612.99 183.126 593.94 162.839" fill="#a2e4fd" stroke="#fb3600" stroke-linejoin="round" stroke-width="2"/>
        <polygon points="598.94 153.339 441.745 153.339 460.795 173.626 617.99 173.626 598.94 153.339" fill="#a2e4fd" stroke="#fb3600" stroke-linejoin="round" stroke-width="2"/>
        <polygon points="446.745 242 465.795 257.905 465.795 183.126 446.745 162.656 446.745 242" fill="#fb3600" stroke="#fb3600" stroke-miterlimit="10" stroke-width="2"/>
        <rect x="460.631" y="173.626" width="157.358" height="9.5" fill="#a2e4fd" stroke="#fb3600" stroke-linejoin="round" stroke-width="2"/>
        <polygon points="441.745 153.463 460.631 173.626 460.631 183.126 441.745 162.463 441.745 153.463" fill="#fb3600" stroke="#fb3600" stroke-linecap="round" stroke-linejoin="round" stroke-width="2"/>
        <g>
          <path d="M469.135,137.956a7.107,7.107,0,1,1,7.107-7.107A7.115,7.115,0,0,1,469.135,137.956Z" fill="#fb3600"/>
          <path d="M469.135,125.242a5.607,5.607,0,1,1-5.607,5.607,5.614,5.614,0,0,1,5.607-5.607m0-3a8.607,8.607,0,1,0,8.607,8.607,8.607,8.607,0,0,0-8.607-8.607Z" fill="#a2e4fd"/>
          <circle cx="469.135" cy="130.849" r="8.607" fill="none" stroke="#fb3600" stroke-linecap="round" stroke-linejoin="round" stroke-width="2"/>
        </g>
        <polygon points="465.831 156.927 475.873 169.323 481.992 169.323 473.676 157.241 465.831 156.927" fill="#fb3600" stroke="#fb3600" stroke-linejoin="round" stroke-width="2"/>
        <polygon points="468.969 133.724 467.908 139.211 469.126 158.026 472.578 162.89 476.03 162.89 472.107 133.706 468.969 133.724" fill="#a2e4fd" stroke="#fb3600" stroke-linejoin="round" stroke-width="2"/>
        <g>
          <path d="M492.757,137.956a7.107,7.107,0,1,1,7.107-7.107A7.115,7.115,0,0,1,492.757,137.956Z" fill="#fb3600"/>
          <path d="M492.757,125.242a5.607,5.607,0,1,1-5.607,5.607,5.614,5.614,0,0,1,5.607-5.607m0-3a8.607,8.607,0,1,0,8.607,8.607,8.607,8.607,0,0,0-8.607-8.607Z" fill="#a2e4fd"/>
          <circle cx="492.757" cy="130.849" r="8.607" fill="none" stroke="#fb3600" stroke-linecap="round" stroke-linejoin="round" stroke-width="2"/>
        </g>
        <polygon points="489.453 156.927 499.495 169.323 505.614 169.323 497.298 157.241 489.453 156.927" fill="#fb3600" stroke="#fb3600" stroke-linejoin="round" stroke-width="2"/>
        <polygon points="492.591 133.724 491.53 139.211 492.748 158.026 496.2 162.89 499.651 162.89 495.729 133.706 492.591 133.724" fill="#a2e4fd" stroke="#fb3600" stroke-linejoin="round" stroke-width="2"/>
        <circle cx="478.625" cy="195.625" r="5.375" fill="#fb3600" stroke="#fb3600" stroke-linejoin="round" stroke-width="2"/>
        <circle cx="479.125" cy="194.625" r="5.375" fill="#a2e4fd" stroke="#fb3600" stroke-linejoin="round" stroke-width="2"/>
        <circle cx="493.42" cy="195.625" r="5.375" fill="#fb3600" stroke="#fb3600" stroke-linejoin="round" stroke-width="2"/>
        <circle cx="493.92" cy="194.625" r="5.375" fill="#a2e4fd" stroke="#fb3600" stroke-linejoin="round" stroke-width="2"/>
        <circle cx="508.215" cy="195.625" r="5.375" fill="#fb3600" stroke="#fb3600" stroke-linejoin="round" stroke-width="2"/>
        <circle cx="508.715" cy="194.625" r="5.375" fill="#a2e4fd" stroke="#fb3600" stroke-linejoin="round" stroke-width="2"/>
        <circle cx="478.625" cy="210.226" r="5.375" fill="#fb3600" stroke="#fb3600" stroke-linejoin="round" stroke-width="2"/>
        <circle cx="479.125" cy="209.226" r="5.375" fill="#a2e4fd" stroke="#fb3600" stroke-linejoin="round" stroke-width="2"/>
        <circle cx="493.42" cy="210.226" r="5.375" fill="#fb3600" stroke="#fb3600" stroke-linejoin="round" stroke-width="2"/>
        <circle cx="493.92" cy="209.226" r="5.375" fill="#a2e4fd" stroke="#fb3600" stroke-linejoin="round" stroke-width="2"/>
        <circle cx="508.215" cy="210.226" r="5.375" fill="#fb3600" stroke="#fb3600" stroke-linejoin="round" stroke-width="2"/>
        <circle cx="508.715" cy="209.226" r="5.375" fill="#a2e4fd" stroke="#fb3600" stroke-linejoin="round" stroke-width="2"/>
        <circle cx="478.625" cy="224.826" r="5.375" fill="#fb3600" stroke="#fb3600" stroke-linejoin="round" stroke-width="2"/>
        <circle cx="479.125" cy="223.826" r="5.375" fill="#a2e4fd" stroke="#fb3600" stroke-linejoin="round" stroke-width="2"/>
        <circle cx="493.42" cy="224.826" r="5.375" fill="#fb3600" stroke="#fb3600" stroke-linejoin="round" stroke-width="2"/>
        <circle cx="493.92" cy="223.826" r="5.375" fill="#a2e4fd" stroke="#fb3600" stroke-linejoin="round" stroke-width="2"/>
        <circle cx="508.215" cy="224.826" r="5.375" fill="#fb3600" stroke="#fb3600" stroke-linejoin="round" stroke-width="2"/>
        <circle cx="508.715" cy="223.826" r="5.375" fill="#a2e4fd" stroke="#fb3600" stroke-linejoin="round" stroke-width="2"/>
      </g>
      <ellipse cx="323.5" cy="300.5" rx="105.5" ry="12.5" fill="#fb3600" stroke="#fb3600" stroke-miterlimit="10" stroke-width="2"/>
      <ellipse cx="603.987" cy="300.5" rx="80.681" ry="9.559" fill="#fb3600" stroke="#fb3600" stroke-miterlimit="10" stroke-width="2"/>
      <g>
        <path d="M251.989,302.5l-2.337-5.452,4.69-9.377a1.5,1.5,0,0,0-1.951-2.042l-7.611,3.383-1.935-4.516,15.275-11.382,25.1,13.877-15.936,8.692a1.5,1.5,0,0,0-.42,2.293l3.877,4.524Z" fill="#fb3600"/>
        <path d="M258.241,274.9,280.1,286.982l-13.539,7.384a3,3,0,0,0-.841,4.586L267.478,301h-14.5l-1.672-3.9,4.377-8.755a3,3,0,0,0-3.9-4.083l-6.222,2.765-.871-2.032,13.552-10.1M258,271.333,241,284l3,7,9-4-5,10,3,7h23l-6-7,18.333-10L258,271.333Z" fill="#fab900"/>
        <polygon points="258 271.333 241 284 244 291 253 287 248 297 251 304 274 304 268 297 286.333 287 258 271.333" fill="none" stroke="#fb3600" stroke-linecap="round" stroke-linejoin="round" stroke-width="2"/>
      </g>
      <g>
        <path d="M347.229,296.5l-1.758-8.794a1.5,1.5,0,0,0-1.2-1.182,1.548,1.548,0,0,0-.27-.024,1.5,1.5,0,0,0-1.272.7l-4.181,6.69-1.035-.689c.077-3.363.631-16.546,4.62-23.5a8.374,8.374,0,0,1,4.572-1.029c7.132,0,17.547,4.371,21.263,6.04l-7.309,14.616a1.5,1.5,0,0,0,.142,1.571l4.2,5.6Z" fill="#fb3600"/>
        <path d="M346.7,270.173c6.088,0,14.81,3.384,19.216,5.279l-6.6,13.206a3,3,0,0,0,.283,3.142L362,295H348.459l-1.517-7.588a3,3,0,0,0-5.486-1l-2.325,3.72c.336-5.633,1.4-14.305,4.113-19.341a7.665,7.665,0,0,1,3.46-.616m0-3a9.374,9.374,0,0,0-5.7,1.494C336,277,336,294,336,294l3,2,5-8,2,10h22l-6-8,8-16s-14.08-6.827-23.3-6.827Z" fill="#fab900"/>
        <path d="M341,268.667C336,277,336,294,336,294l3,2,5-8,2,10h22l-6-8,8-16S348,263.333,341,268.667Z" fill="none" stroke="#fb3600" stroke-linecap="round" stroke-linejoin="round" stroke-width="2"/>
      </g>
      <g>
        <ellipse cx="395.5" cy="196.618" rx="28.927" ry="34.618" fill="#a2e4fd" stroke="#fb3600" stroke-miterlimit="10" stroke-width="2"/>
        <path d="M416.057,214.574a31.5,31.5,0,0,1,8.357,21.878c0,15.976-10.822,28.927-24.172,28.927s-24.172-12.951-24.172-28.927a33,33,0,0,1,3.949-15.852" fill="#a2e4fd" stroke="#fb3600" stroke-miterlimit="10" stroke-width="2"/>
        <ellipse cx="408.767" cy="235.308" rx="10.767" ry="15.032" fill="#fff"/>
        <g>
          <path d="M404.578,294.5a4.086,4.086,0,0,1-3.388-2.091,1.5,1.5,0,0,0-2.483-.586,3.787,3.787,0,0,1-1.81.408c-1.911,0-2.213-1.21-2.313-1.608a5.95,5.95,0,0,1,1.5-5.215,1.5,1.5,0,0,0,.419-1.309l-3.449-20.561a26.686,26.686,0,0,1,10.825-2.513,16.524,16.524,0,0,1,4.89.679c.214,3.164.878,13.368.878,18.85a1.5,1.5,0,0,0,.252.832c3.684,5.526,3.138,7.885,2.733,8.643a2.253,2.253,0,0,1-2.031,1.047h0a2.762,2.762,0,0,1-1.466-.389,1.5,1.5,0,0,0-2.318,1.036C406.422,294.5,405.034,294.5,404.578,294.5Z" fill="#fb3600"/>
          <path d="M403.881,262.525a16.3,16.3,0,0,1,3.465.353c.261,3.957.8,12.752.8,17.676a3,3,0,0,0,.5,1.664c2.834,4.251,2.978,6.5,2.658,7.1-.132.247-.651.255-.709.255a1.35,1.35,0,0,1-.634-.137,3,3,0,0,0-4.634,2.072c-.1.679-.307,1.489-.756,1.489a2.84,2.84,0,0,1-1.964-1.065,3,3,0,0,0-4.75-1.371,2.845,2.845,0,0,1-.966.167c-.74,0-.79-.2-.858-.472a4.457,4.457,0,0,1,1.107-3.79,3,3,0,0,0,.837-2.618l-3.254-19.395a24.475,24.475,0,0,1,9.151-1.931m0-3a28.726,28.726,0,0,0-12.495,3.133l3.64,21.689a7.508,7.508,0,0,0-1.9,6.639,3.566,3.566,0,0,0,3.769,2.745,4.625,4.625,0,0,0,2.87-.848,5.488,5.488,0,0,0,4.81,3.117c1.7,0,3.3-1.062,3.726-4.065a4.225,4.225,0,0,0,2.3.641c3.11,0,6.5-3.091.547-12.022,0-6.639-.948-19.917-.948-19.917a15.593,15.593,0,0,0-6.32-1.112Z" fill="#fab900"/>
          <path d="M391.386,262.658l3.64,21.689a7.505,7.505,0,0,0-1.9,6.639c.948,3.794,5.691,2.846,6.639,1.9.948,2.845,7.587,5.691,8.536-.948,2.845,1.9,10.433,0,2.845-11.381,0-6.639-.948-19.917-.948-19.917S402.922,257.093,391.386,262.658Z" fill="none" stroke="#fb3600" stroke-linecap="round" stroke-linejoin="round" stroke-width="2"/>
        </g>
      </g>
      <ellipse cx="357.5" cy="240" rx="33.425" ry="40" transform="translate(-64.996 323.085) rotate(-45)" fill="#a2e4fd" stroke="#fb3600" stroke-miterlimit="10" stroke-width="2"/>
      <ellipse cx="369.935" cy="238.05" rx="16.476" ry="19.718" transform="translate(-59.976 331.307) rotate(-45)" fill="#fff"/>
      <g>
        <ellipse cx="301.5" cy="205.5" rx="43" ry="33" fill="#fb3600"/>
        <path d="M301.5,174c22.883,0,41.5,14.131,41.5,31.5S324.383,237,301.5,237,260,222.869,260,205.5,278.617,174,301.5,174m0-3c-24.577,0-44.5,15.446-44.5,34.5S276.923,240,301.5,240,346,224.554,346,205.5,326.077,171,301.5,171Z" fill="#fab900"/>
        <ellipse cx="301.5" cy="205.5" rx="44.5" ry="34.5" fill="none" stroke="#fb3600" stroke-linecap="round" stroke-linejoin="round" stroke-width="2"/>
      </g>
      <ellipse cx="282.5" cy="247" rx="33.425" ry="40" transform="translate(-29.81 38.966) rotate(-7.496)" fill="#a2e4fd" stroke="#fb3600" stroke-miterlimit="10" stroke-width="2"/>
      <g>
        <ellipse cx="316" cy="179.356" rx="55.5" ry="43.466" fill="#a2e4fd"/>
        <path d="M316,137.389c29.776,0,54,18.826,54,41.967s-24.224,41.966-54,41.966-54-18.826-54-41.966,24.224-41.967,54-41.967m0-3c-31.48,0-57,20.132-57,44.967s25.52,44.966,57,44.966,57-20.132,57-44.966-25.52-44.967-57-44.967Z" fill="#fab900"/>
        <ellipse cx="316" cy="179.356" rx="57" ry="44.966" fill="none" stroke="#fb3600" stroke-linecap="round" stroke-linejoin="round" stroke-width="2"/>
      </g>
      <g>
        <ellipse cx="404" cy="157.5" rx="34.5" ry="29.55" fill="#fb3600"/>
        <path d="M404,129.45c18.2,0,33,12.583,33,28.05s-14.8,28.05-33,28.05-33-12.583-33-28.05,14.8-28.05,33-28.05m0-3c-19.882,0-36,13.9-36,31.05s16.118,31.05,36,31.05,36-13.9,36-31.05-16.118-31.05-36-31.05Z" fill="#fab900"/>
        <ellipse cx="404" cy="157.5" rx="36" ry="31.05" fill="none" stroke="#fb3600" stroke-linecap="round" stroke-linejoin="round" stroke-width="2"/>
      </g>
      <path d="M434.25,148.627c0,10.509-13.024,19.029-29.09,19.029s-29.09-8.52-29.09-19.029,12.024-20.03,28.09-20.03S434.25,138.117,434.25,148.627Z" fill="#fab900"/>
      <ellipse cx="417.925" cy="144.948" rx="8.828" ry="6.844" fill="#fff"/>
      <path d="M368.75,116c3-10,20-11,20-11,7,10,7,17,0,23" fill="#a2e4fd" stroke="#fb3600" stroke-miterlimit="10" stroke-width="2"/>
      <g>
        <g>
          <circle cx="351.5" cy="165.767" r="48.233" fill="#a2e4fd"/>
          <path d="M345.417,202.214a71.69,71.69,0,0,0,16.894-3.174c4.55-1.4,9.076-2.571,13.866-1.994,2.654.32,7,1.108,9.2,3.043a48.239,48.239,0,1,0-68.706-.972A80.712,80.712,0,0,0,345.417,202.214Z" fill="#fab900"/>
          <g>
            <path d="M351.5,120.534a45.233,45.233,0,1,1-45.233,45.233A45.284,45.284,0,0,1,351.5,120.534m0-3a48.233,48.233,0,1,0,48.233,48.233A48.232,48.232,0,0,0,351.5,117.534Z" fill="#fab900"/>
            <circle cx="351.5" cy="165.767" r="48.233" fill="none" stroke="#fb3600" stroke-linecap="round" stroke-linejoin="round" stroke-width="2"/>
          </g>
        </g>
        <circle cx="323.5" cy="165.767" r="48.233" fill="#a2e4fd"/>
        <path d="M317.417,202.214a71.69,71.69,0,0,0,16.894-3.174c4.55-1.4,9.076-2.571,13.866-1.994,2.654.32,7,1.108,9.2,3.043a48.239,48.239,0,1,0-68.706-.972A80.712,80.712,0,0,0,317.417,202.214Z" fill="#fab900"/>
        <g>
          <path d="M323.5,120.534a45.233,45.233,0,1,1-45.233,45.233A45.284,45.284,0,0,1,323.5,120.534m0-3a48.233,48.233,0,1,0,48.233,48.233A48.232,48.232,0,0,0,323.5,117.534Z" fill="#fab900"/>
          <circle cx="323.5" cy="165.767" r="48.233" fill="none" stroke="#fb3600" stroke-linecap="round" stroke-linejoin="round" stroke-width="2"/>
        </g>
      </g>
      <g>
        <circle cx="366.5" cy="153" r="30" fill="#fb3600"/>
        <path d="M366.5,124.5A28.5,28.5,0,1,1,338,153a28.532,28.532,0,0,1,28.5-28.5m0-3A31.5,31.5,0,1,0,398,153a31.5,31.5,0,0,0-31.5-31.5Z" fill="#fab900"/>
        <circle cx="366.5" cy="153" r="31.5" fill="none" stroke="#fb3600" stroke-linecap="round" stroke-linejoin="round" stroke-width="2"/>
      </g>
      <circle cx="369.5" cy="145" r="31.5" fill="#a2e4fd"/>
      <ellipse cx="378.3" cy="131.866" rx="17.188" ry="14.332" fill="#fff"/>
      <circle cx="369.5" cy="145" r="31.5" fill="none" stroke="#fb3600" stroke-miterlimit="10" stroke-width="2"/>
      <path d="M369,172.954c4.055,8.921,12.228,8.384,15.568,5.646a7.3,7.3,0,1,0-.488-11.656" fill="#a2e4fd" stroke="#fb3600" stroke-linecap="round" stroke-linejoin="round" stroke-width="2"/>
      <g>
        <path d="M386.5,207.5a8.009,8.009,0,0,1-8-8v-40h16v40A8.009,8.009,0,0,1,386.5,207.5Z" fill="#fb3600"/>
        <path d="M393,161v38.5a6.5,6.5,0,0,1-13,0V161h13m3-3H377v41.5a9.5,9.5,0,0,0,19,0V158Z" fill="#a2e4fd"/>
        <path d="M386.5,209h0a9.5,9.5,0,0,1-9.5-9.5V158h19v41.5A9.5,9.5,0,0,1,386.5,209Z" fill="none" stroke="#fb3600" stroke-linecap="round" stroke-linejoin="round" stroke-width="2"/>
      </g>
      <path d="M372,153.968c4.5,9.912,13.587,9.315,17.3,6.273a8.108,8.108,0,1,0-.542-12.951" fill="#a2e4fd" stroke="#fb3600" stroke-miterlimit="10" stroke-width="2"/>
      <ellipse cx="383.93" cy="151.667" rx="7.619" ry="6.352" fill="#fff"/>
      <ellipse cx="391.43" cy="151.667" rx="7.619" ry="6.352" fill="#fff"/>
      <path d="M367,116c-3-10-20-11-20-11-7,10-7,17,0,23" fill="#a2e4fd" stroke="#fb3600" stroke-miterlimit="10" stroke-width="2"/>
      <path d="M347,105c1.5,12.75,9,13.75,9,16.5" fill="#a2e4fd" stroke="#fb3600" stroke-miterlimit="10" stroke-width="2"/>
      <ellipse cx="297.5" cy="205.5" rx="30.5" ry="36.5" fill="#a2e4fd" stroke="#fb3600" stroke-miterlimit="10" stroke-width="2"/>
      <path d="M319.174,224.433a33.21,33.21,0,0,1,8.812,23.067c0,16.845-11.41,30.5-25.486,30.5s-25.486-13.655-25.486-30.5a34.778,34.778,0,0,1,4.164-16.714" fill="#a2e4fd" stroke="#fb3600" stroke-miterlimit="10" stroke-width="2"/>
      <ellipse cx="307.5" cy="247.5" rx="16.628" ry="19.899" fill="#fff"/>
      <g>
        <ellipse cx="304.5" cy="162.5" rx="43" ry="33" fill="#fb3600"/>
        <path d="M304.5,131c22.883,0,41.5,14.131,41.5,31.5S327.383,194,304.5,194,263,179.869,263,162.5,281.617,131,304.5,131m0-3c-24.577,0-44.5,15.446-44.5,34.5S279.923,197,304.5,197,349,181.554,349,162.5,329.077,128,304.5,128Z" fill="#fab900"/>
        <ellipse cx="304.5" cy="162.5" rx="44.5" ry="34.5" fill="none" stroke="#fb3600" stroke-linecap="round" stroke-linejoin="round" stroke-width="2"/>
      </g>
      <ellipse cx="310.47" cy="158" rx="33.821" ry="26.221" fill="#fab900"/>
      <ellipse cx="323.235" cy="155.563" rx="12.765" ry="9.896" fill="#fff"/>
      <path d="M355,146.5c2.5,6.5,8,5.5,8,5.5l2.034,8.014" fill="none" stroke="#fb3600" stroke-linecap="round" stroke-linejoin="round" stroke-width="2"/>
      <g>
        <path d="M307.071,308.786a4.331,4.331,0,0,1-3.648-2.26,1.5,1.5,0,0,0-2.484-.587,4.044,4.044,0,0,1-1.965.456c-2.079,0-2.411-1.324-2.519-1.759a6.351,6.351,0,0,1,1.611-5.581,1.515,1.515,0,0,0,.413-1.3l-3.648-21.742a28.259,28.259,0,0,1,11.5-2.682,17.455,17.455,0,0,1,5.234.736c.223,3.272.93,14.122.93,19.936a1.5,1.5,0,0,0,.252.832c3.909,5.863,3.32,8.385,2.885,9.2a2.452,2.452,0,0,1-2.214,1.147h0a2.982,2.982,0,0,1-1.591-.424,1.5,1.5,0,0,0-2.317,1.036C309.087,308.786,307.57,308.786,307.071,308.786Z" fill="#fb3600"/>
        <path d="M306.336,274.828a17.28,17.28,0,0,1,3.809.4c.272,4.114.855,13.524.855,18.77a3,3,0,0,0,.5,1.664c3.788,5.683,2.852,7.58,2.811,7.657-.176.329-.728.355-.892.355a1.546,1.546,0,0,1-.759-.172,3,3,0,0,0-4.634,2.072c-.244,1.71-.745,1.71-.959,1.71a3.092,3.092,0,0,1-2.225-1.235,3,3,0,0,0-4.769-1.354,3.115,3.115,0,0,1-1.1.2c-.908,0-.984-.3-1.063-.622a4.868,4.868,0,0,1,1.21-4.151,3,3,0,0,0,.837-2.617l-3.453-20.579a26.058,26.058,0,0,1,9.831-2.1m0-3a30.289,30.289,0,0,0-13.173,3.3L297,298a7.914,7.914,0,0,0-2,7,3.76,3.76,0,0,0,3.974,2.894A4.875,4.875,0,0,0,302,307a5.786,5.786,0,0,0,5.071,3.286c1.8,0,3.477-1.12,3.929-4.286a4.456,4.456,0,0,0,2.423.676c3.28,0,6.855-3.259.577-12.676,0-7-1-21-1-21a16.446,16.446,0,0,0-6.664-1.172Z" fill="#fab900"/>
        <path d="M293.163,275.132,297,298a7.914,7.914,0,0,0-2,7c1,4,6,3,7,2,1,3,8,6,9-1,3,2,11,0,3-12,0-7-1-21-1-21S305.325,269.264,293.163,275.132Z" fill="none" stroke="#fb3600" stroke-linecap="round" stroke-linejoin="round" stroke-width="2"/>
      </g>
      <g opacity="0">
        <path d="M525.734,163.708c-.115,4.768-1.642,9.422-1.719,14.191s1.852,10.127,6.292,11.87a12.009,12.009,0,0,0,6.176.41c11.366-1.73,20.11-11.221,25.29-21.486a26.508,26.508,0,0,0,3.133-9.646,11.969,11.969,0,0,0-3.032-9.413c-2.148-2.151-5.2-3.1-8.145-3.84a10.565,10.565,0,0,0-4.183-.43,11.22,11.22,0,0,0-4.889,2.641l-14.833,11.584" fill="#fab900" stroke="#fb3600" stroke-miterlimit="10" stroke-width="2"/>
        <path d="M599.167,173.5c2.666,20,22,39.333,29,40.667s29-1.334,48.666-8.334c7.667,4,16,5.667,6.334-7-2-3.666-23-5.666-23-5.666s8.042-8.5,10.247-12.026c13.453-8.6,15-12.129,8.16-11.908a93.638,93.638,0,0,0-13.452,1.543l-9.7,6.175s13.231-19.627,7.939-34.843-32.418-23.6-55.353,1.985S599.167,173.5,599.167,173.5Z" fill="#fab900" stroke="#fb3600" stroke-miterlimit="10" stroke-width="2"/>
        <g>
          <path d="M685.385,207.25c-1.624,0-4.562-1.027-7.859-2.747a1.5,1.5,0,0,0-1.2-.083q-.433.155-.869.306a21.053,21.053,0,0,0-.343-7.733c6.025,1.389,6.7,2.507,6.733,2.559a1.5,1.5,0,0,0,.124.192c4.341,5.689,4.079,7.287,4.038,7.439h0a2.678,2.678,0,0,1-.623.067Z" fill="#fb3600"/>
          <path d="M677.006,199.021a11.823,11.823,0,0,1,3.641,1.44q.063.1.135.192a31.49,31.49,0,0,1,3.2,4.878,27.739,27.739,0,0,1-5.764-2.357,3.006,3.006,0,0,0-1.09-.326,23.16,23.16,0,0,0-.125-3.827m-4.193-4.047c1.644,3.423,1.68,8.181.69,12q1.673-.549,3.33-1.136c3.18,1.659,6.475,2.917,8.552,2.917,2.931,0,3.439-2.5-2.218-9.917-.885-1.622-5.493-2.918-10.354-3.859Z" fill="#fab900"/>
          <path d="M683.167,198.833c-.885-1.622-5.493-2.918-10.354-3.859,1.644,3.423,1.68,8.181.69,12q1.673-.549,3.33-1.136C684.5,209.833,692.833,211.5,683.167,198.833Z" fill="none" stroke="#fb3600" stroke-linecap="round" stroke-linejoin="round" stroke-width="2"/>
        </g>
        <g>
          <path d="M668.5,181.291a17.037,17.037,0,0,0-6.277-6.889l3.467-2.207a93.177,93.177,0,0,1,12.937-1.464c.183,0,.359-.008.529-.008a6.542,6.542,0,0,1,1.792.183c-.391.761-2.274,3.177-11.338,8.971a1.508,1.508,0,0,0-.464.47Q668.89,180.751,668.5,181.291Z" fill="#fb3600"/>
          <path d="M677.663,172.272a77.655,77.655,0,0,1-8.865,6.342c-.037.023-.073.048-.11.074a18.631,18.631,0,0,0-3.747-4.24l1.3-.831a92.678,92.678,0,0,1,11.417-1.345m1.49-3.049c-.186,0-.379,0-.579.01a93.614,93.614,0,0,0-13.452,1.543L658.8,174.8c4.353.649,7.517,5,9.4,9.311a32.968,32.968,0,0,0,2.208-2.967c13.058-8.348,14.894-11.918,8.738-11.918Z" fill="#fab900"/>
          <path d="M668.207,184.108a32.968,32.968,0,0,0,2.208-2.967c13.452-8.6,15-12.129,8.159-11.908a93.638,93.638,0,0,0-13.452,1.543L658.8,174.8C663.157,175.446,666.321,179.8,668.207,184.108Z" fill="none" stroke="#fb3600" stroke-linecap="round" stroke-linejoin="round" stroke-width="2"/>
        </g>
        <path d="M608.528,148.141s-4.317-15.418-32.171-23.839c-22.718.711-27.035,13.971-26.418,21.989s16.035,37,49.955,26.519" fill="#fab900" stroke="#fb3600" stroke-miterlimit="10" stroke-width="2"/>
        <path d="M570.6,165.1s8.018,11.718,22.2,1.542" fill="#fab900" stroke="#fb3600" stroke-miterlimit="10" stroke-width="2"/>
        <path d="M552.514,152.612a95.618,95.618,0,0,1-.889,18.348s8.018,11.718,22.2,1.542" fill="#fab900" stroke="#fb3600" stroke-miterlimit="10" stroke-width="2"/>
        <g>
          <path d="M534.309,166.506a12.312,12.312,0,0,1-7.112-2.266l3.608-9.962a1.5,1.5,0,0,0-1.41-2.011,1.559,1.559,0,0,0-.192.012,2.109,2.109,0,0,1-.276.019,1.332,1.332,0,0,1-.976-.411,1.831,1.831,0,0,1-.631-1.7,1.694,1.694,0,0,1,2.318-1.178,1.5,1.5,0,0,0,2.047-1.119c.006-.035.013-.089.018-.139a1.711,1.711,0,0,1,2.012-1.271,1.692,1.692,0,0,1,1.11.794,1.5,1.5,0,0,0,.98.69,1.46,1.46,0,0,0,.3.031,1.509,1.509,0,0,0,.87-.277,1.709,1.709,0,0,1,1-.325,1.635,1.635,0,0,1,.339.036,1.711,1.711,0,0,1,1.343,1.961c-.013.039-.025.078-.035.118a1.5,1.5,0,0,0,1.451,1.879h.034a1.764,1.764,0,0,1,.375.03,1.714,1.714,0,0,1,1.277,2.224,1.335,1.335,0,0,1-.516.615,2.393,2.393,0,0,1-1.26.537,1.331,1.331,0,0,1-.575-.155,1.5,1.5,0,0,0-2.135,1.289L537.81,166A12.269,12.269,0,0,1,534.309,166.506Z" fill="#fb3600"/>
          <path d="M533.209,147.754h0m.156.194.046,0a.192.192,0,0,1,.132.1,3,3,0,0,0,1.958,1.38,2.961,2.961,0,0,0,.606.062,3,3,0,0,0,1.739-.555.24.24,0,0,1,.146-.043h.016a.219.219,0,0,1,.172.187c-.007.025-.013.05-.02.076a3.014,3.014,0,0,0,.588,2.595,3.045,3.045,0,0,0,2.371,1.131h.056a.206.206,0,0,1,.142.1.2.2,0,0,1,.025.065,2.477,2.477,0,0,1-.344.205,3,3,0,0,0-4.227,2.6l-.409,8.947a10.791,10.791,0,0,1-7.345-1.19l3.2-8.831a3,3,0,0,0-2.82-4.021,2.924,2.924,0,0,0-.384.025l-.032,0-.013-.012a1.246,1.246,0,0,1-.186-.242h0a.224.224,0,0,1,.232-.161h0c.02.006.038.014.056.021a3,3,0,0,0,4.1-2.279l.009-.055a.219.219,0,0,1,.188-.119m0-3a3.215,3.215,0,0,0-3.144,2.565c-.008.038,0,.075-.012.113a3.131,3.131,0,0,0-.573-.18,3.21,3.21,0,0,0-3.774,2.4,3.315,3.315,0,0,0,1.073,3.15,2.828,2.828,0,0,0,1.991.807,3.67,3.67,0,0,0,.469-.031l-3.98,10.989a13.791,13.791,0,0,0,13.428,2.483l.417-.146L539.768,156a2.808,2.808,0,0,0,1.212.3,3.7,3.7,0,0,0,2.125-.811,2.808,2.808,0,0,0,1.077-1.374,3.214,3.214,0,0,0-2.4-4.16,3.083,3.083,0,0,0-.637-.062h-.073c.011-.045.031-.085.041-.131a106.179,106.179,0,0,1-7.094-4.745,3.246,3.246,0,0,0-.653-.067Z" fill="#fab900"/>
          <path d="M526.935,152.991a2.867,2.867,0,0,0,2.46.776l-3.98,10.989h0a13.791,13.791,0,0,0,13.428,2.483l.417-.146L539.768,156c.838.393,1.83.548,3.337-.514a2.808,2.808,0,0,0,1.077-1.374,3.214,3.214,0,0,0-2.4-4.16,3.123,3.123,0,0,0-.71-.061c.011-.045.031-.085.041-.131a106.179,106.179,0,0,1-7.094-4.745,3.214,3.214,0,0,0-3.8,2.5c-.008.038,0,.075-.012.113a3.083,3.083,0,0,0-.573-.18,3.214,3.214,0,0,0-3.774,2.4A3.317,3.317,0,0,0,526.935,152.991Z" fill="none" stroke="#fb3600" stroke-linecap="round" stroke-linejoin="round" stroke-width="2"/>
        </g>
        <path d="M598.217,140.809c6.749-1.643,12.021-7.182,15.993-12.881A14.1,14.1,0,0,0,624.342,138.3c3.722.9,7.192-3.632,11.018-3.775a68.731,68.731,0,0,0-6.6-20.92c-1.25-2.484-2.783-5.022-5.256-6.3-2.6-1.338-5.723-1.011-8.6-.491a79.668,79.668,0,0,0-15.925,4.628,83.051,83.051,0,0,0-18.369,10.245" fill="#fab900" stroke="#fb3600" stroke-miterlimit="10" stroke-width="2"/>
        <g>
          <path d="M630.3,152.965a1.306,1.306,0,0,1-1.274-1.018c0-.035,0-.069-.008-.1a1.5,1.5,0,0,0-2.068-1.2,1.3,1.3,0,0,1-1.815-1.133,1.008,1.008,0,0,1,.19-.551c.536-.821.862-.821,1.078-.821,0,0,.18.007.21.007a1.5,1.5,0,0,0,1.418-1.99l-2.832-8.2a10.55,10.55,0,0,1,8.779-1.916l.283,9.112a1.5,1.5,0,0,0,2.226,1.266,1.107,1.107,0,0,1,.547-.168,1.232,1.232,0,0,1,.438.093,1.408,1.408,0,0,1,.94,1.025,1.286,1.286,0,0,1-1.289,1.489,1.539,1.539,0,0,0-1.2.571,1.509,1.509,0,0,0-.3,1.277c0,.018.011.043.019.069a1.31,1.31,0,0,1-1.294,1.476,1.3,1.3,0,0,1-.789-.272,1.507,1.507,0,0,0-.9-.3,1.525,1.525,0,0,0-.261.023,1.5,1.5,0,0,0-1,.662,1.294,1.294,0,0,1-.864.583A1.4,1.4,0,0,1,630.3,152.965Z" fill="#fb3600"/>
          <path d="M631.627,137.275h0q.449,0,.892.044l.244,7.881a3.011,3.011,0,0,0,2.417,2.839,3,3,0,0,0-1.092,2.5,2.937,2.937,0,0,1-5.058-1.106,2.959,2.959,0,0,0-.738-.305,3,3,0,0,0,1.158-3.467l-2.457-7.112a9.054,9.054,0,0,1,4.634-1.276m5.616,10.441h0m-5.616-13.441a12.051,12.051,0,0,0-7.89,2.941l-.292.252,3.17,9.175c-.071,0-.141-.007-.212-.007a2.661,2.661,0,0,0-2.333,1.5,2.449,2.449,0,0,0-.431,1.463,2.81,2.81,0,0,0,2.8,2.647,2.857,2.857,0,0,0,.493-.043,2.8,2.8,0,0,0,.6-.18c0,.04,0,.08.009.12a27.388,27.388,0,0,1,6.81,1.606,2.763,2.763,0,0,0,.484-.043,2.808,2.808,0,0,0,2.277-3.255c0-.033-.02-.062-.026-.095h.042a2.721,2.721,0,0,0,.481-.039,2.809,2.809,0,0,0,2.292-3.164,2.9,2.9,0,0,0-1.889-2.212,2.7,2.7,0,0,0-.974-.192,2.59,2.59,0,0,0-1.274.356l-.316-10.211a12.051,12.051,0,0,0-3.818-.621Z" fill="#fab900"/>
          <path d="M638.009,144.943a2.5,2.5,0,0,0-2.248.164l-.316-10.211h0a12.053,12.053,0,0,0-11.708,2.32l-.292.252,3.17,9.175a2.623,2.623,0,0,0-2.545,1.5,2.449,2.449,0,0,0-.431,1.463,2.793,2.793,0,0,0,3.89,2.424c0,.04,0,.08.009.12a92.4,92.4,0,0,1,7.294,1.563,2.808,2.808,0,0,0,2.277-3.255c-.006-.033-.02-.062-.027-.095a2.791,2.791,0,0,0,2.816-3.2A2.9,2.9,0,0,0,638.009,144.943Z" fill="none" stroke="#fb3600" stroke-linecap="round" stroke-linejoin="round" stroke-width="2"/>
        </g>
        <g>
          <path d="M585.944,131.534c-2,0-4.669-.417-6.086-2.407s-1.2-5.021.582-8.57a31.436,31.436,0,0,1,9.9-10.886c5.226-3.721,11.106-5.943,15.727-5.943,2,0,4.669.418,6.086,2.407,3.073,4.314-1.726,13.224-10.478,19.456C596.444,129.312,590.565,131.534,585.944,131.534Z" fill="#fb3600"/>
          <path d="M606.063,105.228h0c1.345,0,3.764.231,4.864,1.777,1.055,1.481.8,4.042-.7,7.027a30.358,30.358,0,0,1-9.426,10.337c-4.982,3.547-10.536,5.665-14.857,5.665-1.344,0-3.763-.231-4.864-1.777-2.265-3.18,1.585-11.282,10.126-17.364,4.982-3.547,10.536-5.665,14.857-5.665m0-3c-4.769,0-10.88,2.151-16.6,6.221-9.592,6.83-14.44,16.478-10.83,21.548,1.459,2.049,4.075,3.037,7.308,3.037,4.769,0,10.881-2.151,16.6-6.221,9.591-6.83,14.44-16.478,10.829-21.549-1.459-2.048-4.075-3.036-7.308-3.036Z" fill="#fab900"/>
          <ellipse cx="596.004" cy="117.631" rx="21.32" ry="11.271" transform="translate(42.274 367.512) rotate(-35.453)" fill="none" stroke="#fb3600" stroke-linecap="round" stroke-linejoin="round" stroke-width="2"/>
        </g>
        <path d="M542,113c-4-6-19-1-22,1-.832.555-2,9,6,14" fill="#a2e4fd" stroke="#fb3600" stroke-miterlimit="10" stroke-width="2"/>
        <path d="M589.2,115.771c5.524,12.955-4.412,29.6-22.193,37.185s-36.673,3.227-42.2-9.727c-3.08-7.222-1.354-15.592,3.856-22.9a38,38,0,0,1,4.566-5.27,43.323,43.323,0,0,1,5.76-4.658A47.36,47.36,0,0,1,547,106.044C564.778,98.461,583.671,102.817,589.2,115.771Z" fill="#a2e4fd" stroke="#fb3600" stroke-miterlimit="10" stroke-width="2"/>
        <path d="M577.8,117.922c4.073,9.553-3.254,21.829-16.365,27.42s-27.042,2.38-31.116-7.173c-2.271-5.325-1-11.5,2.844-16.885a27.993,27.993,0,0,1,3.366-3.887,31.888,31.888,0,0,1,4.248-3.434,34.984,34.984,0,0,1,5.907-3.214C559.793,105.158,573.724,108.37,577.8,117.922Z" fill="#fff"/>
        <g>
          <path d="M547.755,131.038A4.923,4.923,0,0,0,538.7,134.9l-3.414-.837" fill="none" stroke="#fb3600" stroke-linecap="round" stroke-linejoin="round" stroke-width="2"/>
          <path d="M557.457,126.9a4.922,4.922,0,0,1,9.055-3.861l1.76-3.044" fill="none" stroke="#fb3600" stroke-linecap="round" stroke-linejoin="round" stroke-width="2"/>
        </g>
        <g>
          <path d="M560.551,133.309a4.657,4.657,0,0,0-5.814,2.072,4.657,4.657,0,0,0-5.52,2.761" fill="none" stroke="#fb3600" stroke-linecap="round" stroke-linejoin="round" stroke-width="2"/>
          <path d="M561.727,139.076a7.044,7.044,0,0,1-9.163,3.907" fill="none" stroke="#fb3600" stroke-linecap="round" stroke-linejoin="round" stroke-width="2"/>
          <line x1="554.057" y1="139.269" x2="558.013" y2="137.582" fill="none" stroke="#fb3600" stroke-linecap="round" stroke-linejoin="round" stroke-width="2"/>
        </g>
        <path d="M555,105.813c.191-9.183,12.817-13.774,12.817-13.774S577,97.778,577,106.961" fill="#a2e4fd" stroke="#fb3600" stroke-miterlimit="10" stroke-width="2"/>
        <circle cx="573.631" cy="129.655" r="6.237" fill="#fb3600"/>
        <path d="M615.283,156c-5.293,32.417,2.646,43.885,8.821,46.311s18.758,7.291,36.063-9.145" fill="none" stroke="#fb3600" stroke-linecap="round" stroke-miterlimit="10" stroke-width="2"/>
        <path d="M655.419,176.951c-4.411,6.616-9.042,12.35-9.042,12.35" fill="none" stroke="#fb3600" stroke-linecap="round" stroke-miterlimit="10" stroke-width="2"/>
        <path d="M539.393,167.09a16.463,16.463,0,0,1,3.292,8.413" fill="#fff" stroke="#fb3600" stroke-linecap="round" stroke-linejoin="round" stroke-width="2"/>
        <circle cx="539.464" cy="144.488" r="6.237" fill="#fb3600"/>
        <path d="M619.643,177.561c.31,4.8.724,9.893,3.567,13.774a4.884,4.884,0,0,0,3.659,2.332,4.6,4.6,0,0,0,2.694-1.1c2.312-1.768,3.73-4.433,5.078-7.014l3.507-6.714a16.564,16.564,0,0,0,1.471-3.419c.755-2.891-.11-5.978-1.456-8.646a5.854,5.854,0,0,0-2.172-2.636c-2.582-1.43-10.68-3.221-13.467-1.379C618.489,165.428,619.339,173.544,619.643,177.561Z" fill="#a2e4fd"/>
        <path d="M578.93,163.816a9.465,9.465,0,0,0,3.357-.4,7.788,7.788,0,0,0,2.426-1.622c1.669-1.519,3.166-3.467,3.279-5.72s-1.722-4.674-3.966-4.447c-2.792.283-8.74,3.69-10.375,6.181C570.3,162.9,574.454,163.816,578.93,163.816Z" fill="#a2e4fd"/>
        <path d="M557.019,166.6a3.786,3.786,0,0,1,2.342-4.01,9.265,9.265,0,0,1,4.948-.418,2.192,2.192,0,0,1,.813.21c.92.509.692,1.913.14,2.808a7.425,7.425,0,0,1-7.437,3.327" fill="#a2e4fd"/>
        <path d="M617.979,128.637a8.2,8.2,0,0,1,1.081-10.4,3.271,3.271,0,0,1,3.252-1,3.829,3.829,0,0,1,1.832,2.361,33.209,33.209,0,0,1,2.079,8.361,4.764,4.764,0,0,1-.62,3.6,3.464,3.464,0,0,1-3.931.7,10.152,10.152,0,0,1-3.328-2.63" fill="#a2e4fd"/>
      </g>
      <path d="M401.264,126.371a7.785,7.785,0,0,0-10.428,2.516.2.2,0,0,1-.348,0,7.786,7.786,0,0,0-13.279,8.125c1.32,2.285,13.453,12.119,13.453,12.119s12.134-9.834,13.453-12.119A7.789,7.789,0,0,0,401.264,126.371Z" fill="#a2e4fd" stroke="#fb3600" stroke-linecap="round" stroke-linejoin="round" stroke-width="2"/>
      <path d="M413.507,124.042a7.786,7.786,0,0,0-10.428,2.515.2.2,0,0,1-.347,0,7.786,7.786,0,0,0-13.279,8.126c1.319,2.285,13.452,12.118,13.452,12.118s12.134-9.833,13.453-12.118A7.789,7.789,0,0,0,413.507,124.042Z" fill="#a2e4fd" stroke="#fb3600" stroke-linecap="round" stroke-linejoin="round" stroke-width="2"/>
      <path d="M425.75,121.713a7.785,7.785,0,0,0-10.427,2.515.2.2,0,0,1-.348,0,7.786,7.786,0,0,0-13.279,8.126c1.319,2.285,13.453,12.118,13.453,12.118s12.133-9.833,13.453-12.118A7.791,7.791,0,0,0,425.75,121.713Z" fill="#a2e4fd" stroke="#fb3600" stroke-linecap="round" stroke-linejoin="round" stroke-width="2"/>
      <g>
        <path d="M428.826,140.9c-5.841-4.772-14.522-12.2-15.568-14.01a8.263,8.263,0,0,1,14.091-8.623,1.755,1.755,0,0,0,2.953,0A8.263,8.263,0,0,1,444.4,126.89C443.349,128.7,434.667,136.128,428.826,140.9Z" fill="#fb3600"/>
        <path d="M437.251,115.99a6.768,6.768,0,0,1,5.851,10.14c-.9,1.45-7.768,7.48-14.276,12.832-6.508-5.352-13.37-11.382-14.269-12.822a6.763,6.763,0,0,1,11.532-7.059,3.255,3.255,0,0,0,5.475,0,6.745,6.745,0,0,1,5.687-3.091m-16.85-3a9.768,9.768,0,0,0-8.443,14.65c1.655,2.866,16.868,15.2,16.868,15.2s15.214-12.329,16.868-15.2a9.763,9.763,0,0,0-16.65-10.188.257.257,0,0,1-.217.123.26.26,0,0,1-.219-.123,9.768,9.768,0,0,0-8.207-4.462Z" fill="#a2e4fd"/>
        <path d="M442.119,114.3a9.761,9.761,0,0,0-13.075,3.153.255.255,0,0,1-.436,0,9.763,9.763,0,0,0-16.649,10.188c1.654,2.866,16.867,15.2,16.867,15.2s15.213-12.329,16.868-15.2A9.766,9.766,0,0,0,442.119,114.3Z" fill="none" stroke="#fb3600" stroke-linecap="round" stroke-linejoin="round" stroke-width="2"/>
      </g>
      <g>
        <path d="M365.034,90.1a35.924,35.924,0,0,1-3.4-3.058,1.178,1.178,0,0,1-.093-.869,1.2,1.2,0,0,1,.56-.731,1.181,1.181,0,0,1,.6-.161,1.2,1.2,0,0,1,1.012.55l.443.685.877.034a1.569,1.569,0,0,0,1.318-.715,1.2,1.2,0,0,1,1.014-.554,1.181,1.181,0,0,1,.6.161,1.206,1.206,0,0,1,.441,1.644A38.369,38.369,0,0,1,365.034,90.1Z" fill="#fb3600"/>
        <path d="M365.14,88.046l-.106.09-.105-.09.105,0,.106,0m2.226-4.267a2.7,2.7,0,0,0-2.271,1.235.072.072,0,0,1-.061.034.069.069,0,0,1-.06-.034,2.7,2.7,0,0,0-4.608,2.82c.458.793,4.668,4.2,4.668,4.2s4.211-3.412,4.669-4.2a2.7,2.7,0,0,0-2.337-4.055Z" fill="#a2e4fd"/>
        <path d="M368.713,84.141a2.7,2.7,0,0,0-3.618.873.071.071,0,0,1-.121,0,2.7,2.7,0,0,0-4.608,2.82c.458.793,4.668,4.2,4.668,4.2s4.211-3.412,4.669-4.2A2.7,2.7,0,0,0,368.713,84.141Z" fill="none" stroke="#fb3600" stroke-linecap="round" stroke-linejoin="round" stroke-width="2"/>
      </g>
      <g>
        <path d="M396,96.669a35.856,35.856,0,0,1-3.4-3.059,1.2,1.2,0,0,1,.469-1.6,1.181,1.181,0,0,1,.6-.161,1.2,1.2,0,0,1,1.012.55l.443.685.877.035a1.568,1.568,0,0,0,1.321-.721,1.2,1.2,0,0,1,1.011-.549,1.181,1.181,0,0,1,.6.161,1.207,1.207,0,0,1,.441,1.645A38.749,38.749,0,0,1,396,96.669Z" fill="#fb3600"/>
        <path d="M396.105,94.618l-.105.09-.105-.09h.21m2.227-4.268a2.7,2.7,0,0,0-2.271,1.235.072.072,0,0,1-.122,0,2.7,2.7,0,0,0-4.607,2.82c.458.793,4.668,4.206,4.668,4.206s4.21-3.413,4.668-4.206a2.7,2.7,0,0,0-2.336-4.055Z" fill="#a2e4fd"/>
        <path d="M399.679,90.713a2.7,2.7,0,0,0-3.619.872.069.069,0,0,1-.12,0,2.7,2.7,0,0,0-4.608,2.82c.457.793,4.668,4.206,4.668,4.206s4.211-3.413,4.669-4.206A2.7,2.7,0,0,0,399.679,90.713Z" fill="none" stroke="#fb3600" stroke-linecap="round" stroke-linejoin="round" stroke-width="2"/>
      </g>
      <g>
        <path d="M386.5,73.059A36,36,0,0,1,383.1,70a1.2,1.2,0,0,1,.469-1.6,1.181,1.181,0,0,1,.6-.161,1.2,1.2,0,0,1,1.012.549l.443.686.877.034a1.567,1.567,0,0,0,1.317-.715,1.2,1.2,0,0,1,1.015-.554,1.181,1.181,0,0,1,.6.161,1.206,1.206,0,0,1,.441,1.644A38.527,38.527,0,0,1,386.5,73.059Z" fill="#fb3600"/>
        <path d="M386.605,71.007l-.105.09-.105-.09.105,0,.105,0m-2.437-4.267a2.7,2.7,0,0,0-2.336,4.055c.458.793,4.668,4.2,4.668,4.2s4.21-3.412,4.668-4.2a2.7,2.7,0,0,0-4.607-2.82.072.072,0,0,1-.122,0,2.7,2.7,0,0,0-2.271-1.235Z" fill="#a2e4fd"/>
        <path d="M390.179,67.1a2.7,2.7,0,0,0-3.619.873.07.07,0,0,1-.12,0,2.7,2.7,0,0,0-4.608,2.82c.457.793,4.668,4.2,4.668,4.2s4.211-3.412,4.669-4.2A2.7,2.7,0,0,0,390.179,67.1Z" fill="none" stroke="#fb3600" stroke-linecap="round" stroke-linejoin="round" stroke-width="2"/>
      </g>
      <rect x="20.147" y="1" width="243.52" height="40.484" fill="#fb3600"/>
      <g>
        <path d="M51.86,12.513a23.809,23.809,0,0,1,7.21,0l2.661,12.8H62.2l2.64-12.795a23.809,23.809,0,0,1,7.21,0c1.077,5.728,1.93,11.617,2.661,17.344a12.018,12.018,0,0,1-5.179.1l-1.5-13.912h-.914L64.107,29.918a8.577,8.577,0,0,1-4.3,0L56.816,16.047H55.9L54.4,29.959a12.11,12.11,0,0,1-5.2-.1C49.951,24.13,50.805,18.241,51.86,12.513Z" fill="#fab900"/>
        <path d="M76.749,22.708c0-5.239,3.595-7.676,8.51-7.676,5.077,0,6.824,1.5,6.824,4.285,0,4.143-5.666,5.544-11.17,4.326-.082,2.4,1.746,3.534,4.163,3.574a20.039,20.039,0,0,0,6.6-1.076,17.5,17.5,0,0,1,0,3.574,37.317,37.317,0,0,1-6.906.671C78.435,30.386,76.749,26.364,76.749,22.708Zm4.123-.446c2.4.873,7.535.487,7.535-2.194,0-1.746-1.239-2.254-3.107-2.214-2.438.062-4.285,1.24-4.407,3.92Z" fill="#fab900"/>
        <path d="M105.758,27.116h-.365c-.671,1.1-1.544,3.29-5.464,3.29-3.554,0-5.3-1.5-5.3-4.184,0-4.549,5.87-5.646,11.211-4.448.142-2.4-1.3-3.533-4.062-3.574a19.982,19.982,0,0,0-6.6,1.1,17.7,17.7,0,0,1,0-3.6,34.813,34.813,0,0,1,6.885-.65c7.7,0,8.225,4.021,8.225,7.677,0,2.681-.082,6.255-.082,7.189a15.812,15.812,0,0,1-4.041.1Zm-4.184.528c2.335,0,4.2-1.178,4.325-3.92v-.589c-2.4-.792-7.209-.63-7.209,2.4C98.69,27.136,99.827,27.644,101.574,27.644Z" fill="#fab900"/>
        <path d="M113.542,15.356a12.918,12.918,0,0,1,4.144,0l.385,3.311h.345a4.905,4.905,0,0,1,5.058-3.717c4.589,0,6.031,3.615,6.031,8.388,0,.853-.04,2.173-.04,6.58a17.177,17.177,0,0,1-4.793,0V22.424c0-2.721-1.463-3.94-3.371-3.94a3.914,3.914,0,0,0-3.372,2.092l-.021,9.342a14.4,14.4,0,0,1-4.387,0C113.4,24.74,113.38,20.312,113.542,15.356Z" fill="#fab900"/>
        <path d="M135.95,15.336l2.417,11.557h.447l2.823-11.537a12.048,12.048,0,0,1,4,0l2.843,11.537h.447l2.417-11.557a16.258,16.258,0,0,1,4.55.2c-.894,4.813-1.971,9.585-3.332,14.378a28.253,28.253,0,0,1-6.153,0L143.851,19.3h-.407l-2.579,10.621a28.446,28.446,0,0,1-6.174,0c-1.34-4.793-2.417-9.565-3.31-14.378A16.39,16.39,0,0,1,135.95,15.336Z" fill="#fab900"/>
        <path d="M157.914,11.66a12.9,12.9,0,0,1,4.59-.1l.224,7.129h.344c.61-2.479,2.519-3.738,5.159-3.738,4.692,0,6.255,3.615,6.255,8.388,0,.853-.1,2.884-.1,6.58a15.167,15.167,0,0,1-4.793.1v-7.6c0-2.721-1.524-3.94-3.554-3.94a4.171,4.171,0,0,0-3.514,2.092l-.02,9.444a12.993,12.993,0,0,1-4.61-.1C157.752,24.13,157.731,17.225,157.914,11.66Z" fill="#fab900"/>
        <path d="M177.642,12.919c0-1.3,1.117-1.827,2.782-1.827,1.685,0,2.823.528,2.823,1.827,0,1.239-1.138,1.788-2.823,1.788C178.759,14.707,177.642,14.158,177.642,12.919Zm.447,3.92h4.65c.163,4,.163,9.078,0,13.079a16.172,16.172,0,0,1-4.65,0C177.926,25.917,177.926,20.84,178.089,16.839Z" fill="#fab900"/>
        <path d="M186.5,11.559a16.041,16.041,0,0,1,4.631,0c.162,6.092.162,12.267,0,18.359a16.041,16.041,0,0,1-4.631,0C186.358,23.826,186.358,17.651,186.5,11.559Z" fill="#fab900"/>
        <path d="M194,22.708c0-5.239,3.595-7.676,8.51-7.676,5.077,0,6.824,1.5,6.824,4.285,0,4.143-5.666,5.544-11.17,4.326-.082,2.4,1.746,3.534,4.163,3.574a20.039,20.039,0,0,0,6.6-1.076,17.5,17.5,0,0,1,0,3.574,37.313,37.313,0,0,1-6.905.671C195.682,30.386,194,26.364,194,22.708Zm4.123-.446c2.4.873,7.535.487,7.535-2.194,0-1.746-1.239-2.254-3.107-2.214-2.438.062-4.285,1.24-4.407,3.92Z" fill="#fab900"/>
        <path d="M212.281,28.517c0-1.34,1.016-1.909,2.56-1.909s2.6.569,2.6,1.909c0,1.361-1.056,1.95-2.6,1.95S212.281,29.878,212.281,28.517Z" fill="#fab900"/>
        <path d="M220.591,28.517c0-1.34,1.015-1.909,2.559-1.909s2.6.569,2.6,1.909c0,1.361-1.057,1.95-2.6,1.95S220.591,29.878,220.591,28.517Z" fill="#fab900"/>
        <path d="M228.9,28.517c0-1.34,1.016-1.909,2.56-1.909s2.6.569,2.6,1.909c0,1.361-1.057,1.95-2.6,1.95S228.9,29.878,228.9,28.517Z" fill="#fab900"/>
      </g>
      <g>
        <path d="M118.268,113.82a15.679,15.679,0,0,1,0-3.256,14.351,14.351,0,0,0,5.522.958c2.506-.016,3.767-.926,3.352-3.847-7.454.448-9.242.336-9.242-3.3,0-2.538,1.485-4.533,6.656-4.533a39.188,39.188,0,0,1,5.746.606,16.117,16.117,0,0,1,0,3.272,13.81,13.81,0,0,0-5.49-.957c-2.474.015-3.719.909-3.273,3.862,7.374-.431,9.241-.383,9.241,3.288,0,2.538-1.563,4.549-6.751,4.549A37.54,37.54,0,0,1,118.268,113.82Z" fill="#fb3600"/>
        <path d="M133.029,100.317a57.637,57.637,0,0,1,11.237,0,12.958,12.958,0,0,1,0,2.714l-7.709-.351c.015,1.277.015,2.474.015,3.687l6.065-.1a5.586,5.586,0,0,1,0,1.788l-6.065-.1c0,1.229,0,2.41-.015,3.655l7.709-.335a12.948,12.948,0,0,1,0,2.713,58.756,58.756,0,0,1-11.237,0C132.917,109.75,132.9,104.4,133.029,100.317Z" fill="#fb3600"/>
        <path d="M146.5,107.133c0-4.086,2.234-7.294,6.99-7.294a18.127,18.127,0,0,1,5.172.638,18.441,18.441,0,0,1,0,3.256c-4.6-.989-8.523-.862-8.587,3.4.064,4.325,3.99,4.405,8.587,3.431a18.441,18.441,0,0,1,0,3.256,18.222,18.222,0,0,1-5.172.639C148.748,114.459,146.5,111.267,146.5,107.133Z" fill="#fb3600"/>
        <path d="M160.238,100.317a80.693,80.693,0,0,1,11.78,0,16.174,16.174,0,0,1,0,3.033l-4.119-.143c.033,3.734.033,7.182-.015,10.869a11.812,11.812,0,0,1-3.512,0c-.048-3.687-.048-7.135-.016-10.869l-4.118.143A16.174,16.174,0,0,1,160.238,100.317Z" fill="#fb3600"/>
        <path d="M173.437,107.245c0-4.294,2.521-7.358,7.724-7.358,5.22,0,7.757,3.064,7.757,7.358,0,4.2-2.537,7.214-7.757,7.214C175.958,114.459,173.437,111.442,173.437,107.245Zm7.789,3.894c2.425,0,4.181-1.229,4.181-3.942s-1.756-3.99-4.214-3.99c-2.538,0-4.245,1.292-4.245,3.99S178.688,111.139,181.226,111.139Z" fill="#fb3600"/>
        <path d="M191.183,100.525a29.525,29.525,0,0,1,6.448-.686c5.107,0,6.863,2,6.863,4.469a3.584,3.584,0,0,1-3.527,3.942v.271c2.218.687,3.032,4.246,3.527,5.379a8.889,8.889,0,0,1-3.879.144l-2.091-4.645h-3.766l.032,4.6a12.567,12.567,0,0,1-3.623,0C191.055,109.734,191.055,104.18,191.183,100.525ZM197.6,107.4c2.473.016,3.192-1.2,3.192-2.522s-.941-2.394-3.225-2.394a16.345,16.345,0,0,0-2.76.287l-.033,4.613Z" fill="#fb3600"/>
        <path d="M224.682,100.238a17.911,17.911,0,0,1,0,3.192l-8.907-.559-.015,3.783c7.469-.511,9.272-.415,9.272,3.176,0,3.336-1.532,4.5-6.064,4.5a42.516,42.516,0,0,1-6.624-.623,16,16,0,0,1,0-3.032,18.5,18.5,0,0,0,5.635.782c2.569-.016,3.862-.91,3.4-3.926a59.2,59.2,0,0,1-8.97.239c-.112-2.5-.112-5-.016-7.5A90.006,90.006,0,0,1,224.682,100.238Z" fill="#fb3600"/>
        <path d="M234.862,103.51V103l-7.6.5a17.559,17.559,0,0,1,0-3.177,76.277,76.277,0,0,1,10.964,0,21.223,21.223,0,0,1,0,3.512L232.213,114.2a6.369,6.369,0,0,1-3.527-.383Z" fill="#fb3600"/>
        <path d="M240.128,110.5c0-2.106.782-3.048,3.08-3.351v-.272c-2.3-.335-2.9-1.276-2.9-3.112,0-2.585,1.9-3.847,6.368-3.847,4.484,0,6.368,1.277,6.368,3.847,0,1.836-.606,2.777-2.905,3.112v.272c2.3.3,3.081,1.245,3.081,3.351,0,2.522-2.075,3.959-6.544,3.959C242.171,114.459,240.128,113.006,240.128,110.5Zm6.544,1.118c2.186,0,3.686-.75,3.686-2.027,0-1.293-1.117-1.883-3.686-1.9-2.634.017-3.719.623-3.719,1.9S244.438,111.618,246.672,111.618Zm0-5.2c2.6.016,3.512-.607,3.512-1.74,0-1.357-1.326-1.931-3.512-1.931-2.027,0-3.543.574-3.543,1.931C243.129,105.824,244.055,106.431,246.672,106.415Z" fill="#fb3600"/>
      </g>
      <g>
        <path d="M465.383,44.26a11.484,11.484,0,0,1,3.322,0c.116,4.284.116,8.189,0,12.488a11.556,11.556,0,0,1-3.322,0C465.28,52.449,465.28,48.544,465.383,44.26Z" fill="#a2e4fd"/>
        <path d="M471.14,46.227a16.953,16.953,0,0,1,2.972,0l.278,2.448h.248a3.519,3.519,0,0,1,3.628-2.667,3.854,3.854,0,0,1,3.92,2.681h.248a3.773,3.773,0,0,1,3.832-2.681c3.294,0,4.313,2.594,4.313,6.018,0,1.531-.015,3.177-.015,4.722a12.48,12.48,0,0,1-3.453,0V51.371c0-1.953-1.049-2.827-2.419-2.827a2.66,2.66,0,0,0-2.258,1.326,14.1,14.1,0,0,1,.16,2.156c0,1.531-.03,3.177-.03,4.722a12.372,12.372,0,0,1-3.438,0V51.371c0-1.953-1.05-2.827-2.419-2.827a2.807,2.807,0,0,0-2.419,1.5l-.015,6.7a10.376,10.376,0,0,1-3.147,0C471.023,52.959,471.009,49.855,471.14,46.227Z" fill="#a2e4fd"/>
        <path d="M492.916,46.3a12.791,12.791,0,0,1,3.074-.073l.321,2.594h.248a4.327,4.327,0,0,1,3.8-2.638c2.827,0,4.445,2.23,4.4,5.523-.059,2.871-1.749,5.159-4.459,5.159a3.586,3.586,0,0,1-3.672-2.332h-.263l-.16,3.57a14.354,14.354,0,0,1-3.278-.073C492.813,54.11,492.828,50.205,492.916,46.3Zm5.843,8.189a2.557,2.557,0,0,0,2.871-2.681c0-2.084-1.181-3.031-2.871-3.031a3.126,3.126,0,0,0-2.623,1.5V53A3.125,3.125,0,0,0,498.759,54.489Z" fill="#a2e4fd"/>
        <path d="M506.441,51.575c0-3.76,2.58-5.509,6.107-5.509,3.642,0,4.895,1.079,4.895,3.075,0,2.973-4.065,3.979-8.014,3.1-.058,1.72,1.254,2.536,2.987,2.565a14.4,14.4,0,0,0,4.736-.772,12.484,12.484,0,0,1,0,2.564,26.765,26.765,0,0,1-4.954.481C507.651,57.083,506.441,54.2,506.441,51.575Zm2.959-.321c1.719.627,5.407.35,5.407-1.573,0-1.254-.89-1.618-2.23-1.589-1.749.044-3.075.889-3.162,2.812Z" fill="#a2e4fd"/>
        <path d="M519.633,46.3a9.26,9.26,0,0,1,2.972,0l.277,2.375h.248a3.519,3.519,0,0,1,3.628-2.667c3.294,0,4.328,2.594,4.328,6.018,0,.613-.029,1.56-.029,4.722a12.38,12.38,0,0,1-3.439,0V51.371c0-1.953-1.05-2.827-2.419-2.827a2.808,2.808,0,0,0-2.419,1.5l-.014,6.7a10.383,10.383,0,0,1-3.148,0C519.53,53.032,519.516,49.855,519.633,46.3Z" fill="#a2e4fd"/>
        <path d="M541.771,56.821l-.218-2.288H541.3a3.829,3.829,0,0,1-3.788,2.521c-2.726,0-4.46-2.3-4.46-5.639,0-2.973,1.589-5.188,4.4-5.188a4.25,4.25,0,0,1,3.876,2.667h.263l.145-5.319a14.412,14.412,0,0,1,3.279.072c.117,4.022.117,9.064.029,13.1A14.408,14.408,0,0,1,541.771,56.821Zm-.043-6.7a3.122,3.122,0,0,0-2.609-1.5,2.61,2.61,0,0,0-2.886,2.841,2.667,2.667,0,0,0,2.871,3.017,3.093,3.093,0,0,0,2.624-1.487Z" fill="#a2e4fd"/>
        <path d="M547.37,44.551c0-.932.8-1.311,2-1.311,1.21,0,2.026.379,2.026,1.311,0,.889-.816,1.282-2.026,1.282C548.172,45.833,547.37,45.44,547.37,44.551Zm.32,2.812h3.337c.118,2.871.118,6.514,0,9.385a11.66,11.66,0,0,1-3.337,0C547.574,53.877,547.574,50.234,547.69,47.363Z" fill="#a2e4fd"/>
        <path d="M553.726,46.3a9.26,9.26,0,0,1,2.972,0l.277,2.375h.248a3.519,3.519,0,0,1,3.628-2.667c3.294,0,4.328,2.594,4.328,6.018,0,.613-.03,1.56-.03,4.722a12.372,12.372,0,0,1-3.438,0V51.371c0-1.953-1.05-2.827-2.419-2.827a2.807,2.807,0,0,0-2.419,1.5l-.015,6.7a10.376,10.376,0,0,1-3.147,0C553.623,53.032,553.608,49.855,553.726,46.3Z" fill="#a2e4fd"/>
        <path d="M570.953,45.964a4.333,4.333,0,0,1,4.153,2.638h.262l.321-2.288a11.44,11.44,0,0,1,3.075.073c0,.743.058,4.24.058,6.339,0,2.608-.379,5.421-6.12,5.421a14.736,14.736,0,0,1-5.144-.743,14.87,14.87,0,0,1,0-2.783,12.463,12.463,0,0,0,4.911,1.078c2.084-.03,3.046-.656,2.972-2.259-3.949.947-8.292.131-8.292-3.628A3.511,3.511,0,0,1,570.953,45.964Zm4.532,6.441v-1.34c-.16-3.308-5.246-4.27-5.246-.787C570.239,52.988,573.824,53.018,575.485,52.405Z" fill="#a2e4fd"/>
        <path d="M473.732,74.312l-.218-2.288h-.248a3.829,3.829,0,0,1-3.788,2.52c-2.726,0-4.46-2.3-4.46-5.639,0-2.972,1.588-5.187,4.4-5.187a4.251,4.251,0,0,1,3.876,2.666h.263l.145-5.319a14.459,14.459,0,0,1,3.278.073c.118,4.022.118,9.064.03,13.1A14.408,14.408,0,0,1,473.732,74.312Zm-.044-6.7a3.12,3.12,0,0,0-2.608-1.5,2.611,2.611,0,0,0-2.886,2.842,2.666,2.666,0,0,0,2.871,3.016,3.089,3.089,0,0,0,2.623-1.486Z" fill="#a2e4fd"/>
        <path d="M479.039,69.065c0-3.264,1.982-5.61,6.048-5.61s6.062,2.346,6.062,5.61c0,3.206-1.982,5.509-6.062,5.509S479.039,72.271,479.039,69.065Zm6.092,2.857a2.677,2.677,0,0,0,3-2.885,2.719,2.719,0,0,0-3.031-2.93c-1.866,0-3.046.948-3.046,2.93S483.266,71.922,485.131,71.922Z" fill="#a2e4fd"/>
        <path d="M492.843,69.065c0-3.264,1.982-5.61,6.048-5.61s6.062,2.346,6.062,5.61c0,3.206-1.982,5.509-6.062,5.509S492.843,72.271,492.843,69.065Zm6.092,2.857a2.677,2.677,0,0,0,3-2.885,2.719,2.719,0,0,0-3.032-2.93c-1.865,0-3.046.948-3.046,2.93S497.069,71.922,498.935,71.922Z" fill="#a2e4fd"/>
        <path d="M507.024,63.718a16.772,16.772,0,0,1,2.973,0l.277,2.448h.248A3.519,3.519,0,0,1,514.15,63.5a3.851,3.851,0,0,1,3.92,2.681h.248A3.774,3.774,0,0,1,522.15,63.5c3.294,0,4.314,2.594,4.314,6.018,0,1.53-.015,3.177-.015,4.722a12.48,12.48,0,0,1-3.453,0V68.861c0-1.952-1.05-2.826-2.419-2.826a2.661,2.661,0,0,0-2.259,1.326,13.973,13.973,0,0,1,.161,2.156c0,1.53-.03,3.177-.03,4.722a12.372,12.372,0,0,1-3.438,0V68.861c0-1.952-1.05-2.826-2.419-2.826a2.805,2.805,0,0,0-2.419,1.5l-.015,6.7a10.376,10.376,0,0,1-3.147,0C506.908,70.45,506.894,67.346,507.024,63.718Z" fill="#a2e4fd"/>
        <path d="M528.742,73.233c0-.962.729-1.37,1.836-1.37s1.865.408,1.865,1.37-.757,1.4-1.865,1.4S528.742,74.209,528.742,73.233Z" fill="#a2e4fd"/>
        <path d="M534.7,73.233c0-.962.729-1.37,1.836-1.37s1.865.408,1.865,1.37-.758,1.4-1.865,1.4S534.7,74.209,534.7,73.233Z" fill="#a2e4fd"/>
        <path d="M540.665,73.233c0-.962.729-1.37,1.836-1.37s1.865.408,1.865,1.37-.758,1.4-1.865,1.4S540.665,74.209,540.665,73.233Z" fill="#a2e4fd"/>
      </g>
      <line x1="695" y1="102" x2="802" y2="248" fill="none" stroke="#a2e4fd" stroke-miterlimit="10" stroke-width="2"/>
      <line x1="687" y1="35" x2="794" y2="181" fill="none" stroke="#a2e4fd" stroke-miterlimit="10" stroke-width="2"/>
    </g>
    <g clip-path="url(#b)">
      <g>
        <polygon points="433.207 533.477 423.223 551.174 431.016 570.613 420.663 587.06 410.525 602.5 413.452 623.656 399.002 636.657 384.792 648.586 384.732 672.394 370.461 684.977 354.988 695.876 336.878 702.304 320.779 711.073 305.732 722.897 286.169 722.622 269.874 734.226 250.252 726.583 232.35 737.959 213.798 733.692 194.666 735.094 180.085 717.149 163.438 711.365 143.658 711.599 129.492 699.608 112.186 692.602 94.829 684.328 88.482 664.625 80.226 648.343 57.36 641.828 48.645 624.953 48.378 604.746 40.238 588.138 37.3 569.942 33.243 551.928 36.044 533.477 28.635 514.604 42.71 498.017 45.557 480.325 43.75 460.412 53.437 444.39 57.927 425.474 69.366 410.394 80.454 395.002 102.226 390.732 108.736 369.787 127.593 364.279 140.689 349.401 158.861 343.78 176.084 335.715 195.145 334.443 214.351 339.302 232.35 328.91 250.975 332.471 267.927 343.205 287.738 338.808 302.944 351.25 319.701 358.043 333.18 370.613 353.397 373.185 366.943 385.836 376.885 401.72 387.92 416.004 394.69 432.974 414.724 442.664 418.356 461.418 428.764 477.594 430.195 496.492 429.82 515.175 433.207 533.477" fill="#a2e4fd"/>
        <polygon points="433.207 533.477 423.223 551.174 431.016 570.613 420.663 587.06 410.525 602.5 413.452 623.656 399.002 636.657 384.792 648.586 384.732 672.394 370.461 684.977 354.988 695.876 336.878 702.304 320.779 711.073 305.732 722.897 286.169 722.622 269.874 734.226 250.252 726.583 232.35 737.959 213.798 733.692 194.666 735.094 180.085 717.149 163.438 711.365 143.658 711.599 129.492 699.608 112.186 692.602 94.829 684.328 88.482 664.625 80.226 648.343 57.36 641.828 48.645 624.953 48.378 604.746 40.238 588.138 37.3 569.942 33.243 551.928 36.044 533.477 28.635 514.604 42.71 498.017 45.557 480.325 43.75 460.412 53.437 444.39 57.927 425.474 69.366 410.394 80.454 395.002 102.226 390.732 108.736 369.787 127.593 364.279 140.689 349.401 158.861 343.78 176.084 335.715 195.145 334.443 214.351 339.302 232.35 328.91 250.975 332.471 267.927 343.205 287.738 338.808 302.944 351.25 319.701 358.043 333.18 370.613 353.397 373.185 366.943 385.836 376.885 401.72 387.92 416.004 394.69 432.974 414.724 442.664 418.356 461.418 428.764 477.594 430.195 496.492 429.82 515.175 433.207 533.477" fill="none" stroke="#fb3600" stroke-miterlimit="10" stroke-width="2"/>
      </g>
    </g>
  </g>
</svg>
