<svg xmlns="http://www.w3.org/2000/svg" xmlns:xlink="http://www.w3.org/1999/xlink" width="1024" height="1024" viewBox="0 0 1024 1024">
  <defs>
    <clipPath id="a">
      <path d="M151.09,679.011c0-115.291,33.862-149.958,166.084-170.114V492.772C184.952,472.617,151.09,437.949,151.09,322.658c0-134.64,92.717-191.076,362-191.076,272.505,0,362.8,58.048,362.8,191.076,0,115.291-33.862,149.959-166.083,170.114V508.9C842.028,529.053,875.89,563.72,875.89,679.011c0,134.64-92.716,191.076-362.8,191.076C241.388,870.087,151.09,812.039,151.09,679.011Zm362-228.163c66.917,0,113.679-11.287,113.679-36.28,0-24.187-46.762-36.28-113.679-36.28-70.142,0-116.1,12.093-116.1,36.28C396.99,439.561,442.945,450.848,513.087,450.848Zm0,172.533c66.917,0,113.679-11.287,113.679-36.28,0-24.187-46.762-36.28-113.679-36.28-70.142,0-116.1,12.093-116.1,36.28C396.99,612.094,442.945,623.381,513.087,623.381Z" fill="none"/>
    </clipPath>
  </defs>
  <title>spec-goiters-voice</title>
  <g style="isolation: isolate">
    <g>
      <g style="mix-blend-mode: multiply">
        <path d="M151.09,679.011c0-115.291,33.862-149.958,166.084-170.114V492.772C184.952,472.617,151.09,437.949,151.09,322.658c0-134.64,92.717-191.076,362-191.076,272.505,0,362.8,58.048,362.8,191.076,0,115.291-33.862,149.959-166.083,170.114V508.9C842.028,529.053,875.89,563.72,875.89,679.011c0,134.64-92.716,191.076-362.8,191.076C241.388,870.087,151.09,812.039,151.09,679.011Zm362-228.163c66.917,0,113.679-11.287,113.679-36.28,0-24.187-46.762-36.28-113.679-36.28-70.142,0-116.1,12.093-116.1,36.28C396.99,439.561,442.945,450.848,513.087,450.848Zm0,172.533c66.917,0,113.679-11.287,113.679-36.28,0-24.187-46.762-36.28-113.679-36.28-70.142,0-116.1,12.093-116.1,36.28C396.99,612.094,442.945,623.381,513.087,623.381Z" fill="#a2e4fd"/>
      </g>
      <g style="mix-blend-mode: multiply">
        <g>
          <path d="M309.141,836.007,310.221,873h1.823l6.277-36.993c8.911-2.026,13.772-2.026,22.682,0L347.281,873H349.1l1.08-36.993a81.466,81.466,0,0,1,31.322,0c-2.16,19.036-4.995,38.14-8.506,57.177a121.815,121.815,0,0,1-38.342,0l-4.185-29.973h-1.62l-4.186,29.973a121.822,121.822,0,0,1-38.343,0c-3.51-19.037-6.345-38.141-8.506-57.177A81.471,81.471,0,0,1,309.141,836.007Z" fill="#fb3600"/>
          <path d="M385.019,836.007a214.9,214.9,0,0,1,58.864,0,95.384,95.384,0,0,1,0,19.643l-32.065-2.227v6.008L432,858.823a33.882,33.882,0,0,1,0,11.679l-20.184-.608v5.873l32.065-2.227a95.393,95.393,0,0,1,0,19.644,217.614,217.614,0,0,1-58.864,0C384.344,874.147,384.344,855.043,385.019,836.007Z" fill="#fb3600"/>
          <path d="M449.555,836.007a95.541,95.541,0,0,1,27.745,0c.675,19.509.675,37.667,0,57.177a95.612,95.612,0,0,1-27.745,0C448.88,873.674,448.88,855.516,449.555,836.007Z" fill="#fb3600"/>
          <path d="M553.782,893.858c-7.9,1.35-19.643,1.553-26.056,0-.406-3.847-.743-7.763-1.148-11.61h-1.822c-.878,6.48-.878,13.568-14.041,13.568-20.049,0-28.893-15.8-28.893-31.254,0-15.392,13.3-31.188,38.141-31.188a100.917,100.917,0,0,1,23.627,2.633,148.511,148.511,0,0,1,0,24.5c-13.906-2.228-32.066-4.59-32.066,4.051,0,3.105,2.295,4.792,6.886,5.6a49.455,49.455,0,0,0,7.088.607l-.607-6.142c5.265-1.013,21.534-.878,27.474,0A211.794,211.794,0,0,1,553.782,893.858Z" fill="#fb3600"/>
          <path d="M620.613,893.184a95.6,95.6,0,0,1-27.744,0V873.81h-6.75v19.374a95.612,95.612,0,0,1-27.745,0c-.675-19.51-.675-38.343,0-57.852a190.324,190.324,0,0,1,27.745,0v24.1h6.75v-24.1a190.31,190.31,0,0,1,27.744,0C621.289,854.841,621.289,873.674,620.613,893.184Z" fill="#fb3600"/>
          <path d="M625.61,836.007c15.189-2.093,39.558-2.093,54.814,0a123.344,123.344,0,0,1,0,22.344l-13.973-.473v35.98a89.178,89.178,0,0,1-26.8,0v-35.98l-14.041.473A123.708,123.708,0,0,1,625.61,836.007Z" fill="#fb3600"/>
          <path d="M686.163,893.184a113.211,113.211,0,0,1,0-23.425c7.9,4.321,19.374,4.793,26.259,4.793,5.806,0,9.586-2.768,8.775-7.156-23.558,2.835-36.925,1.755-36.925-14.243,0-11.273,7.426-19.846,33.213-19.846,12.556,0,28.217,2.565,28.554,2.565a114.364,114.364,0,0,1,0,23.559c-7.83-4.321-19.238-4.793-26.259-4.793-5.671,0-9.518,2.7-8.64,7.155,23.491-2.767,36.992-1.89,36.992,14.244,0,11.274-7.561,19.847-33.347,19.847C702.161,895.884,686.567,893.184,686.163,893.184Z" fill="#fb3600"/>
        </g>
      </g>
      <g clip-path="url(#a)">
        <g>
          <path d="M309.141,836.007,310.221,873h1.823l6.277-36.993c8.911-2.026,13.772-2.026,22.682,0L347.281,873H349.1l1.08-36.993a81.466,81.466,0,0,1,31.322,0c-2.16,19.036-4.995,38.14-8.506,57.177a121.815,121.815,0,0,1-38.342,0l-4.185-29.973h-1.62l-4.186,29.973a121.822,121.822,0,0,1-38.343,0c-3.51-19.037-6.345-38.141-8.506-57.177A81.471,81.471,0,0,1,309.141,836.007Z"/>
          <path d="M385.019,836.007a214.9,214.9,0,0,1,58.864,0,95.384,95.384,0,0,1,0,19.643l-32.065-2.227v6.008L432,858.823a33.882,33.882,0,0,1,0,11.679l-20.184-.608v5.873l32.065-2.227a95.393,95.393,0,0,1,0,19.644,217.614,217.614,0,0,1-58.864,0C384.344,874.147,384.344,855.043,385.019,836.007Z"/>
          <path d="M449.555,836.007a95.541,95.541,0,0,1,27.745,0c.675,19.509.675,37.667,0,57.177a95.612,95.612,0,0,1-27.745,0C448.88,873.674,448.88,855.516,449.555,836.007Z"/>
          <path d="M553.782,893.858c-7.9,1.35-19.643,1.553-26.056,0-.406-3.847-.743-7.763-1.148-11.61h-1.822c-.878,6.48-.878,13.568-14.041,13.568-20.049,0-28.893-15.8-28.893-31.254,0-15.392,13.3-31.188,38.141-31.188a100.917,100.917,0,0,1,23.627,2.633,148.511,148.511,0,0,1,0,24.5c-13.906-2.228-32.066-4.59-32.066,4.051,0,3.105,2.295,4.792,6.886,5.6a49.455,49.455,0,0,0,7.088.607l-.607-6.142c5.265-1.013,21.534-.878,27.474,0A211.794,211.794,0,0,1,553.782,893.858Z"/>
          <path d="M620.613,893.184a95.6,95.6,0,0,1-27.744,0V873.81h-6.75v19.374a95.612,95.612,0,0,1-27.745,0c-.675-19.51-.675-38.343,0-57.852a190.324,190.324,0,0,1,27.745,0v24.1h6.75v-24.1a190.31,190.31,0,0,1,27.744,0C621.289,854.841,621.289,873.674,620.613,893.184Z"/>
          <path d="M625.61,836.007c15.189-2.093,39.558-2.093,54.814,0a123.344,123.344,0,0,1,0,22.344l-13.973-.473v35.98a89.178,89.178,0,0,1-26.8,0v-35.98l-14.041.473A123.708,123.708,0,0,1,625.61,836.007Z"/>
          <path d="M686.163,893.184a113.211,113.211,0,0,1,0-23.425c7.9,4.321,19.374,4.793,26.259,4.793,5.806,0,9.586-2.768,8.775-7.156-23.558,2.835-36.925,1.755-36.925-14.243,0-11.273,7.426-19.846,33.213-19.846,12.556,0,28.217,2.565,28.554,2.565a114.364,114.364,0,0,1,0,23.559c-7.83-4.321-19.238-4.793-26.259-4.793-5.671,0-9.518,2.7-8.64,7.155,23.491-2.767,36.992-1.89,36.992,14.244,0,11.274-7.561,19.847-33.347,19.847C702.161,895.884,686.567,893.184,686.163,893.184Z"/>
        </g>
      </g>
      <g style="mix-blend-mode: multiply">
        <rect x="68.959" y="261.943" width="191.076" height="82.911" fill="#fb3600"/>
        <polygon points="207.403 336.314 214.268 353.476 233.719 359.197 242.872 382.08 280.629 391.233 250.881 370.638 250.881 353.476 224.565 337.458 207.403 336.314" fill="#fb3600"/>
      </g>
      <g style="mix-blend-mode: multiply">
        <rect x="46.076" y="432.423" width="191.076" height="82.911" fill="#fab900"/>
        <polygon points="173.287 502.972 175.602 536.537 192.963 545.796 227.685 548.111 198.75 534.222 198.75 501.815 173.287 502.972" fill="#fab900"/>
      </g>
      <g style="mix-blend-mode: multiply">
        <rect x="80.4" y="612.057" width="191.076" height="82.911" fill="#fb3600"/>
        <polygon points="258.935 660.38 291.343 665.009 301.759 648.806 321.435 641.861 291.343 639.546 282.083 651.12 263.565 634.917 258.935 660.38" fill="#fb3600"/>
      </g>
      <g style="mix-blend-mode: multiply">
        <rect x="271.476" y="101.76" width="191.076" height="105.201" fill="#fab900"/>
        <polygon points="370.046 198.574 367.731 230.981 387.407 244.87 394.352 261.074 401.296 240.241 388.565 225.194 407.083 203.204 370.046 198.574" fill="#fab900"/>
      </g>
      <g style="mix-blend-mode: multiply">
        <rect x="521.732" y="113.201" width="221.456" height="79.855" fill="#fb3600"/>
        <polygon points="615.4 183.894 628.906 208.205 611.348 231.165 609.997 262.23 624.854 233.867 651.867 205.504 650.516 185.244 615.4 183.894" fill="#fb3600"/>
      </g>
      <g style="mix-blend-mode: multiply">
        <rect x="769.188" y="233.339" width="191.076" height="105.201" fill="#fab900"/>
        <polygon points="781.526 291.943 751.813 289.242 722.099 335.163 751.813 310.852 772.072 323.008 781.526 291.943" fill="#fab900"/>
      </g>
      <g style="mix-blend-mode: multiply">
        <rect x="790.927" y="424.825" width="191.076" height="80.762" fill="#fb3600"/>
        <polygon points="800.435 463.472 774.773 451.317 757.215 474.277 736.956 463.472 749.111 490.485 773.422 475.628 795.032 490.485 800.435 463.472" fill="#fb3600"/>
      </g>
      <g>
        <rect x="744.908" y="603.315" width="221.076" height="80.762" fill="#fab900"/>
        <polygon points="832.85 613.391 827.447 580.976 804.487 575.574 793.682 555.314 749.111 553.964 785.578 570.171 788.279 590.431 807.188 595.833 800.435 609.339 832.85 613.391" fill="#fab900"/>
      </g>
      <g>
        <path d="M876.142,684.077H744.908V603.315H867.882C878.79,649.772,876.142,684.077,876.142,684.077Z"/>
        <polygon points="832.85 613.391 827.447 580.976 804.487 575.574 793.682 555.314 749.111 553.964 785.578 570.171 788.279 590.431 807.188 595.833 800.435 609.339 832.85 613.391"/>
      </g>
      <g>
        <path d="M358.421,945.062c0-4.1,2.24-7.314,7.011-7.314a18.181,18.181,0,0,1,5.185.64,18.353,18.353,0,0,1,0,3.265c-4.609-.992-8.547-.864-8.611,3.409.064,4.338,4,4.418,8.611,3.442a18.364,18.364,0,0,1,0,3.266,18.286,18.286,0,0,1-5.185.64C360.678,952.41,358.421,949.208,358.421,945.062Z" fill="#fb3600"/>
        <path d="M376.485,944.743l-.047,7.2a11.222,11.222,0,0,1-3.442,0c-.1-4.081-.1-7.411.016-11.476a8.4,8.4,0,0,1,2.977,0l.353,2.7h.336c.288-1.953,2.241-3.057,4.37-2.7a11.159,11.159,0,0,1,0,2.721A12.862,12.862,0,0,0,376.485,944.743Z" fill="#fb3600"/>
        <path d="M382.484,946.263c0-4.13,2.833-6.051,6.706-6.051,4,0,5.379,1.185,5.379,3.378,0,3.265-4.465,4.37-8.8,3.41-.065,1.888,1.376,2.785,3.281,2.816a15.781,15.781,0,0,0,5.2-.848,13.813,13.813,0,0,1,0,2.817,29.414,29.414,0,0,1-5.442.528C383.812,952.313,382.484,949.144,382.484,946.263Zm3.249-.352c1.889.688,5.939.384,5.939-1.729,0-1.376-.977-1.777-2.449-1.744-1.921.047-3.377.976-3.474,3.089Z" fill="#fb3600"/>
        <path d="M405.336,949.736h-.288a4.244,4.244,0,0,1-4.306,2.594c-2.8,0-4.178-1.185-4.178-3.3,0-3.585,4.626-4.449,8.835-3.5.113-1.889-1.024-2.785-3.2-2.818a15.791,15.791,0,0,0-5.2.865,13.97,13.97,0,0,1,0-2.833,27.456,27.456,0,0,1,5.427-.512c6.066,0,6.482,3.169,6.482,6.05,0,2.113-.064,4.93-.064,5.666a12.4,12.4,0,0,1-3.185.08Zm-3.3.417a3.063,3.063,0,0,0,3.409-3.09V946.6c-1.888-.624-5.681-.5-5.681,1.889C399.766,949.752,400.662,950.153,402.038,950.153Z" fill="#fb3600"/>
        <path d="M412.564,947.512c.017-1.713.017-3.234.017-4.562l-1.7.1a12.145,12.145,0,0,1,0-2.641,21.493,21.493,0,0,1,4.8-2.1l.031,2.273,3.681-.513a14.787,14.787,0,0,1,0,2.93,8.107,8.107,0,0,1-3.633-.112,36.862,36.862,0,0,0,.048,4.562c.241,2.064,1.7,2.049,3.665,1.5a12.983,12.983,0,0,1,0,2.962,14.728,14.728,0,0,1-3.153.336C413.061,952.25,412.549,950.3,412.564,947.512Z" fill="#fb3600"/>
        <path d="M420.564,946.263c0-4.13,2.833-6.051,6.707-6.051,4,0,5.378,1.185,5.378,3.378,0,3.265-4.465,4.37-8.8,3.41-.065,1.888,1.376,2.785,3.281,2.816a15.781,15.781,0,0,0,5.2-.848,13.813,13.813,0,0,1,0,2.817,29.414,29.414,0,0,1-5.442.528C421.893,952.313,420.564,949.144,420.564,946.263Zm3.249-.352c1.889.688,5.939.384,5.939-1.729,0-1.376-.977-1.777-2.449-1.744-1.921.047-3.377.976-3.474,3.089Z" fill="#fb3600"/>
        <path d="M453.033,947.832c0,3.553-1.857,5.65-6.611,5.65a18.1,18.1,0,0,1-5.538-.833,16.947,16.947,0,0,1,0-3.121,9.14,9.14,0,0,0,4.433,1.153c2.434-.032,3.874-.672,3.938-2.561a11.209,11.209,0,0,1-3.665.5c-2.865-.048-4.979-1.457-4.979-4.994,0-.352.017-2.833.065-3.233a22.915,22.915,0,0,1,3.649,0v2.817c.032,2.689,1.169,3.586,2.625,3.681a5.182,5.182,0,0,0,2.305-.4l-.016-6.1a24.354,24.354,0,0,1,3.762,0Z" fill="#fb3600"/>
        <path d="M455.2,946.263c0-3.585,2.177-6.162,6.643-6.162s6.658,2.577,6.658,6.162c0,3.522-2.177,6.05-6.658,6.05S455.2,949.785,455.2,946.263ZM461.9,949.4c1.936,0,3.3-.992,3.3-3.169s-1.36-3.217-3.329-3.217c-2.049,0-3.344,1.04-3.344,3.217S459.846,949.4,461.9,949.4Z" fill="#fb3600"/>
        <path d="M483.256,951.929a10.161,10.161,0,0,1-3.265,0l-.32-2.625H479.4a3.851,3.851,0,0,1-3.985,2.946c-3.617,0-4.738-2.85-4.738-6.611,0-.688.016-1.729.016-5.186a13.582,13.582,0,0,1,3.778,0v5.89c0,2.145,1.152,3.105,2.673,3.105A3.1,3.1,0,0,0,479.8,947.8l.016-7.347a11.278,11.278,0,0,1,3.441,0C483.368,944.519,483.368,948.024,483.256,951.929Z" fill="#fb3600"/>
        <path d="M489.364,944.743l-.048,7.2a11.215,11.215,0,0,1-3.441,0c-.1-4.081-.1-7.411.016-11.476a8.4,8.4,0,0,1,2.977,0l.353,2.7h.336c.288-1.953,2.241-3.057,4.37-2.7a11.159,11.159,0,0,1,0,2.721A12.862,12.862,0,0,0,489.364,944.743Z" fill="#fb3600"/>
        <path d="M513.912,951.929a10.161,10.161,0,0,1-3.265,0l-.32-2.625h-.272a3.851,3.851,0,0,1-3.986,2.946c-3.617,0-4.738-2.85-4.738-6.611,0-.688.017-1.729.017-5.186a13.575,13.575,0,0,1,3.777,0v5.89c0,2.145,1.152,3.105,2.673,3.105a3.1,3.1,0,0,0,2.657-1.648l.017-7.347a11.272,11.272,0,0,1,3.44,0C514.024,944.519,514.024,948.024,513.912,951.929Z" fill="#fb3600"/>
        <path d="M516.547,940.469a10.1,10.1,0,0,1,3.265,0l.3,2.609h.272a3.866,3.866,0,0,1,3.985-2.93c3.618,0,4.754,2.85,4.754,6.611,0,.673-.031,1.713-.031,5.186a13.513,13.513,0,0,1-3.779,0v-5.906c0-2.145-1.152-3.105-2.656-3.105a3.083,3.083,0,0,0-2.657,1.649l-.017,7.362a11.319,11.319,0,0,1-3.457,0C516.436,947.864,516.419,944.375,516.547,940.469Z" fill="#fb3600"/>
        <path d="M531.6,938.548c0-1.025.88-1.441,2.193-1.441s2.225.416,2.225,1.441c0,.976-.9,1.409-2.225,1.409S531.6,939.524,531.6,938.548Zm.352,3.089h3.666c.128,3.154.128,7.155,0,10.308a12.721,12.721,0,0,1-3.666,0C531.827,948.792,531.827,944.791,531.955,941.637Z" fill="#fb3600"/>
        <path d="M547.56,953.434l-.177-3.922h-.272a3.96,3.96,0,0,1-4.049,2.561c-2.978,0-4.819-2.512-4.882-5.666-.065-3.617,1.728-6.066,4.834-6.066a4.707,4.707,0,0,1,4.161,2.9h.272l.368-2.849a13.8,13.8,0,0,1,3.362.08q.168,6.433,0,12.885A15.852,15.852,0,0,1,547.56,953.434Zm.08-8.6a3.413,3.413,0,0,0-2.866-1.648c-1.873,0-3.17,1.04-3.17,3.329,0,1.953,1.3,2.945,3.154,2.945a3.415,3.415,0,0,0,2.882-1.632Z" fill="#fb3600"/>
        <path d="M566.312,951.929a10.161,10.161,0,0,1-3.265,0l-.32-2.625h-.273a3.851,3.851,0,0,1-3.985,2.946c-3.617,0-4.739-2.85-4.739-6.611,0-.688.017-1.729.017-5.186a13.575,13.575,0,0,1,3.777,0v5.89c0,2.145,1.153,3.105,2.673,3.105a3.1,3.1,0,0,0,2.657-1.648l.017-7.347a11.278,11.278,0,0,1,3.441,0C566.424,944.519,566.424,948.024,566.312,951.929Z" fill="#fb3600"/>
        <path d="M568.548,946.263c0-4.13,2.833-6.051,6.706-6.051,4,0,5.379,1.185,5.379,3.378,0,3.265-4.466,4.37-8.8,3.41-.064,1.888,1.376,2.785,3.281,2.816a15.773,15.773,0,0,0,5.2-.848,13.813,13.813,0,0,1,0,2.817,29.414,29.414,0,0,1-5.442.528C569.876,952.313,568.548,949.144,568.548,946.263Zm3.249-.352c1.889.688,5.938.384,5.938-1.729,0-1.376-.976-1.777-2.449-1.744-1.921.047-3.377.976-3.474,3.089Z" fill="#fb3600"/>
        <path d="M587.587,940.613a13.146,13.146,0,0,1,3.634-.16l2.448,8.979h.385l2.48-8.979a13.033,13.033,0,0,1,3.618.16,115.559,115.559,0,0,1-4.066,11.332,15.831,15.831,0,0,1-4.434,0A116.071,116.071,0,0,1,587.587,940.613Z" fill="#fb3600"/>
        <path d="M601.075,946.263c0-3.585,2.177-6.162,6.643-6.162s6.658,2.577,6.658,6.162c0,3.522-2.177,6.05-6.658,6.05S601.075,949.785,601.075,946.263Zm6.691,3.137c1.936,0,3.3-.992,3.3-3.169s-1.36-3.217-3.329-3.217c-2.048,0-3.344,1.04-3.344,3.217S605.717,949.4,607.766,949.4Z" fill="#fb3600"/>
        <path d="M616.546,938.548c0-1.025.881-1.441,2.193-1.441,1.328,0,2.225.416,2.225,1.441,0,.976-.9,1.409-2.225,1.409C617.427,939.957,616.546,939.524,616.546,938.548Zm.352,3.089h3.666c.128,3.154.128,7.155,0,10.308a12.721,12.721,0,0,1-3.666,0C616.771,948.792,616.771,944.791,616.9,941.637Z" fill="#fb3600"/>
        <path d="M623.123,946.215c-.017-3.393,2.017-6.034,6.019-6.034a17.436,17.436,0,0,1,5.057.688,14.446,14.446,0,0,1,0,2.881c-2.657-.608-7.474-1.36-7.539,2.481.065,3.554,2.657,3.778,7.555,2.449a14.777,14.777,0,0,1,0,2.929,16.9,16.9,0,0,1-5.073.7C625.252,952.313,623.139,949.672,623.123,946.215Z" fill="#fb3600"/>
        <path d="M636.45,946.263c0-4.13,2.833-6.051,6.706-6.051,4,0,5.379,1.185,5.379,3.378,0,3.265-4.466,4.37-8.8,3.41-.064,1.888,1.376,2.785,3.282,2.816a15.781,15.781,0,0,0,5.2-.848,13.813,13.813,0,0,1,0,2.817,29.418,29.418,0,0,1-5.443.528C637.778,952.313,636.45,949.144,636.45,946.263Zm3.249-.352c1.889.688,5.939.384,5.939-1.729,0-1.376-.977-1.777-2.45-1.744-1.92.047-3.376.976-3.473,3.089Z" fill="#fb3600"/>
        <path d="M650.85,950.841c0-1.056.8-1.5,2.017-1.5s2.049.449,2.049,1.5c0,1.073-.833,1.536-2.049,1.536S650.85,951.914,650.85,950.841Zm.192-13.029a14.711,14.711,0,0,1,3.762,0l-.256,10.34H651.3Z" fill="#fb3600"/>
        <path d="M657.474,950.841c0-1.056.8-1.5,2.017-1.5s2.049.449,2.049,1.5c0,1.073-.833,1.536-2.049,1.536S657.474,951.914,657.474,950.841Zm.192-13.029a14.711,14.711,0,0,1,3.762,0l-.256,10.34h-3.25Z" fill="#fb3600"/>
        <path d="M664.1,950.841c0-1.056.8-1.5,2.017-1.5s2.049.449,2.049,1.5c0,1.073-.833,1.536-2.049,1.536S664.1,951.914,664.1,950.841Zm.192-13.029a14.711,14.711,0,0,1,3.762,0l-.256,10.34h-3.25Z" fill="#fb3600"/>
      </g>
      <path d="M321.435,641.861l-30.092-2.315-9.26,11.574-10.607-9.281V612.057H157.107s-8.271,35.813-6.094,82.911H271.476v-32.8l19.867,2.838,10.416-16.2Z"/>
      <g>
        <path d="M120.743,654.957c0-6.358,3.735-10.9,11.44-10.9,7.729,0,11.487,4.538,11.487,10.9,0,6.216-3.758,10.683-11.487,10.683C124.478,665.64,120.743,661.173,120.743,654.957Zm11.534,5.767c3.593,0,6.193-1.82,6.193-5.838,0-4-2.6-5.909-6.24-5.909-3.758,0-6.288,1.914-6.288,5.909C125.942,658.9,128.52,660.724,132.277,660.724Z" fill="#fff"/>
        <path d="M166.052,664.955a18.792,18.792,0,0,1-5.39,0c-.023-2.671-.023-5.271-.023-7.871h-8.2c0,2.6-.025,5.2-.048,7.871a18.785,18.785,0,0,1-5.389,0c-.166-6.973-.166-13.426,0-20.374a33.9,33.9,0,0,1,5.389,0c.023,3.19.048,6.287.048,9.383h8.2c0-3.1,0-6.193.023-9.383a33.914,33.914,0,0,1,5.39,0C166.24,651.529,166.24,657.982,166.052,664.955Z" fill="#fff"/>
        <path d="M178.316,644.7a23.389,23.389,0,0,1,5.767,0l8.179,14.228h.519V644.7a19.448,19.448,0,0,1,5.247,0c.166,6.665.166,13.59,0,20.256a23.764,23.764,0,0,1-5.79,0l-8.155-14.276h-.543v14.276a19.361,19.361,0,0,1-5.224,0C178.15,658.289,178.15,651.364,178.316,644.7Z" fill="#fff"/>
        <path d="M201.36,654.957c0-6.358,3.735-10.9,11.44-10.9,7.729,0,11.487,4.538,11.487,10.9,0,6.216-3.758,10.683-11.487,10.683C205.1,665.64,201.36,661.173,201.36,654.957Zm11.535,5.767c3.592,0,6.192-1.82,6.192-5.838,0-4-2.6-5.909-6.239-5.909-3.759,0-6.288,1.914-6.288,5.909C206.56,658.9,209.137,660.724,212.9,660.724Z" fill="#fff"/>
        <path d="M227.5,663.324c0-1.56,1.182-2.222,2.978-2.222s3.025.662,3.025,2.222c0,1.583-1.229,2.269-3.025,2.269S227.5,664.907,227.5,663.324Zm.283-19.24a21.881,21.881,0,0,1,5.555,0l-.378,15.269h-4.8Z" fill="#fff"/>
      </g>
      <path d="M151.57,344.854s-4.808-40.62,7.579-82.911H260.034v82.911H236.716l14.165,8.622v17.162l29.748,20.6-37.757-9.153L233.719,359.2l-19.451-5.721-3.449-8.622Z"/>
      <g>
        <path d="M112.574,293.6l.851,16.312h.851l2.872-16.312a26.309,26.309,0,0,1,10.533,0l2.907,16.312h.851l.851-16.312a47.26,47.26,0,0,1,14.149,0,152.574,152.574,0,0,1-3.581,25.071,77.457,77.457,0,0,1-18.121,0l-1.95-13.085h-.71l-1.95,13.085a77.448,77.448,0,0,1-18.12,0A152.469,152.469,0,0,1,98.425,293.6,47.26,47.26,0,0,1,112.574,293.6Z" fill="#fff"/>
        <path d="M147.316,306.256c0-7.943,5.355-13.652,16.348-13.652,11.064,0,16.419,5.709,16.419,13.652,0,7.8-5.355,13.405-16.419,13.405C152.671,319.661,147.316,314.058,147.316,306.256Zm16.419,2.27c2.127,0,3.617-.745,3.617-2.376s-1.49-2.411-3.653-2.411c-2.233,0-3.652.78-3.652,2.411S161.5,308.526,163.735,308.526Z" fill="#fff"/>
        <path d="M195.111,293.6l.851,16.312h.851l2.873-16.312a26.3,26.3,0,0,1,10.532,0l2.907,16.312h.852l.85-16.312a47.267,47.267,0,0,1,14.15,0,152.681,152.681,0,0,1-3.581,25.071,77.465,77.465,0,0,1-18.122,0l-1.95-13.085h-.71l-1.95,13.085a77.448,77.448,0,0,1-18.12,0,152.469,152.469,0,0,1-3.582-25.071A47.26,47.26,0,0,1,195.111,293.6Z" fill="#fff"/>
      </g>
      <path d="M394.352,261.074l-6.945-16.2-19.676-13.889,1.716-24.021H271.476V159.342s80.627-27.76,191.075-27.76V206.96l-59.19.665-14.8,17.569L401.3,240.241Z"/>
      <g>
        <path d="M299.936,157.034c0-6.951,3.594-12.025,11.02-12.025a29.058,29.058,0,0,1,8.378,1.031,23.766,23.766,0,0,1,0,4.334c-8.14-1.823-14.509-1.321-14.642,6.66.133,8.087,6.476,8.51,14.642,6.686a23.777,23.777,0,0,1,0,4.335,27.885,27.885,0,0,1-8.378,1.057C303.557,169.112,299.936,164.09,299.936,157.034Z" fill="#fff"/>
        <path d="M344.249,168.425a16.291,16.291,0,0,1-4.81,0c-.026-3.092-.052-6.105-.052-9.092H328.6c0,2.987-.027,6-.08,9.092a16.284,16.284,0,0,1-4.809,0c-.186-7.823-.186-14.985,0-22.808a29.249,29.249,0,0,1,4.809,0c.053,3.674.08,7.241.08,10.783h10.783c0-3.542.026-7.109.052-10.783a29.261,29.261,0,0,1,4.81,0C344.435,153.44,344.435,160.6,344.249,168.425Z" fill="#fff"/>
        <path d="M349.157,145.723a107.347,107.347,0,0,1,17.5,0,16.956,16.956,0,0,1,0,3.673l-12.817-.476c.026,2.432.053,4.705.053,7.03l10.545-.132a8.237,8.237,0,0,1,0,2.537l-10.545-.1c0,2.325-.027,4.6-.053,6.977l12.817-.5a17.2,17.2,0,0,1,0,3.7,107.573,107.573,0,0,1-17.5,0C348.972,161.527,348.972,152.33,349.157,145.723Z" fill="#fff"/>
        <path d="M371.536,145.723a107.347,107.347,0,0,1,17.5,0,16.956,16.956,0,0,1,0,3.673l-12.817-.476c.026,2.432.053,4.705.053,7.03l10.545-.132a8.237,8.237,0,0,1,0,2.537l-10.545-.1c0,2.325-.027,4.6-.053,6.977l12.817-.5a17.2,17.2,0,0,1,0,3.7,107.573,107.573,0,0,1-17.5,0C371.351,161.527,371.351,152.33,371.536,145.723Z" fill="#fff"/>
        <path d="M393.781,168.081a20.854,20.854,0,0,1,0-4.44,24.558,24.558,0,0,0,8.854,1.506c4.625-.052,6.845-1.638,6.079-7.267-13.135.634-15.514.528-15.514-5.444,0-4.15,2.353-7.453,10.545-7.453a59.96,59.96,0,0,1,9.092,1,21.1,21.1,0,0,1,0,4.466,23.693,23.693,0,0,0-8.827-1.506c-4.546.053-6.766,1.638-5.92,7.294,12.975-.634,15.539-.608,15.539,5.418,0,4.149-2.537,7.479-10.73,7.479A56.674,56.674,0,0,1,393.781,168.081Z" fill="#fff"/>
        <path d="M417.8,145.723a107.347,107.347,0,0,1,17.5,0,16.956,16.956,0,0,1,0,3.673l-12.817-.476c.026,2.432.052,4.705.052,7.03l10.545-.132a8.176,8.176,0,0,1,0,2.537l-10.545-.1c0,2.325-.026,4.6-.052,6.977l12.817-.5a17.2,17.2,0,0,1,0,3.7,107.573,107.573,0,0,1-17.5,0C417.612,161.527,417.612,152.33,417.8,145.723Z" fill="#fff"/>
      </g>
      <path d="M521.732,131.582v61.474H620.49l8.416,15.149-17.558,22.96L610,262.23l14.857-28.363L651.867,205.5l-.83-12.448h92.151V155.625S652.269,127.8,521.732,131.582Z"/>
      <g>
        <path d="M549.692,163.4a29.627,29.627,0,0,1,0-6.145,17.627,17.627,0,0,0,7.64,1.4c2.325-.142,3.82-.854,3.488-2.729-7.664.688-11.674.57-11.674-4.175,0-3.251,2.231-5.743,9.965-5.743a69.933,69.933,0,0,1,8.614.76,29.858,29.858,0,0,1,0,6.169,16.976,16.976,0,0,0-7.783-1.376c-2.23.142-3.654.854-3.3,2.705,7.616-.689,11.7-.57,11.7,4.175,0,3.251-2.279,5.743-10.013,5.743A68.434,68.434,0,0,1,549.692,163.4Z" fill="#fff"/>
        <path d="M582.035,160.314h-.473c-.191.309-.357,3.868-5.624,3.868-3.773,0-6.027-1.756-6.027-4.983,0-4.959,6.81-6.1,12.315-4.959.308-1.685-1.164-2.587-3.2-2.61a22,22,0,0,0-8.328,1.637,32.357,32.357,0,0,1-.024-6.43,59.6,59.6,0,0,1,8.993-.759c10.061,0,10.748,4.7,10.748,9.23,0,5.172-.118,7.972-.118,8.233a29.578,29.578,0,0,1-7.522.213Zm-2.823-.854a3.044,3.044,0,0,0,3.2-2.515v-.689c-2.017-.64-5.125-.308-5.125,1.59C577.29,159.009,578.121,159.46,579.212,159.46Z" fill="#fff"/>
        <path d="M592.74,146.718a22.663,22.663,0,0,1,7.593,0l.76,4.057h.474c.784-3.8,2.611-4.674,5.386-4.674,6.051,0,6.834,5.007,6.834,10.962,0,1.685-.071,3.963-.071,6.478a30.572,30.572,0,0,1-8.827,0v-8.329c0-2.04-.973-2.681-2.04-2.681a2.649,2.649,0,0,0-2.065.9v10.108a25.416,25.416,0,0,1-8.044,0C592.527,157.917,592.527,152.294,592.74,146.718Z" fill="#fff"/>
        <path d="M629.166,163.754l-.569-3.915h-.451c-1.353,3.8-3.275,4.224-5.577,4.224-4.413,0-6.927-4.39-6.927-9.088,0-4.342,2.206-8.233,6.786-8.233,3.843,0,5.267,2.966,5.812,4.627h.451l.38-9.183a37.006,37.006,0,0,1,8.448.214c.236,6.548.26,14.568.07,21.141A38.018,38.018,0,0,1,629.166,163.754Zm-.071-10.131a3.134,3.134,0,0,0-2.349-.878c-1.78,0-3.014.759-3.014,2.373,0,1.66,1.234,2.42,2.99,2.42a3.251,3.251,0,0,0,2.373-.878Z" fill="#fff"/>
        <path d="M647.322,146.718l1.139,11.555h.546l2.277-11.555a16.418,16.418,0,0,1,6.454,0l2.278,11.555h.57l1.139-11.555a27.847,27.847,0,0,1,8.422.048,117.576,117.576,0,0,1-2.776,16.775,46.458,46.458,0,0,1-10.891,0l-1.708-9.657H654.3l-1.756,9.657a46.457,46.457,0,0,1-10.891,0,114.479,114.479,0,0,1-2.753-16.775A27.86,27.86,0,0,1,647.322,146.718Z" fill="#fff"/>
        <path d="M671.339,144.274c0-2.159,1.945-3.013,4.816-3.013,2.918,0,4.911.854,4.911,3.013,0,2.041-1.993,2.966-4.911,2.966C673.284,147.24,671.339,146.315,671.339,144.274Zm.5,4.959h8.684c.238,4.675.238,9.634,0,14.308a29.6,29.6,0,0,1-8.684,0C671.623,158.867,671.623,153.908,671.837,149.233Z" fill="#fff"/>
        <path d="M682.943,155.022c-.047-4.673,3.2-9.04,9.942-9.04a29.227,29.227,0,0,1,8.233,1.187,33.869,33.869,0,0,1,.025,6.572c-.974-.213-9.943-2.7-9.966,1.3.023,3.18,3.226,3.322,10.012,1.187a35.2,35.2,0,0,1,0,6.715,27.649,27.649,0,0,1-8.328,1.21C686.431,164.158,682.99,159.721,682.943,155.022Z" fill="#fff"/>
        <path d="M703.66,142.4a22.745,22.745,0,0,1,8.5-.214l.4,8.613h.474c.379-3.82,2.515-4.7,5.315-4.7,6.1,0,7,5.007,7,10.962,0,1.685-.166,5.41-.166,6.478a24.523,24.523,0,0,1-8.828.213v-8.542c0-2.04-1-2.681-2.111-2.681a2.7,2.7,0,0,0-2.088.9v10.321a22.724,22.724,0,0,1-8.5-.213C703.447,156.636,703.447,149.233,703.66,142.4Z" fill="#fff"/>
      </g>
      <g>
        <path d="M788.543,650.777c0-2.99,1.258-4.58,4.436-4.959v-.38c-3.178-.427-4.056-2.017-4.056-4.413,0-3.8,2.871-5.766,8.9-5.766,6,0,8.874,1.97,8.874,5.766,0,2.4-.878,3.986-4.057,4.413v.38c3.179.379,4.437,1.969,4.437,4.959,0,3.654-3.251,6-9.254,6C791.794,656.78,788.543,654.407,788.543,650.777Zm9.277,3.345c3.892,0,6.526-1.518,6.526-4.01,0-2.515-1.781-3.677-6.526-3.7-4.864.024-6.572,1.21-6.572,3.7S793.882,654.122,797.82,654.122Zm0-9.087c4.793.024,6.146-1.187,6.146-3.322,0-2.7-2.278-3.8-6.146-3.8-3.488,0-6.192,1.091-6.192,3.8C791.628,643.872,793,645.059,797.82,645.035Z" fill="#fff"/>
        <path d="M810.589,646.126c0-6.335,3.583-10.891,10.938-10.891,7.379,0,10.962,4.556,10.962,10.891,0,6.217-3.583,10.677-10.962,10.677C814.172,656.8,810.589,652.343,810.589,646.126Zm11.057,7.617c4.389,0,7.64-2.4,7.64-7.688,0-5.267-3.251-7.759-7.712-7.759-4.65,0-7.782,2.492-7.782,7.759C813.792,651.346,817.019,653.743,821.646,653.743Z" fill="#fff"/>
        <path d="M836.006,646.126c0-6.335,3.583-10.891,10.938-10.891,7.379,0,10.962,4.556,10.962,10.891,0,6.217-3.583,10.677-10.962,10.677C839.589,656.8,836.006,652.343,836.006,646.126Zm11.056,7.617c4.39,0,7.641-2.4,7.641-7.688,0-5.267-3.251-7.759-7.712-7.759-4.65,0-7.782,2.492-7.782,7.759C839.209,651.346,842.436,653.743,847.062,653.743Z" fill="#fff"/>
        <path d="M861.422,650.777c0-2.99,1.258-4.58,4.436-4.959v-.38c-3.178-.427-4.056-2.017-4.056-4.413,0-3.8,2.871-5.766,8.9-5.766,6,0,8.874,1.97,8.874,5.766,0,2.4-.878,3.986-4.057,4.413v.38c3.179.379,4.437,1.969,4.437,4.959,0,3.654-3.251,6-9.254,6C864.673,656.78,861.422,654.407,861.422,650.777Zm9.277,3.345c3.892,0,6.526-1.518,6.526-4.01,0-2.515-1.781-3.677-6.526-3.7-4.864.024-6.572,1.21-6.572,3.7S866.761,654.122,870.7,654.122Zm0-9.087c4.793.024,6.146-1.187,6.146-3.322,0-2.7-2.279-3.8-6.146-3.8-3.488,0-6.192,1.091-6.192,3.8C864.507,643.872,865.883,645.059,870.7,645.035Z" fill="#fff"/>
        <path d="M884.108,635.781a20.634,20.634,0,0,1,5.671,0c.143,7.735.143,13.975-.023,20.453a9.917,9.917,0,0,1-3.133,0c-.142-6.122-.142-11.721-.023-17.962l-2.492.238A13.24,13.24,0,0,1,884.108,635.781Z" fill="#fff"/>
        <path d="M894.646,652.912a29.012,29.012,0,0,0,7.853,1.068c3.868.071,6.288-1.8,6.288-4.366,0-1.59-1-3.132-3.678-3.132l-7.118.047v-1.684l7.118.1c2.681.023,3.3-1.566,3.3-3.346,0-2.372-2.136-3.844-5.908-3.773a34.64,34.64,0,0,0-7.853.878,19.414,19.414,0,0,1,0-2.894,47.472,47.472,0,0,1,8.684-.665c5.22,0,7.9,1.709,7.9,5.837,0,2.326-.831,4.176-3.393,4.6v.379c2.562.38,3.749,1.708,3.749,4.318,0,4.295-3.037,6.407-8.257,6.407a43.217,43.217,0,0,1-8.684-.712A21.716,21.716,0,0,1,894.646,652.912Z" fill="#fff"/>
        <path d="M932.707,635.733a15.231,15.231,0,0,1,0,2.943l-13.69-.522-.024,7.308c12.528-.641,14.165-.617,14.165,4.674,0,4.247-2.088,6.6-8.779,6.6a54.577,54.577,0,0,1-8.637-.9,15.72,15.72,0,0,1,0-2.99A26.921,26.921,0,0,0,923.667,654c4.746-.023,6.976-1.565,6.074-7.4-7.687.332-10.914.5-13.833.166-.142-3.678-.118-7.332-.048-11.01C920.037,635.473,928.531,635.473,932.707,635.733Z" fill="#fff"/>
      </g>
      <path d="M855.693,233.339c17.444,31.736,22.477,72.49,19.96,105.2H769.188V321.277l-17.375-10.425L722.1,335.163l29.714-45.921,17.375,1.58V233.339Z"/>
      <g>
        <path d="M815.862,255.161a10.579,10.579,0,0,1,2.92-.512l7.948,23.964h1.686l8.008-23.964a11.832,11.832,0,0,1,2.921.512c-2.921,8.7-5.871,17.31-8.972,25.89a42.763,42.763,0,0,1-5.569,0Q820.2,268.181,815.862,255.161Z" fill="#fff"/>
        <path d="M844.373,255.01c4.124-.271,13.336-.271,17.431,0a10.4,10.4,0,0,1,0,2.379l-14.752-.362c.06,3.522.091,6.8.091,10.116l13.215-.091a7.265,7.265,0,0,1,0,1.987l-13.215-.09c0,3.372-.031,6.654-.091,10.085l14.752-.391a10.653,10.653,0,0,1,0,2.408c-4.215.271-13.216.271-17.431,0C844.222,273.435,844.192,262.175,844.373,255.01Z" fill="#fff"/>
        <path d="M868.579,255.763a47.511,47.511,0,0,1,11.049-1.415c7.376,0,10.748,3.131,10.748,7.918,0,3.582-1.445,7.1-6.353,7.616v.452c1.747,1.385,4.727,6.683,6.353,10.386a5.465,5.465,0,0,1-2.77.482l-5.569-10.3H871.229l.121,10.145a10.622,10.622,0,0,1-2.771,0C868.369,273.224,868.369,263.319,868.579,255.763Zm10.989,13.126c6.654.06,7.978-3.312,7.978-6.323,0-3.04-2.017-5.93-8.068-5.93a48.993,48.993,0,0,0-8.128.873l-.121,11.32Z" fill="#fff"/>
        <path d="M908.982,273.766l-1.715.09c.03,2.258,0,4.426-.031,7.195a13.033,13.033,0,0,1-3.071,0c-.09-2.769-.09-4.937-.029-7.195-.723,0-1.325-.06-1.777-.09-2.89-6.141-5.178-12.344-7.887-18.605a8.767,8.767,0,0,1,2.92-.512l7.406,17.22h1.746l7.435-17.22a9.606,9.606,0,0,1,2.921.512C914.16,261.422,911.9,267.625,908.982,273.766Z" fill="#fff"/>
        <path d="M831.728,317.21a8.651,8.651,0,0,1-2.65,0c-.06-1.444-.12-2.89-.15-4.335h-.482c-1.234,2.891-3.071,4.907-8.52,4.907-7.677,0-11.862-5.178-11.862-13.667,0-8.34,4.366-13.638,12.374-13.638a34.646,34.646,0,0,1,10.025,1.2,11.748,11.748,0,0,1,0,2.529c-11.681-2.5-19.207-1.295-19.418,9.905.15,8.248,3.974,10.867,9.483,10.9,4.215.03,6.563-1.566,8.369-4.456-.03-1.987,0-3.974.031-5.961a20.406,20.406,0,0,1,2.709,0C831.848,308.811,831.878,313,831.728,317.21Z" fill="#fff"/>
        <path d="M836.756,304.265c0-8.008,4.426-13.758,13.548-13.758s13.547,5.75,13.547,13.758c0,7.888-4.426,13.547-13.547,13.547S836.756,312.153,836.756,304.265Zm13.668,10.868c6.111,0,10.627-3.4,10.627-10.928,0-7.466-4.516-11.049-10.718-11.049-6.442,0-10.808,3.583-10.808,11.049C839.525,311.731,844.011,315.133,850.424,315.133Z" fill="#fff"/>
        <path d="M868.76,304.265c0-8.008,4.426-13.758,13.548-13.758s13.546,5.75,13.546,13.758c0,7.888-4.425,13.547-13.546,13.547S868.76,312.153,868.76,304.265Zm13.668,10.868c6.111,0,10.627-3.4,10.627-10.928,0-7.466-4.516-11.049-10.718-11.049-6.442,0-10.808,3.583-10.808,11.049C871.529,311.731,876.015,315.133,882.428,315.133Z" fill="#fff"/>
        <path d="M901.757,291.651c1.385-.542,6.172-1.114,9.514-1.114,9.061,0,13.426,5.78,13.426,13.668,0,7.767-4.274,13.577-13.637,13.577-2.589,0-7.918-.331-9.3-1.445C901.517,308.148,901.517,299.568,901.757,291.651Zm9.724,23.452c7.316,0,10.477-4.967,10.477-10.958,0-6.052-3.252-10.929-10.507-10.929a37.61,37.61,0,0,0-7.135.843c-.151,6.714-.151,13.487,0,20.2A37.655,37.655,0,0,0,911.481,315.1Z" fill="#fff"/>
      </g>
      <g>
        <path d="M855.79,461.844c3.1,0,7,.09,10.636.224,1.345-12.251-1.885-16.424-9.021-16.514a24.593,24.593,0,0,0-9.873,2.2,13.906,13.906,0,0,1,0-2.737c.36,0,5.61-1.706,9.783-1.706,8.751,0,11.444,5.565,11.309,12.341-.135,6.552-.763,9.558-11.353,8.392l1.346,12.161h-.852C856.418,476.2,855.476,475.486,855.79,461.844Zm-.225,20.419c0-1.257.853-1.751,2.155-1.751,1.345,0,2.2.494,2.2,1.751,0,1.211-.853,1.75-2.2,1.75C856.418,484.013,855.565,483.474,855.565,482.263Z" fill="#fff"/>
        <path d="M887.691,461.844c3.1,0,7,.09,10.636.224,1.346-12.251-1.885-16.424-9.02-16.514a24.589,24.589,0,0,0-9.873,2.2,13.906,13.906,0,0,1,0-2.737c.359,0,5.609-1.706,9.783-1.706,8.751,0,11.443,5.565,11.308,12.341-.134,6.552-.762,9.558-11.353,8.392l1.347,12.161h-.853C888.319,476.2,887.377,475.486,887.691,461.844Zm-.224,20.419c0-1.257.852-1.751,2.154-1.751,1.346,0,2.2.494,2.2,1.751,0,1.211-.852,1.75-2.2,1.75C888.319,484.013,887.467,483.474,887.467,482.263Z" fill="#fff"/>
        <path d="M919.594,461.844c3.095,0,7,.09,10.635.224,1.346-12.251-1.884-16.424-9.02-16.514a24.593,24.593,0,0,0-9.873,2.2,13.906,13.906,0,0,1,0-2.737c.359,0,5.609-1.706,9.783-1.706,8.751,0,11.443,5.565,11.309,12.341-.135,6.552-.763,9.558-11.354,8.392l1.347,12.161h-.853C920.222,476.2,919.279,475.486,919.594,461.844Zm-.225,20.419c0-1.257.853-1.751,2.154-1.751,1.346,0,2.2.494,2.2,1.751,0,1.211-.853,1.75-2.2,1.75C920.222,484.013,919.369,483.474,919.369,482.263Z" fill="#fff"/>
      </g>
      <g>
        <path d="M98.218,488.612a23.867,23.867,0,0,1-8.067,0c-.133-1.478-.242-2.93-.349-4.409H89.13c-.565,2.581-1.022,5.109-6.157,5.109-7.662,0-11.265-5.808-11.265-12.368,0-6.506,4.92-12.368,14.008-12.368a38.248,38.248,0,0,1,9.3,1.049,45.269,45.269,0,0,1,0,7.635c-6.937-1.29-14.035-1.64-14.088,3.684.027,2.984,1.667,4.113,4.382,4.355a7.112,7.112,0,0,0,4.194-.914c-.08-1.1-.134-2.2-.215-3.307a43.023,43.023,0,0,1,8.523,0A92.076,92.076,0,0,1,98.218,488.612Z" fill="#fff"/>
        <path d="M101.038,465.49a90.347,90.347,0,0,1,21.213,0,29.985,29.985,0,0,1,0,6.211l-12.9-.726c.027,1.479.027,2.85.027,4.275l9.114-.188a11.375,11.375,0,0,1,0,3.817l-9.114-.188c0,1.425,0,2.824-.027,4.248l12.905-.726a29.725,29.725,0,0,1,0,6.184,88.864,88.864,0,0,1-21.213,0C100.823,481.057,100.823,472.75,101.038,465.49Z" fill="#fff"/>
        <path d="M125.583,465.625a61.289,61.289,0,0,1,11.562-1.049c9.947,0,12.824,3.737,12.824,7.824,0,3.092-1.532,6.238-6.076,6.506v.511c5.162,1.1,5.672,7.958,6.076,8.9a21.269,21.269,0,0,1-9.195.135l-2.581-6.883h-4.114l.027,6.829a29.224,29.224,0,0,1-8.523,0C125.342,481.138,125.342,471.405,125.583,465.625Zm11.48,11.534c2.985.027,4.249-1.4,4.249-3.307s-1.452-3.227-4.275-3.227a16.414,16.414,0,0,0-2.931.3l-.027,6.238Z" fill="#fff"/>
        <path d="M152.79,465.49a95.294,95.294,0,0,1,13.067-.914c7.044,0,10.566,4.409,10.566,9.383,0,4.6-3.172,9.572-10.593,9.572-1.344,0-2.85-.081-4.759-.242,0,1.721.028,3.415.028,5.108a26.921,26.921,0,0,1-8.309,0C152.549,480.9,152.549,472.992,152.79,465.49Zm11.266,12.422c2.984-.054,4.22-1.748,4.22-3.738,0-2.177-1.424-3.549-4.247-3.549a16.393,16.393,0,0,0-2.93.3c0,2.259-.028,4.517-.028,6.776C161.582,477.75,163.061,477.912,164.056,477.912Z" fill="#fff"/>
        <path d="M178.653,485.9c0-2.313,1.8-3.253,4.436-3.253,2.662,0,4.517.94,4.517,3.253,0,2.339-1.855,3.307-4.517,3.307C180.454,489.2,178.653,488.236,178.653,485.9Zm.161-21.455a43.9,43.9,0,0,1,8.819,0l-.618,16.373h-7.582Z" fill="#fff"/>
        <path d="M190.805,485.9c0-2.313,1.8-3.253,4.435-3.253,2.662,0,4.518.94,4.518,3.253,0,2.339-1.856,3.307-4.518,3.307C192.605,489.2,190.805,488.236,190.805,485.9Zm.161-21.455a43.891,43.891,0,0,1,8.818,0l-.618,16.373h-7.582Z" fill="#fff"/>
        <path d="M202.957,485.9c0-2.313,1.8-3.253,4.436-3.253,2.662,0,4.517.94,4.517,3.253,0,2.339-1.855,3.307-4.517,3.307C204.758,489.2,202.957,488.236,202.957,485.9Zm.161-21.455a43.9,43.9,0,0,1,8.819,0l-.619,16.373h-7.582Z" fill="#fff"/>
      </g>
      <path d="M736.956,463.472,747.138,486.1l14.032-2.985,12.252-7.487,4.282,2.943s61.825-15.2,78.242-53.746H790.927l.054,34.169-16.208-7.677-17.558,22.96Z"/>
      <path d="M209.568,539.415a95.485,95.485,0,0,0-10.755,6.771l28.872,1.925Z"/>
      <path d="M237.151,474.512c-38.846-13-53.255-31.731-61.783-42.089h61.783Z"/>
      <path d="M689.289,404.725c2.688-10.923,3.657-23.071,3.658-35.017,0-32.6-7.241-63.733-7.252-63.8a1.5,1.5,0,0,0-1.122-1.122c-.061-.011-31.2-7.249-63.8-7.253-11.947,0-24.094.972-35.016,3.659s-20.64,7.095-27.631,14.079a83.3,83.3,0,0,0-8.609,10.114,189.765,189.765,0,0,0-75.078,0,83.351,83.351,0,0,0-8.607-10.112c-6.992-6.984-16.716-11.39-27.632-14.079s-23.069-3.658-35.016-3.659c-32.6,0-63.734,7.242-63.8,7.253a1.5,1.5,0,0,0-1.122,1.122c-.011.062-7.25,31.2-7.253,63.8,0,11.947.971,24.095,3.658,35.017,2.021,8.2,5.012,15.732,9.339,21.936a201.356,201.356,0,0,0-21.929,91.057c0,45.083,15.472,91.723,50.444,132.381a1.5,1.5,0,0,0,2.276-1.956h0c-34.51-40.131-49.715-86.025-49.719-130.425a198.292,198.292,0,0,1,20.948-88.388,40.365,40.365,0,0,0,2.722,3.025,1.5,1.5,0,0,0,2.121,0,1.627,1.627,0,0,0,0-2.121c-6.44-6.433-10.685-15.638-13.288-26.227s-3.572-22.516-3.571-34.3a297.266,297.266,0,0,1,3.589-43.646c.9-5.882,1.8-10.757,2.469-14.158.337-1.7.617-3.032.813-3.937.031-.145.056-.259.083-.382,2.2,16.542,6.257,28.632,11.163,37.913,7.56,14.31,17.118,21.914,24.508,28.962,3.7,3.526,6.852,6.9,9.068,10.888a29.293,29.293,0,0,1,3.553,14.8,1.5,1.5,0,0,0,3,0,34.648,34.648,0,0,0-1.817-11.558c-2.046-5.862-5.658-10.289-9.884-14.5-6.354-6.324-14.119-12.273-21.019-22.181-6.785-9.746-12.787-23.367-15.636-45.017,9.248-1.884,33.9-6.358,59.28-6.355,11.783,0,23.716.965,34.3,3.572s19.8,6.847,26.229,13.287a79.418,79.418,0,0,1,20.919,36.744,1.538,1.538,0,0,0,.155.37,1.5,1.5,0,0,0,2.753-1.107,82.284,82.284,0,0,0-11.233-25.334,187.118,187.118,0,0,1,71.347,0A82.268,82.268,0,0,0,536.425,353.4a1.5,1.5,0,0,0,2.753,1.107,1.538,1.538,0,0,0,.155-.37A79.407,79.407,0,0,1,560.251,317.4c6.433-6.44,15.638-10.684,26.227-13.287s22.517-3.573,34.3-3.572a297.131,297.131,0,0,1,43.647,3.59c5.883.9,10.758,1.8,14.158,2.469.534.105,1.019.2,1.479.3-2.158,16.411-6.134,28.217-10.883,37.2-7.281,13.766-16.373,21-23.924,28.193-3.769,3.594-7.161,7.186-9.62,11.6a32.327,32.327,0,0,0-3.931,16.26,1.5,1.5,0,0,0,3,0,31.622,31.622,0,0,1,1.649-10.569c1.834-5.252,5.07-9.277,9.169-13.365,6.131-6.124,14.174-12.278,21.362-22.59,7.046-10.105,13.2-24.2,16.109-46.053,1.2,5.461,6.959,33.326,6.955,62.136,0,11.782-.965,23.716-3.571,34.3s-6.847,19.8-13.287,26.228a1.444,1.444,0,0,0-.221.332,1.478,1.478,0,0,0,.221,1.789,1.5,1.5,0,0,0,2.121,0,40.389,40.389,0,0,0,2.735-3.043A198.165,198.165,0,0,1,698.913,517.7c0,44.387-15.213,90.278-49.751,130.442a1.5,1.5,0,0,0,2.276,1.956c35-40.689,50.479-87.328,50.475-132.4a201.216,201.216,0,0,0-21.948-91.058C684.283,420.444,687.27,412.92,689.289,404.725Z"/>
      <path d="M560.264,642.569a1.5,1.5,0,1,0-2.121-2.121,65.28,65.28,0,0,1-92.32,0,1.5,1.5,0,1,0-2.121,2.121,68.279,68.279,0,0,0,96.562,0Z"/>
      <path d="M546.15,594.581V583.75a36.713,36.713,0,0,0,22.127-17.439,1.5,1.5,0,1,0-2.617-1.465c-.139.249-.3.487-.442.732a33.556,33.556,0,0,1-52.2,7.117,1.5,1.5,0,0,0-2.078,0,33.556,33.556,0,0,1-52.2-7.117c-.145-.245-.3-.483-.442-.732a1.5,1.5,0,0,0-2.618,1.465h0a36.723,36.723,0,0,0,22.128,17.439v10.831a34.133,34.133,0,0,0,15.277,28.468q9.627.332,19.994.332,9.114,0,17.708-.282A34.13,34.13,0,0,0,546.15,594.581ZM492.968,606.6a2.927,2.927,0,1,1,2.927-2.927A2.927,2.927,0,0,1,492.968,606.6Zm0-9.508a2.926,2.926,0,1,1,2.927-2.926A2.926,2.926,0,0,1,492.968,597.093Zm9.508,19.015a2.926,2.926,0,1,1,2.925-2.926A2.927,2.927,0,0,1,502.476,616.108Zm0-9.507a2.927,2.927,0,1,1,2.925-2.927A2.927,2.927,0,0,1,502.476,606.6Zm0-9.508a2.926,2.926,0,1,1,2.925-2.926A2.925,2.925,0,0,1,502.476,597.093Zm9.507,19.015a2.926,2.926,0,1,1,2.926-2.926A2.927,2.927,0,0,1,511.983,616.108Zm0-9.507a2.927,2.927,0,1,1,2.926-2.927A2.927,2.927,0,0,1,511.983,606.6Zm0-9.508a2.926,2.926,0,1,1,2.926-2.926A2.926,2.926,0,0,1,511.983,597.093Zm0-9.508a2.926,2.926,0,1,1,2.926-2.925A2.925,2.925,0,0,1,511.983,587.585Zm9.507,28.523a2.926,2.926,0,1,1,2.927-2.926A2.927,2.927,0,0,1,521.49,616.108Zm0-9.507a2.927,2.927,0,1,1,2.927-2.927A2.927,2.927,0,0,1,521.49,606.6Zm0-9.508a2.926,2.926,0,1,1,2.927-2.926A2.926,2.926,0,0,1,521.49,597.093ZM531,606.6a2.927,2.927,0,1,1,2.926-2.927A2.927,2.927,0,0,1,531,606.6Zm0-9.508a2.926,2.926,0,1,1,2.926-2.926A2.926,2.926,0,0,1,531,597.093Z" fill="#fb3600"/>
      <path d="M493.093,623.049a34.152,34.152,0,0,0,37.7.05q-8.586.282-17.708.282Q502.727,623.381,493.093,623.049Z"/>
      <path d="M613.238,690.718a1.5,1.5,0,0,0-2.041.577,62.628,62.628,0,0,1-98.175,14.639,1.5,1.5,0,0,0-2.079,0A62.626,62.626,0,0,1,412.77,691.3a1.5,1.5,0,1,0-2.618,1.465h0a65.6,65.6,0,0,0,101.832,16.291A65.6,65.6,0,0,0,613.814,692.76,1.5,1.5,0,0,0,613.238,690.718Z"/>
      <path d="M511.983,424.319a57.039,57.039,0,0,0-46.778,24.359q1.7.176,3.446.335a54.138,54.138,0,0,1,86.7.048c1.157-.108,2.306-.22,3.44-.338A57.035,57.035,0,0,0,511.983,424.319Z" fill="#fb3600"/>
      <path d="M566.1,481.438a54.119,54.119,0,1,1-97.451-32.425q-1.74-.162-3.446-.335a57.119,57.119,0,1,0,93.587.045c-1.134.118-2.283.23-3.44.338A53.863,53.863,0,0,1,566.1,481.438Z"/>
      <path d="M511.983,501.4a19.954,19.954,0,0,0,19.943-19.513c-.153,0-.3.023-.452.023a19.965,19.965,0,0,1-19.966-19.966c0-.153.019-.3.023-.452a19.956,19.956,0,0,0,.452,39.908Z"/>
      <path d="M431.244,584.191a1.5,1.5,0,0,0,1.5-1.5V558.764c-1.021.271-2.018.55-3,.834v23.093A1.5,1.5,0,0,0,431.244,584.191Z" fill="#fb3600"/>
      <path d="M432.744,540.542a1.5,1.5,0,0,0-.619-1.215l-36.277-26.3a1.5,1.5,0,1,0-1.76,2.429l35.656,25.853V559.6c.982-.284,1.979-.563,3-.834Z"/>
      <path d="M591.222,582.691a1.5,1.5,0,0,0,3,0V559.657c-.983-.289-1.979-.573-3-.848Z" fill="#fb3600"/>
      <path d="M628.119,513.025l-36.278,26.3a1.5,1.5,0,0,0-.619,1.215v18.267c1.021.275,2.017.559,3,.848v-18.35l35.657-25.853a1.5,1.5,0,0,0-1.76-2.429Z"/>
    </g>
  </g>
</svg>
