<svg xmlns="http://www.w3.org/2000/svg" xmlns:xlink="http://www.w3.org/1999/xlink" width="1024" height="1024" viewBox="0 0 1024 1024">
  <defs>
    <clipPath id="a">
      <path d="M590.067,418.521v56.708l154.023-38.5a904.412,904.412,0,0,1,0,194.629s-70.711,37.105-152.623-7.7h-2.1c0,60.208-1.4,121.118-2.1,181.327a1678.929,1678.929,0,0,1-265.339,0c-.7-58.109-.7-115.518-.7-173.626l-55.309,7a779.327,779.327,0,0,1,0-180.627l56.009,2.8v-9.1c1.4-123.918,0-287.042,276.541-282.842,96.614,1.4,178.526,14.7,182.026,14.7a1190.029,1190.029,0,0,1,0,223.334C775.6,406.62,589.367,331.708,590.067,418.521Z" fill="none"/>
    </clipPath>
  </defs>
  <title>spec-goiters-S</title>
  <g>
    <circle cx="512" cy="507" r="198.442" fill="#a2e4fd"/>
    <path d="M590.067,418.521v56.708l154.023-38.5a904.412,904.412,0,0,1,0,194.629s-70.711,37.105-152.623-7.7h-2.1c0,60.208-1.4,121.118-2.1,181.327a1678.929,1678.929,0,0,1-265.339,0c-.7-58.109-.7-115.518-.7-173.626l-55.309,7a779.327,779.327,0,0,1,0-180.627l56.009,2.8v-9.1c1.4-123.918,0-287.042,276.541-282.842,96.614,1.4,178.526,14.7,182.026,14.7a1190.029,1190.029,0,0,1,0,223.334C775.6,406.62,589.367,331.708,590.067,418.521Z" fill="#fb3600"/>
    <g clip-path="url(#a)">
      <circle cx="512" cy="507" r="198.442"/>
    </g>
    <g>
      <path d="M471.088,520.044c-5.4.74-8.167-.839-8.488-4.515h-.542c-.346.765-1.629,2.862-5.083,2.862-6.786,0-9.9-4.737-9.9-11.35s4.023-11.127,11.942-11.127c7.945,0,11.992,4.12,11.992,10.214,0,3.6-.839,7.156-6,8.365.517,2.418,3.947,1.9,6.069,1.184A25.887,25.887,0,0,1,471.088,520.044Zm-5.626-12.879c0-4.17-2.591-6.169-6.39-6.169-3.924,0-6.44,2-6.44,6.169,0,4.194,2.566,6.094,6.489,6.094C462.5,513.259,465.462,511.359,465.462,507.165Z" fill="#fab900"/>
      <path d="M496,517.552a15.869,15.869,0,0,1-5.725,0l-.616-4.12h-.42c-1.085,3.281-3.4,4.885-6.908,4.885-5.749,0-7.821-4.935-7.821-11.325,0-1.234.049-4.811.049-10.462a21.193,21.193,0,0,1,6.119,0v11.745c0,3.479,1.973,4.984,4.59,4.984a5.467,5.467,0,0,0,4.588-2.566l.025-14.163a21.193,21.193,0,0,1,6.119,0C496.173,503.39,496.2,510.939,496,517.552Z" fill="#fab900"/>
      <path d="M500.089,496.53a19.568,19.568,0,0,1,5.626,0c.2,7.254.2,13.867,0,21.145a19.5,19.5,0,0,1-5.626,0C499.916,510.4,499.916,503.784,500.089,496.53Z" fill="#fab900"/>
      <path d="M509.832,496.851a45.665,45.665,0,0,1,9.969-1.061c7.895,0,10.609,3.085,10.609,6.909,0,2.886-1.332,5.773-5.453,6.094v.419c3.43,1.061,4.688,6.563,5.453,8.315a13.729,13.729,0,0,1-6,.223l-3.232-7.181h-5.823l.049,7.106a19.317,19.317,0,0,1-5.6,0C509.635,511.088,509.635,502.5,509.832,496.851Zm9.919,10.634c3.824.025,4.935-1.85,4.935-3.9s-1.456-3.7-4.984-3.7a25.182,25.182,0,0,0-4.268.444l-.05,7.13Z" fill="#fab900"/>
      <path d="M548.661,507.239a62.716,62.716,0,0,1,4.713,10.387,18.284,18.284,0,0,1-6.267.247l-3.256-8.883h-4.269c0,2.887,0,5.8-.025,8.809a20.083,20.083,0,0,1-5.7,0c-.172-7.353-.172-14.064,0-21.392a20.083,20.083,0,0,1,5.7,0c.025,3.183.025,6.292.025,9.376l4.269-.025,3.281-9.4a20.716,20.716,0,0,1,6.316.2A66.146,66.146,0,0,1,548.661,507.239Z" fill="#fab900"/>
      <path d="M572.563,511.581c-.691.1-1.653.173-2.739.222a58.589,58.589,0,0,1-.049,5.872,27.9,27.9,0,0,1-6.736,0,51.985,51.985,0,0,1-.024-5.872c-1.086-.049-2.048-.123-2.74-.222-1.875-4.861-3.355-9.869-4.934-15a17.7,17.7,0,0,1,6.44-.223l3.972,12.535h1.283l4.023-12.535a17.189,17.189,0,0,1,6.439.247C575.919,501.736,574.438,506.72,572.563,511.581Z" fill="#fab900"/>
    </g>
  </g>
</svg>
