<svg xmlns="http://www.w3.org/2000/svg" xmlns:xlink="http://www.w3.org/1999/xlink" width="1024" height="1024" viewBox="0 0 1024 1024">
  <defs>
    <clipPath id="a">
      <circle cx="732.054" cy="642.517" r="185.255" fill="none"/>
    </clipPath>
  </defs>
  <title>spec-goiters-arms</title>
  <g style="isolation: isolate">
    <g>
      <g>
        <g>
          <path d="M755.914,115.836c-3.089.814-5.457,2.046-6.852,3.647,1.92,2.256,5.571,2.578,10.151,1.371a13.212,13.212,0,0,0,6.653-3.565C763.942,115.049,760.284,114.685,755.914,115.836Z" fill="none"/>
          <polygon points="307.401 229.633 309.515 241.008 313.784 239.883 309.976 228.955 307.401 229.633" fill="none"/>
          <path d="M387.8,215.135c-.046-.112-.081-.223-.134-.335-4.189,1.66-8.065,3.095-11.632,4.235.046.108.08.214.133.322C380.356,217.71,384.233,216.278,387.8,215.135Z" fill="none"/>
          <polygon points="527.239 171.704 529.353 183.079 533.621 181.954 529.813 171.026 527.239 171.704" fill="none"/>
          <polygon points="259.326 244.386 248.304 246.861 248.638 248.125 259.326 244.386" fill="none"/>
          <path d="M248.3,246.861l11.022-2.475,10.992-3.845c.173.419.335.843.5,1.265L276,240.643q-.593-3.631-1.416-7.182l-28.143,6.319Z" fill="#a2e4fd"/>
          <path d="M253.979,268.4l20.293-5.347a57.771,57.771,0,0,0-1.351-7.144l-20.79,5.478Z" fill="#a2e4fd"/>
          <path d="M216.081,233.864c-.53.2-1.067.4-1.591.6,4.328,19.155,9.347,38.2,15.021,57a91.935,91.935,0,0,0,26.717-7.04l-1.775-6.732a92.991,92.991,0,0,1-24.942,6.272Q222.022,259.154,216.081,233.864Z" fill="#a2e4fd"/>
          <path d="M281.256,269.35q-.022,4.231,0,8.484a121.031,121.031,0,0,0,32.168-8.477l-1.3-6.954a121.913,121.913,0,0,1-30.868,7.931C281.255,270.005,281.258,269.679,281.256,269.35Z" fill="#a2e4fd"/>
          <path d="M319.946,250.279l-8.277,2.181,1.336,7.148,6.941-1.829,3.17,9.024a121.029,121.029,0,0,0,32.168-8.476q-1.712-3.066-3.444-6.1a122.4,122.4,0,0,1-28.724,7.075Z" fill="#a2e4fd"/>
          <polygon points="309.976 221.455 306.072 222.483 307.401 229.633 309.976 228.955 313.784 239.883 316.178 239.252 309.976 221.455" fill="#a2e4fd"/>
          <path d="M380.8,224.239c5.631-1.484,8.648-5.078,7-9.1-3.571,1.143-7.448,2.575-11.633,4.222-.053-.108-.087-.214-.133-.322-15.8,5.051-25.494,4.278-28.923-8.734-.133-.507-.244-1.012-.344-1.516a18.749,18.749,0,0,0,.344,9.016c1.28,4.856,3.437,8,6.454,9.781-.068-.408-.142-.814-.206-1.223C362.371,228.591,373.937,226.048,380.8,224.239Z" fill="#a2e4fd"/>
          <path d="M382.9,202.453c-5.652,1.49-8.779,5.193-6.733,9.4,15.631-6.152,26.989-9.332,33.93-5.46q-.537-3.2-1.257-6.387C400.149,198.364,389.519,200.71,382.9,202.453Z" fill="#a2e4fd"/>
          <path d="M388.76,244.885c-12.585,3.316-28.84,4.72-29.243,4.827a117.015,117.015,0,0,1-4.658-15.536c-.5-.094-1-.195-1.5-.317a116.637,116.637,0,0,0,6.154,23.353c.4-.107,16.658-1.511,29.243-4.827,24.59-6.48,30.489-16.4,28.364-27.086C415.354,233.034,407.468,239.955,388.76,244.885Z" fill="#a2e4fd"/>
          <path d="M429.848,193.538l-13.874,4.16a127.5,127.5,0,0,1-4.493-15.339q-.7.282-1.377.563a127.448,127.448,0,0,0,5.87,22.276l13.874-4.16,9.451,35.87a91.925,91.925,0,0,0,26.718-7.04l-1.775-6.733a93.019,93.019,0,0,1-24.943,6.273Z" fill="#a2e4fd"/>
          <path d="M458.429,193.574l12.19-2.776c-.405-2.4-.888-4.8-1.431-7.174L456.564,186.5Z" fill="#a2e4fd"/>
          <polygon points="529.813 163.526 525.91 164.554 527.239 171.704 529.813 171.026 533.621 181.954 536.015 181.323 529.813 163.526" fill="#a2e4fd"/>
          <path d="M501.093,211.448q-.023,4.218,0,8.457a121.114,121.114,0,0,0,32.169-8.477l-1.3-6.953a121.971,121.971,0,0,1-30.869,7.93C501.092,212.085,501.094,211.767,501.093,211.448Z" fill="#a2e4fd"/>
          <path d="M539.784,192.35l-8.278,2.181,1.336,7.148,6.942-1.829,3.17,9.024a120.993,120.993,0,0,0,32.168-8.477q-1.712-3.064-3.444-6.1a122.4,122.4,0,0,1-28.724,7.075Z" fill="#a2e4fd"/>
          <path d="M592.832,157.715A4.937,4.937,0,0,0,594.3,160.2c4.657-4.651,18.31-6.34,29.435-7.443-.436-2.466-.939-4.915-1.494-7.349C608.032,146.859,590.64,149.4,592.832,157.715Z" fill="#a2e4fd"/>
          <path d="M565.913,164.809a34.05,34.05,0,0,1-.895-4.775,33.036,33.036,0,0,0,.895,12.275c4.061,15.411,18.776,28.375,43.542,21.848a103.99,103.99,0,0,0,22.862-8.831q-.6-3.406-1.361-6.774a109.047,109.047,0,0,1-21.5,8.105C584.689,193.184,569.974,180.22,565.913,164.809Z" fill="#a2e4fd"/>
          <path d="M642.014,137.63l-13.873,4.16a127.135,127.135,0,0,1-4.493-15.339q-.7.282-1.377.563a127.336,127.336,0,0,0,5.87,22.276l13.873-4.16L651.466,181a91.933,91.933,0,0,0,26.718-7.04l-1.775-6.733a92.944,92.944,0,0,1-24.943,6.273Z" fill="#a2e4fd"/>
          <path d="M670.6,137.666l12.19-2.775c-.4-2.405-.888-4.8-1.431-7.175l-12.624,2.874Z" fill="#a2e4fd"/>
          <path d="M683.475,110.662c-.528.215-1.059.418-1.585.642,4.452,19.627,9.222,37.73,15.02,57a98.521,98.521,0,0,0,27.659-7.289q-.784-3.46-1.585-6.858a98.476,98.476,0,0,1-26.074,6.647C691.794,143.8,687.479,127.7,683.475,110.662Z" fill="#a2e4fd"/>
          <path d="M767.053,112.1c-1.117-4.24-5.553-5.231-11.139-3.759-5.854,1.543-9.159,4.573-8.041,8.812a5.838,5.838,0,0,0,1.189,2.335c1.395-1.6,3.763-2.833,6.852-3.647,4.37-1.151,8.028-.787,9.952,1.453A5.415,5.415,0,0,0,767.053,112.1Z" fill="#a2e4fd"/>
          <path d="M765.52,145.6c-24.026,6.331-39.124-3.437-43.823-21.271a40.035,40.035,0,0,1-1.085-5.816,35.62,35.62,0,0,0,1.085,13.316c4.7,17.834,19.8,27.6,43.823,21.271,21.674-5.711,30.648-19.144,28.874-34.724C792.872,130.677,783.624,140.835,765.52,145.6Z" fill="#a2e4fd"/>
          <path d="M844.28,121.972,826.714,98.461l-1.683.443,1.956,7.422,17.293,23.146A91.917,91.917,0,0,0,871,122.432q-.771-3.411-1.572-6.815A92.943,92.943,0,0,1,844.28,121.972Z" fill="#a2e4fd"/>
          <path d="M791.808,82.113c-.527.215-1.055.418-1.581.643,4.328,19.156,9.347,38.2,15.02,57a91.988,91.988,0,0,0,26.718-7.04l-1.774-6.733a93.072,93.072,0,0,1-24.944,6.273Q797.755,107.424,791.808,82.113Z" fill="#a2e4fd"/>
          <path d="M836.141,91.083l-5.1-19.338c-.595.241-1.191.472-1.785.726l4.926,18.692.272.363Z" fill="#a2e4fd"/>
          <path d="M248.638,248.125l-.334-1.264-1.866.419,2.2,8.345,21.68-7.584a58.075,58.075,0,0,1,2.6,7.864l1.351-.356a57.944,57.944,0,0,0-3.456-13.743l-11.49,2.58Z" fill="#fb3600"/>
          <path d="M254.453,277.7c.608-.253,1.2-.508,1.775-.768l-2.249-8.533-1.848.487Z" fill="#fb3600"/>
          <path d="M270.482,212.213a268.414,268.414,0,0,0-55.992,14.755q.78,3.45,1.591,6.9a269.025,269.025,0,0,1,54.4-14.151,112.452,112.452,0,0,1,4.1,13.748l1.416-.318A112.385,112.385,0,0,0,270.482,212.213Z" fill="#fb3600"/>
          <path d="M259.326,244.386l11.49-2.58c-.163-.422-.325-.846-.5-1.265Z" fill="#fb3600"/>
          <path d="M216.081,233.864q5.929,25.245,13.43,50.1a92.991,92.991,0,0,0,24.942-6.272l-2.322-8.814,1.848-.487-1.848-7.013,20.79-5.478a58.075,58.075,0,0,0-2.6-7.864l-21.68,7.584-2.2-8.345,1.866-.419-1.866-7.081,28.143-6.319a112.452,112.452,0,0,0-4.1-13.748A269.025,269.025,0,0,0,216.081,233.864Z"/>
          <path d="M312.125,262.4c.438-.181.876-.362,1.3-.546l-.42-2.249-1.336.352Z" fill="#fb3600"/>
          <polygon points="307.401 229.633 306.072 229.983 309.515 248.508 316.178 246.752 313.784 239.883 309.515 241.008 307.401 229.633" fill="#fb3600"/>
          <path d="M323.1,198.348c-10.553,1.2-29.8,6.268-39.639,10.444-1.546,19.677-2.31,39.919-2.209,60.558.1-18.046.851-35.77,2.209-53.058,9.839-4.176,29.086-9.247,39.639-10.444Q338.052,228,351.84,252.228c1.19-.457,2.344-.924,3.444-1.4Q339.947,223.346,323.1,198.348Z" fill="#fb3600"/>
          <path d="M283.465,216.292c-1.358,17.288-2.113,35.012-2.209,53.058,0,.329,0,.655,0,.984a121.913,121.913,0,0,0,30.868-7.931l-.456-2.443,1.336-.352-1.336-7.148,8.277-2.181,3.17,9.024a122.4,122.4,0,0,0,28.724-7.075q-13.779-24.18-28.736-46.38C312.551,207.045,293.3,212.116,283.465,216.292Zm32.713,30.46-6.663,1.756-3.443-18.525,1.329-.35-1.329-7.15,3.9-1.028,6.2,17.8-2.394.631Z"/>
          <path d="M380.8,231.739c5.787-1.525,8.829-5.277,6.869-9.439-15.817,6.27-27.211,9.349-34.1,5.282q.549,3.315,1.29,6.594C363.62,235.811,374.31,233.449,380.8,231.739Z" fill="#fb3600"/>
          <path d="M375.013,189.29c12.516-3.3,28.8-4.855,29.14-4.944a118.967,118.967,0,0,1,4.691,15.664c.506.1,1.008.2,1.5.323a118.021,118.021,0,0,0-6.19-23.487c-.336.089-16.624,1.645-29.14,4.944-24.549,6.468-30.346,16.333-28.242,27C348.53,201.086,356.354,194.206,375.013,189.29Z" fill="#fb3600"/>
          <path d="M416.791,216.338c-1.319-5-3.554-8.192-6.69-9.941.08.479.168.957.242,1.436-8.942-2.25-20.44.276-27.439,2.12-5.507,1.452-8.6,5-6.866,9.082,3.567-1.14,7.443-2.575,11.632-4.235.053.112.088.223.134.335,15.785-5.054,25.53-4.414,28.987,8.7.129.489.236.976.333,1.461A18.6,18.6,0,0,0,416.791,216.338Z" fill="#fb3600"/>
          <path d="M376.038,219.035c-1.736-4.077,1.359-7.63,6.866-9.082,7-1.844,18.5-4.37,27.439-2.12-.074-.479-.162-.957-.242-1.436-6.941-3.872-18.3-.692-33.93,5.46-2.046-4.211,1.081-7.914,6.733-9.4,6.615-1.743,17.245-4.089,25.94-2.443a118.967,118.967,0,0,0-4.691-15.664c-.336.089-16.624,1.645-29.14,4.944-18.659,4.916-26.483,11.8-28.242,19.5.1.5.211,1.009.344,1.516C350.544,223.313,360.236,224.086,376.038,219.035Z"/>
          <path d="M387.8,215.135c1.645,4.026-1.372,7.62-7,9.1-6.864,1.809-18.43,4.352-27.438,2.12.064.409.138.815.206,1.223,6.89,4.067,18.284.988,34.1-5.282,1.96,4.162-1.082,7.914-6.869,9.439-6.491,1.71-17.181,4.072-25.942,2.437a117.015,117.015,0,0,0,4.658,15.536c.4-.107,16.658-1.511,29.243-4.827,18.708-4.93,26.594-11.851,28.364-19.586-.1-.485-.2-.972-.333-1.461C413.334,210.721,403.589,210.081,387.8,215.135Z"/>
          <path d="M464.75,161.022c-15.76,1.922-40.054,8.324-54.646,14.4.392,2.324.856,4.637,1.377,6.937,14.706-5.9,38-11.974,53.269-13.837a127.392,127.392,0,0,1,4.438,15.1l1.431-.326A127.357,127.357,0,0,0,464.75,161.022Z" fill="#fb3600"/>
          <path d="M464.242,223.135c.608-.253,1.2-.508,1.775-.767l-7.588-28.794-1.865.424Z" fill="#fb3600"/>
          <path d="M411.481,182.359a127.5,127.5,0,0,0,4.493,15.339l13.874-4.16,9.451,35.87a93.019,93.019,0,0,0,24.943-6.273L456.564,194l1.865-.424-1.865-7.076,12.624-2.874a127.392,127.392,0,0,0-4.438-15.1C449.476,170.385,426.187,176.455,411.481,182.359Z"/>
          <polygon points="527.239 171.704 525.91 172.054 529.353 190.579 536.015 188.823 533.621 181.954 529.353 183.079 527.239 171.704" fill="#fb3600"/>
          <path d="M531.963,204.475c.438-.182.876-.363,1.3-.547l-.421-2.249-1.336.352Z" fill="#fb3600"/>
          <path d="M542.941,140.418c-10.552,1.2-29.8,6.27-39.638,10.445-1.547,19.686-2.311,39.936-2.21,60.585.095-18.056.851-35.788,2.21-53.085,9.839-4.175,29.086-9.247,39.638-10.445q14.949,22.149,28.737,46.381c1.19-.457,2.343-.924,3.444-1.4Q559.783,165.417,542.941,140.418Z" fill="#fb3600"/>
          <path d="M503.3,158.363c-1.359,17.3-2.115,35.029-2.21,53.085,0,.319,0,.637,0,.957a121.971,121.971,0,0,0,30.869-7.93l-.457-2.444,1.336-.352-1.336-7.148,8.278-2.181,3.17,9.024a122.4,122.4,0,0,0,28.724-7.075q-13.779-24.181-28.737-46.381C532.389,149.116,513.142,154.188,503.3,158.363Zm32.712,30.46-6.662,1.756-3.443-18.525,1.329-.35-1.329-7.15,3.9-1.028,6.2,17.8-2.394.631Z"/>
          <path d="M593.052,131.907a104,104,0,0,1,24.245-3.582,152.944,152.944,0,0,1,4.943,17.08c.5-.052,1-.1,1.494-.151a153.008,153.008,0,0,0-6.437-24.429,104,104,0,0,0-24.245,3.582c-22.242,5.861-29.678,21.405-28.034,35.627C566.42,148.187,574.688,136.746,593.052,131.907Z" fill="#fb3600"/>
          <path d="M625.881,153.4c-11.673,5.163-26.59,11.29-31.582,6.8a4.925,4.925,0,0,0-1.467,5.018c2.288,8.681,19.771,1.556,33.049-4.318a153.18,153.18,0,0,1,5.075,17.655c.875-.451,1.361-.726,1.361-.726A153.083,153.083,0,0,0,625.881,153.4Z" fill="#fb3600"/>
          <path d="M592.832,165.215A4.925,4.925,0,0,1,594.3,160.2a4.937,4.937,0,0,1-1.467-2.482c-2.192-8.32,15.2-10.856,29.408-12.31a152.944,152.944,0,0,0-4.943-17.08,104,104,0,0,0-24.245,3.582c-18.364,4.839-26.632,16.28-28.034,28.127a34.05,34.05,0,0,0,.895,4.775c4.061,15.411,18.776,28.375,43.542,21.848a109.047,109.047,0,0,0,21.5-8.105,153.18,153.18,0,0,0-5.075-17.655C612.6,166.771,595.12,173.9,592.832,165.215Z"/>
          <path d="M676.916,105.115c-15.759,1.921-40.053,8.323-54.645,14.4.392,2.325.856,4.637,1.377,6.937,14.706-5.9,38-11.974,53.268-13.836a127.138,127.138,0,0,1,4.439,15.1l1.431-.325A127.225,127.225,0,0,0,676.916,105.115Z" fill="#fb3600"/>
          <path d="M676.409,167.227c.608-.252,1.2-.508,1.775-.767L670.6,137.666l-1.865.424Z" fill="#fb3600"/>
          <path d="M623.648,126.451a127.135,127.135,0,0,0,4.493,15.339l13.873-4.16,9.452,35.87a92.944,92.944,0,0,0,24.943-6.273l-7.678-29.137,1.865-.424-1.865-7.076,12.624-2.874a127.138,127.138,0,0,0-4.439-15.1C661.643,114.477,638.354,120.547,623.648,126.451Z"/>
          <path d="M709.549,96.516A98.452,98.452,0,0,0,681.89,103.8q.785,3.46,1.585,6.858a98.4,98.4,0,0,1,26.074-6.646c5.117,17.006,9.432,33.106,13.435,50.143.528-.215,1.059-.418,1.585-.642C720.117,133.891,715.348,115.788,709.549,96.516Z" fill="#fb3600"/>
          <path d="M683.475,110.662c4,17.037,8.319,33.137,13.435,50.144a98.476,98.476,0,0,0,26.074-6.647c-4-17.037-8.318-33.137-13.435-50.143A98.4,98.4,0,0,0,683.475,110.662Z"/>
          <path d="M793.37,105.447C788.564,87.21,773.364,77.325,749.2,83.691c-21.433,5.648-30.331,19.052-28.592,34.827,1.49-12.437,10.651-22.6,28.592-27.327,24.16-6.366,39.36,3.519,44.166,21.756a38.348,38.348,0,0,1,1.024,5.434A34.219,34.219,0,0,0,793.37,105.447Z" fill="#fb3600"/>
          <path d="M759.213,120.854c-4.58,1.207-8.231.885-10.151-1.371a5.386,5.386,0,0,0-1.189,5.165c1.135,4.308,5.485,5.248,11.34,3.706,5.586-1.472,8.975-4.452,7.84-8.759a5.715,5.715,0,0,0-1.187-2.306A13.212,13.212,0,0,1,759.213,120.854Z" fill="#fb3600"/>
          <path d="M749.2,91.191c-17.941,4.728-27.1,14.89-28.592,27.327a40.035,40.035,0,0,0,1.085,5.816c4.7,17.834,19.8,27.6,43.823,21.271,18.1-4.77,27.352-14.928,28.874-27.224a38.348,38.348,0,0,0-1.024-5.434C788.564,94.71,773.364,84.825,749.2,91.191Zm17.849,28.4c1.135,4.307-2.254,7.287-7.84,8.759-5.855,1.542-10.2.6-11.34-3.706a5.386,5.386,0,0,1,1.189-5.165,5.838,5.838,0,0,1-1.189-2.335c-1.118-4.239,2.187-7.269,8.041-8.812,5.586-1.472,10.022-.481,11.139,3.759a5.415,5.415,0,0,1-1.187,5.194A5.715,5.715,0,0,1,767.053,119.6Z"/>
          <path d="M825.031,106.4l5.16,19.581c.607-.253,1.2-.508,1.774-.767l-4.978-18.892-.273-.365Z" fill="#fb3600"/>
          <path d="M869.426,115.617c.538-.226,1.064-.454,1.572-.685-4.328-19.156-9.347-38.2-15.019-57a91.9,91.9,0,0,0-26.719,7.04l1.785,6.774a91.425,91.425,0,0,1,24.934-6.314Q863.478,90.285,869.426,115.617Z" fill="#fb3600"/>
          <path d="M834.458,99.026l1.683-.443-1.955-7.42L816.945,68.216a91.9,91.9,0,0,0-26.718,7.04q.774,3.432,1.581,6.857a91.443,91.443,0,0,1,25.137-6.4Z" fill="#fb3600"/>
          <path d="M826.714,98.461l17.566,23.511a92.943,92.943,0,0,0,25.146-6.355q-5.937-25.285-13.447-50.186a91.425,91.425,0,0,0-24.934,6.314l5.1,19.338-1.683.443-.272-.363,1.955,7.42-1.683.443-17.513-23.31a91.443,91.443,0,0,0-25.137,6.4q5.934,25.265,13.439,50.145a93.072,93.072,0,0,0,24.944-6.273l-5.16-19.581,1.683-.443.273.365L825.031,98.9Z"/>
        </g>
        <g>
          <line x1="117.449" y1="261.386" x2="123.249" y2="259.848" fill="none" stroke="#a2e4fd" stroke-linecap="round" stroke-linejoin="round" stroke-width="3"/>
          <line x1="136.828" y1="256.245" x2="184.358" y2="243.635" fill="none" stroke="#a2e4fd" stroke-linecap="round" stroke-linejoin="round" stroke-width="3" stroke-dasharray="14.05 14.05"/>
          <line x1="191.147" y1="241.834" x2="196.947" y2="240.295" fill="none" stroke="#a2e4fd" stroke-linecap="round" stroke-linejoin="round" stroke-width="3"/>
        </g>
        <g>
          <line x1="121.505" y1="277.61" x2="127.304" y2="276.072" fill="none" stroke="#a2e4fd" stroke-linecap="round" stroke-linejoin="round" stroke-width="3"/>
          <line x1="140.884" y1="272.469" x2="188.414" y2="259.859" fill="none" stroke="#a2e4fd" stroke-linecap="round" stroke-linejoin="round" stroke-width="3" stroke-dasharray="14.05 14.05"/>
          <line x1="195.203" y1="258.058" x2="201.003" y2="256.519" fill="none" stroke="#a2e4fd" stroke-linecap="round" stroke-linejoin="round" stroke-width="3"/>
        </g>
        <g>
          <line x1="125.561" y1="293.834" x2="131.36" y2="292.296" fill="none" stroke="#a2e4fd" stroke-linecap="round" stroke-linejoin="round" stroke-width="3"/>
          <line x1="144.94" y1="288.693" x2="192.469" y2="276.083" fill="none" stroke="#a2e4fd" stroke-linecap="round" stroke-linejoin="round" stroke-width="3" stroke-dasharray="14.05 14.05"/>
          <line x1="199.259" y1="274.282" x2="205.059" y2="272.743" fill="none" stroke="#a2e4fd" stroke-linecap="round" stroke-linejoin="round" stroke-width="3"/>
        </g>
        <g>
          <line x1="129.617" y1="310.058" x2="135.417" y2="308.52" fill="none" stroke="#a2e4fd" stroke-linecap="round" stroke-linejoin="round" stroke-width="3"/>
          <line x1="148.996" y1="304.917" x2="196.526" y2="292.307" fill="none" stroke="#a2e4fd" stroke-linecap="round" stroke-linejoin="round" stroke-width="3" stroke-dasharray="14.05 14.05"/>
          <line x1="203.315" y1="290.506" x2="209.115" y2="288.967" fill="none" stroke="#a2e4fd" stroke-linecap="round" stroke-linejoin="round" stroke-width="3"/>
        </g>
      </g>
      <ellipse cx="375.075" cy="857.814" rx="107.208" ry="24.833" fill="#a2e4fd"/>
      <g style="mix-blend-mode: multiply">
        <g>
          <ellipse cx="359.586" cy="803.644" rx="27.596" ry="34.073" fill="#fcfcfc" stroke="#fb3600" stroke-linecap="round" stroke-linejoin="round" stroke-width="3"/>
          <path d="M336.17,784.139c-6.562-7.668-10.657-18.524-10.657-30.561,0-23.235,15.255-42.07,34.073-42.07s34.073,18.835,34.073,42.07c0,14.067-5.592,26.521-14.181,34.159" fill="#fcfcfc" stroke="#fb3600" stroke-linecap="round" stroke-linejoin="round" stroke-width="3"/>
          <path d="M366.127,855.192h0a3.5,3.5,0,0,1-3.254-2.215l-.92-2.335h0a12.413,12.413,0,0,1-7.708,5.84l-9.238,2.342a4.368,4.368,0,0,1-4.838-6.449l4.5-7.646.534-11.666,1.118.284a56.087,56.087,0,0,0,28.662-.284h0l-5.488,19.576A3.5,3.5,0,0,1,366.127,855.192Z" fill="#fb3600" stroke="#fb3600" stroke-linecap="round" stroke-linejoin="round" stroke-width="3"/>
          <path d="M341.291,803.992a13.079,13.079,0,0,1,0-26.158" fill="#fcfcfc" stroke="#fb3600" stroke-linecap="round" stroke-linejoin="round" stroke-width="3"/>
        </g>
        <g>
          <ellipse cx="295.769" cy="627.92" rx="52.03" ry="34.138" fill="#fcfcfc" stroke="#fb3600" stroke-linecap="round" stroke-linejoin="round" stroke-width="3"/>
          <path d="M282.143,656.765c-6.586,11.5-23.5,19.676-43.32,19.676-25.55,0-46.264-13.59-46.264-30.355s20.714-30.355,46.264-30.355A63.1,63.1,0,0,1,266.987,622" fill="#fcfcfc" stroke="#fb3600" stroke-linecap="round" stroke-linejoin="round" stroke-width="3"/>
          <path d="M208.162,664.685a48.983,48.983,0,0,1-22.275,5.055c-19.909,0-36.049-10.59-36.049-23.654s16.14-23.653,36.049-23.653c11.37,0,21.51,3.453,28.117,8.848" fill="#fcfcfc" stroke="#fb3600" stroke-linecap="round" stroke-linejoin="round" stroke-width="3"/>
          <path d="M144.171,634.041A9.035,9.035,0,0,0,127,638.586a9.035,9.035,0,0,0-.021,15.4,9.035,9.035,0,0,0,17.195,4.149l11.414,1.642h0a42.766,42.766,0,0,0,.052-27.391l-.052-.152Z" fill="#fb3600" stroke="#fb3600" stroke-linecap="round" stroke-linejoin="round" stroke-width="3"/>
          <ellipse cx="334.167" cy="594.09" rx="52.03" ry="34.138" fill="#fb3600" stroke="#fb3600" stroke-linecap="round" stroke-linejoin="round" stroke-width="3"/>
        </g>
        <g>
          <circle cx="351.177" cy="637.052" r="50.089" fill="#fb3600" stroke="#fb3600" stroke-linecap="round" stroke-linejoin="round" stroke-width="3"/>
          <circle cx="372.546" cy="661.689" r="50.089" fill="#fcfcfc" stroke="#fb3600" stroke-linecap="round" stroke-linejoin="round" stroke-width="3"/>
          <circle cx="384.084" cy="637.052" r="50.089" fill="#fb3600" stroke="#fb3600" stroke-linecap="round" stroke-linejoin="round" stroke-width="3"/>
        </g>
        <ellipse cx="364.586" cy="598.297" rx="33.092" ry="17.296" transform="matrix(0.98, -0.197, 0.197, 0.98, -110.759, 83.584)" fill="#fcfcfc" stroke="#fb3600" stroke-linecap="round" stroke-linejoin="round" stroke-width="3"/>
        <g>
          <path d="M355.074,539.958c-.437-2.089-9.678-7.363-18.586-8.095-.914,4.721-3.913,10.254.173,18.731" fill="#fcfcfc" stroke="#fb3600" stroke-linecap="round" stroke-linejoin="round" stroke-width="3"/>
          <circle cx="362.887" cy="572.349" r="33.667" fill="#fcfcfc" stroke="#fb3600" stroke-linecap="round" stroke-linejoin="round" stroke-width="3"/>
          <circle cx="344.119" cy="563.338" r="12.625" fill="#fcfcfc" stroke="#fb3600" stroke-linecap="round" stroke-linejoin="round" stroke-width="3"/>
          <circle cx="339.306" cy="562.838" r="6.313" fill="#fb3600" stroke="#fb3600" stroke-linecap="round" stroke-linejoin="round" stroke-width="3"/>
          <path d="M335.979,581.976a6.443,6.443,0,0,0,9,.217,8.991,8.991,0,0,0,11.291,1.3" fill="#fcfcfc" stroke="#fb3600" stroke-linecap="round" stroke-linejoin="round" stroke-width="3"/>
          <path d="M370.52,546.138c5.913-9.761,11.135-7.412,21.941-11.58a19.239,19.239,0,0,1,3.955,19.952c-.992,2.449-2.939,4.926-5.581,4.966" fill="#fcfcfc" stroke="#fb3600" stroke-linecap="round" stroke-linejoin="round" stroke-width="3"/>
          <path d="M335.1,590.613a12.551,12.551,0,0,0-.637,6.8,7.669,7.669,0,0,0,4,5.349,5.569,5.569,0,0,0,6.366-1.082,9.359,9.359,0,0,0,16.69-1.6" fill="#fcfcfc" stroke="#fb3600" stroke-linecap="round" stroke-linejoin="round" stroke-width="3"/>
          <path d="M374.546,571.626a6.9,6.9,0,0,1-5.716,4.5,54.625,54.625,0,0,0-.983,9.879" fill="#fcfcfc" stroke="#fb3600" stroke-linecap="round" stroke-linejoin="round" stroke-width="3"/>
          <path d="M338.893,588.189a3.634,3.634,0,0,0,1.389,2.761,6.973,6.973,0,0,0,2.882,1.313,9.009,9.009,0,0,0,1.89.261,6.9,6.9,0,0,0,5.134-2.191" fill="#fcfcfc" stroke="#fb3600" stroke-linecap="round" stroke-linejoin="round" stroke-width="3"/>
        </g>
        <g>
          <ellipse cx="399.526" cy="632.92" rx="52.03" ry="34.138" fill="#fcfcfc" stroke="#fb3600" stroke-linecap="round" stroke-linejoin="round" stroke-width="3"/>
          <path d="M385.9,661.765c-6.586,11.5-23.5,19.676-43.32,19.676-25.551,0-46.264-13.59-46.264-30.355s20.713-30.355,46.264-30.355A63.1,63.1,0,0,1,370.744,627" fill="#fcfcfc" stroke="#fb3600" stroke-linecap="round" stroke-linejoin="round" stroke-width="3"/>
          <path d="M311.919,669.685a48.983,48.983,0,0,1-22.275,5.055c-19.91,0-36.05-10.59-36.05-23.654s16.14-23.653,36.05-23.653c11.37,0,21.51,3.453,28.117,8.848" fill="#fcfcfc" stroke="#fb3600" stroke-linecap="round" stroke-linejoin="round" stroke-width="3"/>
          <path d="M247.928,639.041a9.035,9.035,0,0,0-17.174,4.545,9.035,9.035,0,0,0-.021,15.4,9.035,9.035,0,0,0,17.195,4.149l11.414,1.642h0a42.759,42.759,0,0,0,.051-27.391l-.051-.152Z" fill="#fb3600" stroke="#fb3600" stroke-linecap="round" stroke-linejoin="round" stroke-width="3"/>
          <ellipse cx="437.923" cy="599.09" rx="52.03" ry="34.138" fill="#fb3600" stroke="#fb3600" stroke-linecap="round" stroke-linejoin="round" stroke-width="3"/>
        </g>
        <path d="M341.917,701.315c24.64,4.546,52.361,3.881,69.857-8.5,18.512,6.943,15.461,28.3,8.343,36.1-11.187-14.916-48.35-10.848-55.531,14.576C341.812,751.624,320.1,724.546,341.917,701.315Z" fill="#fb3600" stroke="#fb3600" stroke-linecap="round" stroke-linejoin="round" stroke-width="3"/>
        <g>
          <ellipse cx="395.959" cy="808.644" rx="27.596" ry="34.073" fill="#fcfcfc" stroke="#fb3600" stroke-linecap="round" stroke-linejoin="round" stroke-width="3"/>
          <path d="M372.544,789.139c-6.563-7.668-10.657-18.524-10.657-30.561,0-23.235,15.255-42.07,34.072-42.07s34.073,18.835,34.073,42.07c0,14.067-5.592,26.521-14.18,34.159" fill="#fcfcfc" stroke="#fb3600" stroke-linecap="round" stroke-linejoin="round" stroke-width="3"/>
          <path d="M402.5,860.192h0a3.5,3.5,0,0,1-3.253-2.215l-.92-2.335h0a12.415,12.415,0,0,1-7.709,5.84l-9.237,2.342a4.368,4.368,0,0,1-4.838-6.449l4.5-7.646.534-11.666,1.119.284a56.087,56.087,0,0,0,28.662-.284h0l-5.489,19.576A3.5,3.5,0,0,1,402.5,860.192Z" fill="#fb3600" stroke="#fb3600" stroke-linecap="round" stroke-linejoin="round" stroke-width="3"/>
          <path d="M377.665,808.992a13.079,13.079,0,0,1,0-26.158" fill="#fcfcfc" stroke="#fb3600" stroke-linecap="round" stroke-linejoin="round" stroke-width="3"/>
        </g>
      </g>
      <g style="mix-blend-mode: multiply">
        <g>
          <line x1="577.911" y1="654.568" x2="571.911" y2="654.568" fill="none" stroke="#fb3600" stroke-linecap="round" stroke-linejoin="round" stroke-width="3"/>
          <line x1="560.285" y1="654.568" x2="473.093" y2="654.568" fill="none" stroke="#fb3600" stroke-linecap="round" stroke-linejoin="round" stroke-width="3" stroke-dasharray="11.626 11.626"/>
          <line x1="467.28" y1="654.568" x2="461.28" y2="654.568" fill="none" stroke="#fb3600" stroke-linecap="round" stroke-linejoin="round" stroke-width="3"/>
          <rect x="456.576" y="649.617" width="9.902" height="9.902" fill="#fb3600"/>
        </g>
      </g>
      <g>
        <circle cx="732.054" cy="642.517" r="185.255" fill="#fb3600"/>
        <g clip-path="url(#a)">
          <g>
            <circle cx="823.493" cy="587.908" r="94.23" fill="#fcfcfc" stroke="#fb3600" stroke-linecap="round" stroke-linejoin="round" stroke-width="3"/>
            <circle cx="766.021" cy="499.606" r="112.601" fill="#fb3600" stroke="#fb3600" stroke-linecap="round" stroke-linejoin="round" stroke-width="3"/>
            <circle cx="687.054" cy="650.38" r="190.313" fill="#fcfcfc" stroke="#fb3600" stroke-linecap="round" stroke-linejoin="round" stroke-width="3"/>
            <path d="M662.343,531.517c43.773,75.762,47.982,179.723,27.779,223.5,0,0,35.566,8.418,70.921-9.26,5.23-4.587,11.209-13.716,14.344-20.4,53.336-113.683-12.05-182.6-17.341-190.771-3.285-5.07-11.313-14.011-19.942-17.8C706.958,515.944,677.5,520.574,662.343,531.517Z" fill="#fcfcfc" stroke="#fb3600" stroke-linecap="round" stroke-linejoin="round" stroke-width="3"/>
            <path d="M787.958,654.635c-29.89.4-59.06-7.919-88.823-9.028,5.668,44.727,1.877,85.811-9.013,109.406,0,0,35.566,8.418,70.921-9.26,5.23-4.587,11.209-13.716,14.344-20.4,12.25-26.111,18.225-49.854,20.116-71.048Q791.738,654.581,787.958,654.635Z" fill="#fcfcfc" stroke="#fb3600" stroke-linecap="round" stroke-linejoin="round" stroke-width="3"/>
            <path d="M714.6,601.855l69.78-13.443,59.817,18.044s-23.773,14.57-63.648,19.171C780.544,625.627,738.367,624.094,714.6,601.855Z" fill="#fcfcfc" stroke="#fb3600" stroke-linecap="round" stroke-linejoin="round" stroke-width="3"/>
            <path d="M780.544,625.627c9.2,25.306.766,49.078.766,49.078s38.343,3.178,59.047-12.6a180.3,180.3,0,0,0,3.835-55.652S819.653,623.327,780.544,625.627Z" fill="#fcfcfc" stroke="#fb3600" stroke-linecap="round" stroke-linejoin="round" stroke-width="3"/>
            <path d="M662.343,531.517c22.887,10.346,37.442,48.917,46.884,64.2,16.1,26.073,71.317,29.907,71.317,29.907s7.668,27.607.766,49.078c-29.14,2.3-53.679-9.2-63.648,29.907s-27.54,50.4-27.54,50.4S726.11,641.567,662.343,531.517Z" fill="#fb3600" stroke="#fb3600" stroke-linecap="round" stroke-linejoin="round" stroke-width="3"/>
            <path d="M674.6,537.9s37.321-12.954,76.927-11.254" fill="none" stroke="#fb3600" stroke-linecap="round" stroke-linejoin="round" stroke-width="3"/>
            <path d="M681.5,547.765c35.085-7.518,79.568-9.4,79.568-9.4" fill="none" stroke="#fb3600" stroke-linecap="round" stroke-linejoin="round" stroke-width="3"/>
            <path d="M688.386,561.548a543.854,543.854,0,0,1,80.2-11.277" fill="none" stroke="#fb3600" stroke-linecap="round" stroke-linejoin="round" stroke-width="3"/>
            <path d="M697.784,573.452C733.5,565.934,776.1,562.8,776.1,562.8" fill="none" stroke="#fb3600" stroke-linecap="round" stroke-linejoin="round" stroke-width="3"/>
            <path d="M704.676,588.489c24.434-7.519,78.315-13.157,78.315-13.157" fill="none" stroke="#fb3600" stroke-linecap="round" stroke-linejoin="round" stroke-width="3"/>
            <path d="M723.02,692.107c19.808,2.829,66.019-5.464,66.019-5.464" fill="none" stroke="#fb3600" stroke-linecap="round" stroke-linejoin="round" stroke-width="3"/>
            <path d="M714.53,707.931c34.8,2.263,70.731-6.923,70.731-6.923" fill="none" stroke="#fb3600" stroke-linecap="round" stroke-linejoin="round" stroke-width="3"/>
            <path d="M713.964,723.544a189.1,189.1,0,0,0,64.415-6.915" fill="none" stroke="#fb3600" stroke-linecap="round" stroke-linejoin="round" stroke-width="3"/>
            <path d="M705.184,737.211c17.23,3.174,51.236-.81,66.652-6.7" fill="none" stroke="#fb3600" stroke-linecap="round" stroke-linejoin="round" stroke-width="3"/>
          </g>
        </g>
        <circle cx="732.054" cy="642.517" r="185.255" fill="none" stroke="#fb3600" stroke-linecap="round" stroke-linejoin="round" stroke-width="3"/>
      </g>
      <g>
        <path d="M653.208,867.846c0,1.28.016,2.625.016,3.986l6.322-.241a8.18,8.18,0,0,1,0,2.177l-6.322-.016c0,1.713-.016,3.441-.016,5.138a11.92,11.92,0,0,1-3.538,0c-.111-4.258-.128-9.619,0-13.717a69.483,69.483,0,0,1,10.949,0,13.97,13.97,0,0,1,0,2.833Z" fill="#fb3600"/>
        <path d="M662.406,865.108a11.987,11.987,0,0,1,3.538,0c.112,3.714.112,7.187,0,10.949l6.611-.192a16.26,16.26,0,0,1,0,3.041,59.716,59.716,0,0,1-10.149,0C662.3,873.88,662.3,869.559,662.406,865.108Z" fill="#fb3600"/>
        <path d="M674.5,865.173a12.675,12.675,0,0,1,3.649,0c.129,4.705.129,9,0,13.717a12.675,12.675,0,0,1-3.649,0C674.391,874.168,674.391,869.878,674.5,865.173Z" fill="#fb3600"/>
        <path d="M680.806,865.317a42.658,42.658,0,0,1,7.09-.625c3.955,0,5.971,2.321,5.971,5.363,0,2.625-1.6,5.586-6,5.586a29.062,29.062,0,0,1-3.538-.24c.017,1.168.032,2.305.032,3.489a12.02,12.02,0,0,1-3.553,0C680.678,874.537,680.678,869.67,680.806,865.317Zm6.354,7.843c2.482-.032,3.218-1.6,3.218-3.009,0-1.649-.944-2.8-3.249-2.8a16.717,16.717,0,0,0-2.77.288c0,1.76-.015,3.5-.032,5.266A16.024,16.024,0,0,0,687.16,873.16Z" fill="#fb3600"/>
        <path d="M700.453,865.173a80.878,80.878,0,0,1,11.814,0,16.26,16.26,0,0,1,0,3.041l-4.13-.144c.032,3.745.032,7.2-.016,10.9a11.806,11.806,0,0,1-3.521,0c-.049-3.7-.049-7.155-.017-10.9l-4.13.144A16.091,16.091,0,0,1,700.453,865.173Z" fill="#fb3600"/>
        <path d="M726.987,878.89a12.675,12.675,0,0,1-3.649,0c-.016-1.808-.016-3.569-.016-5.33h-5.554c0,1.761-.016,3.522-.033,5.33a12.675,12.675,0,0,1-3.649,0c-.111-4.722-.111-9.092,0-13.8a23.153,23.153,0,0,1,3.649,0c.017,2.16.033,4.257.033,6.354h5.554c0-2.1,0-4.194.016-6.354a23.153,23.153,0,0,1,3.649,0C727.115,869.8,727.115,874.168,726.987,878.89Z" fill="#fb3600"/>
        <path d="M729.637,865.173a57.641,57.641,0,0,1,11.268,0,12.757,12.757,0,0,1,0,2.721l-7.73-.352c.015,1.28.015,2.48.015,3.7l6.083-.1a5.617,5.617,0,0,1,0,1.793l-6.083-.1c0,1.232,0,2.417-.015,3.665l7.73-.336a12.758,12.758,0,0,1,0,2.721,58.916,58.916,0,0,1-11.268,0C729.525,874.632,729.509,869.271,729.637,865.173Z" fill="#fb3600"/>
        <path d="M749.158,878.714a15.905,15.905,0,0,1,0-3.265,14.4,14.4,0,0,0,5.538.96c2.513-.016,3.778-.928,3.362-3.857-7.476.448-9.268.336-9.268-3.314,0-2.545,1.488-4.546,6.675-4.546a39.251,39.251,0,0,1,5.762.609,16.061,16.061,0,0,1,0,3.281,13.837,13.837,0,0,0-5.506-.96c-2.482.016-3.73.912-3.282,3.873,7.395-.432,9.268-.384,9.268,3.3,0,2.545-1.568,4.562-6.77,4.562A37.744,37.744,0,0,1,749.158,878.714Z" fill="#fb3600"/>
        <path d="M767.527,865.125l1.184,10.964h.721l2.352-10.916a6.774,6.774,0,0,1,3.394,0l2.369,10.916h.721l1.184-10.964a9.989,9.989,0,0,1,4.081.08c-.576,4.513-1.248,9.171-2.1,13.685a18.8,18.8,0,0,1-5.683,0l-2.08-10.1h-.368l-2.1,10.1a18.791,18.791,0,0,1-5.682,0c-.833-4.514-1.5-9.172-2.1-13.685A10.067,10.067,0,0,1,767.527,865.125Z" fill="#fb3600"/>
        <path d="M785.652,865.173a12.682,12.682,0,0,1,3.65,0c.129,4.705.129,9,0,13.717a12.682,12.682,0,0,1-3.65,0C785.541,874.168,785.541,869.878,785.652,865.173Z" fill="#fb3600"/>
        <path d="M791.141,865.173a80.864,80.864,0,0,1,11.813,0,16.091,16.091,0,0,1,0,3.041l-4.13-.144c.032,3.745.032,7.2-.015,10.9a11.813,11.813,0,0,1-3.522,0c-.049-3.7-.049-7.155-.016-10.9l-4.13.144A16.091,16.091,0,0,1,791.141,865.173Z" fill="#fb3600"/>
        <path d="M804.373,872.007c0-4.1,2.24-7.315,7.011-7.315a18.124,18.124,0,0,1,5.185.641,18.353,18.353,0,0,1,0,3.265c-4.609-.993-8.547-.864-8.611,3.409.064,4.338,4,4.418,8.611,3.442a18.353,18.353,0,0,1,0,3.265,18.286,18.286,0,0,1-5.185.64C806.63,879.354,804.373,876.153,804.373,872.007Z" fill="#fb3600"/>
        <path d="M831.866,878.89a12.675,12.675,0,0,1-3.649,0c-.016-1.808-.016-3.569-.016-5.33h-5.555c0,1.761-.015,3.522-.032,5.33a12.675,12.675,0,0,1-3.649,0c-.111-4.722-.111-9.092,0-13.8a23.153,23.153,0,0,1,3.649,0c.017,2.16.032,4.257.032,6.354H828.2c0-2.1,0-4.194.016-6.354a23.153,23.153,0,0,1,3.649,0C831.994,869.8,831.994,874.168,831.866,878.89Z" fill="#fb3600"/>
        <path d="M834.436,877.786c0-1.057.8-1.5,2.017-1.5s2.049.448,2.049,1.5c0,1.072-.833,1.536-2.049,1.536S834.436,878.858,834.436,877.786Zm.192-13.03a14.8,14.8,0,0,1,3.762,0l-.256,10.341h-3.25Z" fill="#fb3600"/>
      </g>
      <g>
        <path d="M73.653,785.011a15.905,15.905,0,0,1,0-3.265,14.4,14.4,0,0,0,5.538.96c2.513-.016,3.778-.928,3.362-3.857-7.476.448-9.268.336-9.268-3.314,0-2.545,1.488-4.546,6.675-4.546a39.232,39.232,0,0,1,5.762.609,16.061,16.061,0,0,1,0,3.281,13.838,13.838,0,0,0-5.506-.961c-2.482.017-3.73.913-3.281,3.874,7.394-.432,9.267-.384,9.267,3.3,0,2.545-1.568,4.562-6.77,4.562A37.744,37.744,0,0,1,73.653,785.011Z" fill="#fb3600"/>
        <path d="M87.637,771.47a80.851,80.851,0,0,1,11.812,0,16.091,16.091,0,0,1,0,3.041l-4.13-.144c.033,3.745.033,7.2-.015,10.9a11.813,11.813,0,0,1-3.522,0c-.048-3.7-.048-7.155-.016-10.9l-4.129.144A15.926,15.926,0,0,1,87.637,771.47Z" fill="#fb3600"/>
        <path d="M100.869,778.417c0-4.307,2.528-7.38,7.747-7.38,5.234,0,7.78,3.073,7.78,7.38,0,4.209-2.546,7.234-7.78,7.234C103.4,785.651,100.869,782.626,100.869,778.417Zm7.811,3.9c2.433,0,4.194-1.233,4.194-3.954,0-2.705-1.761-4-4.226-4-2.545,0-4.257,1.3-4.257,4C104.391,781.089,106.135,782.322,108.68,782.322Z" fill="#fb3600"/>
        <path d="M120.054,771.47a18.785,18.785,0,0,1,5.681,0l2.1,10.084h.368l2.08-10.084a18.8,18.8,0,0,1,5.683,0c.848,4.513,1.52,9.155,2.1,13.669a9.483,9.483,0,0,1-4.082.08l-1.184-10.964h-.721l-2.369,10.932a6.77,6.77,0,0,1-3.393,0l-2.353-10.932h-.721l-1.183,10.964a9.557,9.557,0,0,1-4.1-.08C118.549,780.625,119.221,775.983,120.054,771.47Z" fill="#fb3600"/>
        <path d="M140.18,771.614a42.554,42.554,0,0,1,7.091-.625c3.954,0,5.97,2.321,5.97,5.363,0,2.625-1.6,5.586-6,5.586a29.062,29.062,0,0,1-3.538-.24c.017,1.168.032,2.3.032,3.489a12.02,12.02,0,0,1-3.553,0C140.052,780.833,140.052,775.967,140.18,771.614Zm6.355,7.843c2.481-.032,3.217-1.6,3.217-3.009,0-1.649-.944-2.8-3.249-2.8a16.715,16.715,0,0,0-2.77.289c0,1.76-.015,3.505-.032,5.266A16.027,16.027,0,0,0,146.535,779.457Z" fill="#fb3600"/>
        <path d="M155,771.47a12.611,12.611,0,0,1,3.65,0c.128,4.7.128,9,0,13.717a12.682,12.682,0,0,1-3.65,0C154.885,780.465,154.885,776.175,155,771.47Z" fill="#fb3600"/>
        <path d="M161.3,771.47a15.893,15.893,0,0,1,3.906,0l5.538,9.635h.352V771.47a13.208,13.208,0,0,1,3.553,0c.113,4.513.113,9.2,0,13.717a16.067,16.067,0,0,1-3.92,0l-5.523-9.668h-.368v9.668a13.1,13.1,0,0,1-3.538,0C161.188,780.673,161.188,775.983,161.3,771.47Z" fill="#fb3600"/>
        <path d="M179.205,769.693c1.217,0,2,.432,2,1.745,0,1.456-.192,2.929-3.138,3.073a2.261,2.261,0,0,1-.175-1.185c.591-.1,1.793-.112,1.648-1.088a1.381,1.381,0,0,1-2.321-1.041C177.22,770.125,178.005,769.693,179.205,769.693Z" fill="#fb3600"/>
        <path d="M189.412,784.835c-.128-4.322-.128-8.82,0-13.142.257-.272,3.058-.7,7.443-.7,4.274,0,6.115,1.649,6.115,3.906a3.49,3.49,0,0,1-2.289,3.265v.224A2.738,2.738,0,0,1,203.4,781.3c0,2.417-2.256,4.45-6.547,4.45C192.518,785.747,189.685,785.139,189.412,784.835Zm8.212-7.155a2.128,2.128,0,0,0,1.664-2.033c0-1.376-1.04-2.177-2.913-2.177a8.91,8.91,0,0,0-3.457.5c-.016,1.2-.032,2.482-.032,3.682Zm1.824,2.929a1.745,1.745,0,0,0-1.792-1.809l-4.77-.031c0,1.232.016,2.464.032,3.681a7.865,7.865,0,0,0,3.457.576C198.248,783.026,199.448,782.082,199.448,780.609Z" fill="#fb3600"/>
        <path d="M204.964,778.417c0-4.307,2.528-7.38,7.747-7.38s7.779,3.073,7.779,7.38c0,4.209-2.546,7.234-7.779,7.234S204.964,782.626,204.964,778.417Zm7.81,3.9c2.434,0,4.195-1.233,4.195-3.954,0-2.705-1.761-4-4.227-4-2.545,0-4.257,1.3-4.257,4C208.485,781.089,210.229,782.322,212.774,782.322Z" fill="#fb3600"/>
        <path d="M222.341,778.417c0-4.307,2.528-7.38,7.747-7.38s7.779,3.073,7.779,7.38c0,4.209-2.546,7.234-7.779,7.234S222.341,782.626,222.341,778.417Zm7.81,3.9c2.434,0,4.195-1.233,4.195-3.954,0-2.705-1.761-4-4.227-4-2.545,0-4.257,1.3-4.257,4C225.862,781.089,227.606,782.322,230.151,782.322Z" fill="#fb3600"/>
        <path d="M239.3,771.47a80.864,80.864,0,0,1,11.813,0,16.091,16.091,0,0,1,0,3.041l-4.13-.144c.033,3.745.033,7.2-.015,10.9a11.813,11.813,0,0,1-3.522,0c-.049-3.7-.049-7.155-.016-10.9l-4.13.144A16.091,16.091,0,0,1,239.3,771.47Z" fill="#fb3600"/>
        <path d="M252.9,785.011a15.905,15.905,0,0,1,0-3.265,14.4,14.4,0,0,0,5.538.96c2.513-.016,3.778-.928,3.362-3.857-7.476.448-9.268.336-9.268-3.314,0-2.545,1.489-4.546,6.675-4.546a39.232,39.232,0,0,1,5.762.609,16.061,16.061,0,0,1,0,3.281,13.838,13.838,0,0,0-5.506-.961c-2.482.017-3.73.913-3.281,3.874,7.394-.432,9.267-.384,9.267,3.3,0,2.545-1.568,4.562-6.77,4.562A37.744,37.744,0,0,1,252.9,785.011Z" fill="#fb3600"/>
      </g>
      <g>
        <path d="M41.375,705.143c0,1.28.016,2.625.016,3.985l6.322-.24a8.18,8.18,0,0,1,0,2.177l-6.322-.016c0,1.713-.016,3.441-.016,5.138a11.92,11.92,0,0,1-3.538,0c-.111-4.258-.128-9.62,0-13.717a69.483,69.483,0,0,1,10.949,0,13.97,13.97,0,0,1,0,2.833Z" fill="#fb3600"/>
        <path d="M50.572,702.47a12.611,12.611,0,0,1,3.65,0c.129,4.7.129,9,0,13.717a12.682,12.682,0,0,1-3.65,0C50.461,711.465,50.461,707.175,50.572,702.47Z" fill="#fb3600"/>
        <path d="M70.979,716.267a10.437,10.437,0,0,1-3.458,0l-.143-2.5h-.353c-.463,1.537-1.024,2.881-4.017,2.881-4.37,0-6.53-3.2-6.53-7.347,0-4.1,2.672-7.315,7.634-7.315a20.409,20.409,0,0,1,5.443.64,18.749,18.749,0,0,1,0,3.266c-4.962-.993-9.092-.864-9.157,3.409.049,2.818,1.442,3.794,3.586,3.89a4.022,4.022,0,0,0,3.3-1.3l-.095-2.433a18.288,18.288,0,0,1,3.617,0A64.278,64.278,0,0,1,70.979,716.267Z" fill="#fb3600"/>
        <path d="M86.162,716.187a12.675,12.675,0,0,1-3.649,0c-.016-1.809-.016-3.569-.016-5.33H76.942c0,1.761-.015,3.521-.032,5.33a12.675,12.675,0,0,1-3.649,0c-.112-4.722-.112-9.092,0-13.8a22.915,22.915,0,0,1,3.649,0c.017,2.16.032,4.257.032,6.354H82.5c0-2.1,0-4.194.016-6.354a22.915,22.915,0,0,1,3.649,0C86.29,707.1,86.29,711.465,86.162,716.187Z" fill="#fb3600"/>
        <path d="M88,702.47a80.878,80.878,0,0,1,11.814,0,16.26,16.26,0,0,1,0,3.041l-4.13-.144c.032,3.745.032,7.2-.016,10.9a11.806,11.806,0,0,1-3.521,0c-.049-3.7-.049-7.155-.017-10.9l-4.13.144A16.091,16.091,0,0,1,88,702.47Z" fill="#fb3600"/>
        <path d="M101.628,702.47a12.6,12.6,0,0,1,3.649,0c.129,4.7.129,9,0,13.717a12.675,12.675,0,0,1-3.649,0C101.517,711.465,101.517,707.175,101.628,702.47Z" fill="#fb3600"/>
        <path d="M107.932,702.47a15.893,15.893,0,0,1,3.906,0l5.538,9.635h.352V702.47a13.208,13.208,0,0,1,3.553,0c.113,4.513.113,9.2,0,13.717a16.083,16.083,0,0,1-3.922,0l-5.521-9.668h-.368v9.668a13.1,13.1,0,0,1-3.538,0C107.82,711.673,107.82,706.983,107.932,702.47Z" fill="#fb3600"/>
        <path d="M125.837,700.693c1.217,0,2,.432,2,1.745,0,1.456-.192,2.929-3.138,3.073a2.272,2.272,0,0,1-.176-1.185c.592-.1,1.793-.112,1.649-1.088a1.381,1.381,0,0,1-2.321-1.041C123.852,701.125,124.637,700.693,125.837,700.693Z" fill="#fb3600"/>
        <path d="M148.945,716.187a12.675,12.675,0,0,1-3.649,0c-.016-1.809-.016-3.569-.016-5.33h-5.554c0,1.761-.016,3.521-.033,5.33a12.675,12.675,0,0,1-3.649,0c-.111-4.722-.111-9.092,0-13.8a22.915,22.915,0,0,1,3.649,0c.017,2.16.033,4.257.033,6.354h5.554c0-2.1,0-4.194.016-6.354a22.915,22.915,0,0,1,3.649,0C149.073,707.1,149.073,711.465,148.945,716.187Z" fill="#fb3600"/>
        <path d="M165.2,716.139a14.651,14.651,0,0,1-4.178.16l-.752-3.329h-4.513l-.752,3.329a14.653,14.653,0,0,1-4.178-.16c1.393-4.642,2.736-9.2,4.321-13.669a28.435,28.435,0,0,1,5.731,0C162.465,706.936,163.793,711.5,165.2,716.139Zm-5.313-4.9-1.409-6.21h-.945l-1.392,6.21Z" fill="#fb3600"/>
        <path d="M168.653,702.47a18.791,18.791,0,0,1,5.682,0l2.1,10.084h.368l2.08-10.084a18.792,18.792,0,0,1,5.682,0c.849,4.513,1.521,9.155,2.1,13.669a9.479,9.479,0,0,1-4.081.08L181.4,705.255h-.721l-2.369,10.932a6.774,6.774,0,0,1-3.394,0l-2.352-10.932h-.721l-1.184,10.964a9.552,9.552,0,0,1-4.1-.08C167.148,711.625,167.82,706.983,168.653,702.47Z" fill="#fb3600"/>
        <path d="M188.748,716.011a15.905,15.905,0,0,1,0-3.265,14.4,14.4,0,0,0,5.538.96c2.513-.016,3.777-.928,3.361-3.857-7.475.448-9.267.336-9.267-3.314,0-2.545,1.488-4.546,6.675-4.546a39.21,39.21,0,0,1,5.761.609,15.92,15.92,0,0,1,0,3.281,13.831,13.831,0,0,0-5.5-.961c-2.482.017-3.73.913-3.282,3.874,7.4-.432,9.268-.384,9.268,3.3,0,2.545-1.568,4.562-6.771,4.562A37.723,37.723,0,0,1,188.748,716.011Z" fill="#fb3600"/>
      </g>
      <g>
        <path d="M51.061,571.405a11.92,11.92,0,0,1,3.538,0c.111,3.714.111,7.187,0,10.949l6.61-.192a16.091,16.091,0,0,1,0,3.041,59.7,59.7,0,0,1-10.148,0C50.949,580.177,50.949,575.855,51.061,571.405Z" fill="#fb3600"/>
        <path d="M62.757,578.417c0-4.307,2.528-7.38,7.747-7.38s7.779,3.073,7.779,7.38c0,4.209-2.546,7.234-7.779,7.234S62.757,582.626,62.757,578.417Zm7.81,3.9c2.434,0,4.2-1.233,4.2-3.954,0-2.705-1.761-4-4.227-4-2.545,0-4.257,1.3-4.257,4C66.278,581.089,68.022,582.322,70.567,582.322Z" fill="#fb3600"/>
        <path d="M80.133,578.417c0-4.307,2.528-7.38,7.747-7.38s7.779,3.073,7.779,7.38c0,4.209-2.546,7.234-7.779,7.234S80.133,582.626,80.133,578.417Zm7.81,3.9c2.434,0,4.2-1.233,4.2-3.954,0-2.705-1.761-4-4.226-4-2.546,0-4.258,1.3-4.258,4C83.654,581.089,85.4,582.322,87.943,582.322Z" fill="#fb3600"/>
        <path d="M107.513,578.417a40.7,40.7,0,0,1,3.056,6.738,11.853,11.853,0,0,1-4.065.16l-2.112-5.762h-2.77c0,1.873,0,3.761-.016,5.714a13.016,13.016,0,0,1-3.7,0c-.111-4.77-.111-9.123,0-13.877a12.943,12.943,0,0,1,3.7,0c.016,2.064.016,4.081.016,6.082l2.77-.016,2.129-6.1a13.5,13.5,0,0,1,4.1.128A43.043,43.043,0,0,1,107.513,578.417Z" fill="#fb3600"/>
        <path d="M112.612,571.47a12.611,12.611,0,0,1,3.65,0c.129,4.7.129,9,0,13.717a12.682,12.682,0,0,1-3.65,0C112.5,580.465,112.5,576.175,112.612,571.47Z" fill="#fb3600"/>
        <path d="M118.916,571.47a15.893,15.893,0,0,1,3.906,0l5.538,9.635h.352V571.47a13.216,13.216,0,0,1,3.554,0c.112,4.513.112,9.2,0,13.717a16.083,16.083,0,0,1-3.922,0l-5.522-9.668h-.368v9.668a13.1,13.1,0,0,1-3.538,0C118.805,580.673,118.805,575.983,118.916,571.47Z" fill="#fb3600"/>
        <path d="M136.821,569.693c1.217,0,2,.432,2,1.745,0,1.456-.192,2.929-3.137,3.073a2.252,2.252,0,0,1-.176-1.185c.592-.1,1.793-.112,1.648-1.088a1.381,1.381,0,0,1-2.321-1.041C134.836,570.125,135.621,569.693,136.821,569.693Z" fill="#fb3600"/>
        <path d="M147.028,571.47a57.652,57.652,0,0,1,11.269,0,12.748,12.748,0,0,1,0,2.72l-7.731-.352c.016,1.281.016,2.481.016,3.7l6.083-.1a5.611,5.611,0,0,1,0,1.792l-6.083-.1c0,1.232,0,2.417-.016,3.665l7.731-.336a12.758,12.758,0,0,1,0,2.721,58.927,58.927,0,0,1-11.269,0C146.917,580.929,146.9,575.567,147.028,571.47Z" fill="#fb3600"/>
        <path d="M171.336,581.233c-.448.064-1.072.113-1.776.144a37.871,37.871,0,0,1-.033,3.81,18.142,18.142,0,0,1-4.369,0,33.744,33.744,0,0,1-.016-3.81c-.7-.031-1.329-.08-1.777-.144-1.217-3.153-2.177-6.4-3.2-9.732a11.48,11.48,0,0,1,4.178-.144l2.577,8.132h.832l2.608-8.132a11.122,11.122,0,0,1,4.178.161C173.513,574.847,172.553,578.08,171.336,581.233Z" fill="#fb3600"/>
        <path d="M176.42,571.47a57.641,57.641,0,0,1,11.268,0,12.748,12.748,0,0,1,0,2.72l-7.73-.352c.016,1.281.016,2.481.016,3.7l6.083-.1a5.669,5.669,0,0,1,0,1.792l-6.083-.1c0,1.232,0,2.417-.016,3.665l7.73-.336a12.758,12.758,0,0,1,0,2.721,58.916,58.916,0,0,1-11.268,0C176.309,580.929,176.292,575.567,176.42,571.47Z" fill="#fb3600"/>
      </g>
      <g style="mix-blend-mode: multiply">
        <g>
          <line x1="163" y1="800" x2="163" y2="806" fill="none" stroke="#a2e4fd" stroke-linecap="round" stroke-linejoin="round" stroke-width="3"/>
          <line x1="163" y1="813" x2="163" y2="823.5" fill="none" stroke="#a2e4fd" stroke-linecap="round" stroke-linejoin="round" stroke-width="3" stroke-dasharray="7 7"/>
          <polyline points="163 827 163 833 169 833" fill="none" stroke="#a2e4fd" stroke-linecap="round" stroke-linejoin="round" stroke-width="3"/>
          <line x1="181.366" y1="833" x2="274.113" y2="833" fill="none" stroke="#a2e4fd" stroke-linecap="round" stroke-linejoin="round" stroke-width="3" stroke-dasharray="12.366 12.366"/>
          <line x1="280.296" y1="833" x2="286.296" y2="833" fill="none" stroke="#a2e4fd" stroke-linecap="round" stroke-linejoin="round" stroke-width="3"/>
          <rect x="281.098" y="828.049" width="9.902" height="9.902" fill="#a2e4fd"/>
        </g>
      </g>
      <g style="mix-blend-mode: multiply">
        <g>
          <line x1="83" y1="675" x2="83" y2="669" fill="none" stroke="#a2e4fd" stroke-linecap="round" stroke-linejoin="round" stroke-width="3"/>
          <polyline points="83 658 83 652 89 652" fill="none" stroke="#a2e4fd" stroke-linecap="round" stroke-linejoin="round" stroke-width="3"/>
          <line x1="99.296" y1="652" x2="105.296" y2="652" fill="none" stroke="#a2e4fd" stroke-linecap="round" stroke-linejoin="round" stroke-width="3"/>
          <rect x="100.098" y="647.049" width="9.902" height="9.902" fill="#a2e4fd"/>
        </g>
      </g>
      <g>
        <path d="M205.012,573.549l-6-.049H199a1.5,1.5,0,0,0-.011,3l6,.049H205a1.5,1.5,0,0,0,.012-3Z" fill="#a2e4fd"/>
        <path d="M227.692,573.733l-11.34-.092h-.013a1.5,1.5,0,0,0-.011,3l11.339.091h.013a1.5,1.5,0,0,0,.012-3Z" fill="#a2e4fd"/>
        <path d="M273.051,574.1l-11.34-.092H261.7a1.5,1.5,0,0,0-.012,3l11.339.092h.013a1.5,1.5,0,0,0,.012-3Z" fill="#a2e4fd"/>
        <path d="M250.371,573.917l-11.34-.093h-.012a1.5,1.5,0,0,0-.012,3l11.34.091h.013a1.5,1.5,0,0,0,.011-3Z" fill="#a2e4fd"/>
        <path d="M291.835,574.252l-7.444-.06h-.012a1.5,1.5,0,0,0-.013,3l4.566.037A36.573,36.573,0,0,1,291.835,574.252Z" fill="#a2e4fd"/>
        <path d="M295.719,577.284a1.5,1.5,0,0,0,.011-3l-3.9-.032a36.573,36.573,0,0,0-2.9,2.977l6.774.055Z"/>
        <path d="M307.07,574.376h-.012a1.5,1.5,0,0,0-.012,3l.8.007.025-3Z"/>
        <polygon points="307.872 574.382 307.847 577.383 307.819 580.833 317.72 580.914 317.801 571.012 307.9 570.931 307.872 574.382"/>
      </g>
      <g>
        <path d="M378.147,357.953l-.382-1.451.382,1.451-7.474,1.969a1.5,1.5,0,0,1-1.833-1.068l-5.075-19.262c-.443.187-.869.371-1.261.548l7.788,29.555,7.474-1.969c11.2-2.951,17.994-9.854,15.651-19.783a16.567,16.567,0,0,1-2.907,3.652A28.172,28.172,0,0,1,378.147,357.953Z" fill="none"/>
        <path d="M568.668,382.131c.319-.153.647-.3.964-.454l-19.069-82.009-1.007.266Z" fill="none"/>
        <path d="M602.928,312.209,607,311.135l-1.12-9.378-2.575.678a1.5,1.5,0,0,1-1.766-.871l-29.98-71.626c-29.974,2.73-66.525,12.364-93.943,24.762.235,3.09.5,6.175.744,9.263,27.781-12.336,64.261-21.821,94.159-24.4Z" fill="none"/>
        <path d="M749.183,334.89c.789-.37,1.589-.734,2.365-1.113q-26.676-68.514-58.319-135.892c-29.969,2.724-66.521,12.353-93.948,24.749l1.089,9.111c27.734-12.253,64.013-21.662,93.774-24.227Q723.815,270.548,749.183,334.89Z" fill="none"/>
        <path d="M803.282,171.492c31.594-8.325,72.7-12.254,73.552-12.478A299.558,299.558,0,0,1,890.061,205c.179.037.361.068.54.106a296.4,296.4,0,0,0-14.77-55.673l-.937.108c-1.268.145-3.063.349-5.293.614-4.459.529-10.652,1.3-17.8,2.323-14.3,2.045-32.434,5.1-48.135,9.242-20.282,5.343-35.41,11.6-46.346,18.481S739.646,194.56,736,202.39a37.83,37.83,0,0,0-3.513,16.206c0,.054,0,.109,0,.163C737.776,200.111,757.758,183.489,803.282,171.492Z" fill="none"/>
        <path d="M386.066,430.244c.423-.184.847-.368,1.259-.552l-6.847-25.986-1.314.346Z" fill="none"/>
        <path d="M203.247,478.231c.174-.074.357-.146.53-.22l-2.192-11.725-.544.144Z" fill="none"/>
        <path d="M817.891,278.635c13.457-3.546,21.023-11.864,18.266-21.364a18.787,18.787,0,0,1-3.478,4.279c-3.5,3.232-8.422,5.732-14.406,7.312-12.556,3.3-31.331,7.6-49.538,7.6a88.657,88.657,0,0,1-18.249-1.745c.548,3.365,1.175,6.716,1.84,10.059C774.454,288.935,801.488,282.957,817.891,278.635Z" fill="none"/>
        <path d="M305.247,451.892c1.266-.509,2.522-1.02,3.745-1.539q-38.084-68.1-79.826-130.127c-13.137,1.568-31.468,5.438-49.581,10.212s-36.017,10.45-48.3,15.582c-.257,3.29-.485,6.6-.725,9.9,25.034-10.483,72.955-23.077,99.344-26.072Q269.164,388.025,305.247,451.892Z" fill="none"/>
        <path d="M460.461,316.87c.072.273.134.549.2.823a49.691,49.691,0,0,0-1.654-11.664c-2.388-9.04-7.075-17.431-15.463-23.623s-20.584-10.226-38.157-10.229c-12.757,0-28.33,2.137-47.241,7.121a503.343,503.343,0,0,0-74.339,25.894c.582,2.736,1.228,5.665,1.919,8.73a512.989,512.989,0,0,1,72.039-24.85C429.108,270.272,453.791,291.562,460.461,316.87Z" fill="none"/>
        <path d="M194.8,427.569a1.494,1.494,0,0,1-.672-.993l-6.68-35.948-.533.141,8.688,46.756,16.816-4.43-3.087-8.859-13.347,3.517A1.5,1.5,0,0,1,194.8,427.569Z" fill="none"/>
        <path d="M432.432,371.124c30.085-3.032,44.456,19.592,50.465,33.859.652-.317,1.317-.626,1.958-.949-.182-.7-.457-1.684-.843-2.911a78.612,78.612,0,0,0-3.912-9.943c-3.7-7.8-9.751-17.107-19.025-23.24a40.369,40.369,0,0,0-16.245-6.281,55.1,55.1,0,0,1-13.294,6.068Z" fill="none"/>
        <path d="M898.657,229.906a27.549,27.549,0,0,0-13.571-8.732,42.625,42.625,0,0,0-12.053-1.568c-8.247,0-17.939,1.762-29,4.9s-23.5,7.63-37.278,13.051a1.5,1.5,0,0,1-1.573-.3,13.541,13.541,0,0,0,1.026,10.129c57.276-22.541,91.831-29.285,102.528,11.311q.181.688.346,1.374a52.175,52.175,0,0,0-1.8-12.215C905.242,240.116,902.345,234.232,898.657,229.906Z" fill="none"/>
        <path d="M124.272,501.811c0,3.244-.011,6.48.009,9.732,25.615-2.753,57.888-11.257,81.194-21.395l-1.663-8.9c-23.274,9.783-54.378,17.869-79.372,20.56A1.569,1.569,0,0,1,124.272,501.811Z" fill="#a2e4fd"/>
        <path d="M228.518,472.976,220.977,451.5l-18.206,4.8,1.723,9.219,17.44-4.6,8,22.779c25.275-2.664,57.718-11.213,81.194-21.395-1.453-2.6-2.926-5.179-4.387-7.77-23.095,9.32-52.924,16.928-76.65,19.433A1.5,1.5,0,0,1,228.518,472.976Z" fill="#a2e4fd"/>
        <path d="M125.775,498.63c24.571-2.839,54.981-10.85,77.472-20.4l-2.206-11.8.544-.144-2.019-10.8a1.5,1.5,0,0,1,1.092-1.726l20.893-5.506a1.5,1.5,0,0,1,1.8.953l7.6,21.646c23.063-2.567,51.934-9.973,74.3-18.957Q269.184,388.183,229.9,329.849c-26.389,3-74.31,15.589-99.344,26.072-3.142,43.318-4.813,87.67-4.813,132.821Q125.744,493.679,125.775,498.63Zm60.759-120.536,9.851-2.6a1.5,1.5,0,0,1,1.8.957l15.652,44.923a1.5,1.5,0,0,1-1.034,1.944l-3.469.914,3.087,8.859-16.816,4.43-8.688-46.756.533-.141-2.008-10.81A1.5,1.5,0,0,1,186.534,378.094Z" fill="#a2e4fd"/>
        <path d="M432.581,361.392a1.5,1.5,0,0,1-1.6-1.11l-.9-3.4a1.5,1.5,0,0,1,1-1.814c11.049-3.472,18.4-8.879,23.033-15.241a35.585,35.585,0,0,0,6.574-21.283c0-.284-.025-.569-.03-.854-.068-.274-.13-.55-.2-.823-6.67-25.308-31.353-46.6-102.694-27.8a512.989,512.989,0,0,0-72.039,24.85c7.976,35.374,22.8,91.21,35.323,133.216,19.266-1.989,47-9.074,65.015-16.894l-6.9-26.192,1.314-.346-2.765-10.5a1.5,1.5,0,0,1,1.068-1.833L390.84,388.2a1.5,1.5,0,0,1,1.68.7l19.846,34.2c21.689-.593,48.913-7.612,70.531-18.112-6.009-14.267-20.38-36.891-50.465-33.859l-.9-3.4a55.1,55.1,0,0,0,13.294-6.068,45.725,45.725,0,0,0-7.018-.535Q435.286,361.124,432.581,361.392ZM394.11,346.6a14.7,14.7,0,0,1-.693,1.344c2.343,9.929-4.453,16.832-15.651,19.783l-7.474,1.969L362.5,340.14c.392-.177.818-.361,1.261-.548L361.052,329.3a1.5,1.5,0,0,1,.835-1.75,49.819,49.819,0,0,1,7.528-2.731,33.045,33.045,0,0,1,8.378-1.166,18.783,18.783,0,0,1,10.729,2.972,15.633,15.633,0,0,1,6.244,9.233,18.238,18.238,0,0,1,.631,4.653A14.681,14.681,0,0,1,394.11,346.6Z" fill="#a2e4fd"/>
        <path d="M410.224,425.382,390.5,391.392l-9.5,2.5,2.383,9.045,7.846-2.068,20.3,34.979c23.13-.464,52.516-8.207,75.079-19.784a64.823,64.823,0,0,0-2.582-8.279c-22.3,10.78-50.136,17.881-72.466,18.339A1.5,1.5,0,0,1,410.224,425.382Z" fill="#a2e4fd"/>
        <path d="M318.53,449.184c-12.542-41.972-27.488-98.159-35.6-134.017-.553.251-.839.385-.839.385,7.254,34.42,24.039,98.118,37.876,144.427,20.385-1.92,50.664-9.718,69.134-18.218l-2.262-8.583c-18.823,8.081-47.146,15.215-66.732,17.07A1.5,1.5,0,0,1,318.53,449.184Z" fill="#a2e4fd"/>
        <path d="M433.345,357.483l.218.827c1.447-.113,2.87-.186,4.249-.186a47.21,47.21,0,0,1,10.409,1.125c10.011-7.88,13.956-18.564,13.973-29.41a36.45,36.45,0,0,1-5.649,11.756C451.7,348.263,444.142,353.847,433.345,357.483Z" fill="#a2e4fd"/>
        <path d="M568.668,382.131l-19.112-82.2,1.007-.266-2.469-10.619a1.5,1.5,0,0,1,1.078-1.79l4.586-1.209a1.5,1.5,0,0,1,1.749.831l39.91,88c11.325-.428,19.938-1.433,28.211-3.612s16.267-5.558,26.326-10.765l-8.64-96.238a1.5,1.5,0,0,1,1.112-1.584l4.586-1.209a1.5,1.5,0,0,1,1.821,1.026l26.906,91.214a211.839,211.839,0,0,0,73.444-18.827q-25.351-64.2-55.039-127.372c-29.761,2.565-66.04,11.974-93.774,24.227l8.123,67.988a1.5,1.5,0,0,1-1.107,1.628l-1.5.4,1.12,9.378-4.076,1.074-30.4-72.644c-29.9,2.577-66.378,12.062-94.159,24.4,3.711,46.252,8.881,92.249,15.476,137.723A211.5,211.5,0,0,0,568.668,382.131Z" fill="#a2e4fd"/>
        <path d="M491.065,403.494q-1.119-7.692-2.176-15.405,1.761,13.23,3.662,26.412a212.051,212.051,0,0,0,78.815-20.769l-2-8.6c-23.057,10.97-51.5,18.285-76.736,19.645A1.5,1.5,0,0,1,491.065,403.494Z" fill="#a2e4fd"/>
        <path d="M594.518,377.921a1.5,1.5,0,0,1-1.417-.88l-39.8-87.767-1.952.515,2.12,9.114.678-.178,40.324,88.92c23.765-.812,36-4.034,57.074-15.039l-.819-9.12c-9.878,5.082-17.95,8.48-26.33,10.688C615.583,376.5,606.455,377.513,594.518,377.921Z" fill="#a2e4fd"/>
        <path d="M673.2,355.719l-26.834-90.97-1.952.515.848,9.449,2.132-.561,27.246,92.367a212.051,212.051,0,0,0,78.815-20.769c-1.043-2.683-2.112-5.363-3.166-8.044-22.844,10.662-50.764,17.75-75.57,19.087A1.5,1.5,0,0,1,673.2,355.719Z" fill="#a2e4fd"/>
        <path d="M806.2,247.382a13.541,13.541,0,0,1-1.026-10.129,1.489,1.489,0,0,1-.325-.439,16.209,16.209,0,0,1-1.738-7.109,14.11,14.11,0,0,1,1.469-6.249,18.1,18.1,0,0,1,4.076-5.321,33.522,33.522,0,0,1,14.158-7.163c12.761-3.36,31.445-7.634,49.51-7.638A88.193,88.193,0,0,1,890.061,205a299.558,299.558,0,0,0-13.227-45.985c-.85.224-41.958,4.153-73.552,12.478-45.524,12-65.506,28.619-70.8,47.267a52.146,52.146,0,0,0,1.835,13.089c2.031,7.708,4.925,13.583,8.618,17.909a27.672,27.672,0,0,0,13.616,8.746,42.892,42.892,0,0,0,12.119,1.576c8.21,0,17.856-1.737,28.871-4.851s23.4-7.594,37.13-13.036a1.5,1.5,0,0,1,1.909.756,16.237,16.237,0,0,1,1.643,6.944,14.275,14.275,0,0,1-1.461,6.275c-.182.376-.395.74-.608,1.1,2.757,9.5-4.809,17.818-18.266,21.364-16.4,4.322-43.437,10.3-65.565,6.144a293.465,293.465,0,0,0,12.843,45.286c.29-.032.612-.068,1-.109,1.284-.14,3.091-.333,5.33-.583,4.478-.5,10.682-1.228,17.843-2.209,14.32-1.961,32.475-4.935,48.256-9.094,20.326-5.355,35.509-11.637,46.5-18.548s17.775-14.427,21.456-22.292a37.863,37.863,0,0,0,3.545-16.269c0-.3-.01-.6-.016-.894q-.165-.685-.346-1.374C898.035,218.1,863.48,224.841,806.2,247.382Z" fill="#a2e4fd"/>
        <path d="M835.227,249.892a12.674,12.674,0,0,0-.824-4.371c-13.227,5.215-25.245,9.542-36.043,12.594-11.175,3.156-21.056,4.961-29.687,4.964-7.035,0-13.258-1.208-18.6-3.92a31.817,31.817,0,0,1-13.15-12.739,55.009,55.009,0,0,1-5.507-13.808q-.221-.837-.417-1.674a54.532,54.532,0,0,0,1.869,12.516c10.519,39.918,44.383,34.21,100.917,11.925.095-.174.194-.346.279-.521A11.291,11.291,0,0,0,835.227,249.892Z" fill="#a2e4fd"/>
        <path d="M908.267,278.5A49.567,49.567,0,0,1,895.7,294.673c-11.617,10.18-29.975,19.082-57.341,26.3a414.469,414.469,0,0,1-45.22,8.691c-13.789,1.964-24.719,3.052-27.878,3.411-.412.047-.706.084-.775.1h0l0-.01a1.493,1.493,0,0,1-1.72-.925A296.791,296.791,0,0,1,749.117,284.1c-.159-.038-.321-.071-.479-.11a294.427,294.427,0,0,0,15.531,58.941c1.019-.268,42.047-3.813,73.811-12.183,54.45-14.348,72.6-35.378,72.612-58.534A40.2,40.2,0,0,1,908.267,278.5Z" fill="#a2e4fd"/>
        <path d="M823.582,213.873a34.077,34.077,0,0,0-10.383,4.5,17.005,17.005,0,0,0-5.921,6.4,11.081,11.081,0,0,0-1.163,4.928,12.4,12.4,0,0,0,.732,4.042c2.975-4.516,8.761-8.1,16.354-10.1,17.666-4.655,46.686-11.03,69.254-5.351-.522-3.371-1.126-6.734-1.768-10.093a83.51,83.51,0,0,0-18.359-1.869C854.728,206.33,836.239,210.535,823.582,213.873Z" fill="#a2e4fd"/>
        <polygon points="208.343 421.394 196.769 388.172 190.358 389.861 196.783 424.44 208.343 421.394" fill="none"/>
        <polygon points="208.343 421.394 210.47 420.834 195.808 378.752 188.645 380.64 190.358 389.861 196.769 388.172 208.343 421.394" fill="#a2e4fd"/>
        <path d="M377.382,355.052a28.38,28.38,0,0,0,8.9-3.885,14.319,14.319,0,0,0,5.09-5.8,11.56,11.56,0,0,0,.54-1.5c-3.789-7.092-12.239-8.977-22.116-6.374-1.1.291-2.187.638-3.22,1l4.78,18.143Z" fill="none"/>
        <path d="M391.915,343.865a11.89,11.89,0,0,0,.482-3.356,15.253,15.253,0,0,0-.532-3.889,12.611,12.611,0,0,0-5.035-7.519,15.806,15.806,0,0,0-9.037-2.451,30.1,30.1,0,0,0-7.613,1.068,44.557,44.557,0,0,0-5.9,2.06l2.3,8.718c1.033-.367,2.118-.714,3.22-1C379.676,334.888,388.126,336.773,391.915,343.865Z" fill="#a2e4fd"/>
        <path d="M203.777,478.011c-.173.074-.356.146-.53.22l.565,3.02c.753-.317,1.523-.63,2.26-.951a1.5,1.5,0,0,0,.876-1.651l-2.454-13.129-2.909.766Z" fill="#fb3600"/>
        <path d="M231.145,317.786a1.5,1.5,0,0,0-1.413-.651c-13.443,1.527-32.281,5.494-50.912,10.4S141.8,338.29,129.267,343.608a1.5,1.5,0,0,0-.909,1.264c-3.677,46.81-5.614,94.881-5.614,143.87q0,5.785.036,11.587a1.485,1.485,0,0,0,1.492,1.482c-.048-49.582,1.863-98.243,5.582-145.6.227-.1.471-.2.7-.292.24-3.3.468-6.611.725-9.9,12.286-5.132,30.187-10.809,48.3-15.582s36.444-8.644,49.581-10.212q41.7,61.866,79.826,130.127c-1.223.519-2.479,1.03-3.745,1.539l1.494,2.646c1.7-.684,3.364-1.376,4.983-2.078a1.5,1.5,0,0,0,.713-2.107Q273.694,380.938,231.145,317.786Z" fill="#fb3600"/>
        <path d="M125.775,498.63q-.027-4.948-.031-9.888c0-45.151,1.671-89.5,4.813-132.821-.232.1-.476.195-.7.292-3.719,47.355-5.63,96.016-5.582,145.6a1.569,1.569,0,0,0,.168,0c24.994-2.691,56.1-10.777,79.372-20.56l-.565-3.02C180.756,487.78,150.346,495.791,125.775,498.63Z"/>
        <path d="M230.951,470.849l-7.6-21.646a1.5,1.5,0,0,0-1.8-.953l-20.893,5.506a1.5,1.5,0,0,0-1.092,1.726l2.019,10.8,2.909-.766-1.723-9.219,18.206-4.8,7.541,21.473a1.5,1.5,0,0,0,1.573,1c23.726-2.5,53.555-10.113,76.65-19.433l-1.494-2.646C282.885,460.876,254.014,468.282,230.951,470.849Z"/>
        <path d="M196.783,424.44l-6.425-34.579-2.909.767,6.68,35.948a1.5,1.5,0,0,0,1.857,1.177l13.347-3.517-.99-2.842Z" fill="#fb3600"/>
        <path d="M187.449,390.628l2.909-.767-1.713-9.221,7.163-1.888,14.662,42.082-2.127.56.99,2.842,3.469-.914a1.5,1.5,0,0,0,1.034-1.944l-15.652-44.923a1.5,1.5,0,0,0-1.8-.957l-9.851,2.6a1.5,1.5,0,0,0-1.093,1.724Z"/>
        <path d="M283.809,305.192A503.343,503.343,0,0,1,358.148,279.3c18.911-4.984,34.484-7.122,47.241-7.121,17.573,0,29.766,4.042,38.157,10.229s13.075,14.583,15.463,23.623a49.691,49.691,0,0,1,1.654,11.664,50.476,50.476,0,0,1,1.531,12.146,42.061,42.061,0,0,0,1.5-11.292,52.319,52.319,0,0,0-1.783-13.283c-2.5-9.527-7.557-18.62-16.584-25.272s-21.919-10.818-39.937-10.815c-13.092,0-28.907,2.188-48.006,7.22a497.388,497.388,0,0,0-75.928,26.573,1.5,1.5,0,0,0-.832,1.668c.687,3.261,1.46,6.785,2.307,10.529.609-.276,1.561-.7,2.8-1.245C285.037,310.857,284.391,307.928,283.809,305.192Z" fill="#fb3600"/>
        <path d="M478.1,381.42a54.375,54.375,0,0,0-15.372-15.981,43.265,43.265,0,0,0-14.51-6.19q-1.593,1.254-3.391,2.41a40.369,40.369,0,0,1,16.245,6.281c9.274,6.133,15.326,15.437,19.025,23.24a78.612,78.612,0,0,1,3.912,9.943c.386,1.227.661,2.215.843,2.911-.641.323-1.306.632-1.958.949.412.979.785,1.918,1.121,2.807,1.1-.53,2.2-1.061,3.266-1.61a1.5,1.5,0,0,0,.782-1.651A77.481,77.481,0,0,0,478.1,381.42Z" fill="#fb3600"/>
        <path d="M387.325,429.692c-.412.184-.836.368-1.259.552l.773,2.934c.987-.424,1.955-.849,2.888-1.278a1.5,1.5,0,0,0,.823-1.745l-7.171-27.213-2.9.764Z" fill="#fb3600"/>
        <path d="M412.366,423.1,392.52,388.9a1.5,1.5,0,0,0-1.68-.7l-12.059,3.178a1.5,1.5,0,0,0-1.068,1.833l2.765,10.5,2.9-.764L381,393.9l9.5-2.5,19.725,33.99a1.5,1.5,0,0,0,1.328.747c22.33-.458,50.167-7.559,72.466-18.339-.336-.889-.709-1.828-1.121-2.807C461.279,415.483,434.055,422.5,412.366,423.1Z"/>
        <path d="M460.693,318.547a35.585,35.585,0,0,1-6.574,21.283c-4.633,6.362-11.984,11.769-23.033,15.241a1.5,1.5,0,0,0-1,1.814l.9,3.4a1.5,1.5,0,0,0,1.6,1.11q2.706-.272,5.231-.268a45.725,45.725,0,0,1,7.018.535q1.8-1.154,3.391-2.41a47.21,47.21,0,0,0-10.409-1.125c-1.379,0-2.8.073-4.249.186l-.218-.827c10.8-3.636,18.352-9.22,23.2-15.888a36.45,36.45,0,0,0,5.649-11.756,50.476,50.476,0,0,0-1.531-12.146C460.668,317.978,460.693,318.263,460.693,318.547Z"/>
        <path d="M321.051,447.138C308.532,405.132,293.7,349.3,285.728,313.922c-1.237.542-2.189.969-2.8,1.245,8.112,35.858,23.058,92.045,35.6,134.017a1.5,1.5,0,0,0,1.577,1.064c19.586-1.855,47.909-8.989,66.732-17.07l-.773-2.934C368.053,438.064,340.317,445.149,321.051,447.138Z"/>
        <path d="M391.915,343.865a11.56,11.56,0,0,1-.54,1.5,14.319,14.319,0,0,1-5.09,5.8,28.38,28.38,0,0,1-8.9,3.885l-6.023,1.587-4.78-18.143c-1,.357-1.95.731-2.814,1.1l5.075,19.262a1.5,1.5,0,0,0,1.833,1.068l7.474-1.969-.382-1.451.382,1.451A28.172,28.172,0,0,0,390.51,351.6a16.567,16.567,0,0,0,2.907-3.652c-.038-.162-.058-.318-.1-.482A16.486,16.486,0,0,0,391.915,343.865Z" fill="#fb3600"/>
        <path d="M388.522,326.623a18.783,18.783,0,0,0-10.729-2.972,33.045,33.045,0,0,0-8.378,1.166,49.819,49.819,0,0,0-7.528,2.731,1.5,1.5,0,0,0-.835,1.75l2.713,10.294c.864-.365,1.812-.739,2.814-1.1l-2.3-8.718a44.557,44.557,0,0,1,5.9-2.06,30.1,30.1,0,0,1,7.613-1.068,15.806,15.806,0,0,1,9.037,2.451,12.611,12.611,0,0,1,5.035,7.519,15.253,15.253,0,0,1,.532,3.889,11.89,11.89,0,0,1-.482,3.356,16.486,16.486,0,0,1,1.4,3.6c.043.164.063.32.1.482a14.537,14.537,0,0,0,1.98-7.434,18.238,18.238,0,0,0-.631-4.653A15.633,15.633,0,0,0,388.522,326.623Z"/>
        <path d="M650.722,363.486c.506-.261,1-.5,1.511-.774a1.5,1.5,0,0,0,.8-1.464l-7.769-86.535-2.455.647Z" fill="#fb3600"/>
        <path d="M569.632,381.677c-.317.154-.645.3-.964.454l.7,3c.892-.424,1.792-.843,2.667-1.278a1.5,1.5,0,0,0,.793-1.683L553.465,298.9l-2.9.765Z" fill="#fb3600"/>
        <path d="M695.5,195.655a1.5,1.5,0,0,0-1.486-.856c-30.941,2.673-68.739,12.633-96.977,25.555a1.5,1.5,0,0,0-.865,1.542l9.187,76.9-1.553.409-29.9-71.439a1.5,1.5,0,0,0-1.512-.915c-30.94,2.671-68.738,12.632-96.976,25.554a1.5,1.5,0,0,0-.872,1.476q5.1,67.566,14.344,134.211-8.13-61.083-12.847-123.1c.758-.347,1.55-.683,2.322-1.026-.248-3.088-.509-6.173-.744-9.263,27.418-12.4,63.969-22.032,93.943-24.762l29.98,71.626a1.5,1.5,0,0,0,1.766.871l2.575-.678-8.222-68.816c.884-.4,1.8-.8,2.708-1.2l-1.089-9.111c27.427-12.4,63.979-22.025,93.948-24.749q31.6,67.217,58.319,135.892c-.776.379-1.576.743-2.365,1.113q.555,1.407,1.108,2.816c1.291-.6,2.575-1.211,3.832-1.837a1.5,1.5,0,0,0,.73-1.886C736.783,287.482,716.969,241.26,695.5,195.655Z" fill="#fb3600"/>
        <path d="M675.739,353.717,648.833,262.5a1.5,1.5,0,0,0-1.821-1.026l-4.586,1.209a1.5,1.5,0,0,0-1.112,1.584l8.64,96.238c-10.059,5.207-18.057,8.585-26.326,10.765s-16.886,3.184-28.211,3.612l-39.91-88a1.5,1.5,0,0,0-1.749-.831l-4.586,1.209a1.5,1.5,0,0,0-1.078,1.79l2.469,10.619,2.9-.765-2.12-9.114,1.952-.515,39.8,87.767a1.5,1.5,0,0,0,1.417.88c11.937-.408,21.065-1.426,29.874-3.747,8.38-2.208,16.452-5.606,26.33-10.688l-7.913-88.126,2.455-.647-.848-9.449,1.952-.515,26.834,90.97a1.5,1.5,0,0,0,1.519,1.074c24.806-1.337,52.726-8.425,75.57-19.087q-.554-1.409-1.108-2.816A211.839,211.839,0,0,1,675.739,353.717Z"/>
        <path d="M608.493,299.733l-8.123-67.988c-.9.4-1.824.792-2.708,1.2l8.222,68.816,1.5-.4A1.5,1.5,0,0,0,608.493,299.733Z"/>
        <path d="M493.84,401.686c-6.595-45.474-11.765-91.471-15.476-137.723-.772.343-1.564.679-2.322,1.026q4.673,61.929,12.847,123.1,1.067,7.71,2.176,15.405a1.5,1.5,0,0,0,1.565,1.281c25.232-1.36,53.679-8.675,76.736-19.645l-.7-3A211.5,211.5,0,0,1,493.84,401.686Z"/>
        <path d="M806.751,237.554c13.773-5.421,26.212-9.918,37.278-13.051s20.757-4.9,29-4.9a42.625,42.625,0,0,1,12.053,1.568,27.549,27.549,0,0,1,13.571,8.732c3.688,4.326,6.585,10.21,8.624,17.946a52.175,52.175,0,0,1,1.8,12.215,51.92,51.92,0,0,1,1.514,12.143,41.853,41.853,0,0,0,1.5-11.249,54.467,54.467,0,0,0-1.912-13.873,55.192,55.192,0,0,0-5.513-13.839,31.774,31.774,0,0,0-13.124-12.737c-5.323-2.706-11.518-3.907-18.512-3.906-8.672,0-18.6,1.834-29.822,5.011-10.849,3.072-22.921,7.416-36.2,12.616-.062-.164-.108-.324-.164-.486a13.744,13.744,0,0,0-1.669,3.506A1.5,1.5,0,0,0,806.751,237.554Z" fill="#fb3600"/>
        <path d="M732.485,218.759c0-.054,0-.109,0-.163A37.83,37.83,0,0,1,736,202.39c3.651-7.83,10.382-15.306,21.322-22.19s26.064-13.138,46.346-18.481c15.7-4.138,33.836-7.2,48.135-9.242,7.151-1.024,13.344-1.794,17.8-2.323,2.23-.265,4.025-.469,5.293-.614l.937-.108a296.4,296.4,0,0,1,14.77,55.673c-.179-.038-.361-.069-.54-.106.216,1.067.421,2.136.626,3.2.468.107.938.208,1.4.324a1.5,1.5,0,0,0,1.848-1.684,299.264,299.264,0,0,0-15.7-59.58,1.491,1.491,0,0,0-1.71-.928l0-.012h0c-.066.012-.352.049-.758.1-3.1.367-14.013,1.54-27.779,3.581a435.392,435.392,0,0,0-45.087,8.818c-27.308,7.2-45.587,16.064-57.14,26.2a49.193,49.193,0,0,0-12.484,16.1,40.849,40.849,0,0,0-3.793,17.473A53.788,53.788,0,0,0,731,230.938,40.691,40.691,0,0,1,732.485,218.759Z" fill="#fb3600"/>
        <path d="M750.486,274.72a88.657,88.657,0,0,0,18.249,1.745c18.207,0,36.982-4.3,49.538-7.6,5.984-1.58,10.91-4.08,14.406-7.312a18.787,18.787,0,0,0,3.478-4.279,16.692,16.692,0,0,0-.928-2.46l-1.442.568a17.551,17.551,0,0,1-5.681,5.976,34.478,34.478,0,0,1-10.6,4.606c-12.448,3.282-31.03,7.507-48.773,7.5A82.706,82.706,0,0,1,749,271.306a1.5,1.5,0,0,0-1.843,1.685c.576,3.716,1.247,7.415,1.964,11.105q1.586.38,3.209.683C751.661,281.436,751.034,278.085,750.486,274.72Z" fill="#fb3600"/>
        <path d="M836.157,257.271c.213-.364.426-.728.608-1.1a14.275,14.275,0,0,0,1.461-6.275,16.237,16.237,0,0,0-1.643-6.944,1.5,1.5,0,0,0-1.909-.756c-13.726,5.442-26.113,9.923-37.13,13.036s-20.661,4.853-28.871,4.851a42.892,42.892,0,0,1-12.119-1.576,27.672,27.672,0,0,1-13.616-8.746c-3.693-4.326-6.587-10.2-8.618-17.909a52.146,52.146,0,0,1-1.835-13.089A40.691,40.691,0,0,0,731,230.938q.2.837.417,1.674a55.009,55.009,0,0,0,5.507,13.808,31.817,31.817,0,0,0,13.15,12.739c5.34,2.712,11.563,3.92,18.6,3.92,8.631,0,18.512-1.808,29.687-4.964,10.8-3.052,22.816-7.379,36.043-12.594a12.674,12.674,0,0,1,.824,4.371,11.291,11.291,0,0,1-1.161,4.966c-.085.175-.184.347-.279.521l1.442-.568A16.692,16.692,0,0,1,836.157,257.271Z"/>
        <path d="M872.328,203.334c-18.065,0-36.749,4.278-49.51,7.638a33.522,33.522,0,0,0-14.158,7.163,18.1,18.1,0,0,0-4.076,5.321,14.11,14.11,0,0,0-1.469,6.249,16.209,16.209,0,0,0,1.738,7.109,1.489,1.489,0,0,0,.325.439,13.744,13.744,0,0,1,1.669-3.506,12.4,12.4,0,0,1-.732-4.042,11.081,11.081,0,0,1,1.163-4.928,17.005,17.005,0,0,1,5.921-6.4,34.077,34.077,0,0,1,10.383-4.5c12.657-3.338,31.146-7.543,48.746-7.539a83.51,83.51,0,0,1,18.359,1.869c-.205-1.068-.41-2.137-.626-3.2A88.193,88.193,0,0,0,872.328,203.334Z"/>
        <path d="M764.484,333.159l0,.01h0c.069-.012.363-.049.775-.1,3.159-.359,14.089-1.447,27.878-3.411a414.469,414.469,0,0,0,45.22-8.691c27.366-7.216,45.724-16.118,57.341-26.3A49.567,49.567,0,0,0,908.267,278.5a40.2,40.2,0,0,0,2.325-6.291,51.92,51.92,0,0,0-1.514-12.143c.006.3.016.6.016.894a37.863,37.863,0,0,1-3.545,16.269c-3.681,7.865-10.463,15.378-21.456,22.292s-26.171,13.193-46.5,18.548c-15.781,4.159-33.936,7.133-48.256,9.094-7.161.981-13.365,1.709-17.843,2.209-2.239.25-4.046.443-5.33.583-.386.041-.708.077-1,.109a293.465,293.465,0,0,1-12.843-45.286q-1.623-.3-3.209-.683a296.791,296.791,0,0,0,13.647,48.138A1.493,1.493,0,0,0,764.484,333.159Z"/>
      </g>
      <path d="M338.876,851.614a5.834,5.834,0,0,0-.824,2.974,5.914,5.914,0,0,0,1.679,4.1,5.786,5.786,0,0,0,4.163,1.778,6.03,6.03,0,0,0,1.481-.187l9.239-2.342a13.915,13.915,0,0,0,6.955-4.221,4.988,4.988,0,0,0,9.369-.671l5.159-18.4a30.881,30.881,0,0,0,3.959,3.791l-.5,10.854-4.309,7.325a5.834,5.834,0,0,0-.824,2.974,5.91,5.91,0,0,0,1.679,4.1,5.786,5.786,0,0,0,4.163,1.778,6.036,6.036,0,0,0,1.481-.187l9.238-2.342a13.921,13.921,0,0,0,6.955-4.22,4.989,4.989,0,0,0,9.37-.673l5.488-19.575a1.5,1.5,0,0,0,0-.809,31.642,31.642,0,0,0,2.834-2.839q-1.887-.179-3.807-.342a26.7,26.7,0,0,1-3.37,2.757,54.443,54.443,0,0,1-25.391-.342l-.119-.03A27.569,27.569,0,0,1,378.652,833q-1.782-.014-3.577-.015-3.823,0-7.58.063a54.3,54.3,0,0,1-7.38.527c-1.432,0-2.862-.077-4.291-.19q-6.218.261-12.169.685l-.469,10.224Z"/>
    </g>
  </g>
</svg>
