<svg xmlns="http://www.w3.org/2000/svg" xmlns:xlink="http://www.w3.org/1999/xlink" width="866" height="1288.151" viewBox="0 0 866 1288.151">
  <defs>
    <clipPath id="a">
      <path d="M600.424,671.616a79.911,79.911,0,1,1,103.109-46.258" fill="none"/>
    </clipPath>
    <clipPath id="b">
      <path d="M265.9,671.616a79.911,79.911,0,1,0-103.11-46.258" fill="none"/>
    </clipPath>
    <clipPath id="c">
      <path d="M515.678,469.5A100.874,100.874,0,0,0,433,512.483a101,101,0,1,0,0,116.034A101,101,0,1,0,515.678,469.5Z" fill="none"/>
    </clipPath>
    <clipPath id="d">
      <ellipse cx="593.872" cy="515.408" rx="82.45" ry="107.913" transform="translate(-74.08 930.342) rotate(-72.803)" fill="none"/>
    </clipPath>
    <clipPath id="e">
      <ellipse cx="271.872" cy="515.408" rx="107.913" ry="82.45" transform="translate(-140.233 103.426) rotate(-17.197)" fill="none"/>
    </clipPath>
    <clipPath id="f">
      <rect x="-1357.143" y="192.534" width="1024" height="1024" fill="none"/>
    </clipPath>
    <clipPath id="g">
      <polygon points="-686.157 463.193 -365.025 574.534 -365.025 223.534 -686.157 223.534 -686.157 463.193" fill="none"/>
    </clipPath>
    <clipPath id="h">
      <rect x="-79.992" y="-1148.554" width="1024" height="1024" fill="none"/>
    </clipPath>
    <clipPath id="i">
      <polygon points="590.994 -877.895 912.126 -766.554 912.126 -1117.554 590.994 -1117.554 590.994 -877.895" fill="none"/>
    </clipPath>
  </defs>
  <title>spec-goiters-toy</title>
  <g>
    <polygon points="866 1248 0 1248 50 1289 816 1289 866 1248" fill="#a2e4fd"/>
    <rect width="866" height="1248" fill="#fb3600"/>
    <g>
      <path d="M77.794,267.418A220.9,220.9,0,0,1,69.953,222.4c16.625,5.658,38.837,2.725,52.07.42,11.157-1.943,17.5-8.528,14.47-16.689-44.328,13.336-70.375,15.734-75.731-15.013-3.774-21.665,7.626-40.626,57.183-49.258,24.13-4.2,55.087-4.516,55.735-4.63a223.358,223.358,0,0,1,7.887,45.277c-16.5-5.682-38.578-2.771-52.07-.421-10.9,1.9-17.388,8.376-14.21,16.644,44.219-13.182,70.46-16.016,75.861,14.989,3.774,21.665-7.887,40.672-57.444,49.3C109.445,267.25,78.574,267.282,77.794,267.418Z" fill="#fab900"/>
      <path d="M338.116,221c-18.765,6.61-27.846,8.192-53.968,9.4l-10.08-22.572-2.595.452c-.371,26.264-10.5,32.572-27.625,35.555-33.86,5.9-44.259-27.711-51.151-67.28-2.147-12.324-4.5-28.89-6.645-41.214,20.649-6.539,35.309-9.092,56.952-9.921l9.536,54.746c1.9,10.9,7.1,12.4,11.516,11.628a22.515,22.515,0,0,0,8.675-3.917L261.3,122.237a199.489,199.489,0,0,1,57.86-10.079C326.781,148.256,333.085,184.451,338.116,221Z" fill="#fab900"/>
      <path d="M329.83,108.961c12.742-4.357,47.475-12.145,68.1-15.739,35.936-6.259,57.845,14.385,61.89,37.607,4.067,23.351-9.57,50.188-45.5,56.448-6.1,1.062-11.828,1.927-17.3,2.746L400.7,211.17c-14.727,5.237-35.874,8.921-51.5,8.971C341.437,183.263,335,146.291,329.83,108.961Zm67,46.208c8.693-1.514,14.264-6.361,12.909-14.144-1.333-7.655-8.239-10.462-16.931-8.948a36.221,36.221,0,0,0-5.617,1.514l3.931,22.573Z" fill="#fab900"/>
      <path d="M461.217,87.412c33.345-11.155,78.1-18.952,113.125-19.706a186.323,186.323,0,0,1,6.575,37.751l-62.367,6.454,2.012,11.546,38.585-7.925a66.2,66.2,0,0,1,3.91,22.443l-38.992,5.589,1.966,11.287,60.876-15.015a186.392,186.392,0,0,1,6.576,37.752,424.486,424.486,0,0,1-113.125,19.706C472.688,160.936,466.292,124.222,461.217,87.412Z" fill="#fab900"/>
      <path d="M585.3,65.4a371.938,371.938,0,0,1,58.213-14.952c54.486-9.491,71.566,7.985,74.933,27.315,2.577,14.789-2.716,31.216-24.849,36.141l.452,2.595c32.8-.5,37.6,37.026,37.6,37.026-17.592,7.208-40.035,11.118-57.341,9.989l-12.931-27.422-9.211,1.6,5.018,28.8c-14.338,5.17-37.452,9.063-52.8,9.2C597,140.217,588.527,91.568,585.3,65.4Zm68.135,45.074c8.691-1.514,14.263-6.361,12.908-14.144-1.334-7.655-8.238-10.462-16.931-8.948A36.354,36.354,0,0,0,643.8,88.89l3.932,22.574Z" fill="#fab900"/>
    </g>
    <g>
      <path d="M378.622,248.638c29.549-9.445,78.123-17.906,109.26-19.032a249.927,249.927,0,0,1,7.759,44.537l-28.018,3.911,12.494,71.718c-15.275,5.434-37.208,9.254-53.42,9.305L414.2,287.359l-27.823,5.817A250.1,250.1,0,0,1,378.622,248.638Z" fill="#fcfcfc"/>
      <path d="M505.652,286.264c-6.352-36.465,12.538-66.513,60.574-74.88,48.306-8.415,76.376,13.453,82.728,49.918,6.211,35.657-12.859,65.459-61.165,73.874C539.753,343.543,511.864,321.922,505.652,286.264Zm73.939-.542c11.168-1.945,18.292-7.206,16.792-15.818-1.476-8.477-9.983-11.153-21.151-9.208-11.707,2.039-18.673,7.411-17.2,15.888C559.535,285.2,567.884,287.762,579.591,285.722Z" fill="#fcfcfc"/>
      <path d="M790,259.192a236.947,236.947,0,0,1-23.979,6.4,161.648,161.648,0,0,1,5.04,32.118c-19.445,6.161-47.164,10.989-67.412,11.742a161.581,161.581,0,0,1-5.848-31.977,236.714,236.714,0,0,1-24.729,2.089,708.463,708.463,0,0,1-29.508-77.071c18.808-7.436,44.373-11.89,64.318-11.2l16.484,55.634,5.921-1.032-3.03-57.978c18.539-7.388,44.24-11.865,64.319-11.2A708.916,708.916,0,0,1,790,259.192Z" fill="#fcfcfc"/>
    </g>
    <polygon points="759.337 346.913 768.783 316 780.804 346.913 807.424 341.761 789.391 364.087 799.696 392.424 771.359 368.38 745.598 395 752.467 364.087 731 347.772 759.337 346.913" fill="#fab900"/>
    <polygon points="294 310.556 294 281.222 312.667 310.556 340.222 300.778 323.333 327.444 340.222 355.889 310 343.444 294 371 291.333 333.667 260.222 320.333 294 310.556" fill="#fcfcfc"/>
    <polygon points="777 81 782 61 793 82 812 81 799 99 810 125 786 108 768 126 773 100 752 82 777 81" fill="#a2e4fd"/>
    <polygon points="71 326 75 294 90 318 118 309 107 335 131 360 94 350 76 385 74 344 45 331 71 326" fill="#a2e4fd"/>
    <polygon points="89 56 100 24 111 56 140 56 120 73 134 102 105 86 79 117 86 77 59 52 89 56" fill="#fcfcfc"/>
    <g>
      <path d="M214.209,97.846a24.637,24.637,0,0,1-8.074,1.337l-1.3-5.775-.822.137c-.49,3.767-1.278,7.123-8.268,8.28-10.206,1.689-16.489-4.951-18.091-14.632-1.584-9.57,3.415-18.116,15-20.034a48.222,48.222,0,0,1,12.955-.608,43.742,43.742,0,0,1,1.262,7.626c-11.971-.4-21.565,1.5-20.062,11.5,1.2,6.56,4.831,8.3,9.876,7.7a9.533,9.533,0,0,0,7.2-4.3l-1.164-5.645a43.232,43.232,0,0,1,8.447-1.4A152.2,152.2,0,0,1,214.209,97.846Z" fill="#a2e4fd"/>
      <path d="M215.965,81.119C214.3,71.066,219.018,62.911,231.2,60.894c12.223-2.023,19.354,4.17,21.019,14.223,1.628,9.832-3.146,17.88-15.368,19.9C224.666,97.037,217.592,90.95,215.965,81.119Zm19.75,6.1c5.682-.94,9.317-4.5,8.266-10.853-1.047-6.317-5.659-8.665-11.416-7.712-5.943.984-9.442,4.674-8.4,10.992C225.221,86,229.772,88.2,235.715,87.22Z" fill="#a2e4fd"/>
      <path d="M254.8,58.024a29.944,29.944,0,0,1,8.523-1.41c2.118,10.939,3.776,20.957,5.3,32.033a30.007,30.007,0,0,1-8.522,1.41C258.017,79.075,256.359,69.056,254.8,58.024Z" fill="#a2e4fd"/>
      <path d="M267.619,55.9a191.3,191.3,0,0,1,27.586-4.567,38.11,38.11,0,0,1,1.176,7.1l-9.7,1.258c1.521,8.735,2.858,16.809,4.176,25.461a27.891,27.891,0,0,1-8.223,1.362c-1.543-8.615-2.879-16.69-4.252-25.449L268.8,63.005A38.072,38.072,0,0,1,267.619,55.9Z" fill="#a2e4fd"/>
      <path d="M299.461,50.632a136.463,136.463,0,0,1,26.315-4.356,30.439,30.439,0,0,1,1.052,6.354L308.638,54.8c.532,2.985,1,5.788,1.467,8.628l14.167-2.576a13.313,13.313,0,0,1,.693,4.188l-14.242,2.126c.477,2.878.936,5.644,1.38,8.566l17.925-3.773a30.448,30.448,0,0,1,1.05,6.354,139.309,139.309,0,0,1-26.314,4.356C302.858,72.766,300.746,60.249,299.461,50.632Z" fill="#a2e4fd"/>
      <path d="M332.056,45.735a70.079,70.079,0,0,1,14.835-4.107c11.961-1.98,16.846,2.012,17.805,7.805.724,4.374-.571,9.081-6.733,10.6l.106.636c5.461.746,8.748,8.766,10.345,11.228a21.057,21.057,0,0,1-9.027,1.839l-6.7-10.065-8.821,1.46,1.856,10.753a29.731,29.731,0,0,1-8.484,1.4C335.326,67.352,333.174,54.344,332.056,45.735Zm17.693,13.623c5.8-.921,7.011-4.041,6.5-7.143s-3.132-5.242-8.478-4.357a38.756,38.756,0,0,0-6.355,1.743l1.713,10.815Z" fill="#a2e4fd"/>
      <path d="M373.536,70.858a37.713,37.713,0,0,1-1.262-7.625c4.135,1.082,9.5.77,13.3.1,5.864-1.01,8.463-3.63,6.359-10.309-17.282,3.937-21.513,4.367-22.923-4.155-.984-5.943,1.719-11.191,13.829-13.195a92.96,92.96,0,0,1,13.692-.808,37.98,37.98,0,0,1,1.268,7.664c-4.1-1.127-9.385-.79-13.228-.115-5.79,1-8.358,3.572-6.166,10.315,17.1-3.869,21.494-4.48,22.917,4.116.983,5.945-1.9,11.26-14.048,13.271A89.207,89.207,0,0,1,373.536,70.858Z" fill="#a2e4fd"/>
    </g>
  </g>
  <g>
    <g>
      <path d="M477.178,605.5A75.138,75.138,0,0,0,433,619.792a75.5,75.5,0,1,0,0,122.416A75.494,75.494,0,1,0,477.178,605.5Z" fill="#fab900" stroke="#fb3600" stroke-linecap="round" stroke-linejoin="round" stroke-width="4"/>
      <path d="M496.178,520A95.132,95.132,0,0,0,433,543.892a95.5,95.5,0,1,0,0,143.216A95.5,95.5,0,1,0,496.178,520Z" fill="#fab900"/>
      <path d="M485.158,510c-20,0-38.258,9.026-52.158,23.892C419.1,519.026,400.843,510,380.842,510,337.3,510,302,552.757,302,605.5S337.3,701,380.842,701c20,0,38.258-9.026,52.158-23.892C446.9,691.974,465.157,701,485.158,701,528.7,701,564,658.243,564,605.5S528.7,510,485.158,510Z" fill="#a2e4fd"/>
      <path d="M501.084,490A107.2,107.2,0,0,0,433,513.892,107.2,107.2,0,0,0,364.916,490C308.077,490,262,532.757,262,585.5S308.077,681,364.916,681A107.2,107.2,0,0,0,433,657.108,107.2,107.2,0,0,0,501.084,681C557.923,681,604,638.243,604,585.5S557.923,490,501.084,490Z" fill="#fab900"/>
      <path d="M496.178,520A95.132,95.132,0,0,0,433,543.892a95.5,95.5,0,1,0,0,143.216A95.5,95.5,0,1,0,496.178,520Z" fill="none" stroke="#fb3600" stroke-linecap="round" stroke-linejoin="round" stroke-width="4"/>
      <g>
        <ellipse cx="665.317" cy="692.137" rx="79.911" ry="96.748" transform="translate(-196.601 269.293) rotate(-20)" fill="#a2e4fd"/>
        <ellipse cx="665.317" cy="692.137" rx="79.911" ry="96.748" transform="translate(-196.601 269.293) rotate(-20)" fill="none" stroke="#fb3600" stroke-linecap="round" stroke-linejoin="round" stroke-width="4"/>
        <path d="M600.424,671.616a79.911,79.911,0,1,1,103.109-46.258" fill="#a2e4fd"/>
        <circle cx="635.327" cy="609" r="60" fill="#fcfcfc"/>
        <ellipse cx="665.2" cy="691.818" rx="52.465" ry="63.519" transform="translate(-196.499 269.234) rotate(-20)" fill="#fcfcfc"/>
        <g clip-path="url(#a)">
          <ellipse cx="599.199" cy="530.408" rx="82.45" ry="107.913" transform="translate(-84.657 945.995) rotate(-72.803)" fill="#a2e4fd"/>
          <path d="M659.327,619c2-31-30.478-51-30.478-51" fill="none" stroke="#fb3600" stroke-linecap="round" stroke-linejoin="round" stroke-width="4"/>
          <path d="M365.648,474.5a100.875,100.875,0,0,1,82.679,42.983,101,101,0,1,1,0,116.034A101,101,0,1,1,365.648,474.5Z" fill="#a2e4fd"/>
        </g>
        <path d="M629.313,756.686a92.945,92.945,0,0,0-7.6,50.934c5.593,44.775,40.107,77.326,77.089,72.706s62.428-44.662,56.835-89.436c-2.88-23.048-13.423-42.858-28.021-56.025" fill="#a2e4fd"/>
        <ellipse cx="687.589" cy="781.337" rx="40.311" ry="52.339" transform="translate(-124.734 130.647) rotate(-9.956)" fill="#fcfcfc"/>
        <path d="M629.313,756.686a92.945,92.945,0,0,0-7.6,50.934c5.593,44.775,40.107,77.326,77.089,72.706s62.428-44.662,56.835-89.436c-2.88-23.048-13.423-42.858-28.021-56.025" fill="none" stroke="#fb3600" stroke-linecap="round" stroke-linejoin="round" stroke-width="4"/>
        <g>
          <path d="M691.563,936.655a16.312,16.312,0,0,1-13.992-7.812,3,3,0,0,0-2.556-1.431c-.074,0-.149,0-.224.008q-.606.045-1.211.046a16.494,16.494,0,0,1-14.837-9.377,16.408,16.408,0,0,1,7.793-21.859,3,3,0,0,0,1.678-3.181l-3.489-21.986a88.872,88.872,0,0,1,52.473.01l-3.167,22.02a3,3,0,0,0,1.684,3.137,16.41,16.41,0,0,1-7.046,31.237c-.164,0-.552-.009-.583-.009a3,3,0,0,0-2.552,1.424,16.309,16.309,0,0,1-13.971,7.773Z" fill="#fb3600"/>
          <path d="M690.944,870.107a85.641,85.641,0,0,1,22.914,3.113l-2.8,19.445a6,6,0,0,0,3.368,6.275A13.409,13.409,0,0,1,720.8,916.8a13.48,13.48,0,0,1-12.13,7.664c-.134,0-.268,0-.4-.007l-.181,0a6,6,0,0,0-5.1,2.847,13.406,13.406,0,0,1-22.854-.031,6,6,0,0,0-5.113-2.862c-.148,0-.3.006-.446.017-.327.024-.66.037-.988.037a13.481,13.481,0,0,1-12.129-7.663,13.411,13.411,0,0,1,6.37-17.863,6,6,0,0,0,3.355-6.361L668.1,873.2a85.694,85.694,0,0,1,22.843-3.093m0-6a91.863,91.863,0,0,0-29.257,4.783l-.327.11,3.891,24.519a19.41,19.41,0,0,0,8.33,36.947q.715,0,1.433-.054a19.409,19.409,0,0,0,33.073.046q.291.009.582.009A19.41,19.41,0,0,0,717,893.519L720.527,869a91.86,91.86,0,0,0-29.583-4.893Z" fill="#fab900"/>
          <path d="M665.251,893.519a19.41,19.41,0,0,0,9.763,36.893,19.409,19.409,0,0,0,33.073.046A19.41,19.41,0,0,0,717,893.519L720.527,869h0a91.873,91.873,0,0,0-58.84-.11l-.327.11Z" fill="none" stroke="#fb3600" stroke-linecap="round" stroke-linejoin="round" stroke-width="4"/>
        </g>
        <path d="M600.424,671.616a79.911,79.911,0,1,1,103.109-46.258" fill="none" stroke="#fb3600" stroke-linecap="round" stroke-linejoin="round" stroke-width="4"/>
        <path d="M643.637,668.6a60.155,60.155,0,0,0,32.94-16.063" fill="none" stroke="#fb3600" stroke-linecap="round" stroke-linejoin="round" stroke-width="4"/>
        <path d="M662.1,751.932a60.163,60.163,0,0,0,36.024-6.73" fill="none" stroke="#fab900" stroke-linecap="round" stroke-linejoin="round" stroke-width="4"/>
      </g>
      <g>
        <g>
          <path d="M406.5,737c-7.642,0-13.86-6.931-13.86-15.45a16.216,16.216,0,0,1,4.264-11.139,3,3,0,0,0,0-4.094,16.671,16.671,0,0,1,0-22.27,3,3,0,0,0,0-4.094,16.671,16.671,0,0,1,0-22.27,3,3,0,0,0,0-4.093,16.217,16.217,0,0,1-4.264-11.131c0-8.528,6.218-15.459,13.86-15.459H459.14c7.643,0,13.86,6.931,13.86,15.451a16.222,16.222,0,0,1-4.263,11.139,3,3,0,0,0,0,4.093,16.674,16.674,0,0,1,0,22.27,3,3,0,0,0-.086,4c.034.041.069.08.1.119a16.672,16.672,0,0,1-.019,22.247,3,3,0,0,0,0,4.094A16.209,16.209,0,0,1,473,721.542c0,8.527-6.217,15.458-13.86,15.458Z" fill="#fb3600"/>
          <path d="M459.14,630c5.988,0,10.86,5.585,10.86,12.459a13.222,13.222,0,0,1-3.457,9.084,6,6,0,0,0,0,8.187,13.674,13.674,0,0,1,0,18.176,6,6,0,0,0-.143,8.029c.051.06.1.119.159.178a13.673,13.673,0,0,1-.016,18.157,6,6,0,0,0,0,8.187A13.227,13.227,0,0,1,470,721.549c0,6.866-4.872,12.451-10.86,12.451H406.5c-5.988,0-10.86-5.585-10.86-12.459a13.222,13.222,0,0,1,3.457-9.084,6,6,0,0,0,0-8.187,13.674,13.674,0,0,1,0-18.176,6,6,0,0,0,0-8.188,13.674,13.674,0,0,1,0-18.176,6,6,0,0,0,0-8.187,13.228,13.228,0,0,1-3.457-9.093c0-6.865,4.872-12.45,10.86-12.45H459.14m0-6H406.5c-9.311,0-16.86,8.261-16.86,18.45v.009a19.268,19.268,0,0,0,5.071,13.177,19.273,19.273,0,0,0-5.071,13.178v.008A19.271,19.271,0,0,0,394.707,682a19.271,19.271,0,0,0-5.071,13.178v.008a19.273,19.273,0,0,0,5.071,13.178,19.268,19.268,0,0,0-5.071,13.177v.008c0,10.19,7.549,18.451,16.86,18.451H459.14c9.311,0,16.86-8.261,16.86-18.451v-.008a19.272,19.272,0,0,0-5.07-13.177A19.277,19.277,0,0,0,476,695.186v-.008a19.271,19.271,0,0,0-5.046-13.15L471,682h-.07A19.275,19.275,0,0,0,476,668.822v-.008a19.277,19.277,0,0,0-5.07-13.178A19.272,19.272,0,0,0,476,642.459v-.009c0-10.189-7.549-18.45-16.86-18.45Z" fill="#fab900"/>
          <path d="M476,642.451c0-10.19-7.548-18.451-16.86-18.451H406.5c-9.311,0-16.86,8.261-16.86,18.451v.007a19.269,19.269,0,0,0,5.071,13.178,19.271,19.271,0,0,0-5.071,13.178v.008A19.271,19.271,0,0,0,394.707,682a19.271,19.271,0,0,0-5.071,13.178v.008a19.273,19.273,0,0,0,5.071,13.178,19.268,19.268,0,0,0-5.071,13.177v.008c0,10.19,7.549,18.451,16.86,18.451H459.14c9.312,0,16.86-8.261,16.86-18.451v-.008a19.272,19.272,0,0,0-5.07-13.177A19.277,19.277,0,0,0,476,695.186v-.008a19.276,19.276,0,0,0-5.046-13.15L471,682h-.07A19.275,19.275,0,0,0,476,668.822v-.008a19.275,19.275,0,0,0-5.07-13.178A19.273,19.273,0,0,0,476,642.458Z" fill="none" stroke="#fb3600" stroke-linecap="round" stroke-linejoin="round" stroke-width="4"/>
        </g>
        <path d="M399.5,680.906h0a28.479,28.479,0,0,0,32.075.792l1.265-.792,1.669,1.026a28.471,28.471,0,0,0,31.852-.93l.139-.1" fill="none" stroke="#fab900" stroke-linecap="round" stroke-linejoin="round" stroke-width="4"/>
        <path d="M399.5,707.17h0a28.479,28.479,0,0,0,32.075.792l1.265-.792,1.669,1.026a28.467,28.467,0,0,0,31.852-.93l.139-.1" fill="none" stroke="#fab900" stroke-linecap="round" stroke-linejoin="round" stroke-width="4"/>
        <path d="M399.5,654.642h0a28.481,28.481,0,0,0,32.075.792l1.265-.792,1.669,1.026a28.471,28.471,0,0,0,31.852-.93l.139-.1" fill="none" stroke="#fab900" stroke-linecap="round" stroke-linejoin="round" stroke-width="4"/>
        <line x1="433" y1="628.377" x2="433" y2="735.623" fill="#fcfcfc" stroke="#fab900" stroke-linecap="round" stroke-linejoin="round" stroke-width="4"/>
      </g>
      <g>
        <ellipse cx="201.01" cy="692.137" rx="96.748" ry="79.911" transform="translate(-518.136 644.3) rotate(-70)" fill="#a2e4fd"/>
        <ellipse cx="201.01" cy="692.137" rx="96.748" ry="79.911" transform="translate(-518.136 644.3) rotate(-70)" fill="none" stroke="#fb3600" stroke-linecap="round" stroke-linejoin="round" stroke-width="4"/>
        <path d="M265.9,671.616a79.911,79.911,0,1,0-103.11-46.258" fill="#a2e4fd"/>
        <circle cx="231" cy="609" r="60" fill="#fcfcfc"/>
        <ellipse cx="201.126" cy="691.818" rx="63.519" ry="52.465" transform="translate(-517.759 644.199) rotate(-70)" fill="#fcfcfc"/>
        <g clip-path="url(#b)">
          <ellipse cx="267.128" cy="530.408" rx="107.913" ry="82.45" transform="translate(-144.88 102.694) rotate(-17.197)" fill="#a2e4fd"/>
          <path d="M207,619c-2-31,30.477-51,30.477-51" fill="none" stroke="#fb3600" stroke-linecap="round" stroke-linejoin="round" stroke-width="4"/>
          <path d="M500.678,474.5A100.874,100.874,0,0,0,418,517.483a101,101,0,1,0,0,116.034A101,101,0,1,0,500.678,474.5Z" fill="#a2e4fd"/>
        </g>
        <path d="M237.013,756.686a92.954,92.954,0,0,1,7.6,50.934c-5.593,44.775-40.108,77.326-77.09,72.706S105.1,835.664,110.688,790.89c2.879-23.048,13.422-42.858,28.02-56.025" fill="#a2e4fd"/>
        <ellipse cx="178.737" cy="781.337" rx="52.339" ry="40.311" transform="translate(-621.736 822.294) rotate(-80.044)" fill="#fcfcfc"/>
        <path d="M237.013,756.686a92.954,92.954,0,0,1,7.6,50.934c-5.593,44.775-40.108,77.326-77.09,72.706S105.1,835.664,110.688,790.89c2.879-23.048,13.422-42.858,28.02-56.025" fill="none" stroke="#fb3600" stroke-linecap="round" stroke-linejoin="round" stroke-width="4"/>
        <g>
          <path d="M174.764,936.655a16.314,16.314,0,0,1-13.972-7.773,3,3,0,0,0-2.552-1.424c-.031,0-.419.009-.583.009a16.41,16.41,0,0,1-7.045-31.237,3,3,0,0,0,1.684-3.137l-3.167-22.02a88.872,88.872,0,0,1,52.473-.01l-3.489,21.986a3,3,0,0,0,1.677,3.181,16.41,16.41,0,0,1,7.794,21.859,16.491,16.491,0,0,1-14.838,9.377q-.6,0-1.211-.046c-.074,0-.149-.008-.223-.008a3,3,0,0,0-2.556,1.431,16.318,16.318,0,0,1-13.992,7.812Z" fill="#fb3600"/>
          <path d="M175.383,870.107h0a85.676,85.676,0,0,1,22.842,3.093l-3.075,19.379a6,6,0,0,0,3.355,6.361,13.41,13.41,0,0,1,6.369,17.863,13.479,13.479,0,0,1-12.128,7.663c-.329,0-.661-.013-.988-.037-.15-.011-.3-.017-.447-.017a6,6,0,0,0-5.112,2.862,13.407,13.407,0,0,1-22.854.031,6,6,0,0,0-5.1-2.847l-.182,0c-.134,0-.268.007-.4.007a13.48,13.48,0,0,1-12.129-7.664,13.409,13.409,0,0,1,6.37-17.863,6,6,0,0,0,3.367-6.275l-2.8-19.445a85.643,85.643,0,0,1,22.915-3.113m0-6A91.856,91.856,0,0,0,145.8,869l3.526,24.519a19.411,19.411,0,0,0,8.331,36.948c.194,0,.389,0,.583-.009a19.408,19.408,0,0,0,33.073-.046q.717.054,1.433.054a19.41,19.41,0,0,0,8.33-36.947L204.967,869l-.328-.11a91.852,91.852,0,0,0-29.256-4.783Z" fill="#fab900"/>
          <path d="M201.076,893.519a19.41,19.41,0,0,1-9.763,36.893,19.408,19.408,0,0,1-33.073.046,19.411,19.411,0,0,1-8.914-36.939L145.8,869h0a91.87,91.87,0,0,1,58.839-.11l.328.11Z" fill="none" stroke="#fb3600" stroke-linecap="round" stroke-linejoin="round" stroke-width="4"/>
        </g>
        <path d="M265.9,671.616a79.911,79.911,0,1,0-103.11-46.258" fill="none" stroke="#fb3600" stroke-linecap="round" stroke-linejoin="round" stroke-width="4"/>
        <path d="M222.689,668.6a60.152,60.152,0,0,1-32.939-16.063" fill="none" stroke="#fb3600" stroke-linecap="round" stroke-linejoin="round" stroke-width="4"/>
        <path d="M204.232,751.932a60.16,60.16,0,0,1-36.024-6.73" fill="none" stroke="#fab900" stroke-linecap="round" stroke-linejoin="round" stroke-width="4"/>
      </g>
      <path d="M515.678,469.5A100.874,100.874,0,0,0,433,512.483a101,101,0,1,0,0,116.034A101,101,0,1,0,515.678,469.5Z" fill="#fab900"/>
      <path d="M509.971,474.5c-31.828,0-59.958,1.989-76.971,27.983-17.012-25.994-45.143-27.983-76.971-27.983C304.1,474.5,262,504.719,262,560.5a105.239,105.239,0,0,0,21.285,64c17.244,22.588,43.427,37,72.744,37,31.828,0,59.959-16.989,76.971-42.983,17.013,25.994,45.143,42.983,76.971,42.983C561.9,661.5,604,616.281,604,560.5S561.9,474.5,509.971,474.5Z" fill="#a2e4fd"/>
      <g clip-path="url(#c)">
        <ellipse cx="272.128" cy="525.408" rx="107.913" ry="82.45" transform="translate(-143.178 103.948) rotate(-17.197)" fill="#fab900"/>
        <ellipse cx="593.128" cy="525.408" rx="82.45" ry="107.913" transform="translate(-84.157 936.674) rotate(-72.803)" fill="#fab900"/>
      </g>
      <ellipse cx="433.5" cy="519.5" rx="79.5" ry="66.711" fill="#fab900"/>
      <g>
        <path d="M433.5,574.211c-42.182,0-76.5-28.581-76.5-63.711s34.318-63.71,76.5-63.71S510,475.37,510,510.5,475.683,574.211,433.5,574.211Z" fill="#fb3600"/>
        <path d="M433.5,449.789c40.528,0,73.5,27.235,73.5,60.711s-32.972,60.71-73.5,60.71S360,543.976,360,510.5s32.972-60.711,73.5-60.711m0-6c-43.907,0-79.5,29.868-79.5,66.711s35.593,66.71,79.5,66.71S513,547.343,513,510.5s-35.593-66.711-79.5-66.711Z" fill="#fab900"/>
        <ellipse cx="433.5" cy="510.5" rx="79.5" ry="66.711" fill="none" stroke="#fb3600" stroke-linecap="round" stroke-linejoin="round" stroke-width="4"/>
      </g>
      <ellipse cx="433.5" cy="510.5" rx="66.5" ry="52.5" fill="#a2e4fd" stroke="#fb3600" stroke-linecap="round" stroke-linejoin="round" stroke-width="4"/>
      <path d="M515.678,469.5A100.874,100.874,0,0,0,433,512.483a101,101,0,1,0,0,116.034A101,101,0,1,0,515.678,469.5Z" fill="none" stroke="#fb3600" stroke-linecap="round" stroke-linejoin="round" stroke-width="4"/>
      <line x1="433" y1="578" x2="433" y2="629" fill="#fcfcfc" stroke="#fb3600" stroke-linecap="round" stroke-linejoin="round" stroke-width="4"/>
      <g>
        <g>
          <ellipse cx="593.872" cy="515.408" rx="82.45" ry="107.913" transform="translate(-74.08 930.342) rotate(-72.803)" fill="#fb3600"/>
          <g clip-path="url(#d)">
            <ellipse cx="603.75" cy="489.006" rx="67.417" ry="88.237" transform="translate(-41.901 921.182) rotate(-72.803)" fill="#fab900"/>
          </g>
          <g>
            <path d="M577.794,436.405a130.816,130.816,0,0,1,38.682,5.971c53.682,16.615,87.216,62.894,74.753,103.164-4.506,14.558-14.591,26.856-29.166,35.566s-32.587,13.306-52.112,13.306a130.775,130.775,0,0,1-38.682-5.972c-26.286-8.135-48.531-23.54-62.639-43.376-13.758-19.343-18.06-40.577-12.114-59.788,4.506-14.557,14.591-26.856,29.166-35.566s32.586-13.305,52.112-13.305m0-6c-41.388,0-76.781,20.047-87.01,53.1-13.463,43.5,21.777,93.049,78.711,110.67a137.142,137.142,0,0,0,40.456,6.24c41.388,0,76.781-20.048,87.01-53.1,13.463-43.5-21.777-93.049-78.711-110.67a137.15,137.15,0,0,0-40.456-6.239Z" fill="#fab900"/>
            <ellipse cx="593.872" cy="515.408" rx="82.45" ry="107.913" transform="translate(-74.08 930.342) rotate(-72.803)" fill="none" stroke="#fb3600" stroke-linecap="round" stroke-linejoin="round" stroke-width="4"/>
          </g>
          <ellipse cx="609.8" cy="468.564" rx="19.668" ry="25.741" transform="translate(-18.112 912.563) rotate(-72.803)" fill="#fcfcfc"/>
        </g>
        <g>
          <ellipse cx="271.872" cy="515.408" rx="107.913" ry="82.45" transform="translate(-140.233 103.426) rotate(-17.197)" fill="#fb3600"/>
          <g clip-path="url(#e)">
            <ellipse cx="261.995" cy="489.006" rx="88.237" ry="67.417" transform="translate(-132.868 99.325) rotate(-17.197)" fill="#fab900"/>
          </g>
          <g>
            <path d="M287.958,430.405v6c19.523,0,37.541,4.6,52.107,13.306s24.658,21.008,29.164,35.565c5.946,19.211,1.643,40.445-12.114,59.788C343.007,564.9,320.761,580.3,294.476,588.44a130.78,130.78,0,0,1-38.682,5.972c-19.526,0-37.546-4.6-52.112-13.306s-24.66-21.008-29.166-35.566c-12.464-40.27,21.07-86.549,74.753-103.164a130.786,130.786,0,0,1,38.682-5.971l.007-6m-.007,0a137.14,137.14,0,0,0-40.456,6.239c-56.934,17.621-92.174,67.17-78.711,110.67,10.229,33.05,45.622,53.1,87.01,53.1a137.152,137.152,0,0,0,40.456-6.24c56.934-17.621,92.174-67.17,78.711-110.67-10.229-33.05-45.622-53.1-87.01-53.1Z" fill="#fab900"/>
            <ellipse cx="271.872" cy="515.408" rx="107.913" ry="82.45" transform="translate(-140.233 103.426) rotate(-17.197)" fill="none" stroke="#fb3600" stroke-linecap="round" stroke-linejoin="round" stroke-width="4"/>
          </g>
          <ellipse cx="255.945" cy="468.564" rx="25.741" ry="19.668" transform="translate(-127.095 96.622) rotate(-17.197)" fill="#fcfcfc"/>
        </g>
      </g>
      <path d="M384.506,520.291C344.777,474.1,377.417,406,433,406c55.536,0,88.27,68.044,48.494,114.291" fill="#a2e4fd"/>
      <circle cx="433" cy="472.5" r="66.5" fill="#a2e4fd"/>
      <g>
        <circle cx="418.7" cy="513.5" r="16.5" fill="#fcfcfc"/>
        <circle cx="447.3" cy="513.5" r="16.5" fill="#fcfcfc"/>
      </g>
      <g>
        <path d="M384.506,520.291C344.777,474.1,377.417,406,433,406c55.536,0,88.27,68.044,48.494,114.291" fill="none" stroke="#fb3600" stroke-linecap="round" stroke-linejoin="round" stroke-width="4"/>
        <g>
          <path d="M376.144,443.92c-11.13-11.13-3.536-43.84-3.536-43.84s32.711-7.595,43.841,3.535a28.371,28.371,0,0,1,7.472,13.125" fill="#a2e4fd" stroke="#fb3600" stroke-linecap="round" stroke-linejoin="round" stroke-width="4"/>
          <path d="M489.856,443.92c11.13-11.13,3.536-43.84,3.536-43.84s-32.711-7.595-43.841,3.535a28.371,28.371,0,0,0-7.472,13.125" fill="#a2e4fd"/>
          <ellipse cx="433" cy="454.5" rx="35" ry="30.5" fill="#fcfcfc"/>
          <path d="M489.856,443.92c11.13-11.13,3.536-43.84,3.536-43.84s-32.711-7.595-43.841,3.535a28.371,28.371,0,0,0-7.472,13.125" fill="none" stroke="#fb3600" stroke-linecap="round" stroke-linejoin="round" stroke-width="4"/>
        </g>
      </g>
      <ellipse cx="433" cy="500" rx="18" ry="11" fill="#a2e4fd"/>
      <path d="M449.556,504.288a23.413,23.413,0,0,1-33.112,0" fill="none" stroke="#fb3600" stroke-linecap="round" stroke-linejoin="round" stroke-width="4"/>
      <g>
        <ellipse cx="424.5" cy="486" rx="11.5" ry="10" fill="#fcfcfc"/>
        <ellipse cx="441.5" cy="486" rx="11.5" ry="10" fill="#fcfcfc"/>
        <path d="M413.722,491A12.3,12.3,0,0,0,433,493.874,12.3,12.3,0,0,0,452.278,491" fill="none" stroke="#fb3600" stroke-linecap="round" stroke-linejoin="round" stroke-width="4"/>
      </g>
      <path d="M397.757,527A22.483,22.483,0,0,0,433,532.255,22.483,22.483,0,0,0,468.243,527" fill="none" stroke="#fb3600" stroke-linecap="round" stroke-linejoin="round" stroke-width="4"/>
      <g>
        <circle cx="433" cy="465.5" r="19.5" fill="#a2e4fd" stroke="#a2e4fd" stroke-linecap="round" stroke-linejoin="round" stroke-width="4"/>
        <circle cx="433" cy="461.5" r="19.5" fill="#fb3600" stroke="#fb3600" stroke-linecap="round" stroke-linejoin="round" stroke-width="4"/>
        <circle cx="433" cy="461.5" r="7" fill="#fab900" stroke="#fab900" stroke-linecap="round" stroke-linejoin="round" stroke-width="4"/>
      </g>
      <circle cx="438.5" cy="456.5" r="5.5" fill="#fcfcfc" stroke="#fcfcfc" stroke-linecap="round" stroke-linejoin="round" stroke-width="4"/>
      <g>
        <ellipse cx="333.399" cy="956.698" rx="70.546" ry="58.269" transform="translate(-657.249 1168.932) rotate(-82.879)" fill="#a2e4fd"/>
        <ellipse cx="333.399" cy="956.698" rx="70.546" ry="58.269" transform="translate(-657.249 1168.932) rotate(-82.879)" fill="none" stroke="#fb3600" stroke-linecap="round" stroke-linejoin="round" stroke-width="4"/>
        <g>
          <path d="M290.4,1071.123a7.544,7.544,0,0,1-6.491-3.86,7.348,7.348,0,0,1,.07-7.551l10.877-18.487a3,3,0,0,0,.411-1.384l1.123-24.531a138.63,138.63,0,0,0,64.881.377L349.4,1058.018a5.455,5.455,0,0,1-10.327.527l-2.224-5.645a3,3,0,0,0-2.57-1.892c-.075-.005-.149-.008-.222-.008a3,3,0,0,0-2.6,1.5,27.165,27.165,0,0,1-16.775,12.708l-22.333,5.662A7.957,7.957,0,0,1,290.4,1071.123Z" fill="#fb3600"/>
          <path d="M299.218,1019.051a141.61,141.61,0,0,0,57.818.619l-10.525,37.538a2.454,2.454,0,0,1-4.647.237l-2.224-5.644a6,6,0,0,0-5.141-3.785c-.148-.011-.3-.016-.443-.016a6,6,0,0,0-5.2,3.006,24.143,24.143,0,0,1-14.912,11.3l-22.334,5.662a4.947,4.947,0,0,1-1.216.158,4.56,4.56,0,0,1-3.886-2.35,4.373,4.373,0,0,1,.051-4.541l10.877-18.485a6,6,0,0,0,.822-2.768l.958-20.928m66.34-7.551a135.608,135.608,0,0,1-69.3.686l-2.7-.686-1.292,28.2L281.39,1058.19a10.577,10.577,0,0,0,9.006,15.933,10.922,10.922,0,0,0,2.691-.342l22.334-5.662A30.018,30.018,0,0,0,334.058,1054l2.223,5.644a8.455,8.455,0,0,0,16.007-.816l13.27-47.328Z" fill="#fab900"/>
          <path d="M344.148,1065h0a8.454,8.454,0,0,1-7.866-5.356L334.058,1054h0a30.018,30.018,0,0,1-18.637,14.119l-22.334,5.662a10.56,10.56,0,0,1-11.7-15.591l10.876-18.486,1.292-28.2,2.7.686a135.615,135.615,0,0,0,69.3-.686h0l-13.27,47.328A8.454,8.454,0,0,1,344.148,1065Z" fill="none" stroke="#fb3600" stroke-linecap="round" stroke-linejoin="round" stroke-width="4"/>
        </g>
        <path d="M327,928.706c-35.81-13.033-52.047-58.745-36.267-102.1s57.6-67.935,93.41-54.9,52.047,58.745,36.267,102.1c-7.889,21.678-22.29,38.661-39.194,48.6C381.214,922.4,356,939,327,928.706Z" fill="#a2e4fd"/>
        <ellipse cx="327.303" cy="948.489" rx="40.112" ry="33.131" transform="translate(-654.443 1155.691) rotate(-82.879)" fill="#fcfcfc"/>
        <path d="M327,928.706c-35.81-13.033-52.047-58.745-36.267-102.1s57.6-67.935,93.41-54.9,52.047,58.745,36.267,102.1c-7.889,21.678-22.29,38.661-39.194,48.6" fill="none" stroke="#fb3600" stroke-linecap="round" stroke-linejoin="round" stroke-width="4"/>
        <path d="M362,922a31,31,0,1,1-31-31" fill="#a2e4fd"/>
        <path d="M362,912a31,31,0,1,1-31-31" fill="#a2e4fd"/>
        <ellipse cx="343.37" cy="857.922" rx="56.312" ry="46.512" transform="translate(-550.5 1092.293) rotate(-82.879)" fill="#fcfcfc"/>
        <circle cx="332.5" cy="901" r="29.5" fill="#fcfcfc"/>
        <path d="M362,912a31,31,0,1,1-56-18.332" fill="none" stroke="#fb3600" stroke-linecap="round" stroke-linejoin="round" stroke-width="4"/>
        <path d="M319.494,885.511c15.99-8.133,29.084,4.585,29.084,4.585" fill="none" stroke="#fab900" stroke-linecap="round" stroke-linejoin="round" stroke-width="4"/>
      </g>
      <g>
        <ellipse cx="532.957" cy="956.698" rx="58.269" ry="70.546" transform="translate(-114.484 73.446) rotate(-7.121)" fill="#a2e4fd"/>
        <ellipse cx="532.957" cy="956.698" rx="58.269" ry="70.546" transform="translate(-114.484 73.446) rotate(-7.121)" fill="none" stroke="#fb3600" stroke-linecap="round" stroke-linejoin="round" stroke-width="4"/>
        <g>
          <path d="M575.96,1071.123a7.957,7.957,0,0,1-1.953-.25l-22.334-5.662A27.163,27.163,0,0,1,534.9,1052.5a3,3,0,0,0-2.6-1.5c-.074,0-.147,0-.222.008a3,3,0,0,0-2.57,1.892l-2.224,5.645a5.455,5.455,0,0,1-10.327-.527l-11.868-42.331a138.63,138.63,0,0,0,64.881-.377l1.123,24.531a3.016,3.016,0,0,0,.411,1.384l10.876,18.487a7.348,7.348,0,0,1,.071,7.551A7.546,7.546,0,0,1,575.96,1071.123Z" fill="#fb3600"/>
          <path d="M567.138,1019.051l.959,20.928a5.987,5.987,0,0,0,.822,2.768l10.876,18.485a4.371,4.371,0,0,1,.052,4.541,4.562,4.562,0,0,1-3.887,2.35,4.959,4.959,0,0,1-1.216-.158L552.41,1062.3a24.143,24.143,0,0,1-14.911-11.3,6,6,0,0,0-5.2-3.006c-.146,0-.294.005-.442.016a6,6,0,0,0-5.142,3.785l-2.223,5.644a2.454,2.454,0,0,1-4.647-.237l-10.525-37.538a141.606,141.606,0,0,0,57.817-.619m5.661-7.551-2.7.686a135.608,135.608,0,0,1-69.3-.686l13.269,47.328a8.455,8.455,0,0,0,16.008.816L532.3,1054a30.016,30.016,0,0,0,18.637,14.119l22.334,5.662a10.915,10.915,0,0,0,2.69.342,10.577,10.577,0,0,0,9.007-15.933L574.09,1039.7l-1.291-28.2Z" fill="#fab900"/>
          <path d="M522.209,1065h0a8.454,8.454,0,0,0,7.866-5.356L532.3,1054h0a30.018,30.018,0,0,0,18.637,14.119l22.334,5.662a10.56,10.56,0,0,0,11.7-15.591L574.09,1039.7l-1.291-28.2-2.7.686a135.615,135.615,0,0,1-69.3-.686h0l13.269,47.328A8.456,8.456,0,0,0,522.209,1065Z" fill="none" stroke="#fb3600" stroke-linecap="round" stroke-linejoin="round" stroke-width="4"/>
        </g>
        <path d="M539.359,928.706c35.809-13.033,52.047-58.745,36.267-102.1s-57.6-67.935-93.411-54.9-52.046,58.745-36.267,102.1c7.89,21.678,22.29,38.661,39.194,48.6C485.142,922.4,510.357,939,539.359,928.706Z" fill="#a2e4fd"/>
        <ellipse cx="539.054" cy="948.489" rx="33.131" ry="40.112" transform="translate(-113.419 74.138) rotate(-7.121)" fill="#fcfcfc"/>
        <path d="M539.359,928.706c35.809-13.033,52.047-58.745,36.267-102.1s-57.6-67.935-93.411-54.9-52.046,58.745-36.267,102.1c7.89,21.678,22.29,38.661,39.194,48.6" fill="none" stroke="#fb3600" stroke-linecap="round" stroke-linejoin="round" stroke-width="4"/>
        <path d="M504.357,922a31,31,0,1,0,31-31" fill="#a2e4fd"/>
        <path d="M504.357,912a31,31,0,1,0,31-31" fill="#a2e4fd"/>
        <ellipse cx="522.987" cy="857.922" rx="46.512" ry="56.312" transform="translate(-102.316 71.448) rotate(-7.121)" fill="#fcfcfc"/>
        <circle cx="533.857" cy="901" r="29.5" fill="#fcfcfc"/>
        <path d="M504.357,912a31,31,0,1,0,56-18.332" fill="none" stroke="#fb3600" stroke-linecap="round" stroke-linejoin="round" stroke-width="4"/>
        <path d="M546.862,885.511c-15.99-8.133-29.084,4.585-29.084,4.585" fill="none" stroke="#fab900" stroke-linecap="round" stroke-linejoin="round" stroke-width="4"/>
      </g>
      <g>
        <g>
          <ellipse cx="547.709" cy="680.536" rx="5.513" ry="3.497" transform="translate(-277.604 394.229) rotate(-32.04)" fill="#a2e4fd"/>
          <ellipse cx="527.042" cy="718.074" rx="6.548" ry="4.153" transform="translate(-300.667 388.982) rotate(-32.04)" fill="#a2e4fd"/>
          <ellipse cx="484" cy="606" rx="35.803" ry="24" fill="#fcfcfc"/>
        </g>
        <g>
          <ellipse cx="318.226" cy="680.536" rx="3.497" ry="5.513" transform="translate(-427.471 589.255) rotate(-57.96)" fill="#a2e4fd"/>
          <ellipse cx="338.894" cy="718.074" rx="4.153" ry="6.548" transform="translate(-449.588 624.398) rotate(-57.96)" fill="#a2e4fd"/>
          <ellipse cx="381.935" cy="606" rx="35.803" ry="24" fill="#fcfcfc"/>
        </g>
      </g>
      <g>
        <g>
          <path d="M348.5,638a12.016,12.016,0,0,1-16.992,0" fill="none" stroke="#fab900" stroke-linecap="round" stroke-linejoin="round" stroke-width="4"/>
          <path d="M343.81,630.31a5.39,5.39,0,0,1-7.62,0" fill="#fcfcfc" stroke="#fb3600" stroke-linecap="round" stroke-linejoin="round" stroke-width="4"/>
        </g>
        <g>
          <path d="M534.5,638a12.016,12.016,0,0,1-16.992,0" fill="none" stroke="#fab900" stroke-linecap="round" stroke-linejoin="round" stroke-width="4"/>
          <path d="M529.81,630.31a5.39,5.39,0,0,1-7.62,0" fill="none" stroke="#fb3600" stroke-linecap="round" stroke-linejoin="round" stroke-width="4"/>
        </g>
      </g>
    </g>
    <g>
      <path d="M424.653,819.315c-17.464,0-20.319-11.669-23.625-25.18-2.572-10.511-5.231-21.379-15.861-25.248a60.968,60.968,0,0,0-20.921-3.672,70.271,70.271,0,0,0-32.727,8.476,58.129,58.129,0,0,1-2.2-15.843c0-10.636.563-17,3.536-20.163,2.792-2.971,8.62-4.13,20.786-4.13,6.088,0,13.415.265,22.69.6,14.658.529,32.9,1.188,56.666,1.188s42-.659,56.656-1.188c9.274-.335,16.6-.6,22.679-.6,12.18,0,18.009,1.159,20.8,4.131,2.976,3.165,3.54,9.529,3.54,20.162a58.124,58.124,0,0,1-2.2,15.843,70.272,70.272,0,0,0-32.728-8.476,60.969,60.969,0,0,0-20.922,3.672c-10.63,3.869-13.288,14.737-15.859,25.247-3.307,13.512-6.161,25.181-23.625,25.181Z" fill="#fb3600"/>
      <path d="M512.348,736.555c10.941,0,16.5.953,18.605,3.186,2.27,2.415,2.726,8.718,2.726,18.107a55.094,55.094,0,0,1-1.208,11.486,72.38,72.38,0,0,0-30.717-7.119,63.954,63.954,0,0,0-21.948,3.853c-12.136,4.417-15.118,16.6-17.748,27.353-3.577,14.622-6.3,22.894-20.71,22.894H424.653c-14.408,0-17.134-8.272-20.711-22.894-2.63-10.751-5.612-22.936-17.749-27.353a63.961,63.961,0,0,0-21.947-3.853,72.383,72.383,0,0,0-30.717,7.119,55.16,55.16,0,0,1-1.207-11.486c0-9.391.455-15.7,2.723-18.108,2.1-2.233,7.663-3.185,18.607-3.185,6.024,0,13.324.264,22.567.6,14.682.53,32.954,1.19,56.781,1.19s42.092-.66,56.77-1.19c9.247-.334,16.551-.6,22.577-.6h0m0-6c-15.761,0-40.517,1.788-79.348,1.788s-63.586-1.787-79.348-1.788c-24.836,0-27.33,4.436-27.33,27.293a61.2,61.2,0,0,0,3.447,20.259,68,68,0,0,1,34.477-9.892,57.949,57.949,0,0,1,19.9,3.491c21.312,7.757,5.859,50.609,40.512,50.609h16.695c34.652,0,19.2-42.852,40.51-50.609a57.963,57.963,0,0,1,19.9-3.491h0a67.986,67.986,0,0,1,34.475,9.892,61.18,61.18,0,0,0,3.448-20.259c0-22.855-2.5-27.292-27.331-27.293Z" fill="#fab900"/>
      <path d="M512.348,730.555c-15.761,0-40.517,1.788-79.348,1.788s-63.586-1.787-79.348-1.788c-24.836,0-27.33,4.436-27.33,27.293a61.18,61.18,0,0,0,3.448,20.259,67.989,67.989,0,0,1,34.476-9.892,57.949,57.949,0,0,1,19.9,3.491c21.312,7.757,5.859,50.609,40.512,50.609h16.695c34.652,0,19.2-42.852,40.51-50.609a57.959,57.959,0,0,1,19.9-3.491,67.979,67.979,0,0,1,34.476,9.892,61.155,61.155,0,0,0,3.449-20.259C539.679,734.993,537.177,730.556,512.348,730.555Z" fill="none" stroke="#fb3600" stroke-linecap="round" stroke-linejoin="round" stroke-width="4"/>
    </g>
    <path d="M376.144,443.92c-11.13-11.13-3.536-43.84-3.536-43.84s32.711-7.595,43.841,3.535a28.371,28.371,0,0,1,7.472,13.125" fill="none" stroke="#fb3600" stroke-linecap="round" stroke-linejoin="round" stroke-width="4"/>
    <polyline points="402.757 500 402.757 485.222 390.038 476" fill="none" stroke="#fb3600" stroke-linecap="round" stroke-linejoin="round" stroke-width="4"/>
    <polyline points="463.038 500 463.038 485.222 475.757 476" fill="none" stroke="#fb3600" stroke-linecap="round" stroke-linejoin="round" stroke-width="4"/>
    <path d="M448,784c0,14.359-3,21-15,21s-15-6.641-15-21,8-31,15-31S448,769.641,448,784Z" fill="#fab900"/>
    <ellipse cx="444" cy="777.5" rx="11" ry="14.5" fill="#fcfcfc"/>
    <g>
      <path d="M492.5,400c-3,24-17,21-17,33" fill="none" stroke="#fb3600" stroke-linecap="round" stroke-linejoin="round" stroke-width="4"/>
      <path d="M373.5,400c3,24,17,21,17,33" fill="none" stroke="#fb3600" stroke-linecap="round" stroke-linejoin="round" stroke-width="4"/>
    </g>
  </g>
  <g>
    <g clip-path="url(#f)">
      <g clip-path="url(#g)">
        <circle cx="-222.188" cy="938.628" r="592.071" fill="#fab900" stroke="#fb3600" stroke-miterlimit="10" stroke-width="2"/>
      </g>
    </g>
    <g>
      <rect x="659.614" y="1012.224" width="163.335" height="163.335" fill="#fab900"/>
      <rect x="659.614" y="1012.224" width="163.335" height="163.335" transform="translate(990.614 -203.772) rotate(45)" fill="#fab900"/>
      <rect x="659.614" y="1012.224" width="163.335" height="163.335" transform="translate(-355.802 357.342) rotate(-22)" fill="#fab900"/>
      <rect x="659.614" y="1012.224" width="163.335" height="163.335" transform="translate(486.346 -202.683) rotate(23)" fill="#fab900"/>
    </g>
    <g>
      <path d="M707.46,1056.794c0,1.865.024,3.824.024,5.8l9.209-.349a12.023,12.023,0,0,1,0,3.171l-9.209-.024c0,2.5-.024,5.013-.024,7.485a17.377,17.377,0,0,1-5.152,0c-.164-6.2-.187-14.013,0-19.982a101.073,101.073,0,0,1,15.947,0,20.329,20.329,0,0,1,0,4.127Z" fill="#fcfcfc"/>
      <path d="M720.89,1053.2a43.085,43.085,0,0,1,9.42-1c7.461,0,10.025,2.914,10.025,6.528,0,2.728-1.259,5.455-5.152,5.759v.4c3.24,1,4.43,6.2,5.152,7.857a12.955,12.955,0,0,1-5.665.209l-3.054-6.784h-5.5l.046,6.715a18.322,18.322,0,0,1-5.291,0C720.7,1066.656,720.7,1058.543,720.89,1053.2Zm9.373,10.049c3.614.023,4.663-1.748,4.663-3.684s-1.375-3.5-4.71-3.5a23.779,23.779,0,0,0-4.033.42l-.047,6.738Z" fill="#fcfcfc"/>
      <path d="M743.6,1052.9a83.976,83.976,0,0,1,16.414,0,18.758,18.758,0,0,1,0,3.964l-11.262-.514c.024,1.866.024,3.615.024,5.387l8.859-.141a8.117,8.117,0,0,1,0,2.612l-8.859-.14c0,1.8,0,3.521-.024,5.339l11.262-.489a18.758,18.758,0,0,1,0,3.964,85.89,85.89,0,0,1-16.414,0C743.439,1066.679,743.415,1058.869,743.6,1052.9Z" fill="#fcfcfc"/>
      <path d="M763.864,1052.9a83.976,83.976,0,0,1,16.414,0,18.893,18.893,0,0,1,0,3.964l-11.262-.514c.023,1.866.023,3.615.023,5.387l8.86-.141a8.175,8.175,0,0,1,0,2.612l-8.86-.14c0,1.8,0,3.521-.023,5.339l11.262-.489a18.893,18.893,0,0,1,0,3.964,85.89,85.89,0,0,1-16.414,0C763.7,1066.679,763.677,1058.869,763.864,1052.9Z" fill="#fcfcfc"/>
      <path d="M689.006,1090.836c0-5.969,3.264-10.656,10.212-10.656a26.487,26.487,0,0,1,7.555.933,27.185,27.185,0,0,1,0,4.757c-6.715-1.446-12.451-1.26-12.544,4.966.093,6.318,5.829,6.435,12.544,5.012a27.185,27.185,0,0,1,0,4.757,26.648,26.648,0,0,1-7.555.933C692.293,1101.538,689.006,1096.875,689.006,1090.836Z" fill="#fcfcfc"/>
      <path d="M709.688,1091c0-6.272,3.683-10.748,11.284-10.748,7.624,0,11.332,4.476,11.332,10.748,0,6.132-3.708,10.539-11.332,10.539C713.371,1101.538,709.688,1097.131,709.688,1091Zm11.378,5.689c3.544,0,6.108-1.8,6.108-5.759,0-3.94-2.564-5.829-6.155-5.829-3.707,0-6.2,1.889-6.2,5.829C714.817,1094.892,717.359,1096.688,721.066,1096.688Z" fill="#fcfcfc"/>
      <path d="M737.644,1080.88a27.408,27.408,0,0,1,8.277,0l3.055,14.689h.536l3.03-14.689a27.415,27.415,0,0,1,8.278,0c1.236,6.575,2.214,13.337,3.054,19.912a13.814,13.814,0,0,1-5.945.116l-1.726-15.971h-1.049l-3.451,15.924a9.849,9.849,0,0,1-4.942,0l-3.428-15.924h-1.049l-1.725,15.971a13.925,13.925,0,0,1-5.969-.116C735.452,1094.217,736.432,1087.455,737.644,1080.88Z" fill="#fcfcfc"/>
      <path d="M766.978,1080.88a18.487,18.487,0,0,1,5.315,0c.187,6.855.187,13.1,0,19.981a18.416,18.416,0,0,1-5.315,0C766.814,1093.983,766.814,1087.735,766.978,1080.88Z" fill="#fcfcfc"/>
      <path d="M775.581,1090.836c0-5.969,3.264-10.656,10.212-10.656a26.463,26.463,0,0,1,7.554.933,26.8,26.8,0,0,1,0,4.757c-6.715-1.446-12.45-1.26-12.543,4.966.093,6.318,5.828,6.435,12.543,5.012a26.8,26.8,0,0,1,0,4.757,26.63,26.63,0,0,1-7.554.933C778.868,1101.538,775.581,1096.875,775.581,1090.836Z" fill="#fcfcfc"/>
      <path d="M685.1,1108.86a18.487,18.487,0,0,1,5.315,0c.187,6.856.187,13.1,0,19.982a18.487,18.487,0,0,1-5.315,0C684.937,1121.964,684.937,1115.716,685.1,1108.86Z" fill="#fcfcfc"/>
      <path d="M694.287,1108.86a23.25,23.25,0,0,1,5.689,0l8.067,14.036h.513V1108.86a19.331,19.331,0,0,1,5.176,0c.164,6.575.164,13.407,0,19.982a23.426,23.426,0,0,1-5.712,0l-8.044-14.082h-.536v14.082a19.081,19.081,0,0,1-5.153,0C694.124,1122.267,694.124,1115.435,694.287,1108.86Z" fill="#fcfcfc"/>
      <path d="M717.558,1128.586a23.2,23.2,0,0,1,0-4.757,20.958,20.958,0,0,0,8.067,1.4c3.66-.023,5.5-1.352,4.9-5.619-10.888.653-13.5.489-13.5-4.826,0-3.707,2.168-6.622,9.722-6.622a57.21,57.21,0,0,1,8.394.886,23.423,23.423,0,0,1,0,4.78,20.158,20.158,0,0,0-8.02-1.4c-3.615.023-5.433,1.329-4.781,5.642,10.772-.63,13.5-.559,13.5,4.8,0,3.707-2.285,6.645-9.862,6.645A54.98,54.98,0,0,1,717.558,1128.586Z" fill="#fcfcfc"/>
      <path d="M739.125,1108.86a18.494,18.494,0,0,1,5.316,0c.186,6.856.186,13.1,0,19.982a18.494,18.494,0,0,1-5.316,0C738.962,1121.964,738.962,1115.716,739.125,1108.86Z" fill="#fcfcfc"/>
      <path d="M748.335,1109.07a39.277,39.277,0,0,1,8.6-.862c7.6,0,11.215,4.9,11.215,10.655,0,5.735-3.59,10.632-11.285,10.632-3.777,0-7.927-.536-8.534-1.026C748.126,1122.034,748.126,1115.388,748.335,1109.07Zm8.511,15.692c4.15,0,6.2-2.541,6.2-5.922s-2.1-5.9-6.2-5.9a19.668,19.668,0,0,0-3.73.443c-.071,3.637-.071,7.3,0,10.935A19.668,19.668,0,0,0,756.846,1124.762Z" fill="#fcfcfc"/>
      <path d="M771.419,1108.86a83.976,83.976,0,0,1,16.414,0,18.758,18.758,0,0,1,0,3.964l-11.261-.513c.023,1.866.023,3.615.023,5.386l8.859-.14a8.117,8.117,0,0,1,0,2.612l-8.859-.14c0,1.8,0,3.521-.023,5.339l11.261-.489a18.749,18.749,0,0,1,0,3.963,85.808,85.808,0,0,1-16.414,0C771.255,1122.64,771.233,1114.829,771.419,1108.86Z" fill="#fcfcfc"/>
      <path d="M791.564,1127.233c0-1.539,1.166-2.191,2.937-2.191s2.985.652,2.985,2.191c0,1.563-1.212,2.238-2.985,2.238S791.564,1128.8,791.564,1127.233Zm.28-18.978a21.469,21.469,0,0,1,5.479,0l-.373,15.061h-4.733Z" fill="#fcfcfc"/>
    </g>
    <g clip-path="url(#h)">
      <g clip-path="url(#i)">
        <circle cx="1054.963" cy="-402.461" r="592.071" fill="#fab900" stroke="#fb3600" stroke-miterlimit="10" stroke-width="2"/>
      </g>
    </g>
  </g>
  <g>
    <path d="M284.933,1143.554a28.174,28.174,0,0,1,8.521,0l3.144,15.122h.553l3.12-15.122a28.168,28.168,0,0,1,8.52,0c1.273,6.769,2.281,13.73,3.145,20.5a14.247,14.247,0,0,1-6.121.12l-1.776-16.443h-1.08l-3.552,16.394a10.153,10.153,0,0,1-5.089,0l-3.529-16.394h-1.08l-1.775,16.443a14.358,14.358,0,0,1-6.145-.12C282.677,1157.284,283.685,1150.323,284.933,1143.554Z" fill="#fab900"/>
    <path d="M335.527,1164.053a21.967,21.967,0,0,1-6.265.239l-1.128-4.992h-6.768l-1.129,4.992a21.966,21.966,0,0,1-6.265-.239c2.089-6.961,4.1-13.8,6.481-20.5a42.839,42.839,0,0,1,8.593,0C331.422,1150.251,333.414,1157.092,335.527,1164.053Zm-7.969-7.345-2.112-9.314H324.03l-2.089,9.314Z" fill="#fab900"/>
    <path d="M338.38,1143.77a40.365,40.365,0,0,1,8.858-.887c7.824,0,11.545,5.04,11.545,10.968,0,5.9-3.7,10.946-11.618,10.946-3.888,0-8.161-.553-8.785-1.057C338.164,1157.116,338.164,1150.275,338.38,1143.77Zm8.761,16.154c4.272,0,6.385-2.617,6.385-6.1s-2.16-6.072-6.385-6.072a20.25,20.25,0,0,0-3.84.456c-.072,3.744-.072,7.512,0,11.257A20.25,20.25,0,0,0,347.141,1159.924Z" fill="#fab900"/>
    <path d="M362.14,1143.554a86.567,86.567,0,0,1,16.9,0,19.2,19.2,0,0,1,0,4.081l-11.592-.529c.024,1.921.024,3.721.024,5.545l9.12-.143a8.353,8.353,0,0,1,0,2.687l-9.12-.143c0,1.847,0,3.624-.024,5.5l11.592-.5a19.188,19.188,0,0,1,0,4.08,88.241,88.241,0,0,1-16.9,0C361.972,1157.74,361.949,1149.7,362.14,1143.554Z" fill="#fab900"/>
    <path d="M391.468,1143.554a19.081,19.081,0,0,1,5.473,0c.192,7.057.192,13.49,0,20.57a19.009,19.009,0,0,1-5.473,0C391.3,1157.044,391.3,1150.611,391.468,1143.554Z" fill="#fab900"/>
    <path d="M400.924,1143.554a23.823,23.823,0,0,1,5.857,0l8.3,14.45h.529v-14.45a19.8,19.8,0,0,1,5.328,0c.168,6.769.168,13.8,0,20.57a24.108,24.108,0,0,1-5.881,0l-8.28-14.5h-.553v14.5a19.626,19.626,0,0,1-5.3,0C400.756,1157.355,400.756,1150.323,400.924,1143.554Z" fill="#fab900"/>
    <path d="M453.8,1164.053a21.957,21.957,0,0,1-6.264.239l-1.128-4.992h-6.769l-1.128,4.992a21.967,21.967,0,0,1-6.265-.239c2.089-6.961,4.105-13.8,6.481-20.5a42.839,42.839,0,0,1,8.593,0C449.694,1150.251,451.686,1157.092,453.8,1164.053Zm-7.969-7.345-2.111-9.314H442.3l-2.088,9.314Z" fill="#fab900"/>
    <path d="M458.98,1143.554a28.167,28.167,0,0,1,8.52,0l3.145,15.122h.552l3.12-15.122a28.168,28.168,0,0,1,8.52,0c1.273,6.769,2.281,13.73,3.145,20.5a14.243,14.243,0,0,1-6.12.12l-1.777-16.443h-1.08l-3.553,16.394a10.146,10.146,0,0,1-5.087,0l-3.529-16.394h-1.08l-1.776,16.443a14.358,14.358,0,0,1-6.145-.12C456.723,1157.284,457.732,1150.323,458.98,1143.554Z" fill="#fab900"/>
    <path d="M489.171,1143.554a86.577,86.577,0,0,1,16.9,0,19.464,19.464,0,0,1,0,4.081l-11.593-.529c.023,1.921.023,3.721.023,5.545l9.121-.143a8.41,8.41,0,0,1,0,2.687l-9.121-.143c0,1.847,0,3.624-.023,5.5l11.593-.5a19.455,19.455,0,0,1,0,4.08,88.252,88.252,0,0,1-16.9,0C489,1157.74,488.979,1149.7,489.171,1143.554Z" fill="#fab900"/>
    <path d="M510.051,1143.866a44.455,44.455,0,0,1,9.7-1.031c7.681,0,10.322,3,10.322,6.719,0,2.809-1.3,5.618-5.3,5.929v.408c3.336,1.033,4.561,6.385,5.3,8.089a13.354,13.354,0,0,1-5.833.216l-3.145-6.984h-5.664l.048,6.912a18.837,18.837,0,0,1-5.448,0C509.859,1157.716,509.859,1149.363,510.051,1143.866Zm9.649,10.346c3.72.023,4.8-1.8,4.8-3.793s-1.417-3.6-4.848-3.6a24.516,24.516,0,0,0-4.153.432l-.048,6.936Z" fill="#fab900"/>
    <path d="M533.427,1143.554a19.081,19.081,0,0,1,5.473,0c.191,7.057.191,13.49,0,20.57a19.009,19.009,0,0,1-5.473,0C533.259,1157.044,533.259,1150.611,533.427,1143.554Z" fill="#fab900"/>
    <path d="M542.283,1153.8c0-6.145,3.359-10.969,10.512-10.969a27.238,27.238,0,0,1,7.777.96,27.8,27.8,0,0,1,0,4.9c-6.913-1.488-12.818-1.3-12.913,5.113.1,6.5,6,6.624,12.913,5.16a27.8,27.8,0,0,1,0,4.9,27.453,27.453,0,0,1-7.777.96C545.666,1164.82,542.283,1160.019,542.283,1153.8Z" fill="#fab900"/>
    <path d="M584.572,1164.053a21.96,21.96,0,0,1-6.264.239l-1.129-4.992H570.41l-1.127,4.992a21.964,21.964,0,0,1-6.265-.239c2.089-6.961,4.1-13.8,6.48-20.5a42.839,42.839,0,0,1,8.593,0C580.468,1150.251,582.46,1157.092,584.572,1164.053Zm-7.969-7.345-2.111-9.314h-1.417l-2.088,9.314Z" fill="#fab900"/>
  </g>
</svg>
