<svg xmlns="http://www.w3.org/2000/svg" width="176" height="176" viewBox="0 0 176 176">
  <title>sticker-01</title>
  <g>
    <path d="M148.763,94.68h0a9.446,9.446,0,0,0,0-13.36l-.091-.091a9.449,9.449,0,0,1-2.053-10.283l.049-.118a9.448,9.448,0,0,0-5.132-12.336h0a9.448,9.448,0,0,1-5.845-8.734h0a9.448,9.448,0,0,0-9.448-9.448h-.128a9.448,9.448,0,0,1-8.723-5.818l-.049-.119a9.448,9.448,0,0,0-12.352-5.094h0a9.448,9.448,0,0,1-10.31-2.042h0a9.446,9.446,0,0,0-13.36,0l-.091.091a9.447,9.447,0,0,1-10.282,2.053l-.119-.049a9.448,9.448,0,0,0-12.336,5.132h0a9.448,9.448,0,0,1-8.734,5.845h0a9.448,9.448,0,0,0-9.448,9.448v.128a9.448,9.448,0,0,1-5.818,8.723l-.119.049A9.448,9.448,0,0,0,29.279,71.01h0a9.448,9.448,0,0,1-2.042,10.31h0a9.446,9.446,0,0,0,0,13.36l.091.091a9.448,9.448,0,0,1,2.053,10.283l-.049.118a9.448,9.448,0,0,0,5.132,12.336h0a9.448,9.448,0,0,1,5.845,8.734h0a9.448,9.448,0,0,0,9.448,9.448h.128a9.448,9.448,0,0,1,8.723,5.818l.049.119a9.449,9.449,0,0,0,12.352,5.094h0a9.448,9.448,0,0,1,10.31,2.042h0a9.446,9.446,0,0,0,13.36,0l.091-.091a9.447,9.447,0,0,1,10.282-2.053l.119.049a9.448,9.448,0,0,0,12.336-5.132h0a9.448,9.448,0,0,1,8.734-5.845h0a9.448,9.448,0,0,0,9.448-9.448v-.128a9.448,9.448,0,0,1,5.818-8.723l.119-.05a9.447,9.447,0,0,0,5.094-12.351h0A9.448,9.448,0,0,1,148.763,94.68Z" fill="#000001"/>
    <g>
      <path d="M73.192,70.653c-.734-2.708-1.259-4.829-1.742-6.8-.23-.945-.21-1.575-.672-1.575-.4,0-.525,1.26-.986,2.918-.3,1.071-.5,2.016-.672,2.772-.189.9-.043,1.176.5,1.428a1.114,1.114,0,0,1,.692,1.259c-.21,1.365-.819,1.617-3.107,1.617-2.751,0-3.632-.21-3.339-1.68a1.772,1.772,0,0,1,1.26-1.343c.693-.273.945-.5,1.617-2.583a42.145,42.145,0,0,0,1.2-4.556c.273-1.218.209-1.659-.5-1.911a1.1,1.1,0,0,1-.714-1.343c.168-1.26.945-1.575,3.906-1.575,2.666-.021,3.695.21,3.736,2.057a40.3,40.3,0,0,0,.967,4.746c.377,1.763.356,2.372.756,2.372.44,0,.44-.567.756-1.743.23-.8.42-1.217.756-2.687.251-1.008.4-1.491-.336-1.911A1.11,1.11,0,0,1,76.7,58.77c.21-1.3,1.155-1.533,3.192-1.533,2.372,0,3.023.252,2.771,1.617a1.749,1.749,0,0,1-1.176,1.406c-.84.42-.944.588-2.015,4.871-.714,2.856-1.092,5-1.218,5.921-.126.987-.672,1.344-1.994,1.344C73.655,72.4,73.487,71.745,73.192,70.653Z" fill="#fab900"/>
      <path d="M81.763,64.312c.776-3.947,3.758-7.684,9.07-7.285,4.408.357,6.571,3.317,5.983,7.6-.713,5.354-3.967,8.294-9.406,7.769C83.19,71.976,80.859,68.869,81.763,64.312Zm10.728.9c.42-2.561-.105-4.556-2.246-4.871-2.435-.336-3.863,1.827-4.326,4.22-.482,2.373.189,4.221,2.289,4.515C90.706,69.436,92.071,67.714,92.491,65.215Z" fill="#fab900"/>
      <path d="M98.771,70.548a1.713,1.713,0,0,1,1.281-1.322c.672-.252,1.071-.567,1.554-1.932.461-1.386,1.491-4.745,1.743-5.963.189-.8-.022-.9-1.03-.9-1.048,0-1.154.252-1.532,1.029-.608,1.323-1.092,1.491-2.016,1.323-1.511-.273-1.427-1.281-.524-3.15,1.07-2.267,1.406-2.435,2.582-2.435a9.4,9.4,0,0,1,1.722.315,17.942,17.942,0,0,0,3.485.252,26.7,26.7,0,0,0,3.506-.273,12.4,12.4,0,0,1,1.891-.21c1.132.063,1.364.336,1.574,3.086.168,2.2-.19,2.5-1.449,2.751-.819.168-1.407-.1-1.617-1.617-.126-.945-.126-1.113-1.239-1.113s-1.3.252-1.637,1.386c-.567,1.806-1.659,5.123-1.89,6.152-.231.987-.063,1.26.379,1.491.482.273.9.5.8,1.3-.189,1.3-1.133,1.554-3.968,1.554C99.275,72.27,98.456,72.081,98.771,70.548Z" fill="#fab900"/>
      <path d="M70.526,82.636c-.02,1.281-.041,2.54-.041,3.8.924.021,1.869-.021,2.94-.084v3.4c-1.071-.021-2.016,0-2.94,0,0,2.436.041,4.893.105,7.349H67c.252-6.005.252-11.989,0-17.994h6.908V82.7C73.3,82.636,71.745,82.615,70.526,82.636Z" fill="#fab900"/>
      <path d="M75.147,93.68c.063-3.57.063-7.475,0-11.128a3.348,3.348,0,0,1,3.318-3.612h2.141a3.348,3.348,0,0,1,3.318,3.612c-.064,3.653-.064,7.558,0,11.128a3.342,3.342,0,0,1-3.318,3.59H78.465A3.342,3.342,0,0,1,75.147,93.68Zm5.459.336c.084-3.927.084-7.874,0-11.8H78.465c-.084,3.926-.084,7.873,0,11.8Z" fill="#fab900"/>
      <path d="M85.186,93.68c.063-3.57.063-7.475,0-11.128A3.348,3.348,0,0,1,88.5,78.94h2.142a3.348,3.348,0,0,1,3.317,3.612c-.063,3.653-.063,7.558,0,11.128a3.342,3.342,0,0,1-3.317,3.59H88.5A3.341,3.341,0,0,1,85.186,93.68Zm5.459.336c.084-3.927.084-7.874,0-11.8H88.5c-.084,3.926-.084,7.873,0,11.8Z" fill="#fab900"/>
      <path d="M95.329,79.108h5.438a3.351,3.351,0,0,1,3.337,3.57c-.083,3.59-.083,7.369,0,10.855a3.351,3.351,0,0,1-3.337,3.569H95.329C95.581,91.1,95.581,85.113,95.329,79.108Zm5.438,14.74c.105-3.822.105-7.664,0-11.485H98.625c-.063,3.821-.063,7.663,0,11.485Z" fill="#fab900"/>
      <path d="M105.556,79.108H109c-.084,4.284-.42,8.567-.631,12.85h-2.183C106.038,87.675,105.724,83.392,105.556,79.108Zm.168,14.551h3.064a9.443,9.443,0,0,1,0,3.443h-3.064A11.823,11.823,0,0,1,105.724,93.659Z" fill="#fab900"/>
    </g>
  </g>
</svg>
