<svg xmlns="http://www.w3.org/2000/svg" width="176" height="176" viewBox="0 0 176 176">
  <title>sticker-01</title>
  <g>
    <path d="M148.763,94.68h0a9.446,9.446,0,0,0,0-13.36l-.091-.091a9.449,9.449,0,0,1-2.053-10.283l.049-.118a9.448,9.448,0,0,0-5.132-12.336h0a9.448,9.448,0,0,1-5.845-8.734h0a9.448,9.448,0,0,0-9.448-9.448h-.128a9.448,9.448,0,0,1-8.723-5.818l-.049-.119a9.448,9.448,0,0,0-12.352-5.094h0a9.448,9.448,0,0,1-10.31-2.042h0a9.446,9.446,0,0,0-13.36,0l-.091.091a9.447,9.447,0,0,1-10.282,2.053l-.119-.049a9.448,9.448,0,0,0-12.336,5.132h0a9.448,9.448,0,0,1-8.734,5.845h0a9.448,9.448,0,0,0-9.448,9.448v.128a9.448,9.448,0,0,1-5.818,8.723l-.119.049A9.448,9.448,0,0,0,29.279,71.01h0a9.448,9.448,0,0,1-2.042,10.31h0a9.446,9.446,0,0,0,0,13.36l.091.091a9.448,9.448,0,0,1,2.053,10.283l-.049.118a9.448,9.448,0,0,0,5.132,12.336h0a9.448,9.448,0,0,1,5.845,8.734h0a9.448,9.448,0,0,0,9.448,9.448h.128a9.448,9.448,0,0,1,8.723,5.818l.049.119a9.449,9.449,0,0,0,12.352,5.094h0a9.448,9.448,0,0,1,10.31,2.042h0a9.446,9.446,0,0,0,13.36,0l.091-.091a9.447,9.447,0,0,1,10.282-2.053l.119.049a9.448,9.448,0,0,0,12.336-5.132h0a9.448,9.448,0,0,1,8.734-5.845h0a9.448,9.448,0,0,0,9.448-9.448v-.128a9.448,9.448,0,0,1,5.818-8.723l.119-.05a9.447,9.447,0,0,0,5.094-12.351h0A9.448,9.448,0,0,1,148.763,94.68Z" fill="#000001"/>
    <g>
      <path d="M68.113,57.636c-.021,1.281-.043,2.54-.043,3.8.924.021,1.869-.021,2.94-.084v3.4c-1.071-.021-2.016,0-2.94,0,0,2.436.043,4.893.106,7.349h-3.59c.252-6.005.252-11.989,0-17.994h6.906V57.7C70.885,57.636,69.33,57.615,68.113,57.636Z" fill="#fab900"/>
      <path d="M72.732,68.68c.065-3.57.065-7.475,0-11.128a3.349,3.349,0,0,1,3.319-3.612h2.14a3.349,3.349,0,0,1,3.319,3.612c-.063,3.653-.063,7.558,0,11.128a3.343,3.343,0,0,1-3.319,3.59h-2.14A3.343,3.343,0,0,1,72.732,68.68Zm5.459.336c.084-3.927.084-7.874,0-11.8h-2.14c-.084,3.926-.084,7.873,0,11.8Z" fill="#fab900"/>
      <path d="M93,72.1H88.65l-1.259-7.873-.567-4.914h-.568q-.061,6.395.084,12.787H82.877q.378-8.976,0-17.994h4.262l1.511,8.441.483,4.367h.547c.062-4.262.019-8.545-.149-12.808H93Q92.777,63.116,93,72.1Z" fill="#fab900"/>
      <path d="M99.611,57.573c-.062,4.829-.062,9.742.065,14.529H96.105c.19-4.808.231-9.7.147-14.529-.734.021-1.49.084-2.287.147V54.108h7.83V57.72C101.02,57.657,100.305,57.594,99.611,57.573Z" fill="#fab900"/>
      <path d="M106.08,72.228a3.389,3.389,0,0,1-3.34-3.569c.022-.777.022-2.184.022-2.94h3.254c-.02.945-.02,2.52-.063,3.444.651.021,1.639.021,2.268,0,.021-.861.043-2.352.043-3.129l-4.18-3.065a3.784,3.784,0,0,1-1.428-3.024V57.531a3.447,3.447,0,0,1,3.319-3.591c.713,0,1.406.021,2.121.021a3.462,3.462,0,0,1,3.338,3.591c-.022.756-.022,2.162-.022,2.9h-3.254c.022-.924.022-2.288.063-3.254h-2.268c-.021.9-.041,2.183-.041,2.96L110.09,63.2a3.8,3.8,0,0,1,1.406,3.044l.022,2.415a3.331,3.331,0,0,1-3.319,3.59Z" fill="#fab900"/>
      <path d="M73.193,95.653c-.734-2.708-1.259-4.829-1.742-6.8-.23-.945-.211-1.575-.672-1.575-.4,0-.525,1.26-.986,2.918-.3,1.071-.5,2.016-.672,2.772-.189.9-.043,1.176.5,1.428a1.114,1.114,0,0,1,.691,1.259c-.209,1.365-.818,1.617-3.107,1.617-2.75,0-3.631-.21-3.338-1.68a1.77,1.77,0,0,1,1.26-1.343c.693-.273.945-.5,1.617-2.583a42.386,42.386,0,0,0,1.2-4.556c.272-1.218.209-1.659-.5-1.911a1.1,1.1,0,0,1-.714-1.343c.168-1.26.945-1.575,3.906-1.575,2.666-.021,3.7.21,3.736,2.057a40.3,40.3,0,0,0,.967,4.746c.377,1.763.355,2.372.756,2.372.439,0,.439-.567.756-1.743.23-.8.42-1.217.756-2.687.251-1.008.4-1.491-.336-1.911A1.111,1.111,0,0,1,76.7,83.77c.211-1.3,1.156-1.533,3.192-1.533,2.373,0,3.023.252,2.771,1.617a1.745,1.745,0,0,1-1.176,1.406c-.84.42-.943.588-2.015,4.871-.713,2.856-1.092,5-1.217,5.921-.127.987-.672,1.344-1.994,1.344C73.656,97.4,73.488,96.745,73.193,95.653Z" fill="#fab900"/>
      <path d="M81.764,89.312c.775-3.947,3.757-7.684,9.07-7.285,4.408.357,6.57,3.317,5.982,7.6C96.1,94.981,92.85,97.921,87.41,97.4,83.191,96.976,80.859,93.869,81.764,89.312Zm10.728.9c.42-2.561-.105-4.556-2.246-4.871-2.435-.336-3.863,1.827-4.326,4.22-.482,2.373.189,4.221,2.289,4.515C90.707,94.436,92.072,92.714,92.492,90.215Z" fill="#fab900"/>
      <path d="M98.771,95.548a1.717,1.717,0,0,1,1.282-1.322c.672-.252,1.07-.567,1.554-1.932.461-1.386,1.491-4.745,1.743-5.963.189-.8-.022-.9-1.03-.9-1.049,0-1.154.252-1.533,1.029-.607,1.323-1.092,1.491-2.016,1.323-1.511-.273-1.427-1.281-.523-3.15,1.07-2.267,1.406-2.435,2.582-2.435a9.393,9.393,0,0,1,1.721.315,17.953,17.953,0,0,0,3.486.252,26.728,26.728,0,0,0,3.506-.273,12.4,12.4,0,0,1,1.891-.21c1.132.063,1.363.336,1.574,3.086.168,2.2-.19,2.5-1.449,2.751-.819.168-1.407-.105-1.618-1.617-.125-.945-.125-1.113-1.238-1.113s-1.3.252-1.637,1.386c-.568,1.806-1.66,5.123-1.89,6.152-.231.987-.063,1.26.379,1.491.482.273.9.5.8,1.3-.19,1.3-1.133,1.554-3.969,1.554C99.275,97.27,98.457,97.081,98.771,95.548Z" fill="#fab900"/>
      <path d="M70.527,107.636c-.021,1.281-.041,2.54-.041,3.8.924.021,1.868-.021,2.94-.084v3.4c-1.072-.021-2.016,0-2.94,0,0,2.436.041,4.893.1,7.349H67c.252-6.005.252-11.989,0-17.994h6.908V107.7C73.3,107.636,71.746,107.615,70.527,107.636Z" fill="#fab900"/>
      <path d="M75.148,118.68c.063-3.57.063-7.475,0-11.128a3.348,3.348,0,0,1,3.317-3.612h2.142a3.348,3.348,0,0,1,3.317,3.612c-.063,3.653-.063,7.558,0,11.128a3.341,3.341,0,0,1-3.317,3.59H78.465A3.341,3.341,0,0,1,75.148,118.68Zm5.459.336c.084-3.927.084-7.874,0-11.8H78.465c-.084,3.926-.084,7.873,0,11.8Z" fill="#fab900"/>
      <path d="M85.186,118.68c.064-3.57.064-7.475,0-11.128A3.348,3.348,0,0,1,88.5,103.94h2.141a3.349,3.349,0,0,1,3.318,3.612c-.063,3.653-.063,7.558,0,11.128a3.342,3.342,0,0,1-3.318,3.59H88.5A3.342,3.342,0,0,1,85.186,118.68Zm5.459.336c.084-3.927.084-7.874,0-11.8H88.5c-.084,3.926-.084,7.873,0,11.8Z" fill="#fab900"/>
      <path d="M95.33,104.108h5.438a3.352,3.352,0,0,1,3.337,3.57c-.084,3.59-.084,7.369,0,10.855a3.352,3.352,0,0,1-3.337,3.569H95.33C95.582,116.1,95.582,110.113,95.33,104.108Zm5.438,14.74c.105-3.822.105-7.664,0-11.485H98.625c-.063,3.821-.063,7.663,0,11.485Z" fill="#fab900"/>
      <path d="M105.557,104.108H109c-.084,4.284-.42,8.567-.631,12.85h-2.183C106.039,112.675,105.725,108.392,105.557,104.108Zm.168,14.551h3.064a9.443,9.443,0,0,1,0,3.443h-3.064A11.823,11.823,0,0,1,105.725,118.659Z" fill="#fab900"/>
    </g>
  </g>
</svg>
