<svg xmlns="http://www.w3.org/2000/svg" width="512" height="512" viewBox="0 0 512 512">
  <title>bg-pattern-light</title>
  <g>
    <rect width="512" height="512" fill="#fcfcfc"/>
    <g>
      <path d="M504.458,463.347l-31.615-8.471a14.992,14.992,0,0,0-18.364,10.6,15.246,15.246,0,0,0-.385,1.939,14.961,14.961,0,0,0-11.148,21.3,11.353,11.353,0,0,0,1.138,17.587A24.993,24.993,0,0,0,439.106,512h29.206a9.347,9.347,0,0,0-1.881-.91,24.741,24.741,0,0,0-8.075-1.388,19.953,19.953,0,0,0-3.332.279,13.729,13.729,0,0,1-.377-3.19,19.435,19.435,0,0,1,.714-5.016,2,2,0,0,0-3.864-1.035h0a25.012,25.012,0,0,0-.729,3.966l-1.992-.534a7.375,7.375,0,1,1,3.818-14.247l4.214,1.129-1.636,6.105c.43.037.857.062,1.284.062a15,15,0,0,0,14.474-11.116L469,485.587l1.932.517c.058-.218.1-.437.153-.655l25.613,6.863.518-1.931-.518,1.931a15.023,15.023,0,0,0,3.417.5,20.477,20.477,0,0,1-6.32,11.218,2,2,0,0,0-.279,2.662A9.967,9.967,0,0,1,495.168,512h3.988a14.836,14.836,0,0,0-1.4-5.965,14.943,14.943,0,0,0,9.41-10.221l-1.932-.517,1.932.517a14.987,14.987,0,0,0,.515-3.888c0-.294-.02-.584-.037-.875A14.741,14.741,0,0,0,512,487.53v-19.4A14.925,14.925,0,0,0,504.458,463.347Z" fill="#f8f8f8"/>
      <path d="M475.566,496.658a2,2,0,1,0,1.415,2.45A2,2,0,0,0,475.566,496.658Z" fill="#f8f8f8"/>
      <path d="M487,499.721a2,2,0,1,0,1.414,2.449A2,2,0,0,0,487,499.721Z" fill="#f8f8f8"/>
      <path d="M482.341,502.688a2,2,0,0,0-3.94.695l.817,4.632a2,2,0,0,0,3.939-.695Z" fill="#f8f8f8"/>
      <path d="M480.374,493.287a2,2,0,0,0-1.415-2.449l-3.42-.917a2,2,0,1,0-1.035,3.864l3.421.917A2,2,0,0,0,480.374,493.287Z" fill="#f8f8f8"/>
      <path d="M490.389,493.9l-3.42-.916a2,2,0,1,0-1.035,3.864l3.42.916a2,2,0,1,0,1.035-3.864Z" fill="#f8f8f8"/>
      <path d="M317.366,496.469a1.964,1.964,0,0,0-.291-.315l-15.316-13.4V465.66a10,10,0,0,0-10-10H270.8l-17.721-15.506a2,2,0,0,0-2.634,0L232.722,455.66H211.759a10,10,0,0,0-10,10v17.092l-15.318,13.4a2,2,0,0,0-.682,1.506v10a2,2,0,0,0,.682,1.5L189.682,512h6.074l-6-5.248v-4.685L201.11,512h4.649V465.66a6,6,0,0,1,6-6h80a6,6,0,0,1,6,6V512h4.648l11.352-9.933v4.685l-6,5.248h6.073l3.24-2.835a1.994,1.994,0,0,0,.684-1.5v-10a2.014,2.014,0,0,0-.046-.426A1.991,1.991,0,0,0,317.366,496.469ZM201.759,497.66v9.592L190.8,497.66l10.963-9.593Zm37.037-42,12.963-11.343,12.963,11.343Zm62.963,51.592V488.067l10.963,9.593Z" fill="#f8f8f8"/>
      <path d="M257.759,499.658a5.972,5.972,0,0,1,1.757-4.241,2,2,0,0,0-2.828-2.828,9.954,9.954,0,0,0-2.724,5.071h-4.41a9.962,9.962,0,0,0-2.724-5.071A2,2,0,1,0,244,495.417a5.974,5.974,0,0,1,1.757,4.242h0A5.972,5.972,0,0,1,244,503.9a2,2,0,1,0,2.828,2.828,9.963,9.963,0,0,0,2.724-5.07h4.41a9.948,9.948,0,0,0,2.724,5.07,2,2,0,0,0,2.828-2.828h0a5.971,5.971,0,0,1-1.757-4.24v0Z" fill="#f8f8f8"/>
      <path d="M229.759,479.66a10,10,0,1,0,10,10A10,10,0,0,0,229.759,479.66Zm-3,5a2,2,0,1,1-2,2A2,2,0,0,1,226.759,484.66Zm3,11c-2.762,0-5-1.791-5-4s2.238,0,5,0,5-2.209,5,0S232.521,495.66,229.759,495.66Zm3-7a2,2,0,1,1,2-2A2,2,0,0,1,232.759,488.66Z" fill="#f8f8f8"/>
      <path d="M273.759,479.66a10,10,0,1,0,10,10A10,10,0,0,0,273.759,479.66Zm-3,5a2,2,0,1,1-2,2A2,2,0,0,1,270.759,484.66Zm3,11c-2.762,0-5-1.791-5-4s2.238,0,5,0,5-2.209,5,0S276.521,495.66,273.759,495.66Zm3-7a2,2,0,1,1,2-2A2,2,0,0,1,276.759,488.66Z" fill="#f8f8f8"/>
      <path d="M0,468.132v19.4a14.932,14.932,0,0,0,3.06-5.82,15.029,15.029,0,0,0,.514-3.888,15.005,15.005,0,0,0-3.046-9.047C.361,468.554.18,468.344,0,468.132Z" fill="#f8f8f8"/>
      <path d="M72.283,464.635h-61a2,2,0,0,0-2,2v35.738a2,2,0,0,0,2,2H16.1l-1.825,4.813L13.208,512H24.017l9.024-7.627H72.283a2,2,0,0,0,2-2V466.635a2,2,0,0,0-2-2ZM35.016,489.519a2,2,0,0,1-4,0v-7.6a2,2,0,0,1,4,0ZM52.548,485.9a1.991,1.991,0,0,0,0,3.975,2,2,0,0,1-2,2H40.965a2,2,0,0,1-2-2l.017-.176-.017-.176v-7.6l.014-.133.016-.165a2.085,2.085,0,0,1,.069-.291l.027-.109,2.358-6.333a2,2,0,1,1,3.748,1.4l-1.353,3.635h6.7a4.758,4.758,0,0,0,2,5.974Z" fill="#f8f8f8"/>
      <path d="M510.962,317.089a8.685,8.685,0,0,0,.571,3.052A10.95,10.95,0,0,0,512,321.17v-8.1c-.14.263-.268.529-.381.8A8.316,8.316,0,0,0,510.962,317.089Z" fill="#f8f8f8"/>
      <path d="M499.24,160.008c-16.4.006-37-2.522-46.467-4.2l-.088-.013a11.618,11.618,0,0,0-3.047-.456,8.156,8.156,0,0,0-2.321.323,6.881,6.881,0,0,0-2.148,1.068A7.216,7.216,0,0,0,442.751,160a11.255,11.255,0,0,0-.669,4.021,27.313,27.313,0,0,0,2.423,10.187,53.865,53.865,0,0,0,5.23,9.448c-1.051,1.564-2.044,3.158-2.926,4.8A56.69,56.69,0,0,0,440,215.165a46.608,46.608,0,0,0,9.018,28.231c-.263.23-.539.445-.8.683-5.247,4.853-9.06,11.226-11.674,18.753a103.577,103.577,0,0,0-7.957,7.492,72.582,72.582,0,0,0-6.654,7.958,37.767,37.767,0,0,0-3.79,6.53q-2.73-1.013-5.24-1.79a55.789,55.789,0,0,0-16.227-2.858,24.946,24.946,0,0,0-7.731,1.1,14.3,14.3,0,0,0-7.524,5.327,13.442,13.442,0,0,0-2.346,7.753,16.984,16.984,0,0,0,1.811,7.513,16.1,16.1,0,0,0,4.885,5.879c.1.072.2.131.3.2-5.725,1.612-8.9,3.387-8.9,5.25,0,6.749,41.549,12.331,95.6,13.262-3.644,19.8,8.179,45.143,39.225,51.414v-7.625a50.6,50.6,0,0,1-5.46-2.9c-6.656-4.056-13.034-10.909-17.653-18.664-4.636-7.747-7.5-16.39-7.482-23.83a24.341,24.341,0,0,1,1.02-7.211,17.682,17.682,0,0,1,5.628-8.526,25.807,25.807,0,0,1,11.9-5.186,2.68,2.68,0,0,0-1.015-5.263,34.642,34.642,0,0,0-10.326,3.606,25.025,25.025,0,0,0-4.914,3.557c-.4.1-.8.207-1.206.308-8.213,2.055-16.87,3.724-23.46,4.876-3.3.576-6.074,1.023-8.027,1.325-.976.151-1.746.267-2.27.344l-.6.087-.2.028a2.612,2.612,0,0,0-.7.2l-6.475,2.842-.026.012a15.378,15.378,0,0,1-6.352,1.207,29.716,29.716,0,0,1-5.895-.657,13.257,13.257,0,0,0,3.275-.958c4.17-1.882,2.611-8.6-.693-13.749a131.37,131.37,0,0,0-19.75-8.221,50.585,50.585,0,0,0-14.642-2.619,18.606,18.606,0,0,0-6.793,1.1,8.89,8.89,0,0,0-3.689,2.544,2.663,2.663,0,0,1-1.692.932,10.321,10.321,0,0,1-.067-1.075,8.61,8.61,0,0,1,.609-3.263,7.63,7.63,0,0,1,3.465-3.815,16.543,16.543,0,0,1,8.167-1.746,50.558,50.558,0,0,1,14.642,2.62,135.768,135.768,0,0,1,21.734,9.222,2.673,2.673,0,0,0,3.131-.494,66.524,66.524,0,0,1,5.549-4.767c.605-.444,1.214-.884,1.814-1.3,1.093-.766,2.146-1.461,2.985-1.95l.041-.024a61.132,61.132,0,0,1,8.891-4.232,139.466,139.466,0,0,1,48.932-9.173,44.312,44.312,0,0,1,7.6,4.754v-9.545a18.372,18.372,0,0,0-2.981-.485l-.1,0q-2.238-.081-4.456-.079a145.36,145.36,0,0,0-36.914,4.963,128.676,128.676,0,0,0-14.061,4.586,66.446,66.446,0,0,0-9.66,4.611l-.021.013-.02.011h0c-1.1.647-2.317,1.459-3.552,2.328-2.307,1.627-4.671,3.452-6.147,4.616-1.008-.608-2.4-1.415-3.97-2.23a44.672,44.672,0,0,0-5.082-2.288c-.536-.2-1.074-.368-1.612-.525a34.516,34.516,0,0,1,2.879-4.766,76.037,76.037,0,0,1,9.207-10.407c1.433-1.374,2.691-2.5,3.586-3.275.446-.388.8-.689,1.044-.891.121-.1.212-.177.274-.227l.066-.055.018-.014a2.693,2.693,0,0,0,.857-1.237q.474-1.414,1-2.753c6.763-2.655,16.431-3.763,28.85-3.991a56.1,56.1,0,0,0,11.253,2.158,2.679,2.679,0,1,0,.483-5.337,46.755,46.755,0,0,1-16.729-4.519,36.171,36.171,0,0,1-15.678-14.874,42.537,42.537,0,0,1-5.183-20.794,51.513,51.513,0,0,1,24.363-43.5,2.676,2.676,0,0,0-1.9-4.91c-1.238-1.4-2.5-2.7-3.77-3.878a302,302,0,0,0,35.187,2.489h3.543c2.983,0,6.082-.083,9.217-.223v-5.363c-3.149.144-6.252.227-9.217.226Z" fill="#f8f8f8"/>
      <path d="M512,7.051V.852L511.868.7A1.993,1.993,0,0,0,510.548,0h-.438a1.983,1.983,0,0,0-1.06.458l-1.991,1.681-.223-.116A16.9,16.9,0,0,0,503.1.791a21.749,21.749,0,0,0-2.386-.352c-.614-.056-1.108-.09-1.54-.119,0-.108-.018-.213-.022-.32h-3.988c.009.2.02.407.02.614a12.928,12.928,0,0,1-3.13,8.534,11.473,11.473,0,0,1-4.083,2.921c-.141-.212-.276-.425-.432-.63a16.327,16.327,0,0,0-3.689-3.54,16.77,16.77,0,0,0-3.473-1.837,21.835,21.835,0,0,0-2.294-.746c-1.1-.293-1.826-.443-2.476-.611a19.465,19.465,0,0,1-3.134-1.06c-.5-.216-1.067-.482-1.706-.814A5.866,5.866,0,0,0,469.387.818,7,7,0,0,0,468.312,0H439.106a24.06,24.06,0,0,0-3.359,8.367,19.566,19.566,0,0,0-.386,3.733,13.956,13.956,0,0,0,.089,1.562,26.176,26.176,0,0,0-1.242,7.981,18.913,18.913,0,0,0,2.149,9.263,15.293,15.293,0,0,0,4.162,4.8c.252.192.512.373.775.551-.276.682-.6,1.426-.943,2.191a2,2,0,0,0-1.854,1.24l-2.85,6.951a2,2,0,0,0,1.092,2.609l3.929,1.61c-.859.047-1.688.1-2.479.146-3.3.215-5.978.468-7.909.763a16.679,16.679,0,0,0-2.4.509,4.321,4.321,0,0,0-1.02.453,2.556,2.556,0,0,0-.638.573,2.174,2.174,0,0,0,0,2.7,2.457,2.457,0,0,0,.621.561,4.1,4.1,0,0,0,.96.44,14.3,14.3,0,0,0,2.034.462c1.4.234,3.235.44,5.473.624,6.7.551,16.981.9,28.535.9,10,0,19.057-.262,25.652-.689,3.3-.214,5.979-.467,7.909-.762a16.666,16.666,0,0,0,2.4-.509,4.315,4.315,0,0,0,1.019-.453,2.538,2.538,0,0,0,.639-.573,2.174,2.174,0,0,0,0-2.7,2.511,2.511,0,0,0-.621-.561,4.138,4.138,0,0,0-.96-.44,14.345,14.345,0,0,0-2.033-.462c-1.4-.235-3.237-.44-5.474-.624-2.035-.167-4.4-.316-7.033-.442l4.882-1.521a2,2,0,0,0,1.314-2.5l-.695-2.231A7.175,7.175,0,0,0,484,39.475a6.788,6.788,0,0,0-.789.059l-.019-.033c-.7-1.168-1.4-2.31-2.022-3.375-.153-.261-.3-.517-.44-.765a15.278,15.278,0,0,0,3.169-3.523,15.832,15.832,0,0,0,1.826-3.968,11.926,11.926,0,0,0,3.455-4.837c.975.24,1.9.429,2.768.585l4.757,5.633,0,0,2,2.366a2,2,0,0,0,2.819.237L512,23.006V11.949l-4.312-5.106L510.1,4.8ZM476.1,35.137c.4.868,1.034,2.035,1.738,3.229.439.75.9,1.508,1.355,2.264l-15.15,4.721a1.958,1.958,0,0,0-.5.249l-.081-.146c.316-.773.634-1.58.936-2.438a32.232,32.232,0,0,0,1-3.369,19.782,19.782,0,0,0,.561-4.534c0-.3-.008-.615-.028-.956l-3.993.236c.015.254.021.493.021.72a16.009,16.009,0,0,1-.48,3.725,29.431,29.431,0,0,1-.917,3.03c-.522,1.455-1.105,2.834-1.654,4.074-.179-.091-.35-.192-.539-.27l-14.254-5.843c.291-.651.577-1.3.835-1.935.367-.894.674-1.736.848-2.331a6.653,6.653,0,0,0,.165-.653q0-.309.016-.614l-.136-.056a12.663,12.663,0,0,1-5.572-4.578,14.375,14.375,0,0,1-2.064-8.019c0-.529.025-1.051.062-1.569a13.631,13.631,0,0,0,3.068,2.467,30.01,30.01,0,0,0,7.889,3.041c2.939.761,6.147,1.362,9.472,2.009,4.109.8,7.526,1.475,10.414,1.957a57.636,57.636,0,0,0,5.724.723,12.064,12.064,0,0,0,5.035.29,11.7,11.7,0,0,1-2.008,1.967,14.786,14.786,0,0,1-2.417,1.453A7.967,7.967,0,0,1,476.1,35.137Zm6.737-10.064a8,8,0,0,1-10.313-.536c-.168-.042-.366-.09-.6-.144-.653-.156-1.532-.363-2.564-.659a39.4,39.4,0,0,1-3.844-1.326,19.546,19.546,0,0,0,1.757-3.6c.52-1.336,1-2.763,1.514-4.213.575-1.617,1.17-3.178,1.639-4.688a21.57,21.57,0,0,0,.629-2.523l.464.194a26.215,26.215,0,0,0,4.057,1.232,24.581,24.581,0,0,1,3.341.972,12.856,12.856,0,0,1,2.651,1.4,12.306,12.306,0,0,1,2.784,2.675A8,8,0,0,1,482.841,25.073Zm15.626.069-5.182-6.136,2.74-2.314,5.183,6.136Zm-5.941-10.731c.027-.14.059-.271.084-.413A15.431,15.431,0,0,0,496.9,9.235,16.92,16.92,0,0,0,498.786,4.3l.048,0a24.417,24.417,0,0,1,3.456.4c.41.085.856.2,1.32.344Z" fill="#f8f8f8"/>
      <path d="M480.968,4.493a2,2,0,0,0,1.414-3.414,2,2,0,0,0-2.828,2.829A2.012,2.012,0,0,0,480.968,4.493Z" fill="#f8f8f8"/>
      <path d="M506.775,283.8a2.679,2.679,0,0,0-3.79,0l-1.974,1.974-1.975-1.974a2.68,2.68,0,1,0-3.789,3.79l1.974,1.974-1.974,1.974a2.68,2.68,0,1,0,3.789,3.79l1.975-1.974,1.974,1.974a2.68,2.68,0,1,0,3.79-3.79l-1.974-1.974,1.974-1.974A2.679,2.679,0,0,0,506.775,283.8Z" fill="#f8f8f8"/>
      <path d="M506.824,255.344a2.68,2.68,0,1,0,.456-5.34q-2.838-.243-5.855-.712a2.73,2.73,0,0,0-.827,0q-3.036.476-5.891.715a2.68,2.68,0,0,0,.455,5.341c1.9-.162,3.853-.4,5.849-.7C503,254.946,504.936,255.183,506.824,255.344Z" fill="#f8f8f8"/>
      <path d="M505.061,202.625a2.109,2.109,0,0,1-.979-.815,2.4,2.4,0,0,1-.391-1.313V195.19a2.68,2.68,0,1,0-5.36,0V200.5a2.4,2.4,0,0,1-.391,1.313,2.109,2.109,0,0,1-.979.815,6.263,6.263,0,0,1-2.357.416,25.953,25.953,0,0,1-7.095-1.557,31.246,31.246,0,0,0-9.12-1.794,14.393,14.393,0,0,0-6.352,1.417,17.924,17.924,0,0,0-6.021,4.95,2.68,2.68,0,1,0,4.148,3.394,12.4,12.4,0,0,1,1.335-1.4,12.878,12.878,0,0,0,12.949,19.055,16.8,16.8,0,0,1-3,2.044,2.68,2.68,0,0,0,2.516,4.733,22.248,22.248,0,0,0,8.515-8.005,22,22,0,0,0,2.509-5.87l3.342,3.342v5.735a6.048,6.048,0,0,1-.685,2.47,19.685,19.685,0,0,1-2.8,4.111c-.485.563-.923,1.028-1.234,1.345-.155.158-.279.28-.36.358l-.089.086-.019.018A2.68,2.68,0,1,0,496.8,241.4a31.456,31.456,0,0,0,3.333-3.743c.3-.392.593-.815.886-1.252a30.281,30.281,0,0,0,4.212,5,2.679,2.679,0,0,0,3.648-3.925,26.919,26.919,0,0,1-2.771-3.137,16.759,16.759,0,0,1-1.75-2.828,6.017,6.017,0,0,1-.663-2.425v-5.754l3.338-3.339A21.791,21.791,0,0,0,512,229.146v-12.54a7.574,7.574,0,0,1,0-4.627v-9.743a17.445,17.445,0,0,1-4.581.805A6.264,6.264,0,0,1,505.061,202.625Zm-24.923,18.739a7.556,7.556,0,0,1,0-14.142Zm8.03-1.72a7.6,7.6,0,0,1-2.671,1.72V207.222a7.561,7.561,0,0,1,2.671,12.422ZM501,218.44l-4.458-4.457a8.776,8.776,0,0,0,2.4-.577,7.363,7.363,0,0,0,2.067-1.26,7.33,7.33,0,0,0,2.064,1.259,8.715,8.715,0,0,0,2.386.575Z" fill="#f8f8f8"/>
      <path d="M492.473,198.246a2.68,2.68,0,0,0,1.492-3.484l-2.233-5.582a2.68,2.68,0,1,0-4.976,1.99l2.233,5.583A2.681,2.681,0,0,0,492.473,198.246Z" fill="#f8f8f8"/>
      <path d="M510.29,189.18l-2.232,5.582A2.675,2.675,0,0,0,512,198V187.623A2.667,2.667,0,0,0,510.29,189.18Z" fill="#f8f8f8"/>
      <path d="M201.759,24.568V37.66a10,10,0,0,0,10,10h16.39l20.975,18.352a4,4,0,0,0,5.268,0l0,0L275.368,47.66h16.391a10,10,0,0,0,10-10V24.568l13.6-11.9a4,4,0,0,0,0-6.021l-4.56-3.99L313.835,0h-6.073l-6,5.252V.567L302.407,0h-4.648V1.66A5.971,5.971,0,0,1,296,5.9a5.971,5.971,0,0,1-4.242,1.758h-80A5.969,5.969,0,0,1,207.517,5.9a5.967,5.967,0,0,1-1.758-4.242V0H201.11l.649.567V5.252l-6-5.252h-6.074l3.04,2.659-4.561,3.99a4,4,0,0,0,0,6.021Zm50,24.434L227.367,27.66h5.355l17.719,15.505a2,2,0,0,0,2.634,0L270.8,27.66h5.354ZM238.8,27.66h25.926L251.759,39Zm58.963,6a6,6,0,0,1-6,6H277.32l1-4h13.439a2,2,0,0,0,2-2v-6.2a9.934,9.934,0,0,0,4-1.812Zm-92-24.014a9.928,9.928,0,0,0,4,1.812v6.2a2,2,0,0,0,2,2h80a2,2,0,0,0,2-2v-6.2a9.934,9.934,0,0,0,4-1.812V17.66a6,6,0,0,1-6,6h-80a6,6,0,0,1-6-6Zm0,16a9.928,9.928,0,0,0,4,1.812v6.2a2,2,0,0,0,2,2H224.72l.8,4H211.759a6,6,0,0,1-6-6Z" fill="#f8f8f8"/>
      <path d="M195.7,259.362a5,5,0,0,0-1.19.529,2.907,2.907,0,0,0-.737.66,2.565,2.565,0,0,0-.371.648,2.468,2.468,0,0,0,0,1.808,2.636,2.636,0,0,0,.746,1.041,3.887,3.887,0,0,0,1.2.674,13.952,13.952,0,0,0,2.352.585c1.62.287,3.778.537,6.435.763,7.954.673,20.348,1.1,34.307,1.1,11.894,0,22.659-.312,30.5-.819,3.923-.255,7.106-.556,9.4-.906a19.911,19.911,0,0,0,2.845-.6,5,5,0,0,0,1.19-.529,2.905,2.905,0,0,0,.736-.66,2.6,2.6,0,0,0,.372-.648,2.489,2.489,0,0,0,0-1.808,2.627,2.627,0,0,0-.748-1.041,3.852,3.852,0,0,0-1.2-.674,13.857,13.857,0,0,0-2.352-.585c-.546-.1-1.175-.188-1.842-.277a6.72,6.72,0,0,0,.036-5.057h0l-3.926-9.99c0-.112.009-.22.009-.333,0-.321-.033-.634-.046-.952a18.646,18.646,0,0,0,3.933-2.915,17.85,17.85,0,0,0,5.337-12.775,17.644,17.644,0,0,0-5.932-13.25,35.333,35.333,0,0,0-2.455-5.224,13.669,13.669,0,0,0-2.127-2.812,6.677,6.677,0,0,0-1.462-1.1,4.585,4.585,0,0,0-1.973-.57l-.165,0a3.794,3.794,0,0,0-1.542.339,5.956,5.956,0,0,0-1.783,1.3,14.137,14.137,0,0,0-1.805,2.367c-.194.307-.371.608-.537.9-.772,0-1.571.047-2.383.115a13.661,13.661,0,0,0-1.144-1.267,12.251,12.251,0,0,0-6.149-3.316,2.284,2.284,0,0,0-1.568.248,8.731,8.731,0,0,0-2.608,2.231,10.273,10.273,0,0,0-1.863,3.958,14.354,14.354,0,0,0-.388,3.365c0,.209.006.4.013.579a15.578,15.578,0,0,0-3.437,5.675,20.477,20.477,0,0,0-.66,2.367,21.63,21.63,0,0,0-6.212,4.615,23.5,23.5,0,0,0-6.282,16.125c0,.553.042,1.08.079,1.61-.068.115-.141.227-.2.344a12.4,12.4,0,0,0-1.293,3.859c-.4,0-.817-.011-1.213-.011h-.1c-6.724,0-12.75.243-17.117.484-2.194.121-3.97.243-5.206.335-.618.046-1.1.084-1.432.112l-.383.032-.1.009-.027,0H203.2a6.858,6.858,0,0,0-6.247,6.827c0,.2.009.411.028.621a6.9,6.9,0,0,0,.315,1.508A14.773,14.773,0,0,0,195.7,259.362Zm77.19-2.013a2.292,2.292,0,0,1-1.9,1.013,2.29,2.29,0,0,1-2.13-1.451l-.215-.55a6.928,6.928,0,0,0-.417-1.667h0l-3.789-9.639c.745-.078,1.471-.18,2.174-.313l2.062-.811,4.443,11.307h0a2.274,2.274,0,0,1,.16.836A2.312,2.312,0,0,1,272.888,257.349Zm-38.769-9.98a6.6,6.6,0,0,1,3.083-2.851,2.286,2.286,0,0,0-1.98-4.122l-.219.114a18.758,18.758,0,0,1,4.832-10.264,17.53,17.53,0,0,1,2.366-2.092,2.286,2.286,0,0,0,4.517-.5,18.08,18.08,0,0,1,.965-5.992,10.6,10.6,0,0,1,2.982-4.571,2.293,2.293,0,0,0,.771-2.072h0l-.01-.075a9.417,9.417,0,0,1-.056-1.068,9.122,9.122,0,0,1,.5-3.084,5.164,5.164,0,0,1,.773-1.413,4.141,4.141,0,0,1,.541-.569,8.018,8.018,0,0,1,2.993,1.852,9.021,9.021,0,0,1,.979,1.129c.106.144.181.258.225.328l.043.069,0,.007h0a2.288,2.288,0,0,0,2.279,1.136,25.185,25.185,0,0,1,3.246-.216c.4,0,.79.01,1.173.03a2.287,2.287,0,0,0,2.157-1.249,19.521,19.521,0,0,1,1.668-2.763,5.8,5.8,0,0,1,.715-.807l.014.009a5.241,5.241,0,0,1,1.017,1.109,19.025,19.025,0,0,1,1.7,3c.515,1.1.948,2.186,1.248,3a2.277,2.277,0,0,0,.7.979,13.051,13.051,0,0,1,4.753,10.17,13.262,13.262,0,0,1-3.966,9.511c-2.665,2.6-6.727,4.473-12.595,4.544a3.854,3.854,0,0,0-2.019,4.405l4.444,11.307h0a2.277,2.277,0,0,1-.23,2.113,2.207,2.207,0,0,1-2.807.8,6.934,6.934,0,0,0,.167-1.486,6.856,6.856,0,0,0-3.917-6.19l-1.914-4.868.391-.154a11.48,11.48,0,0,0-.719-1.559,11.234,11.234,0,0,0-5.39-4.824,2.287,2.287,0,0,0-1.858,4.18,6.623,6.623,0,0,1,3.2,2.789,2.262,2.262,0,0,0,.117,1.241h0l.887,2.259.014.265h-4.465a2.287,2.287,0,1,0,0,4.573h6.79a2.287,2.287,0,0,1,0,4.574H241.879l.048-.059a9.712,9.712,0,0,1-6.272-2.469,7.915,7.915,0,0,1-2.493-5.863A9.011,9.011,0,0,1,234.119,247.369Zm-32,7.944a2.268,2.268,0,0,1,1.487-.738l.033,0c.592-.051,8.544-.738,19.117-.913a21.867,21.867,0,0,0,1.155,4.556c-8.2.107-14.975.54-18.075.77-1.183.088-1.811.145-1.822.146l-.209.009a2.285,2.285,0,0,1-2.272-2.082v0l-.009-.207A2.275,2.275,0,0,1,202.124,255.313Z" fill="#f8f8f8"/>
      <polygon points="196.982 257.47 196.982 257.468 196.982 257.466 196.982 257.47" fill="#f8f8f8"/>
      <path d="M260.884,227.224a2.287,2.287,0,1,0-2.286-2.287A2.287,2.287,0,0,0,260.884,227.224Z" fill="#f8f8f8"/>
      <path d="M269.889,227.224a2.287,2.287,0,1,0-2.287-2.287A2.288,2.288,0,0,0,269.889,227.224Z" fill="#f8f8f8"/>
      <path d="M260.646,235.052a2.285,2.285,0,0,0,3.217.322l1.585-1.3,1.253,1.187a2.287,2.287,0,1,0,3.146-3.32l-4.178-3.959-4.7,3.849A2.285,2.285,0,0,0,260.646,235.052Z" fill="#f8f8f8"/>
      <path d="M10.1,13.713a2.007,2.007,0,0,0-.465-1.458L0,.852v6.2L3.284,10.94.87,12.979,0,11.949V23.006l9.393-7.933A2.013,2.013,0,0,0,10.1,13.713Z" fill="#f8f8f8"/>
      <path d="M11.563,8.564a2,2,0,0,0,2.447-.105L24.017,0H13.208L10.849,6.223A2,2,0,0,0,11.563,8.564Z" fill="#f8f8f8"/>
      <path d="M64.559,304.918a33.657,33.657,0,0,0,4.067-3.672,39.655,39.655,0,0,0,7.123-10.835,78.518,78.518,0,0,0,6.963-32.662,79.077,79.077,0,0,0-3.415-23.5c.575-2.424,2.486-10.559,4.406-19.581,1.146-5.388,2.294-11.083,3.16-16.068.433-2.495.8-4.81,1.054-6.836a43.594,43.594,0,0,0,.414-5.164,10.654,10.654,0,0,0-1.3-5.034,13.931,13.931,0,0,0-5.323-5.366,14.957,14.957,0,0,0-7.437-2.052,12.688,12.688,0,0,0-4.343.751,12.447,12.447,0,0,0-5.7,4.29,18.9,18.9,0,0,0-3.3,8.063c-1.478,8.047-3.534,17.982-5.225,26.942-.845,4.483-1.6,8.722-2.147,12.384a67.188,67.188,0,0,0-.9,9.032,12.511,12.511,0,0,0,.176,2.287,18.542,18.542,0,0,1,.33,3.466,16.507,16.507,0,0,1-.371,3.543l-7.027,2.074c-.392-.8-.784-1.605-1.189-2.373q-.957-1.809-1.968-3.471.822-1.254,1.552-2.558a47.881,47.881,0,0,0,5.865-23.412A56.684,56.684,0,0,0,43.236,188.5c-.888-1.655-1.888-3.264-2.949-4.841a53.865,53.865,0,0,0,5.23-9.448,27.313,27.313,0,0,0,2.423-10.188,11.275,11.275,0,0,0-.669-4.02,7.209,7.209,0,0,0-2.418-3.271,6.881,6.881,0,0,0-2.148-1.068,8.154,8.154,0,0,0-2.32-.323,11.606,11.606,0,0,0-3.047.456l-.09.013A326.917,326.917,0,0,1,0,159.782v5.363c9-.4,18.286-1.3,25.992-2.269a53.8,53.8,0,0,0-3.808,3.913,2.679,2.679,0,0,0-1.8,4.928,51.038,51.038,0,0,1,18.128,19.314,51.353,51.353,0,0,1,6.152,24.134c0,9.91-3.065,19.374-9.22,26.616A36.445,36.445,0,0,1,23.8,250.833a46.734,46.734,0,0,1-16.73,4.52,2.679,2.679,0,0,0,.483,5.337h0a56.11,56.11,0,0,0,11.312-2.175c11.278.155,20.369.991,27.133,3a276.055,276.055,0,0,1,9.251,33.742c1.073,5.014,1.885,9.31,2.428,12.346.271,1.519.475,2.723.612,3.545.067.411.119.726.152.938s.05.314.05.315a2.674,2.674,0,0,0,2.326,2.251h0a26.986,26.986,0,0,1,4.209.94,17.471,17.471,0,0,1,3.214,1.321,6.746,6.746,0,0,1,2.145,1.71A4.007,4.007,0,0,1,71.221,321a3.3,3.3,0,0,1-.348,1.48,5.445,5.445,0,0,1-2.477,2.3,16.928,16.928,0,0,1-6.471,1.627c-1.1.092-2.146.135-3.137.135-4.617,0-8.028-.948-10.395-2.348a9.7,9.7,0,0,1-4.472-5.342,17.646,17.646,0,0,0-.738-1.79c-.59-1.265-1.435-2.874-2.513-4.767A158.251,158.251,0,0,0,22.6,287a76.056,76.056,0,0,0-12.274-11.347,36.089,36.089,0,0,0-6.533-3.76A23.441,23.441,0,0,0,0,270.631v9.545a35.854,35.854,0,0,1,13.989,25.991l-.473-.067-3.19-.736a2.657,2.657,0,0,0-1.92.278,25.7,25.7,0,0,0-6.92,5.284A11.765,11.765,0,0,0,0,313.075v8.1a16.2,16.2,0,0,0,2.743,3.807,62.625,62.625,0,0,0,9.223,7.482c5.31,3.75,11.29,7.736,15.918,12.212a32.681,32.681,0,0,1,5.692,7.024,17.565,17.565,0,0,1,2.449,7.719c.014.217.02.433.02.647a10.332,10.332,0,0,1-1.353,5.068,15.794,15.794,0,0,1-6.895,6.21,26.49,26.49,0,0,1-11.819,2.585A38.785,38.785,0,0,1,0,370.239v7.625a76.921,76.921,0,0,0,15.251,1.46c31.488,0,36.177-11.723,26.463-20.433-.126-.113-.259-.225-.387-.338a22.441,22.441,0,0,0-2.19-7.8,38.374,38.374,0,0,0-9.378-11.645c-5.705-5.055-12.369-9.239-17.462-13.015l-.251-.188c5.346-.214,10.515-.475,15.466-.779a79.193,79.193,0,0,0,25.543,6.3,32.907,32.907,0,0,0,5.733.478q1.724,0,3.582-.153c4.656-.393,8.118-1.616,10.551-3.543a9.92,9.92,0,0,0,2.756-3.35,8.686,8.686,0,0,0,.9-3.856,8.97,8.97,0,0,0-.187-1.773c7.642-1.815,11.952-3.867,11.952-6.039C88.346,310.067,79.459,307.2,64.559,304.918Zm-9.382-32.267a182.373,182.373,0,0,0-7.17-20.745l7.714-2.278a2.675,2.675,0,0,0,1.731-1.579,19.227,19.227,0,0,0,1.07-6.687A23.935,23.935,0,0,0,58.1,236.9a7.471,7.471,0,0,1-.081-1.226,6.485,6.485,0,0,0,5.418,4.287,11.261,11.261,0,0,0,10.693-4.274,73.51,73.51,0,0,1,3.224,22.066,73.148,73.148,0,0,1-6.481,30.439,34.317,34.317,0,0,1-6.151,9.388,28.823,28.823,0,0,1-2.961,2.729C60.316,292.977,58.114,282.913,55.177,272.651Z" fill="#f8f8f8"/>
      <path d="M6.057,233.883a2.68,2.68,0,0,0,2.516-4.733,16.849,16.849,0,0,1-3-2.044,12.917,12.917,0,0,0,12.949-19.055,12.453,12.453,0,0,1,1.334,1.4v0a2.679,2.679,0,0,0,2.32.971h0a2.68,2.68,0,0,0,1.827-4.365,17.926,17.926,0,0,0-6.022-4.95,14.39,14.39,0,0,0-6.352-1.417,31.252,31.252,0,0,0-9.12,1.794c-.87.272-1.708.526-2.513.752v9.743a7.538,7.538,0,0,1,4.525-4.757v14.142A7.536,7.536,0,0,1,0,216.606v12.54A22.227,22.227,0,0,0,6.057,233.883Zm3.828-26.661a7.556,7.556,0,0,1,0,14.142Z" fill="#f8f8f8"/>
      <path d="M1.034,196.753l2.233-5.583a2.68,2.68,0,0,0-1.494-3.483A2.655,2.655,0,0,0,0,187.623V198A2.666,2.666,0,0,0,1.034,196.753Z" fill="#f8f8f8"/>
    </g>
  </g>
</svg>
